<?xml version="1.0" encoding="UTF-8"?><svg xmlns="http://www.w3.org/2000/svg" xmlns:xlink="http://www.w3.org/1999/xlink" stroke-dasharray="none" shape-rendering="auto" font-family="'Dialog'" width="1000" text-rendering="auto" fill-opacity="1" contentScriptType="text/ecmascript" color-interpolation="auto" color-rendering="auto" preserveAspectRatio="xMidYMid meet" font-size="12" fill="black" stroke="black" image-rendering="auto" stroke-miterlimit="10" zoomAndPan="magnify" version="1.0" stroke-linecap="square" stroke-linejoin="miter" contentStyleType="text/css" font-style="normal" height="460" stroke-width="1" stroke-dashoffset="0" font-weight="normal" stroke-opacity="1">
    <!--Generated by the Batik Graphics2D SVG Generator-->
    <defs id="genericDefs"/>
    <g>
        <defs id="defs1">
            <clipPath clipPathUnits="userSpaceOnUse" id="clipPath1">
                <path d="M32 9 L981 9 L981 423 L32 423 L32 9 Z"/>
            </clipPath>
            <clipPath clipPathUnits="userSpaceOnUse" id="clipPath2">
                <path d="M-1 -1 L1001 -1 L1001 461 L-1 461 L-1 -1 Z"/>
            </clipPath>
            <clipPath clipPathUnits="userSpaceOnUse" id="clipPath3">
                <path d="M765 14 L977 14 L977 40 L765 40 L765 14 Z"/>
            </clipPath>
            <clipPath clipPathUnits="userSpaceOnUse" id="clipPath4">
                <path d="M32 421 L981 421 L981 461 L32 461 L32 421 Z"/>
            </clipPath>
        </defs>
        <g font-size="13" fill="white" text-rendering="optimizeLegibility" stroke-linejoin="round" stroke="white" stroke-width="0" stroke-miterlimit="0">
            <rect x="33" y="10" clip-path="url(#clipPath1)" width="947" height="412" stroke="none"/>
        </g>
        <g stroke-linecap="butt" font-size="13" fill="rgb(204,204,204)" text-rendering="optimizeLegibility" stroke-dasharray="3,3" stroke="rgb(204,204,204)">
            <line clip-path="url(#clipPath1)" fill="none" x1="33" x2="980" y1="422" y2="422"/>
            <line clip-path="url(#clipPath1)" fill="none" x1="33" x2="980" y1="367" y2="367"/>
            <line clip-path="url(#clipPath1)" fill="none" x1="33" x2="980" y1="313" y2="313"/>
            <line clip-path="url(#clipPath1)" fill="none" x1="33" x2="980" y1="259" y2="259"/>
            <line clip-path="url(#clipPath1)" fill="none" x1="33" x2="980" y1="204" y2="204"/>
            <line clip-path="url(#clipPath1)" fill="none" x1="33" x2="980" y1="150" y2="150"/>
            <line clip-path="url(#clipPath1)" fill="none" x1="33" x2="980" y1="96" y2="96"/>
            <line clip-path="url(#clipPath1)" fill="none" x1="33" x2="980" y1="42" y2="42"/>
            <rect x="348" y="47" clip-path="url(#clipPath1)" fill="rgb(31,119,180)" width="315" height="374" stroke="none"/>
            <rect x="348" y="47" clip-path="url(#clipPath1)" fill="none" width="315" stroke-dasharray="none" height="374" stroke="black"/>
            <rect x="33" y="10" clip-path="url(#clipPath2)" fill="none" width="947" stroke-dasharray="none" height="412" stroke="black"/>
            <line clip-path="url(#clipPath2)" fill="none" x1="34" x2="979" y1="422" y2="422" stroke-dasharray="none"/>
            <rect x="766" y="15" clip-path="url(#clipPath3)" fill="white" width="209" stroke-dasharray="none" opacity="0.7529" height="23" stroke="none"/>
            <polygon fill="rgb(31,119,180)" stroke-dasharray="none" clip-path="url(#clipPath3)" points=" 775 22 775 30 783 30 783 22" stroke="none"/>
        </g>
        <g text-rendering="optimizeLegibility" font-size="10" stroke-linecap="butt">
            <text xml:space="preserve" x="788" y="30" clip-path="url(#clipPath3)" stroke="none">Average delay in Network.node[5].app</text>
            <line clip-path="url(#clipPath2)" fill="none" x1="31" x2="31" y1="10" y2="422"/>
            <line clip-path="url(#clipPath2)" fill="none" x1="982" x2="982" y1="10" y2="422"/>
            <line clip-path="url(#clipPath2)" fill="none" x1="27" x2="31" y1="422" y2="422"/>
            <line clip-path="url(#clipPath2)" fill="none" x1="986" x2="982" y1="422" y2="422"/>
            <text xml:space="preserve" x="19" y="426" clip-path="url(#clipPath2)" stroke="none">0</text>
            <text xml:space="preserve" x="989" y="426" clip-path="url(#clipPath2)" stroke="none">0</text>
            <line clip-path="url(#clipPath2)" fill="none" x1="29" x2="31" y1="411" y2="411"/>
            <line clip-path="url(#clipPath2)" fill="none" x1="984" x2="982" y1="411" y2="411"/>
            <line clip-path="url(#clipPath2)" fill="none" x1="29" x2="31" y1="400" y2="400"/>
            <line clip-path="url(#clipPath2)" fill="none" x1="984" x2="982" y1="400" y2="400"/>
            <line clip-path="url(#clipPath2)" fill="none" x1="29" x2="31" y1="389" y2="389"/>
            <line clip-path="url(#clipPath2)" fill="none" x1="984" x2="982" y1="389" y2="389"/>
            <line clip-path="url(#clipPath2)" fill="none" x1="29" x2="31" y1="378" y2="378"/>
            <line clip-path="url(#clipPath2)" fill="none" x1="984" x2="982" y1="378" y2="378"/>
            <line clip-path="url(#clipPath2)" fill="none" x1="27" x2="31" y1="367" y2="367"/>
            <line clip-path="url(#clipPath2)" fill="none" x1="986" x2="982" y1="367" y2="367"/>
            <text xml:space="preserve" x="19" y="371" clip-path="url(#clipPath2)" stroke="none">1</text>
            <text xml:space="preserve" x="989" y="371" clip-path="url(#clipPath2)" stroke="none">1</text>
            <line clip-path="url(#clipPath2)" fill="none" x1="29" x2="31" y1="356" y2="356"/>
            <line clip-path="url(#clipPath2)" fill="none" x1="984" x2="982" y1="356" y2="356"/>
            <line clip-path="url(#clipPath2)" fill="none" x1="29" x2="31" y1="346" y2="346"/>
            <line clip-path="url(#clipPath2)" fill="none" x1="984" x2="982" y1="346" y2="346"/>
            <line clip-path="url(#clipPath2)" fill="none" x1="29" x2="31" y1="335" y2="335"/>
            <line clip-path="url(#clipPath2)" fill="none" x1="984" x2="982" y1="335" y2="335"/>
            <line clip-path="url(#clipPath2)" fill="none" x1="29" x2="31" y1="324" y2="324"/>
            <line clip-path="url(#clipPath2)" fill="none" x1="984" x2="982" y1="324" y2="324"/>
            <line clip-path="url(#clipPath2)" fill="none" x1="27" x2="31" y1="313" y2="313"/>
            <line clip-path="url(#clipPath2)" fill="none" x1="986" x2="982" y1="313" y2="313"/>
            <text xml:space="preserve" x="19" y="317" clip-path="url(#clipPath2)" stroke="none">2</text>
            <text xml:space="preserve" x="989" y="317" clip-path="url(#clipPath2)" stroke="none">2</text>
            <line clip-path="url(#clipPath2)" fill="none" x1="29" x2="31" y1="302" y2="302"/>
            <line clip-path="url(#clipPath2)" fill="none" x1="984" x2="982" y1="302" y2="302"/>
            <line clip-path="url(#clipPath2)" fill="none" x1="29" x2="31" y1="291" y2="291"/>
            <line clip-path="url(#clipPath2)" fill="none" x1="984" x2="982" y1="291" y2="291"/>
            <line clip-path="url(#clipPath2)" fill="none" x1="29" x2="31" y1="280" y2="280"/>
            <line clip-path="url(#clipPath2)" fill="none" x1="984" x2="982" y1="280" y2="280"/>
            <line clip-path="url(#clipPath2)" fill="none" x1="29" x2="31" y1="270" y2="270"/>
            <line clip-path="url(#clipPath2)" fill="none" x1="984" x2="982" y1="270" y2="270"/>
            <line clip-path="url(#clipPath2)" fill="none" x1="27" x2="31" y1="259" y2="259"/>
            <line clip-path="url(#clipPath2)" fill="none" x1="986" x2="982" y1="259" y2="259"/>
            <text xml:space="preserve" x="19" y="263" clip-path="url(#clipPath2)" stroke="none">3</text>
            <text xml:space="preserve" x="989" y="263" clip-path="url(#clipPath2)" stroke="none">3</text>
            <line clip-path="url(#clipPath2)" fill="none" x1="29" x2="31" y1="248" y2="248"/>
            <line clip-path="url(#clipPath2)" fill="none" x1="984" x2="982" y1="248" y2="248"/>
            <line clip-path="url(#clipPath2)" fill="none" x1="29" x2="31" y1="237" y2="237"/>
            <line clip-path="url(#clipPath2)" fill="none" x1="984" x2="982" y1="237" y2="237"/>
            <line clip-path="url(#clipPath2)" fill="none" x1="29" x2="31" y1="226" y2="226"/>
            <line clip-path="url(#clipPath2)" fill="none" x1="984" x2="982" y1="226" y2="226"/>
            <line clip-path="url(#clipPath2)" fill="none" x1="29" x2="31" y1="215" y2="215"/>
            <line clip-path="url(#clipPath2)" fill="none" x1="984" x2="982" y1="215" y2="215"/>
            <line clip-path="url(#clipPath2)" fill="none" x1="27" x2="31" y1="204" y2="204"/>
            <line clip-path="url(#clipPath2)" fill="none" x1="986" x2="982" y1="204" y2="204"/>
            <text xml:space="preserve" x="19" y="208" clip-path="url(#clipPath2)" stroke="none">4</text>
            <text xml:space="preserve" x="989" y="208" clip-path="url(#clipPath2)" stroke="none">4</text>
            <line clip-path="url(#clipPath2)" fill="none" x1="29" x2="31" y1="194" y2="194"/>
            <line clip-path="url(#clipPath2)" fill="none" x1="984" x2="982" y1="194" y2="194"/>
            <line clip-path="url(#clipPath2)" fill="none" x1="29" x2="31" y1="183" y2="183"/>
            <line clip-path="url(#clipPath2)" fill="none" x1="984" x2="982" y1="183" y2="183"/>
            <line clip-path="url(#clipPath2)" fill="none" x1="29" x2="31" y1="172" y2="172"/>
            <line clip-path="url(#clipPath2)" fill="none" x1="984" x2="982" y1="172" y2="172"/>
            <line clip-path="url(#clipPath2)" fill="none" x1="29" x2="31" y1="161" y2="161"/>
            <line clip-path="url(#clipPath2)" fill="none" x1="984" x2="982" y1="161" y2="161"/>
            <line clip-path="url(#clipPath2)" fill="none" x1="27" x2="31" y1="150" y2="150"/>
            <line clip-path="url(#clipPath2)" fill="none" x1="986" x2="982" y1="150" y2="150"/>
            <text xml:space="preserve" x="19" y="154" clip-path="url(#clipPath2)" stroke="none">5</text>
            <text xml:space="preserve" x="989" y="154" clip-path="url(#clipPath2)" stroke="none">5</text>
            <line clip-path="url(#clipPath2)" fill="none" x1="29" x2="31" y1="139" y2="139"/>
            <line clip-path="url(#clipPath2)" fill="none" x1="984" x2="982" y1="139" y2="139"/>
            <line clip-path="url(#clipPath2)" fill="none" x1="29" x2="31" y1="129" y2="129"/>
            <line clip-path="url(#clipPath2)" fill="none" x1="984" x2="982" y1="129" y2="129"/>
            <line clip-path="url(#clipPath2)" fill="none" x1="29" x2="31" y1="118" y2="118"/>
            <line clip-path="url(#clipPath2)" fill="none" x1="984" x2="982" y1="118" y2="118"/>
            <line clip-path="url(#clipPath2)" fill="none" x1="29" x2="31" y1="107" y2="107"/>
            <line clip-path="url(#clipPath2)" fill="none" x1="984" x2="982" y1="107" y2="107"/>
            <line clip-path="url(#clipPath2)" fill="none" x1="27" x2="31" y1="96" y2="96"/>
            <line clip-path="url(#clipPath2)" fill="none" x1="986" x2="982" y1="96" y2="96"/>
            <text xml:space="preserve" x="19" y="100" clip-path="url(#clipPath2)" stroke="none">6</text>
            <text xml:space="preserve" x="989" y="100" clip-path="url(#clipPath2)" stroke="none">6</text>
            <line clip-path="url(#clipPath2)" fill="none" x1="29" x2="31" y1="85" y2="85"/>
            <line clip-path="url(#clipPath2)" fill="none" x1="984" x2="982" y1="85" y2="85"/>
            <line clip-path="url(#clipPath2)" fill="none" x1="29" x2="31" y1="74" y2="74"/>
            <line clip-path="url(#clipPath2)" fill="none" x1="984" x2="982" y1="74" y2="74"/>
            <line clip-path="url(#clipPath2)" fill="none" x1="29" x2="31" y1="63" y2="63"/>
            <line clip-path="url(#clipPath2)" fill="none" x1="984" x2="982" y1="63" y2="63"/>
            <line clip-path="url(#clipPath2)" fill="none" x1="29" x2="31" y1="53" y2="53"/>
            <line clip-path="url(#clipPath2)" fill="none" x1="984" x2="982" y1="53" y2="53"/>
            <line clip-path="url(#clipPath2)" fill="none" x1="27" x2="31" y1="42" y2="42"/>
            <line clip-path="url(#clipPath2)" fill="none" x1="986" x2="982" y1="42" y2="42"/>
            <text xml:space="preserve" x="19" y="46" clip-path="url(#clipPath2)" stroke="none">7</text>
            <text xml:space="preserve" x="989" y="46" clip-path="url(#clipPath2)" stroke="none">7</text>
            <line clip-path="url(#clipPath2)" fill="none" x1="29" x2="31" y1="31" y2="31"/>
            <line clip-path="url(#clipPath2)" fill="none" x1="984" x2="982" y1="31" y2="31"/>
            <line clip-path="url(#clipPath2)" fill="none" x1="29" x2="31" y1="20" y2="20"/>
            <line clip-path="url(#clipPath2)" fill="none" x1="984" x2="982" y1="20" y2="20"/>
            <line clip-path="url(#clipPath4)" fill="none" x1="348" x2="663" y1="426" y2="426"/>
            <text xml:space="preserve" x="348" y="437" clip-path="url(#clipPath4)" stroke="none">Network.node[5].app</text>
            <text xml:space="preserve" x="487" y="457" clip-path="url(#clipPath4)" stroke="none">module</text>
        </g>
    </g>
</svg>
