<?xml version="1.0" encoding="utf-8" standalone="no"?>
<!DOCTYPE svg PUBLIC "-//W3C//DTD SVG 1.1//EN"
  "http://www.w3.org/Graphics/SVG/1.1/DTD/svg11.dtd">
<svg xmlns:xlink="http://www.w3.org/1999/xlink" width="826.56pt" height="378pt" viewBox="0 0 826.56 378" xmlns="http://www.w3.org/2000/svg" version="1.1">
 <metadata>
  <rdf:RDF xmlns:dc="http://purl.org/dc/elements/1.1/" xmlns:cc="http://creativecommons.org/ns#" xmlns:rdf="http://www.w3.org/1999/02/22-rdf-syntax-ns#">
   <cc:Work>
    <dc:type rdf:resource="http://purl.org/dc/dcmitype/StillImage"/>
    <dc:date>2025-06-03T22:16:17.925646</dc:date>
    <dc:format>image/svg+xml</dc:format>
    <dc:creator>
     <cc:Agent>
      <dc:title>Matplotlib v3.7.1, https://matplotlib.org/</dc:title>
     </cc:Agent>
    </dc:creator>
   </cc:Work>
  </rdf:RDF>
 </metadata>
 <defs>
  <style type="text/css">*{stroke-linejoin: round; stroke-linecap: butt}</style>
 </defs>
 <g id="figure_1">
  <g id="patch_1">
   <path d="M 0 378 
L 826.56 378 
L 826.56 0 
L 0 0 
z
" style="fill: #ffffff"/>
  </g>
  <g id="axes_1">
   <g id="patch_2">
    <path d="M 96.414063 328.95625 
L 807.1875 328.95625 
L 807.1875 30.1875 
L 96.414063 30.1875 
z
" style="fill: #e5e5e5"/>
   </g>
   <g id="matplotlib.axis_1">
    <g id="xtick_1">
     <g id="line2d_1">
      <path d="M 123.875019 328.95625 
L 123.875019 30.1875 
" clip-path="url(#p74dc7511e2)" style="fill: none; stroke: #ffffff; stroke-width: 0.8; stroke-linecap: square"/>
     </g>
     <g id="line2d_2">
      <defs>
       <path id="m3363ce579b" d="M 0 0 
L 0 3.5 
" style="stroke: #555555; stroke-width: 0.8"/>
      </defs>
      <g>
       <use xlink:href="#m3363ce579b" x="123.875019" y="328.95625" style="fill: #555555; stroke: #555555; stroke-width: 0.8"/>
      </g>
     </g>
     <g id="text_1">
      <!-- 0 -->
      <g style="fill: #555555" transform="translate(120.693769 343.554688) scale(0.1 -0.1)">
       <defs>
        <path id="DejaVuSans-30" d="M 2034 4250 
Q 1547 4250 1301 3770 
Q 1056 3291 1056 2328 
Q 1056 1369 1301 889 
Q 1547 409 2034 409 
Q 2525 409 2770 889 
Q 3016 1369 3016 2328 
Q 3016 3291 2770 3770 
Q 2525 4250 2034 4250 
z
M 2034 4750 
Q 2819 4750 3233 4129 
Q 3647 3509 3647 2328 
Q 3647 1150 3233 529 
Q 2819 -91 2034 -91 
Q 1250 -91 836 529 
Q 422 1150 422 2328 
Q 422 3509 836 4129 
Q 1250 4750 2034 4750 
z
" transform="scale(0.015625)"/>
       </defs>
       <use xlink:href="#DejaVuSans-30"/>
      </g>
     </g>
    </g>
    <g id="xtick_2">
     <g id="line2d_3">
      <path d="M 205.460583 328.95625 
L 205.460583 30.1875 
" clip-path="url(#p74dc7511e2)" style="fill: none; stroke: #ffffff; stroke-width: 0.8; stroke-linecap: square"/>
     </g>
     <g id="line2d_4">
      <g>
       <use xlink:href="#m3363ce579b" x="205.460583" y="328.95625" style="fill: #555555; stroke: #555555; stroke-width: 0.8"/>
      </g>
     </g>
     <g id="text_2">
      <!-- 25 -->
      <g style="fill: #555555" transform="translate(199.098083 343.554688) scale(0.1 -0.1)">
       <defs>
        <path id="DejaVuSans-32" d="M 1228 531 
L 3431 531 
L 3431 0 
L 469 0 
L 469 531 
Q 828 903 1448 1529 
Q 2069 2156 2228 2338 
Q 2531 2678 2651 2914 
Q 2772 3150 2772 3378 
Q 2772 3750 2511 3984 
Q 2250 4219 1831 4219 
Q 1534 4219 1204 4116 
Q 875 4013 500 3803 
L 500 4441 
Q 881 4594 1212 4672 
Q 1544 4750 1819 4750 
Q 2544 4750 2975 4387 
Q 3406 4025 3406 3419 
Q 3406 3131 3298 2873 
Q 3191 2616 2906 2266 
Q 2828 2175 2409 1742 
Q 1991 1309 1228 531 
z
" transform="scale(0.015625)"/>
        <path id="DejaVuSans-35" d="M 691 4666 
L 3169 4666 
L 3169 4134 
L 1269 4134 
L 1269 2991 
Q 1406 3038 1543 3061 
Q 1681 3084 1819 3084 
Q 2600 3084 3056 2656 
Q 3513 2228 3513 1497 
Q 3513 744 3044 326 
Q 2575 -91 1722 -91 
Q 1428 -91 1123 -41 
Q 819 9 494 109 
L 494 744 
Q 775 591 1075 516 
Q 1375 441 1709 441 
Q 2250 441 2565 725 
Q 2881 1009 2881 1497 
Q 2881 1984 2565 2268 
Q 2250 2553 1709 2553 
Q 1456 2553 1204 2497 
Q 953 2441 691 2322 
L 691 4666 
z
" transform="scale(0.015625)"/>
       </defs>
       <use xlink:href="#DejaVuSans-32"/>
       <use xlink:href="#DejaVuSans-35" x="63.623047"/>
      </g>
     </g>
    </g>
    <g id="xtick_3">
     <g id="line2d_5">
      <path d="M 287.046148 328.95625 
L 287.046148 30.1875 
" clip-path="url(#p74dc7511e2)" style="fill: none; stroke: #ffffff; stroke-width: 0.8; stroke-linecap: square"/>
     </g>
     <g id="line2d_6">
      <g>
       <use xlink:href="#m3363ce579b" x="287.046148" y="328.95625" style="fill: #555555; stroke: #555555; stroke-width: 0.8"/>
      </g>
     </g>
     <g id="text_3">
      <!-- 50 -->
      <g style="fill: #555555" transform="translate(280.683648 343.554688) scale(0.1 -0.1)">
       <use xlink:href="#DejaVuSans-35"/>
       <use xlink:href="#DejaVuSans-30" x="63.623047"/>
      </g>
     </g>
    </g>
    <g id="xtick_4">
     <g id="line2d_7">
      <path d="M 368.631712 328.95625 
L 368.631712 30.1875 
" clip-path="url(#p74dc7511e2)" style="fill: none; stroke: #ffffff; stroke-width: 0.8; stroke-linecap: square"/>
     </g>
     <g id="line2d_8">
      <g>
       <use xlink:href="#m3363ce579b" x="368.631712" y="328.95625" style="fill: #555555; stroke: #555555; stroke-width: 0.8"/>
      </g>
     </g>
     <g id="text_4">
      <!-- 75 -->
      <g style="fill: #555555" transform="translate(362.269212 343.554688) scale(0.1 -0.1)">
       <defs>
        <path id="DejaVuSans-37" d="M 525 4666 
L 3525 4666 
L 3525 4397 
L 1831 0 
L 1172 0 
L 2766 4134 
L 525 4134 
L 525 4666 
z
" transform="scale(0.015625)"/>
       </defs>
       <use xlink:href="#DejaVuSans-37"/>
       <use xlink:href="#DejaVuSans-35" x="63.623047"/>
      </g>
     </g>
    </g>
    <g id="xtick_5">
     <g id="line2d_9">
      <path d="M 450.217277 328.95625 
L 450.217277 30.1875 
" clip-path="url(#p74dc7511e2)" style="fill: none; stroke: #ffffff; stroke-width: 0.8; stroke-linecap: square"/>
     </g>
     <g id="line2d_10">
      <g>
       <use xlink:href="#m3363ce579b" x="450.217277" y="328.95625" style="fill: #555555; stroke: #555555; stroke-width: 0.8"/>
      </g>
     </g>
     <g id="text_5">
      <!-- 100 -->
      <g style="fill: #555555" transform="translate(440.673527 343.554688) scale(0.1 -0.1)">
       <defs>
        <path id="DejaVuSans-31" d="M 794 531 
L 1825 531 
L 1825 4091 
L 703 3866 
L 703 4441 
L 1819 4666 
L 2450 4666 
L 2450 531 
L 3481 531 
L 3481 0 
L 794 0 
L 794 531 
z
" transform="scale(0.015625)"/>
       </defs>
       <use xlink:href="#DejaVuSans-31"/>
       <use xlink:href="#DejaVuSans-30" x="63.623047"/>
       <use xlink:href="#DejaVuSans-30" x="127.246094"/>
      </g>
     </g>
    </g>
    <g id="xtick_6">
     <g id="line2d_11">
      <path d="M 531.802841 328.95625 
L 531.802841 30.1875 
" clip-path="url(#p74dc7511e2)" style="fill: none; stroke: #ffffff; stroke-width: 0.8; stroke-linecap: square"/>
     </g>
     <g id="line2d_12">
      <g>
       <use xlink:href="#m3363ce579b" x="531.802841" y="328.95625" style="fill: #555555; stroke: #555555; stroke-width: 0.8"/>
      </g>
     </g>
     <g id="text_6">
      <!-- 125 -->
      <g style="fill: #555555" transform="translate(522.259091 343.554688) scale(0.1 -0.1)">
       <use xlink:href="#DejaVuSans-31"/>
       <use xlink:href="#DejaVuSans-32" x="63.623047"/>
       <use xlink:href="#DejaVuSans-35" x="127.246094"/>
      </g>
     </g>
    </g>
    <g id="xtick_7">
     <g id="line2d_13">
      <path d="M 613.388406 328.95625 
L 613.388406 30.1875 
" clip-path="url(#p74dc7511e2)" style="fill: none; stroke: #ffffff; stroke-width: 0.8; stroke-linecap: square"/>
     </g>
     <g id="line2d_14">
      <g>
       <use xlink:href="#m3363ce579b" x="613.388406" y="328.95625" style="fill: #555555; stroke: #555555; stroke-width: 0.8"/>
      </g>
     </g>
     <g id="text_7">
      <!-- 150 -->
      <g style="fill: #555555" transform="translate(603.844656 343.554688) scale(0.1 -0.1)">
       <use xlink:href="#DejaVuSans-31"/>
       <use xlink:href="#DejaVuSans-35" x="63.623047"/>
       <use xlink:href="#DejaVuSans-30" x="127.246094"/>
      </g>
     </g>
    </g>
    <g id="xtick_8">
     <g id="line2d_15">
      <path d="M 694.97397 328.95625 
L 694.97397 30.1875 
" clip-path="url(#p74dc7511e2)" style="fill: none; stroke: #ffffff; stroke-width: 0.8; stroke-linecap: square"/>
     </g>
     <g id="line2d_16">
      <g>
       <use xlink:href="#m3363ce579b" x="694.97397" y="328.95625" style="fill: #555555; stroke: #555555; stroke-width: 0.8"/>
      </g>
     </g>
     <g id="text_8">
      <!-- 175 -->
      <g style="fill: #555555" transform="translate(685.43022 343.554688) scale(0.1 -0.1)">
       <use xlink:href="#DejaVuSans-31"/>
       <use xlink:href="#DejaVuSans-37" x="63.623047"/>
       <use xlink:href="#DejaVuSans-35" x="127.246094"/>
      </g>
     </g>
    </g>
    <g id="xtick_9">
     <g id="line2d_17">
      <path d="M 776.559535 328.95625 
L 776.559535 30.1875 
" clip-path="url(#p74dc7511e2)" style="fill: none; stroke: #ffffff; stroke-width: 0.8; stroke-linecap: square"/>
     </g>
     <g id="line2d_18">
      <g>
       <use xlink:href="#m3363ce579b" x="776.559535" y="328.95625" style="fill: #555555; stroke: #555555; stroke-width: 0.8"/>
      </g>
     </g>
     <g id="text_9">
      <!-- 200 -->
      <g style="fill: #555555" transform="translate(767.015785 343.554688) scale(0.1 -0.1)">
       <use xlink:href="#DejaVuSans-32"/>
       <use xlink:href="#DejaVuSans-30" x="63.623047"/>
       <use xlink:href="#DejaVuSans-30" x="127.246094"/>
      </g>
     </g>
    </g>
    <g id="text_10">
     <!-- Time -->
     <g style="fill: #555555" transform="translate(437.120469 358.7525) scale(0.12 -0.12)">
      <defs>
       <path id="DejaVuSans-54" d="M -19 4666 
L 3928 4666 
L 3928 4134 
L 2272 4134 
L 2272 0 
L 1638 0 
L 1638 4134 
L -19 4134 
L -19 4666 
z
" transform="scale(0.015625)"/>
       <path id="DejaVuSans-69" d="M 603 3500 
L 1178 3500 
L 1178 0 
L 603 0 
L 603 3500 
z
M 603 4863 
L 1178 4863 
L 1178 4134 
L 603 4134 
L 603 4863 
z
" transform="scale(0.015625)"/>
       <path id="DejaVuSans-6d" d="M 3328 2828 
Q 3544 3216 3844 3400 
Q 4144 3584 4550 3584 
Q 5097 3584 5394 3201 
Q 5691 2819 5691 2113 
L 5691 0 
L 5113 0 
L 5113 2094 
Q 5113 2597 4934 2840 
Q 4756 3084 4391 3084 
Q 3944 3084 3684 2787 
Q 3425 2491 3425 1978 
L 3425 0 
L 2847 0 
L 2847 2094 
Q 2847 2600 2669 2842 
Q 2491 3084 2119 3084 
Q 1678 3084 1418 2786 
Q 1159 2488 1159 1978 
L 1159 0 
L 581 0 
L 581 3500 
L 1159 3500 
L 1159 2956 
Q 1356 3278 1631 3431 
Q 1906 3584 2284 3584 
Q 2666 3584 2933 3390 
Q 3200 3197 3328 2828 
z
" transform="scale(0.015625)"/>
       <path id="DejaVuSans-65" d="M 3597 1894 
L 3597 1613 
L 953 1613 
Q 991 1019 1311 708 
Q 1631 397 2203 397 
Q 2534 397 2845 478 
Q 3156 559 3463 722 
L 3463 178 
Q 3153 47 2828 -22 
Q 2503 -91 2169 -91 
Q 1331 -91 842 396 
Q 353 884 353 1716 
Q 353 2575 817 3079 
Q 1281 3584 2069 3584 
Q 2775 3584 3186 3129 
Q 3597 2675 3597 1894 
z
M 3022 2063 
Q 3016 2534 2758 2815 
Q 2500 3097 2075 3097 
Q 1594 3097 1305 2825 
Q 1016 2553 972 2059 
L 3022 2063 
z
" transform="scale(0.015625)"/>
      </defs>
      <use xlink:href="#DejaVuSans-54"/>
      <use xlink:href="#DejaVuSans-69" x="57.958984"/>
      <use xlink:href="#DejaVuSans-6d" x="85.742188"/>
      <use xlink:href="#DejaVuSans-65" x="183.154297"/>
     </g>
    </g>
   </g>
   <g id="matplotlib.axis_2">
    <g id="ytick_1">
     <g id="line2d_19">
      <path d="M 96.414063 316.858336 
L 807.1875 316.858336 
" clip-path="url(#p74dc7511e2)" style="fill: none; stroke: #ffffff; stroke-width: 0.8; stroke-linecap: square"/>
     </g>
     <g id="line2d_20">
      <defs>
       <path id="m86cad65beb" d="M 0 0 
L -3.5 0 
" style="stroke: #555555; stroke-width: 0.8"/>
      </defs>
      <g>
       <use xlink:href="#m86cad65beb" x="96.414063" y="316.858336" style="fill: #555555; stroke: #555555; stroke-width: 0.8"/>
      </g>
     </g>
     <g id="text_11">
      <!-- 0 -->
      <g style="fill: #555555" transform="translate(83.051563 320.657555) scale(0.1 -0.1)">
       <use xlink:href="#DejaVuSans-30"/>
      </g>
     </g>
    </g>
    <g id="ytick_2">
     <g id="line2d_21">
      <path d="M 96.414063 279.799946 
L 807.1875 279.799946 
" clip-path="url(#p74dc7511e2)" style="fill: none; stroke: #ffffff; stroke-width: 0.8; stroke-linecap: square"/>
     </g>
     <g id="line2d_22">
      <g>
       <use xlink:href="#m86cad65beb" x="96.414063" y="279.799946" style="fill: #555555; stroke: #555555; stroke-width: 0.8"/>
      </g>
     </g>
     <g id="text_12">
      <!-- 25 -->
      <g style="fill: #555555" transform="translate(76.689063 283.599165) scale(0.1 -0.1)">
       <use xlink:href="#DejaVuSans-32"/>
       <use xlink:href="#DejaVuSans-35" x="63.623047"/>
      </g>
     </g>
    </g>
    <g id="ytick_3">
     <g id="line2d_23">
      <path d="M 96.414063 242.741556 
L 807.1875 242.741556 
" clip-path="url(#p74dc7511e2)" style="fill: none; stroke: #ffffff; stroke-width: 0.8; stroke-linecap: square"/>
     </g>
     <g id="line2d_24">
      <g>
       <use xlink:href="#m86cad65beb" x="96.414063" y="242.741556" style="fill: #555555; stroke: #555555; stroke-width: 0.8"/>
      </g>
     </g>
     <g id="text_13">
      <!-- 50 -->
      <g style="fill: #555555" transform="translate(76.689063 246.540775) scale(0.1 -0.1)">
       <use xlink:href="#DejaVuSans-35"/>
       <use xlink:href="#DejaVuSans-30" x="63.623047"/>
      </g>
     </g>
    </g>
    <g id="ytick_4">
     <g id="line2d_25">
      <path d="M 96.414063 205.683166 
L 807.1875 205.683166 
" clip-path="url(#p74dc7511e2)" style="fill: none; stroke: #ffffff; stroke-width: 0.8; stroke-linecap: square"/>
     </g>
     <g id="line2d_26">
      <g>
       <use xlink:href="#m86cad65beb" x="96.414063" y="205.683166" style="fill: #555555; stroke: #555555; stroke-width: 0.8"/>
      </g>
     </g>
     <g id="text_14">
      <!-- 75 -->
      <g style="fill: #555555" transform="translate(76.689063 209.482385) scale(0.1 -0.1)">
       <use xlink:href="#DejaVuSans-37"/>
       <use xlink:href="#DejaVuSans-35" x="63.623047"/>
      </g>
     </g>
    </g>
    <g id="ytick_5">
     <g id="line2d_27">
      <path d="M 96.414063 168.624776 
L 807.1875 168.624776 
" clip-path="url(#p74dc7511e2)" style="fill: none; stroke: #ffffff; stroke-width: 0.8; stroke-linecap: square"/>
     </g>
     <g id="line2d_28">
      <g>
       <use xlink:href="#m86cad65beb" x="96.414063" y="168.624776" style="fill: #555555; stroke: #555555; stroke-width: 0.8"/>
      </g>
     </g>
     <g id="text_15">
      <!-- 100 -->
      <g style="fill: #555555" transform="translate(70.326563 172.423995) scale(0.1 -0.1)">
       <use xlink:href="#DejaVuSans-31"/>
       <use xlink:href="#DejaVuSans-30" x="63.623047"/>
       <use xlink:href="#DejaVuSans-30" x="127.246094"/>
      </g>
     </g>
    </g>
    <g id="ytick_6">
     <g id="line2d_29">
      <path d="M 96.414063 131.566386 
L 807.1875 131.566386 
" clip-path="url(#p74dc7511e2)" style="fill: none; stroke: #ffffff; stroke-width: 0.8; stroke-linecap: square"/>
     </g>
     <g id="line2d_30">
      <g>
       <use xlink:href="#m86cad65beb" x="96.414063" y="131.566386" style="fill: #555555; stroke: #555555; stroke-width: 0.8"/>
      </g>
     </g>
     <g id="text_16">
      <!-- 125 -->
      <g style="fill: #555555" transform="translate(70.326563 135.365605) scale(0.1 -0.1)">
       <use xlink:href="#DejaVuSans-31"/>
       <use xlink:href="#DejaVuSans-32" x="63.623047"/>
       <use xlink:href="#DejaVuSans-35" x="127.246094"/>
      </g>
     </g>
    </g>
    <g id="ytick_7">
     <g id="line2d_31">
      <path d="M 96.414063 94.507996 
L 807.1875 94.507996 
" clip-path="url(#p74dc7511e2)" style="fill: none; stroke: #ffffff; stroke-width: 0.8; stroke-linecap: square"/>
     </g>
     <g id="line2d_32">
      <g>
       <use xlink:href="#m86cad65beb" x="96.414063" y="94.507996" style="fill: #555555; stroke: #555555; stroke-width: 0.8"/>
      </g>
     </g>
     <g id="text_17">
      <!-- 150 -->
      <g style="fill: #555555" transform="translate(70.326563 98.307215) scale(0.1 -0.1)">
       <use xlink:href="#DejaVuSans-31"/>
       <use xlink:href="#DejaVuSans-35" x="63.623047"/>
       <use xlink:href="#DejaVuSans-30" x="127.246094"/>
      </g>
     </g>
    </g>
    <g id="ytick_8">
     <g id="line2d_33">
      <path d="M 96.414063 57.449606 
L 807.1875 57.449606 
" clip-path="url(#p74dc7511e2)" style="fill: none; stroke: #ffffff; stroke-width: 0.8; stroke-linecap: square"/>
     </g>
     <g id="line2d_34">
      <g>
       <use xlink:href="#m86cad65beb" x="96.414063" y="57.449606" style="fill: #555555; stroke: #555555; stroke-width: 0.8"/>
      </g>
     </g>
     <g id="text_18">
      <!-- 175 -->
      <g style="fill: #555555" transform="translate(70.326563 61.248825) scale(0.1 -0.1)">
       <use xlink:href="#DejaVuSans-31"/>
       <use xlink:href="#DejaVuSans-37" x="63.623047"/>
       <use xlink:href="#DejaVuSans-35" x="127.246094"/>
      </g>
     </g>
    </g>
    <g id="text_19">
     <!-- Delay -->
     <g style="fill: #555555" transform="translate(63.830938 196.77875) rotate(-90) scale(0.12 -0.12)">
      <defs>
       <path id="DejaVuSans-44" d="M 1259 4147 
L 1259 519 
L 2022 519 
Q 2988 519 3436 956 
Q 3884 1394 3884 2338 
Q 3884 3275 3436 3711 
Q 2988 4147 2022 4147 
L 1259 4147 
z
M 628 4666 
L 1925 4666 
Q 3281 4666 3915 4102 
Q 4550 3538 4550 2338 
Q 4550 1131 3912 565 
Q 3275 0 1925 0 
L 628 0 
L 628 4666 
z
" transform="scale(0.015625)"/>
       <path id="DejaVuSans-6c" d="M 603 4863 
L 1178 4863 
L 1178 0 
L 603 0 
L 603 4863 
z
" transform="scale(0.015625)"/>
       <path id="DejaVuSans-61" d="M 2194 1759 
Q 1497 1759 1228 1600 
Q 959 1441 959 1056 
Q 959 750 1161 570 
Q 1363 391 1709 391 
Q 2188 391 2477 730 
Q 2766 1069 2766 1631 
L 2766 1759 
L 2194 1759 
z
M 3341 1997 
L 3341 0 
L 2766 0 
L 2766 531 
Q 2569 213 2275 61 
Q 1981 -91 1556 -91 
Q 1019 -91 701 211 
Q 384 513 384 1019 
Q 384 1609 779 1909 
Q 1175 2209 1959 2209 
L 2766 2209 
L 2766 2266 
Q 2766 2663 2505 2880 
Q 2244 3097 1772 3097 
Q 1472 3097 1187 3025 
Q 903 2953 641 2809 
L 641 3341 
Q 956 3463 1253 3523 
Q 1550 3584 1831 3584 
Q 2591 3584 2966 3190 
Q 3341 2797 3341 1997 
z
" transform="scale(0.015625)"/>
       <path id="DejaVuSans-79" d="M 2059 -325 
Q 1816 -950 1584 -1140 
Q 1353 -1331 966 -1331 
L 506 -1331 
L 506 -850 
L 844 -850 
Q 1081 -850 1212 -737 
Q 1344 -625 1503 -206 
L 1606 56 
L 191 3500 
L 800 3500 
L 1894 763 
L 2988 3500 
L 3597 3500 
L 2059 -325 
z
" transform="scale(0.015625)"/>
      </defs>
      <use xlink:href="#DejaVuSans-44"/>
      <use xlink:href="#DejaVuSans-65" x="77.001953"/>
      <use xlink:href="#DejaVuSans-6c" x="138.525391"/>
      <use xlink:href="#DejaVuSans-61" x="166.308594"/>
      <use xlink:href="#DejaVuSans-79" x="227.587891"/>
     </g>
    </g>
   </g>
   <g id="line2d_35">
    <path d="M 128.721946 315.375852 
L 131.985369 313.980062 
L 135.248791 312.215559 
L 138.512214 311.541691 
L 141.775636 314.446868 
L 145.039059 311.064561 
L 148.302481 311.706372 
L 151.565904 306.084259 
L 154.829327 305.564621 
L 158.092749 310.283795 
L 161.356172 309.890924 
L 164.619594 302.23333 
L 167.883017 308.440357 
L 171.14644 303.057361 
L 174.409862 306.269574 
L 177.673285 295.178253 
L 180.936707 305.284251 
L 184.20013 299.520511 
L 187.463552 290.867534 
L 190.726975 297.848913 
L 193.990398 303.620945 
L 197.25382 290.090584 
L 200.517243 302.043831 
L 203.780665 293.013278 
L 207.044088 284.316011 
L 210.30751 290.951472 
L 213.570933 300.847507 
L 216.834356 278.770835 
L 220.097778 287.929554 
L 223.361201 275.91539 
L 226.624623 299.346183 
L 229.888046 297.948825 
L 233.151469 283.697692 
L 236.414891 295.873476 
L 242.941736 292.997992 
L 246.205159 264.077903 
L 249.468581 290.897342 
L 252.732004 290.075267 
L 255.995427 274.9503 
L 259.258849 288.082484 
L 262.522272 272.335766 
L 265.785694 271.415179 
L 269.049117 287.347115 
L 272.312539 261.696774 
L 275.575962 284.864707 
L 278.839385 283.396307 
L 282.102807 264.586226 
L 285.36623 282.063459 
L 288.629652 254.590759 
L 291.893075 281.828186 
L 295.156498 251.987849 
L 298.41992 250.720865 
L 301.683343 249.266647 
L 304.946765 260.812936 
L 308.210188 279.271369 
L 311.47361 241.550881 
L 314.737033 278.466192 
L 318.000456 242.435705 
L 321.263878 276.058492 
L 324.527301 254.616505 
L 327.790723 238.361419 
L 331.054146 252.708122 
L 334.317568 275.116276 
L 337.580991 229.878784 
L 340.844414 273.578167 
L 344.107836 248.771402 
L 347.371259 271.864422 
L 350.634681 228.709275 
L 353.898104 270.464874 
L 357.161526 269.429561 
L 360.424949 243.089422 
L 363.688372 267.606402 
L 366.951794 267.004682 
L 370.215217 220.701322 
L 373.478639 238.399457 
L 376.742062 206.855713 
L 380.005485 264.809762 
L 383.268907 235.006758 
L 386.53233 215.062677 
L 389.795752 263.330371 
L 393.059175 231.831441 
L 396.322597 262.263584 
L 399.58602 229.076269 
L 402.849443 259.96041 
L 406.112865 198.979098 
L 409.376288 226.173531 
L 412.63971 225.14704 
L 415.903133 258.30703 
L 419.166555 258.170602 
L 422.429978 200.403264 
L 425.693401 256.233485 
L 428.956823 255.153853 
L 432.220246 217.446006 
L 435.483668 216.430193 
L 438.747091 185.298377 
L 442.010514 213.97003 
L 445.273936 212.911674 
L 448.537359 253.492352 
L 451.800781 188.313969 
L 455.064204 209.737093 
L 458.327626 252.200748 
L 461.591049 207.146593 
L 464.854472 250.132269 
L 468.117894 172.123299 
L 471.381317 249.026748 
L 474.644739 247.7632 
L 477.908162 176.802598 
L 481.171584 201.545598 
L 484.435007 245.421678 
L 487.69843 244.521267 
L 490.961852 171.134018 
L 494.225275 196.402965 
L 497.488697 242.710066 
L 500.75212 147.118723 
L 504.015542 241.469519 
L 507.278965 155.286479 
L 510.542388 238.9391 
L 513.80581 238.014759 
L 517.069233 189.183249 
L 520.332655 236.13253 
L 523.596078 234.994875 
L 526.859501 137.566315 
L 530.122923 233.973504 
L 533.386346 232.676509 
L 536.649768 181.418579 
L 539.913191 231.377183 
L 543.176613 140.226445 
L 546.440036 229.647858 
L 549.703459 176.91888 
L 552.966881 129.459248 
L 556.230304 227.09887 
L 559.493726 225.745659 
L 562.757149 172.855863 
L 566.020571 224.831527 
L 569.283994 170.539014 
L 572.547417 223.543256 
L 575.810839 222.55144 
L 579.074262 166.142708 
L 582.337684 220.895494 
L 585.601107 136.091753 
L 588.86453 163.265508 
L 592.127952 119.413783 
L 595.391375 160.980003 
L 598.654797 219.107833 
L 601.91822 108.175442 
L 605.181642 217.970704 
L 608.445065 216.508121 
L 611.708488 111.927239 
L 614.97191 154.51835 
L 618.235333 153.975019 
L 621.498755 92.989166 
L 624.762178 214.521283 
L 628.0256 122.397829 
L 631.289023 212.316627 
L 634.552446 149.566418 
L 637.815868 101.638102 
L 641.079291 210.807447 
L 644.342713 99.330704 
L 647.606136 210.047646 
L 650.869559 208.957048 
L 654.132981 207.556104 
L 657.396404 141.631059 
L 660.659826 140.956384 
L 663.923249 205.025976 
L 667.186671 107.579277 
L 670.450094 203.713942 
L 673.713517 76.48152 
L 676.976939 202.816935 
L 680.240362 103.517579 
L 683.503784 200.844395 
L 686.767207 80.730508 
L 690.030629 199.642957 
L 693.294052 198.503665 
L 696.557475 130.1501 
L 699.820897 95.932659 
L 703.08432 196.292339 
L 706.347742 56.777353 
L 709.611165 93.455317 
L 712.874587 195.145136 
L 716.13801 193.946365 
L 719.401433 124.049613 
L 722.664855 192.519239 
L 725.928278 191.295119 
L 729.1917 62.951184 
L 732.455123 188.560633 
L 735.718546 82.855463 
L 738.981968 187.291451 
L 742.245391 116.633743 
L 745.508813 185.608908 
L 748.772236 44.071644 
L 752.035658 184.553429 
L 755.299081 183.825902 
L 758.562504 109.974892 
L 761.825926 109.384446 
L 765.089349 181.161721 
L 768.352771 68.910575 
L 771.616194 180.356161 
L 774.879616 43.767898 
L 774.879616 43.767898 
" clip-path="url(#p74dc7511e2)" style="fill: none; stroke: #e24a33; stroke-width: 1.5; stroke-linecap: square"/>
   </g>
   <g id="patch_3">
    <path d="M 96.414063 328.95625 
L 96.414063 30.1875 
" style="fill: none; stroke: #ffffff; stroke-linejoin: miter; stroke-linecap: square"/>
   </g>
   <g id="patch_4">
    <path d="M 807.1875 328.95625 
L 807.1875 30.1875 
" style="fill: none; stroke: #ffffff; stroke-linejoin: miter; stroke-linecap: square"/>
   </g>
   <g id="patch_5">
    <path d="M 96.414063 328.95625 
L 807.1875 328.95625 
" style="fill: none; stroke: #ffffff; stroke-linejoin: miter; stroke-linecap: square"/>
   </g>
   <g id="patch_6">
    <path d="M 96.414063 30.1875 
L 807.1875 30.1875 
" style="fill: none; stroke: #ffffff; stroke-linejoin: miter; stroke-linecap: square"/>
   </g>
   <g id="text_20">
    <!-- Delay in Network.node[5].app -->
    <g transform="translate(343.651156 24.1875) scale(0.144 -0.144)">
     <defs>
      <path id="DejaVuSans-20" transform="scale(0.015625)"/>
      <path id="DejaVuSans-6e" d="M 3513 2113 
L 3513 0 
L 2938 0 
L 2938 2094 
Q 2938 2591 2744 2837 
Q 2550 3084 2163 3084 
Q 1697 3084 1428 2787 
Q 1159 2491 1159 1978 
L 1159 0 
L 581 0 
L 581 3500 
L 1159 3500 
L 1159 2956 
Q 1366 3272 1645 3428 
Q 1925 3584 2291 3584 
Q 2894 3584 3203 3211 
Q 3513 2838 3513 2113 
z
" transform="scale(0.015625)"/>
      <path id="DejaVuSans-4e" d="M 628 4666 
L 1478 4666 
L 3547 763 
L 3547 4666 
L 4159 4666 
L 4159 0 
L 3309 0 
L 1241 3903 
L 1241 0 
L 628 0 
L 628 4666 
z
" transform="scale(0.015625)"/>
      <path id="DejaVuSans-74" d="M 1172 4494 
L 1172 3500 
L 2356 3500 
L 2356 3053 
L 1172 3053 
L 1172 1153 
Q 1172 725 1289 603 
Q 1406 481 1766 481 
L 2356 481 
L 2356 0 
L 1766 0 
Q 1100 0 847 248 
Q 594 497 594 1153 
L 594 3053 
L 172 3053 
L 172 3500 
L 594 3500 
L 594 4494 
L 1172 4494 
z
" transform="scale(0.015625)"/>
      <path id="DejaVuSans-77" d="M 269 3500 
L 844 3500 
L 1563 769 
L 2278 3500 
L 2956 3500 
L 3675 769 
L 4391 3500 
L 4966 3500 
L 4050 0 
L 3372 0 
L 2619 2869 
L 1863 0 
L 1184 0 
L 269 3500 
z
" transform="scale(0.015625)"/>
      <path id="DejaVuSans-6f" d="M 1959 3097 
Q 1497 3097 1228 2736 
Q 959 2375 959 1747 
Q 959 1119 1226 758 
Q 1494 397 1959 397 
Q 2419 397 2687 759 
Q 2956 1122 2956 1747 
Q 2956 2369 2687 2733 
Q 2419 3097 1959 3097 
z
M 1959 3584 
Q 2709 3584 3137 3096 
Q 3566 2609 3566 1747 
Q 3566 888 3137 398 
Q 2709 -91 1959 -91 
Q 1206 -91 779 398 
Q 353 888 353 1747 
Q 353 2609 779 3096 
Q 1206 3584 1959 3584 
z
" transform="scale(0.015625)"/>
      <path id="DejaVuSans-72" d="M 2631 2963 
Q 2534 3019 2420 3045 
Q 2306 3072 2169 3072 
Q 1681 3072 1420 2755 
Q 1159 2438 1159 1844 
L 1159 0 
L 581 0 
L 581 3500 
L 1159 3500 
L 1159 2956 
Q 1341 3275 1631 3429 
Q 1922 3584 2338 3584 
Q 2397 3584 2469 3576 
Q 2541 3569 2628 3553 
L 2631 2963 
z
" transform="scale(0.015625)"/>
      <path id="DejaVuSans-6b" d="M 581 4863 
L 1159 4863 
L 1159 1991 
L 2875 3500 
L 3609 3500 
L 1753 1863 
L 3688 0 
L 2938 0 
L 1159 1709 
L 1159 0 
L 581 0 
L 581 4863 
z
" transform="scale(0.015625)"/>
      <path id="DejaVuSans-2e" d="M 684 794 
L 1344 794 
L 1344 0 
L 684 0 
L 684 794 
z
" transform="scale(0.015625)"/>
      <path id="DejaVuSans-64" d="M 2906 2969 
L 2906 4863 
L 3481 4863 
L 3481 0 
L 2906 0 
L 2906 525 
Q 2725 213 2448 61 
Q 2172 -91 1784 -91 
Q 1150 -91 751 415 
Q 353 922 353 1747 
Q 353 2572 751 3078 
Q 1150 3584 1784 3584 
Q 2172 3584 2448 3432 
Q 2725 3281 2906 2969 
z
M 947 1747 
Q 947 1113 1208 752 
Q 1469 391 1925 391 
Q 2381 391 2643 752 
Q 2906 1113 2906 1747 
Q 2906 2381 2643 2742 
Q 2381 3103 1925 3103 
Q 1469 3103 1208 2742 
Q 947 2381 947 1747 
z
" transform="scale(0.015625)"/>
      <path id="DejaVuSans-5b" d="M 550 4863 
L 1875 4863 
L 1875 4416 
L 1125 4416 
L 1125 -397 
L 1875 -397 
L 1875 -844 
L 550 -844 
L 550 4863 
z
" transform="scale(0.015625)"/>
      <path id="DejaVuSans-5d" d="M 1947 4863 
L 1947 -844 
L 622 -844 
L 622 -397 
L 1369 -397 
L 1369 4416 
L 622 4416 
L 622 4863 
L 1947 4863 
z
" transform="scale(0.015625)"/>
      <path id="DejaVuSans-70" d="M 1159 525 
L 1159 -1331 
L 581 -1331 
L 581 3500 
L 1159 3500 
L 1159 2969 
Q 1341 3281 1617 3432 
Q 1894 3584 2278 3584 
Q 2916 3584 3314 3078 
Q 3713 2572 3713 1747 
Q 3713 922 3314 415 
Q 2916 -91 2278 -91 
Q 1894 -91 1617 61 
Q 1341 213 1159 525 
z
M 3116 1747 
Q 3116 2381 2855 2742 
Q 2594 3103 2138 3103 
Q 1681 3103 1420 2742 
Q 1159 2381 1159 1747 
Q 1159 1113 1420 752 
Q 1681 391 2138 391 
Q 2594 391 2855 752 
Q 3116 1113 3116 1747 
z
" transform="scale(0.015625)"/>
     </defs>
     <use xlink:href="#DejaVuSans-44"/>
     <use xlink:href="#DejaVuSans-65" x="77.001953"/>
     <use xlink:href="#DejaVuSans-6c" x="138.525391"/>
     <use xlink:href="#DejaVuSans-61" x="166.308594"/>
     <use xlink:href="#DejaVuSans-79" x="227.587891"/>
     <use xlink:href="#DejaVuSans-20" x="286.767578"/>
     <use xlink:href="#DejaVuSans-69" x="318.554688"/>
     <use xlink:href="#DejaVuSans-6e" x="346.337891"/>
     <use xlink:href="#DejaVuSans-20" x="409.716797"/>
     <use xlink:href="#DejaVuSans-4e" x="441.503906"/>
     <use xlink:href="#DejaVuSans-65" x="516.308594"/>
     <use xlink:href="#DejaVuSans-74" x="577.832031"/>
     <use xlink:href="#DejaVuSans-77" x="617.041016"/>
     <use xlink:href="#DejaVuSans-6f" x="698.828125"/>
     <use xlink:href="#DejaVuSans-72" x="760.009766"/>
     <use xlink:href="#DejaVuSans-6b" x="801.123047"/>
     <use xlink:href="#DejaVuSans-2e" x="859.033203"/>
     <use xlink:href="#DejaVuSans-6e" x="890.820312"/>
     <use xlink:href="#DejaVuSans-6f" x="954.199219"/>
     <use xlink:href="#DejaVuSans-64" x="1015.380859"/>
     <use xlink:href="#DejaVuSans-65" x="1078.857422"/>
     <use xlink:href="#DejaVuSans-5b" x="1140.380859"/>
     <use xlink:href="#DejaVuSans-35" x="1179.394531"/>
     <use xlink:href="#DejaVuSans-5d" x="1243.017578"/>
     <use xlink:href="#DejaVuSans-2e" x="1282.03125"/>
     <use xlink:href="#DejaVuSans-61" x="1313.818359"/>
     <use xlink:href="#DejaVuSans-70" x="1375.097656"/>
     <use xlink:href="#DejaVuSans-70" x="1438.574219"/>
    </g>
   </g>
   <g id="legend_1">
    <g id="patch_7">
     <path d="M 615.979688 52.865625 
L 802.1875 52.865625 
L 802.1875 35.1875 
L 615.979688 35.1875 
z
" style="fill: #e5e5e5; opacity: 0.8; stroke: #cccccc; stroke-width: 0.5; stroke-linejoin: miter"/>
    </g>
    <g id="line2d_36">
     <path d="M 619.979688 43.285938 
L 629.979688 43.285938 
L 639.979688 43.285938 
" style="fill: none; stroke: #e24a33; stroke-width: 1.5; stroke-linecap: square"/>
    </g>
    <g id="text_21">
     <!-- Delay in Network.node[5].app -->
     <g transform="translate(647.979688 46.785938) scale(0.1 -0.1)">
      <use xlink:href="#DejaVuSans-44"/>
      <use xlink:href="#DejaVuSans-65" x="77.001953"/>
      <use xlink:href="#DejaVuSans-6c" x="138.525391"/>
      <use xlink:href="#DejaVuSans-61" x="166.308594"/>
      <use xlink:href="#DejaVuSans-79" x="227.587891"/>
      <use xlink:href="#DejaVuSans-20" x="286.767578"/>
      <use xlink:href="#DejaVuSans-69" x="318.554688"/>
      <use xlink:href="#DejaVuSans-6e" x="346.337891"/>
      <use xlink:href="#DejaVuSans-20" x="409.716797"/>
      <use xlink:href="#DejaVuSans-4e" x="441.503906"/>
      <use xlink:href="#DejaVuSans-65" x="516.308594"/>
      <use xlink:href="#DejaVuSans-74" x="577.832031"/>
      <use xlink:href="#DejaVuSans-77" x="617.041016"/>
      <use xlink:href="#DejaVuSans-6f" x="698.828125"/>
      <use xlink:href="#DejaVuSans-72" x="760.009766"/>
      <use xlink:href="#DejaVuSans-6b" x="801.123047"/>
      <use xlink:href="#DejaVuSans-2e" x="859.033203"/>
      <use xlink:href="#DejaVuSans-6e" x="890.820312"/>
      <use xlink:href="#DejaVuSans-6f" x="954.199219"/>
      <use xlink:href="#DejaVuSans-64" x="1015.380859"/>
      <use xlink:href="#DejaVuSans-65" x="1078.857422"/>
      <use xlink:href="#DejaVuSans-5b" x="1140.380859"/>
      <use xlink:href="#DejaVuSans-35" x="1179.394531"/>
      <use xlink:href="#DejaVuSans-5d" x="1243.017578"/>
      <use xlink:href="#DejaVuSans-2e" x="1282.03125"/>
      <use xlink:href="#DejaVuSans-61" x="1313.818359"/>
      <use xlink:href="#DejaVuSans-70" x="1375.097656"/>
      <use xlink:href="#DejaVuSans-70" x="1438.574219"/>
     </g>
    </g>
   </g>
  </g>
 </g>
 <defs>
  <clipPath id="p74dc7511e2">
   <rect x="96.414063" y="30.1875" width="710.773438" height="298.76875"/>
  </clipPath>
 </defs>
</svg>
