<?xml version="1.0" encoding="utf-8" standalone="no"?>
<!DOCTYPE svg PUBLIC "-//W3C//DTD SVG 1.1//EN"
  "http://www.w3.org/Graphics/SVG/1.1/DTD/svg11.dtd">
<svg xmlns:xlink="http://www.w3.org/1999/xlink" width="826.56pt" height="385.92pt" viewBox="0 0 826.56 385.92" xmlns="http://www.w3.org/2000/svg" version="1.1">
 <metadata>
  <rdf:RDF xmlns:dc="http://purl.org/dc/elements/1.1/" xmlns:cc="http://creativecommons.org/ns#" xmlns:rdf="http://www.w3.org/1999/02/22-rdf-syntax-ns#">
   <cc:Work>
    <dc:type rdf:resource="http://purl.org/dc/dcmitype/StillImage"/>
    <dc:date>2025-06-03T22:20:39.157849</dc:date>
    <dc:format>image/svg+xml</dc:format>
    <dc:creator>
     <cc:Agent>
      <dc:title>Matplotlib v3.7.1, https://matplotlib.org/</dc:title>
     </cc:Agent>
    </dc:creator>
   </cc:Work>
  </rdf:RDF>
 </metadata>
 <defs>
  <style type="text/css">*{stroke-linejoin: round; stroke-linecap: butt}</style>
 </defs>
 <g id="figure_1">
  <g id="patch_1">
   <path d="M 0 385.92 
L 826.56 385.92 
L 826.56 0 
L 0 0 
z
" style="fill: #ffffff"/>
  </g>
  <g id="axes_1">
   <g id="patch_2">
    <path d="M 65.992063 354.787333 
L 807.1875 354.787333 
L 807.1875 30.82 
L 65.992063 30.82 
z
" style="fill: #e5e5e5"/>
   </g>
   <g id="matplotlib.axis_1">
    <g id="xtick_1">
     <g id="line2d_1">
      <path d="M 96.641052 354.787333 
L 96.641052 30.82 
" clip-path="url(#p16efc1e324)" style="fill: none; stroke: #ffffff; stroke-width: 0.8; stroke-linecap: square"/>
     </g>
     <g id="line2d_2">
      <defs>
       <path id="m57f4a9bfc9" d="M 0 0 
L 0 3.5 
" style="stroke: #555555; stroke-width: 0.8"/>
      </defs>
      <g>
       <use xlink:href="#m57f4a9bfc9" x="96.641052" y="354.787333" style="fill: #555555; stroke: #555555; stroke-width: 0.8"/>
      </g>
     </g>
     <g id="text_1">
      <!-- 0 -->
      <g style="fill: #555555" transform="translate(93.459802 369.385771) scale(0.1 -0.1)">
       <defs>
        <path id="DejaVuSans-30" d="M 2034 4250 
Q 1547 4250 1301 3770 
Q 1056 3291 1056 2328 
Q 1056 1369 1301 889 
Q 1547 409 2034 409 
Q 2525 409 2770 889 
Q 3016 1369 3016 2328 
Q 3016 3291 2770 3770 
Q 2525 4250 2034 4250 
z
M 2034 4750 
Q 2819 4750 3233 4129 
Q 3647 3509 3647 2328 
Q 3647 1150 3233 529 
Q 2819 -91 2034 -91 
Q 1250 -91 836 529 
Q 422 1150 422 2328 
Q 422 3509 836 4129 
Q 1250 4750 2034 4750 
z
" transform="scale(0.015625)"/>
       </defs>
       <use xlink:href="#DejaVuSans-30"/>
      </g>
     </g>
    </g>
    <g id="xtick_2">
     <g id="line2d_3">
      <path d="M 181.268438 354.787333 
L 181.268438 30.82 
" clip-path="url(#p16efc1e324)" style="fill: none; stroke: #ffffff; stroke-width: 0.8; stroke-linecap: square"/>
     </g>
     <g id="line2d_4">
      <g>
       <use xlink:href="#m57f4a9bfc9" x="181.268438" y="354.787333" style="fill: #555555; stroke: #555555; stroke-width: 0.8"/>
      </g>
     </g>
     <g id="text_2">
      <!-- 25 -->
      <g style="fill: #555555" transform="translate(174.905938 369.385771) scale(0.1 -0.1)">
       <defs>
        <path id="DejaVuSans-32" d="M 1228 531 
L 3431 531 
L 3431 0 
L 469 0 
L 469 531 
Q 828 903 1448 1529 
Q 2069 2156 2228 2338 
Q 2531 2678 2651 2914 
Q 2772 3150 2772 3378 
Q 2772 3750 2511 3984 
Q 2250 4219 1831 4219 
Q 1534 4219 1204 4116 
Q 875 4013 500 3803 
L 500 4441 
Q 881 4594 1212 4672 
Q 1544 4750 1819 4750 
Q 2544 4750 2975 4387 
Q 3406 4025 3406 3419 
Q 3406 3131 3298 2873 
Q 3191 2616 2906 2266 
Q 2828 2175 2409 1742 
Q 1991 1309 1228 531 
z
" transform="scale(0.015625)"/>
        <path id="DejaVuSans-35" d="M 691 4666 
L 3169 4666 
L 3169 4134 
L 1269 4134 
L 1269 2991 
Q 1406 3038 1543 3061 
Q 1681 3084 1819 3084 
Q 2600 3084 3056 2656 
Q 3513 2228 3513 1497 
Q 3513 744 3044 326 
Q 2575 -91 1722 -91 
Q 1428 -91 1123 -41 
Q 819 9 494 109 
L 494 744 
Q 775 591 1075 516 
Q 1375 441 1709 441 
Q 2250 441 2565 725 
Q 2881 1009 2881 1497 
Q 2881 1984 2565 2268 
Q 2250 2553 1709 2553 
Q 1456 2553 1204 2497 
Q 953 2441 691 2322 
L 691 4666 
z
" transform="scale(0.015625)"/>
       </defs>
       <use xlink:href="#DejaVuSans-32"/>
       <use xlink:href="#DejaVuSans-35" x="63.623047"/>
      </g>
     </g>
    </g>
    <g id="xtick_3">
     <g id="line2d_5">
      <path d="M 265.895825 354.787333 
L 265.895825 30.82 
" clip-path="url(#p16efc1e324)" style="fill: none; stroke: #ffffff; stroke-width: 0.8; stroke-linecap: square"/>
     </g>
     <g id="line2d_6">
      <g>
       <use xlink:href="#m57f4a9bfc9" x="265.895825" y="354.787333" style="fill: #555555; stroke: #555555; stroke-width: 0.8"/>
      </g>
     </g>
     <g id="text_3">
      <!-- 50 -->
      <g style="fill: #555555" transform="translate(259.533325 369.385771) scale(0.1 -0.1)">
       <use xlink:href="#DejaVuSans-35"/>
       <use xlink:href="#DejaVuSans-30" x="63.623047"/>
      </g>
     </g>
    </g>
    <g id="xtick_4">
     <g id="line2d_7">
      <path d="M 350.523212 354.787333 
L 350.523212 30.82 
" clip-path="url(#p16efc1e324)" style="fill: none; stroke: #ffffff; stroke-width: 0.8; stroke-linecap: square"/>
     </g>
     <g id="line2d_8">
      <g>
       <use xlink:href="#m57f4a9bfc9" x="350.523212" y="354.787333" style="fill: #555555; stroke: #555555; stroke-width: 0.8"/>
      </g>
     </g>
     <g id="text_4">
      <!-- 75 -->
      <g style="fill: #555555" transform="translate(344.160712 369.385771) scale(0.1 -0.1)">
       <defs>
        <path id="DejaVuSans-37" d="M 525 4666 
L 3525 4666 
L 3525 4397 
L 1831 0 
L 1172 0 
L 2766 4134 
L 525 4134 
L 525 4666 
z
" transform="scale(0.015625)"/>
       </defs>
       <use xlink:href="#DejaVuSans-37"/>
       <use xlink:href="#DejaVuSans-35" x="63.623047"/>
      </g>
     </g>
    </g>
    <g id="xtick_5">
     <g id="line2d_9">
      <path d="M 435.150598 354.787333 
L 435.150598 30.82 
" clip-path="url(#p16efc1e324)" style="fill: none; stroke: #ffffff; stroke-width: 0.8; stroke-linecap: square"/>
     </g>
     <g id="line2d_10">
      <g>
       <use xlink:href="#m57f4a9bfc9" x="435.150598" y="354.787333" style="fill: #555555; stroke: #555555; stroke-width: 0.8"/>
      </g>
     </g>
     <g id="text_5">
      <!-- 100 -->
      <g style="fill: #555555" transform="translate(425.606848 369.385771) scale(0.1 -0.1)">
       <defs>
        <path id="DejaVuSans-31" d="M 794 531 
L 1825 531 
L 1825 4091 
L 703 3866 
L 703 4441 
L 1819 4666 
L 2450 4666 
L 2450 531 
L 3481 531 
L 3481 0 
L 794 0 
L 794 531 
z
" transform="scale(0.015625)"/>
       </defs>
       <use xlink:href="#DejaVuSans-31"/>
       <use xlink:href="#DejaVuSans-30" x="63.623047"/>
       <use xlink:href="#DejaVuSans-30" x="127.246094"/>
      </g>
     </g>
    </g>
    <g id="xtick_6">
     <g id="line2d_11">
      <path d="M 519.777985 354.787333 
L 519.777985 30.82 
" clip-path="url(#p16efc1e324)" style="fill: none; stroke: #ffffff; stroke-width: 0.8; stroke-linecap: square"/>
     </g>
     <g id="line2d_12">
      <g>
       <use xlink:href="#m57f4a9bfc9" x="519.777985" y="354.787333" style="fill: #555555; stroke: #555555; stroke-width: 0.8"/>
      </g>
     </g>
     <g id="text_6">
      <!-- 125 -->
      <g style="fill: #555555" transform="translate(510.234235 369.385771) scale(0.1 -0.1)">
       <use xlink:href="#DejaVuSans-31"/>
       <use xlink:href="#DejaVuSans-32" x="63.623047"/>
       <use xlink:href="#DejaVuSans-35" x="127.246094"/>
      </g>
     </g>
    </g>
    <g id="xtick_7">
     <g id="line2d_13">
      <path d="M 604.405372 354.787333 
L 604.405372 30.82 
" clip-path="url(#p16efc1e324)" style="fill: none; stroke: #ffffff; stroke-width: 0.8; stroke-linecap: square"/>
     </g>
     <g id="line2d_14">
      <g>
       <use xlink:href="#m57f4a9bfc9" x="604.405372" y="354.787333" style="fill: #555555; stroke: #555555; stroke-width: 0.8"/>
      </g>
     </g>
     <g id="text_7">
      <!-- 150 -->
      <g style="fill: #555555" transform="translate(594.861622 369.385771) scale(0.1 -0.1)">
       <use xlink:href="#DejaVuSans-31"/>
       <use xlink:href="#DejaVuSans-35" x="63.623047"/>
       <use xlink:href="#DejaVuSans-30" x="127.246094"/>
      </g>
     </g>
    </g>
    <g id="xtick_8">
     <g id="line2d_15">
      <path d="M 689.032758 354.787333 
L 689.032758 30.82 
" clip-path="url(#p16efc1e324)" style="fill: none; stroke: #ffffff; stroke-width: 0.8; stroke-linecap: square"/>
     </g>
     <g id="line2d_16">
      <g>
       <use xlink:href="#m57f4a9bfc9" x="689.032758" y="354.787333" style="fill: #555555; stroke: #555555; stroke-width: 0.8"/>
      </g>
     </g>
     <g id="text_8">
      <!-- 175 -->
      <g style="fill: #555555" transform="translate(679.489008 369.385771) scale(0.1 -0.1)">
       <use xlink:href="#DejaVuSans-31"/>
       <use xlink:href="#DejaVuSans-37" x="63.623047"/>
       <use xlink:href="#DejaVuSans-35" x="127.246094"/>
      </g>
     </g>
    </g>
    <g id="xtick_9">
     <g id="line2d_17">
      <path d="M 773.660145 354.787333 
L 773.660145 30.82 
" clip-path="url(#p16efc1e324)" style="fill: none; stroke: #ffffff; stroke-width: 0.8; stroke-linecap: square"/>
     </g>
     <g id="line2d_18">
      <g>
       <use xlink:href="#m57f4a9bfc9" x="773.660145" y="354.787333" style="fill: #555555; stroke: #555555; stroke-width: 0.8"/>
      </g>
     </g>
     <g id="text_9">
      <!-- 200 -->
      <g style="fill: #555555" transform="translate(764.116395 369.385771) scale(0.1 -0.1)">
       <use xlink:href="#DejaVuSans-32"/>
       <use xlink:href="#DejaVuSans-30" x="63.623047"/>
       <use xlink:href="#DejaVuSans-30" x="127.246094"/>
      </g>
     </g>
    </g>
   </g>
   <g id="matplotlib.axis_2">
    <g id="ytick_1">
     <g id="line2d_19">
      <path d="M 65.992063 340.061545 
L 807.1875 340.061545 
" clip-path="url(#p16efc1e324)" style="fill: none; stroke: #ffffff; stroke-width: 0.8; stroke-linecap: square"/>
     </g>
     <g id="line2d_20">
      <defs>
       <path id="m291440d087" d="M 0 0 
L -3.5 0 
" style="stroke: #555555; stroke-width: 0.8"/>
      </defs>
      <g>
       <use xlink:href="#m291440d087" x="65.992063" y="340.061545" style="fill: #555555; stroke: #555555; stroke-width: 0.8"/>
      </g>
     </g>
     <g id="text_10">
      <!-- 0 -->
      <g style="fill: #555555" transform="translate(52.629563 343.860764) scale(0.1 -0.1)">
       <use xlink:href="#DejaVuSans-30"/>
      </g>
     </g>
    </g>
    <g id="ytick_2">
     <g id="line2d_21">
      <path d="M 65.992063 303.611575 
L 807.1875 303.611575 
" clip-path="url(#p16efc1e324)" style="fill: none; stroke: #ffffff; stroke-width: 0.8; stroke-linecap: square"/>
     </g>
     <g id="line2d_22">
      <g>
       <use xlink:href="#m291440d087" x="65.992063" y="303.611575" style="fill: #555555; stroke: #555555; stroke-width: 0.8"/>
      </g>
     </g>
     <g id="text_11">
      <!-- 25 -->
      <g style="fill: #555555" transform="translate(46.267063 307.410794) scale(0.1 -0.1)">
       <use xlink:href="#DejaVuSans-32"/>
       <use xlink:href="#DejaVuSans-35" x="63.623047"/>
      </g>
     </g>
    </g>
    <g id="ytick_3">
     <g id="line2d_23">
      <path d="M 65.992063 267.161605 
L 807.1875 267.161605 
" clip-path="url(#p16efc1e324)" style="fill: none; stroke: #ffffff; stroke-width: 0.8; stroke-linecap: square"/>
     </g>
     <g id="line2d_24">
      <g>
       <use xlink:href="#m291440d087" x="65.992063" y="267.161605" style="fill: #555555; stroke: #555555; stroke-width: 0.8"/>
      </g>
     </g>
     <g id="text_12">
      <!-- 50 -->
      <g style="fill: #555555" transform="translate(46.267063 270.960824) scale(0.1 -0.1)">
       <use xlink:href="#DejaVuSans-35"/>
       <use xlink:href="#DejaVuSans-30" x="63.623047"/>
      </g>
     </g>
    </g>
    <g id="ytick_4">
     <g id="line2d_25">
      <path d="M 65.992063 230.711635 
L 807.1875 230.711635 
" clip-path="url(#p16efc1e324)" style="fill: none; stroke: #ffffff; stroke-width: 0.8; stroke-linecap: square"/>
     </g>
     <g id="line2d_26">
      <g>
       <use xlink:href="#m291440d087" x="65.992063" y="230.711635" style="fill: #555555; stroke: #555555; stroke-width: 0.8"/>
      </g>
     </g>
     <g id="text_13">
      <!-- 75 -->
      <g style="fill: #555555" transform="translate(46.267063 234.510854) scale(0.1 -0.1)">
       <use xlink:href="#DejaVuSans-37"/>
       <use xlink:href="#DejaVuSans-35" x="63.623047"/>
      </g>
     </g>
    </g>
    <g id="ytick_5">
     <g id="line2d_27">
      <path d="M 65.992063 194.261665 
L 807.1875 194.261665 
" clip-path="url(#p16efc1e324)" style="fill: none; stroke: #ffffff; stroke-width: 0.8; stroke-linecap: square"/>
     </g>
     <g id="line2d_28">
      <g>
       <use xlink:href="#m291440d087" x="65.992063" y="194.261665" style="fill: #555555; stroke: #555555; stroke-width: 0.8"/>
      </g>
     </g>
     <g id="text_14">
      <!-- 100 -->
      <g style="fill: #555555" transform="translate(39.904562 198.060884) scale(0.1 -0.1)">
       <use xlink:href="#DejaVuSans-31"/>
       <use xlink:href="#DejaVuSans-30" x="63.623047"/>
       <use xlink:href="#DejaVuSans-30" x="127.246094"/>
      </g>
     </g>
    </g>
    <g id="ytick_6">
     <g id="line2d_29">
      <path d="M 65.992063 157.811695 
L 807.1875 157.811695 
" clip-path="url(#p16efc1e324)" style="fill: none; stroke: #ffffff; stroke-width: 0.8; stroke-linecap: square"/>
     </g>
     <g id="line2d_30">
      <g>
       <use xlink:href="#m291440d087" x="65.992063" y="157.811695" style="fill: #555555; stroke: #555555; stroke-width: 0.8"/>
      </g>
     </g>
     <g id="text_15">
      <!-- 125 -->
      <g style="fill: #555555" transform="translate(39.904562 161.610914) scale(0.1 -0.1)">
       <use xlink:href="#DejaVuSans-31"/>
       <use xlink:href="#DejaVuSans-32" x="63.623047"/>
       <use xlink:href="#DejaVuSans-35" x="127.246094"/>
      </g>
     </g>
    </g>
    <g id="ytick_7">
     <g id="line2d_31">
      <path d="M 65.992063 121.361725 
L 807.1875 121.361725 
" clip-path="url(#p16efc1e324)" style="fill: none; stroke: #ffffff; stroke-width: 0.8; stroke-linecap: square"/>
     </g>
     <g id="line2d_32">
      <g>
       <use xlink:href="#m291440d087" x="65.992063" y="121.361725" style="fill: #555555; stroke: #555555; stroke-width: 0.8"/>
      </g>
     </g>
     <g id="text_16">
      <!-- 150 -->
      <g style="fill: #555555" transform="translate(39.904562 125.160944) scale(0.1 -0.1)">
       <use xlink:href="#DejaVuSans-31"/>
       <use xlink:href="#DejaVuSans-35" x="63.623047"/>
       <use xlink:href="#DejaVuSans-30" x="127.246094"/>
      </g>
     </g>
    </g>
    <g id="ytick_8">
     <g id="line2d_33">
      <path d="M 65.992063 84.911755 
L 807.1875 84.911755 
" clip-path="url(#p16efc1e324)" style="fill: none; stroke: #ffffff; stroke-width: 0.8; stroke-linecap: square"/>
     </g>
     <g id="line2d_34">
      <g>
       <use xlink:href="#m291440d087" x="65.992063" y="84.911755" style="fill: #555555; stroke: #555555; stroke-width: 0.8"/>
      </g>
     </g>
     <g id="text_17">
      <!-- 175 -->
      <g style="fill: #555555" transform="translate(39.904562 88.710974) scale(0.1 -0.1)">
       <use xlink:href="#DejaVuSans-31"/>
       <use xlink:href="#DejaVuSans-37" x="63.623047"/>
       <use xlink:href="#DejaVuSans-35" x="127.246094"/>
      </g>
     </g>
    </g>
    <g id="ytick_9">
     <g id="line2d_35">
      <path d="M 65.992063 48.461785 
L 807.1875 48.461785 
" clip-path="url(#p16efc1e324)" style="fill: none; stroke: #ffffff; stroke-width: 0.8; stroke-linecap: square"/>
     </g>
     <g id="line2d_36">
      <g>
       <use xlink:href="#m291440d087" x="65.992063" y="48.461785" style="fill: #555555; stroke: #555555; stroke-width: 0.8"/>
      </g>
     </g>
     <g id="text_18">
      <!-- 200 -->
      <g style="fill: #555555" transform="translate(39.904562 52.261004) scale(0.1 -0.1)">
       <use xlink:href="#DejaVuSans-32"/>
       <use xlink:href="#DejaVuSans-30" x="63.623047"/>
       <use xlink:href="#DejaVuSans-30" x="127.246094"/>
      </g>
     </g>
    </g>
   </g>
   <g id="line2d_37">
    <path d="M 99.682764 338.603547 
L 99.682764 340.061545 
L 100.76043 338.603547 
L 102.958868 337.145548 
L 103.06786 338.603547 
L 105.506742 337.145548 
L 106.321423 335.687549 
L 106.452955 337.145548 
L 109.838051 338.603547 
L 110.018087 337.145548 
L 111.628244 335.687549 
L 113.223146 337.145548 
L 113.403182 335.687549 
L 116.608242 337.145548 
L 116.788278 335.687549 
L 119.993337 337.145548 
L 120.173373 335.687549 
L 123.378432 337.145548 
L 123.558469 335.687549 
L 124.644687 334.22955 
L 125.342705 332.771551 
L 126.168833 331.313553 
L 126.660613 329.855554 
L 126.724823 328.397555 
L 126.763528 329.855554 
L 126.943564 328.397555 
L 128.051005 326.939556 
L 128.90216 325.481557 
L 130.148623 326.939556 
L 130.555972 324.023559 
L 132.579399 322.56556 
L 133.533719 324.023559 
L 133.713755 322.56556 
L 136.628339 321.107561 
L 136.918814 322.56556 
L 137.09885 321.107561 
L 140.30391 322.56556 
L 140.483946 319.649562 
L 143.246286 318.191563 
L 143.689005 319.649562 
L 144.039419 316.733565 
L 144.634903 315.275566 
L 147.074101 316.733565 
L 147.254137 315.275566 
L 150.459196 316.733565 
L 150.639232 315.275566 
L 153.844292 316.733565 
L 154.024328 315.275566 
L 157.229387 316.733565 
L 157.409423 315.275566 
L 160.614483 316.733565 
L 160.794519 315.275566 
L 162.779354 313.817567 
L 163.999578 315.275566 
L 164.179614 313.817567 
L 167.384674 315.275566 
L 167.56471 313.817567 
L 170.769769 315.275566 
L 170.949805 313.817567 
L 174.154864 315.275566 
L 174.334901 313.817567 
L 175.513837 312.359568 
L 177.53996 313.817567 
L 177.719996 312.359568 
L 180.925055 313.817567 
L 181.105092 312.359568 
L 182.294998 310.901569 
L 184.310151 312.359568 
L 184.490187 310.901569 
L 186.559994 309.443571 
L 187.695246 310.901569 
L 187.875282 309.443571 
L 189.54947 307.985572 
L 191.080342 309.443571 
L 191.260378 307.985572 
L 194.047442 306.527573 
L 194.465437 307.985572 
L 194.645473 306.527573 
L 196.922136 305.069574 
L 197.850533 306.527573 
L 198.030569 305.069574 
L 198.928225 303.611575 
L 201.235628 305.069574 
L 201.415664 303.611575 
L 204.620724 305.069574 
L 204.80076 303.611575 
L 205.270065 302.153577 
L 208.005819 303.611575 
L 208.185855 302.153577 
L 209.079252 300.695578 
L 211.390915 302.153577 
L 211.570951 300.695578 
L 212.084748 299.237579 
L 214.77601 300.695578 
L 214.956046 299.237579 
L 215.733322 297.77958 
L 218.161106 299.237579 
L 218.341142 297.77958 
L 218.889595 296.321581 
L 220.039392 294.863583 
L 221.546201 296.321581 
L 221.726237 294.863583 
L 224.720909 293.405584 
L 224.931296 294.863583 
L 225.111333 293.405584 
L 228.316392 294.863583 
L 228.496428 293.405584 
L 231.701487 294.863583 
L 231.881524 293.405584 
L 235.086583 294.863583 
L 235.266619 293.405584 
L 236.475773 291.947585 
L 238.471678 293.405584 
L 238.651714 291.947585 
L 241.856774 293.405584 
L 242.03681 291.947585 
L 242.703444 290.489586 
L 243.150898 289.031587 
L 245.241869 290.489586 
L 245.421905 289.031587 
L 248.261795 287.573589 
L 248.376167 286.11559 
L 248.618795 284.657591 
L 248.626965 286.11559 
L 248.807001 284.657591 
L 252.01206 286.11559 
L 252.192096 284.657591 
L 255.397156 286.11559 
L 255.577192 284.657591 
L 258.782251 286.11559 
L 258.962287 284.657591 
L 262.167347 286.11559 
L 262.327913 284.657591 
L 262.347383 283.199592 
L 263.08326 281.741593 
L 265.190812 280.283595 
L 265.552442 281.741593 
L 265.732478 280.283595 
L 268.937538 281.741593 
L 269.491507 277.367597 
L 272.322633 278.825596 
L 272.502669 275.909598 
L 273.458471 274.451599 
L 275.707728 275.909598 
L 275.887765 274.451599 
L 277.305959 272.993601 
L 279.092824 274.451599 
L 279.27286 272.993601 
L 282.477919 274.451599 
L 282.657956 272.993601 
L 285.863015 274.451599 
L 286.043051 272.993601 
L 288.605185 271.535602 
L 289.24811 272.993601 
L 289.428146 271.535602 
L 289.870093 270.077603 
L 292.633206 271.535602 
L 292.813242 270.077603 
L 293.124658 268.619604 
L 296.018301 270.077603 
L 296.198337 268.619604 
L 297.734927 267.161605 
L 299.403397 268.619604 
L 299.583433 267.161605 
L 302.788492 268.619604 
L 302.968528 267.161605 
L 305.418552 265.703607 
L 306.173588 267.161605 
L 306.353624 265.703607 
L 308.931774 264.245608 
L 309.558683 265.703607 
L 309.738719 264.245608 
L 311.414293 262.787609 
L 312.943779 264.245608 
L 313.290214 261.32961 
L 316.328874 262.787609 
L 316.50891 261.32961 
L 317.146033 259.871611 
L 319.71397 261.32961 
L 319.894006 259.871611 
L 322.408716 258.413613 
L 323.099065 259.871611 
L 323.279101 258.413613 
L 324.569045 256.955614 
L 326.15556 255.497615 
L 326.484161 256.955614 
L 326.664197 255.497615 
L 326.974481 254.039616 
L 328.075368 252.581617 
L 329.869256 254.039616 
L 330.049292 252.581617 
L 333.254351 254.039616 
L 333.434388 252.581617 
L 334.825381 251.123619 
L 335.806437 248.207621 
L 336.639447 249.66562 
L 336.819483 248.207621 
L 340.024542 249.66562 
L 340.204578 248.207621 
L 343.409638 249.66562 
L 343.589674 248.207621 
L 345.354559 246.749622 
L 345.410637 245.291623 
L 346.794733 246.749622 
L 346.974769 245.291623 
L 350.179829 246.749622 
L 350.359865 245.291623 
L 353.564924 246.749622 
L 353.74496 245.291623 
L 354.389801 243.833625 
L 355.786931 242.375626 
L 356.621072 240.917627 
L 356.95002 242.375626 
L 357.130056 240.917627 
L 358.67677 239.459628 
L 360.335115 240.917627 
L 360.515151 239.459628 
L 360.971195 238.001629 
L 363.720211 239.459628 
L 363.900247 238.001629 
L 367.105306 239.459628 
L 367.285342 238.001629 
L 370.490402 239.459628 
L 370.670438 236.543631 
L 372.017357 235.085632 
L 373.875497 236.543631 
L 374.055533 235.085632 
L 377.260593 236.543631 
L 377.440629 235.085632 
L 378.729151 233.627633 
L 379.792064 232.169634 
L 380.645688 233.627633 
L 380.825724 232.169634 
L 381.580976 230.711635 
L 382.777934 229.253637 
L 383.213191 227.795638 
L 384.030783 229.253637 
L 384.21082 227.795638 
L 387.415879 229.253637 
L 387.595915 227.795638 
L 390.800974 229.253637 
L 390.981011 227.795638 
L 394.18607 229.253637 
L 394.366106 227.795638 
L 396.576306 226.337639 
L 397.571165 227.795638 
L 397.908349 224.87964 
L 397.994804 221.963643 
L 400.575681 220.505644 
L 400.956261 221.963643 
L 401.136297 220.505644 
L 401.552324 219.047645 
L 404.341356 220.505644 
L 404.521392 219.047645 
L 407.181622 217.589646 
L 407.726452 219.047645 
L 407.906488 217.589646 
L 408.794548 216.131647 
L 409.271737 214.673649 
L 410.486856 213.21565 
L 411.111547 214.673649 
L 411.515829 211.757651 
L 413.57757 210.299652 
L 414.496643 211.757651 
L 414.676679 210.299652 
L 415.500881 208.841653 
L 417.881738 210.299652 
L 418.061774 208.841653 
L 420.760458 207.383655 
L 421.266834 208.841653 
L 421.44687 207.383655 
L 422.345043 205.925656 
L 422.829968 204.467657 
L 423.572889 203.009658 
L 424.651929 204.467657 
L 424.831965 203.009658 
L 428.037025 204.467657 
L 428.217061 203.009658 
L 428.685946 201.551659 
L 430.954745 200.093661 
L 431.42212 201.551659 
L 431.602156 200.093661 
L 433.137821 198.635662 
L 434.807215 200.093661 
L 434.987252 198.635662 
L 435.552695 197.177663 
L 438.175611 195.719664 
L 438.192311 197.177663 
L 438.372347 195.719664 
L 438.876952 194.261665 
L 441.533701 192.803667 
L 441.577406 194.261665 
L 441.757443 192.803667 
L 444.962502 194.261665 
L 445.142538 192.803667 
L 446.988213 191.345668 
L 448.347597 192.803667 
L 448.527633 191.345668 
L 448.869172 189.887669 
L 450.213329 188.42967 
L 451.732693 189.887669 
L 451.912729 188.42967 
L 454.99912 186.971671 
L 455.117788 188.42967 
L 455.297824 186.971671 
L 457.073322 185.513673 
L 458.502884 186.971671 
L 458.68292 185.513673 
L 459.835623 184.055674 
L 461.887979 185.513673 
L 462.068015 184.055674 
L 465.273075 185.513673 
L 465.453111 184.055674 
L 466.564987 182.597675 
L 466.900862 181.139676 
L 468.65817 182.597675 
L 468.838206 181.139676 
L 470.256438 179.681677 
L 472.043266 181.139676 
L 472.223302 178.223679 
L 475.428361 179.681677 
L 475.608397 178.223679 
L 476.713244 176.76568 
L 478.699512 175.307681 
L 478.755242 173.849682 
L 478.813457 175.307681 
L 478.993493 173.849682 
L 481.32441 172.391683 
L 482.198552 173.849682 
L 482.378588 172.391683 
L 485.583647 173.849682 
L 485.763684 172.391683 
L 488.968743 173.849682 
L 489.148779 172.391683 
L 491.161225 170.933685 
L 491.636749 169.475686 
L 492.353838 170.933685 
L 492.533875 169.475686 
L 493.922893 168.017687 
L 494.081095 166.559688 
L 495.738934 168.017687 
L 495.91897 165.101689 
L 499.124029 166.559688 
L 499.304065 165.101689 
L 499.308523 163.643691 
L 502.509125 165.101689 
L 502.689161 163.643691 
L 505.89422 165.101689 
L 506.074256 163.643691 
L 509.279316 165.101689 
L 509.459352 163.643691 
L 512.664411 165.101689 
L 512.844447 163.643691 
L 514.703341 162.185692 
L 516.049507 163.643691 
L 516.229543 162.185692 
L 516.709543 160.727693 
L 519.434602 162.185692 
L 519.614638 160.727693 
L 522.681147 159.269694 
L 522.819698 160.727693 
L 522.999734 159.269694 
L 526.204793 160.727693 
L 526.384829 159.269694 
L 529.589889 160.727693 
L 529.769925 159.269694 
L 532.974984 160.727693 
L 533.15502 159.269694 
L 534.437096 157.811695 
L 536.360079 159.269694 
L 536.540116 157.811695 
L 538.399132 156.353697 
L 539.745175 157.811695 
L 539.925211 156.353697 
L 541.775084 154.895698 
L 543.102588 153.437699 
L 543.13027 154.895698 
L 543.310307 153.437699 
L 546.515366 154.895698 
L 546.695402 153.437699 
L 548.475943 151.9797 
L 549.237734 150.521701 
L 549.900461 151.9797 
L 550.080497 150.521701 
L 552.640146 149.063703 
L 553.285557 150.521701 
L 553.465593 149.063703 
L 556.670652 150.521701 
L 556.850688 149.063703 
L 557.343257 147.605704 
L 557.592084 146.147705 
L 560.055748 147.605704 
L 560.235784 146.147705 
L 561.354261 143.231707 
L 563.183576 141.773709 
L 563.440843 143.231707 
L 563.620879 140.31571 
L 565.173915 138.857711 
L 565.428446 137.399712 
L 565.494419 135.941713 
L 566.825939 137.399712 
L 567.005975 135.941713 
L 568.174092 134.483715 
L 569.18743 133.025716 
L 570.211034 134.483715 
L 570.39107 133.025716 
L 573.59613 134.483715 
L 573.776166 133.025716 
L 576.874001 131.567717 
L 576.981225 133.025716 
L 577.161261 131.567717 
L 577.840679 130.109718 
L 579.098634 128.651719 
L 580.366321 130.109718 
L 580.679014 127.193721 
L 580.770007 125.735722 
L 583.751416 127.193721 
L 583.931452 125.735722 
L 585.470812 124.277723 
L 586.095755 122.819724 
L 587.136511 124.277723 
L 587.316548 122.819724 
L 590.521607 124.277723 
L 590.701643 122.819724 
L 593.906702 124.277723 
L 593.940802 122.819724 
L 594.086739 121.361725 
L 597.291798 122.819724 
L 597.471834 121.361725 
L 600.676893 122.819724 
L 600.856929 121.361725 
L 603.741051 119.903727 
L 604.061989 121.361725 
L 604.242025 119.903727 
L 605.319511 118.445728 
L 606.836332 116.987729 
L 606.919651 115.52973 
L 607.447084 116.987729 
L 607.62712 115.52973 
L 608.795903 114.071731 
L 610.83218 115.52973 
L 611.012216 114.071731 
L 612.770243 112.613733 
L 614.217275 114.071731 
L 614.397311 112.613733 
L 617.129874 111.155734 
L 617.602371 112.613733 
L 617.782407 111.155734 
L 620.137628 109.697735 
L 620.195228 108.239736 
L 620.987466 109.697735 
L 621.167502 108.239736 
L 623.920419 106.781737 
L 624.372562 108.239736 
L 624.552598 106.781737 
L 627.757657 108.239736 
L 627.937693 105.323739 
L 631.142753 106.781737 
L 631.322789 105.323739 
L 634.527848 106.781737 
L 634.707884 105.323739 
L 636.361875 103.86574 
L 637.912943 105.323739 
L 638.09298 103.86574 
L 641.298039 105.323739 
L 641.478075 103.86574 
L 643.741452 102.407741 
L 644.683134 103.86574 
L 644.863171 102.407741 
L 645.792402 99.491743 
L 648.06823 100.949742 
L 648.248266 99.491743 
L 649.656879 98.033745 
L 650.074632 96.575746 
L 650.198862 95.117747 
L 650.579787 93.659748 
L 651.230049 92.201749 
L 651.453325 93.659748 
L 651.633361 92.201749 
L 653.476342 89.285752 
L 654.838421 90.743751 
L 655.018457 89.285752 
L 656.276919 87.827753 
L 658.223516 89.285752 
L 658.403552 87.827753 
L 659.361234 86.369754 
L 661.608612 87.827753 
L 661.788648 86.369754 
L 662.304965 84.911755 
L 663.822603 83.453757 
L 664.993707 84.911755 
L 665.173743 83.453757 
L 668.378803 84.911755 
L 668.558839 83.453757 
L 670.957641 81.995758 
L 671.763898 83.453757 
L 671.943934 81.995758 
L 673.505838 80.537759 
L 675.148994 81.995758 
L 675.32903 80.537759 
L 677.759209 77.621761 
L 677.980234 76.163763 
L 678.534089 77.621761 
L 678.714125 76.163763 
L 681.919185 77.621761 
L 682.099221 76.163763 
L 685.30428 77.621761 
L 685.484316 76.163763 
L 686.780376 74.705764 
L 688.689375 76.163763 
L 688.869412 74.705764 
L 692.074471 76.163763 
L 692.254507 74.705764 
L 695.459566 76.163763 
L 695.639603 74.705764 
L 695.697162 73.247765 
L 698.844662 74.705764 
L 699.024698 73.247765 
L 702.229757 74.705764 
L 702.409793 73.247765 
L 705.614853 74.705764 
L 705.794889 73.247765 
L 708.999948 74.705764 
L 709.179984 73.247765 
L 709.831438 71.789766 
L 710.907117 70.331767 
L 711.196952 68.873769 
L 711.737889 67.41577 
L 712.385044 68.873769 
L 712.56508 67.41577 
L 713.654292 65.957771 
L 715.770139 67.41577 
L 715.950175 65.957771 
L 718.674975 64.499772 
L 719.155235 65.957771 
L 719.335271 64.499772 
L 722.54033 65.957771 
L 722.720366 64.499772 
L 723.305969 63.041773 
L 725.925426 64.499772 
L 726.105462 63.041773 
L 729.310521 64.499772 
L 729.490557 63.041773 
L 730.833686 61.583775 
L 732.695617 63.041773 
L 732.875653 61.583775 
L 736.080712 63.041773 
L 736.260748 61.583775 
L 737.539409 60.125776 
L 737.956149 58.667777 
L 739.465807 60.125776 
L 739.645844 58.667777 
L 740.023611 57.209778 
L 741.889265 55.751779 
L 742.850903 57.209778 
L 743.030939 55.751779 
L 746.235998 57.209778 
L 746.416035 55.751779 
L 748.475932 54.293781 
L 749.621094 55.751779 
L 749.80113 54.293781 
L 750.203249 52.835782 
L 751.927713 51.377783 
L 753.006189 52.835782 
L 753.186225 51.377783 
L 755.154677 49.919784 
L 756.391285 51.377783 
L 756.571321 49.919784 
L 759.541347 48.461785 
L 759.77638 49.919784 
L 759.956416 48.461785 
L 763.161476 49.919784 
L 763.341512 48.461785 
L 763.777825 47.003787 
L 763.879658 45.545788 
L 766.546571 47.003787 
L 766.726607 45.545788 
L 769.931667 47.003787 
L 770.111703 45.545788 
L 773.316762 47.003787 
L 773.496798 45.545788 
L 773.496798 45.545788 
" clip-path="url(#p16efc1e324)" style="fill: none; stroke: #e24a33; stroke-width: 1.5; stroke-linecap: square"/>
   </g>
   <g id="patch_3">
    <path d="M 65.992063 354.787333 
L 65.992063 30.82 
" style="fill: none; stroke: #ffffff; stroke-linejoin: miter; stroke-linecap: square"/>
   </g>
   <g id="patch_4">
    <path d="M 807.1875 354.787333 
L 807.1875 30.82 
" style="fill: none; stroke: #ffffff; stroke-linejoin: miter; stroke-linecap: square"/>
   </g>
   <g id="patch_5">
    <path d="M 65.992063 354.787333 
L 807.1875 354.787333 
" style="fill: none; stroke: #ffffff; stroke-linejoin: miter; stroke-linecap: square"/>
   </g>
   <g id="patch_6">
    <path d="M 65.992063 30.82 
L 807.1875 30.82 
" style="fill: none; stroke: #ffffff; stroke-linejoin: miter; stroke-linecap: square"/>
   </g>
   <g id="text_19">
    <!-- Buffer Size in Network.node[0].lnk[0] -->
    <g transform="translate(302.679906 24.82) scale(0.144 -0.144)">
     <defs>
      <path id="DejaVuSans-42" d="M 1259 2228 
L 1259 519 
L 2272 519 
Q 2781 519 3026 730 
Q 3272 941 3272 1375 
Q 3272 1813 3026 2020 
Q 2781 2228 2272 2228 
L 1259 2228 
z
M 1259 4147 
L 1259 2741 
L 2194 2741 
Q 2656 2741 2882 2914 
Q 3109 3088 3109 3444 
Q 3109 3797 2882 3972 
Q 2656 4147 2194 4147 
L 1259 4147 
z
M 628 4666 
L 2241 4666 
Q 2963 4666 3353 4366 
Q 3744 4066 3744 3513 
Q 3744 3084 3544 2831 
Q 3344 2578 2956 2516 
Q 3422 2416 3680 2098 
Q 3938 1781 3938 1306 
Q 3938 681 3513 340 
Q 3088 0 2303 0 
L 628 0 
L 628 4666 
z
" transform="scale(0.015625)"/>
      <path id="DejaVuSans-75" d="M 544 1381 
L 544 3500 
L 1119 3500 
L 1119 1403 
Q 1119 906 1312 657 
Q 1506 409 1894 409 
Q 2359 409 2629 706 
Q 2900 1003 2900 1516 
L 2900 3500 
L 3475 3500 
L 3475 0 
L 2900 0 
L 2900 538 
Q 2691 219 2414 64 
Q 2138 -91 1772 -91 
Q 1169 -91 856 284 
Q 544 659 544 1381 
z
M 1991 3584 
L 1991 3584 
z
" transform="scale(0.015625)"/>
      <path id="DejaVuSans-66" d="M 2375 4863 
L 2375 4384 
L 1825 4384 
Q 1516 4384 1395 4259 
Q 1275 4134 1275 3809 
L 1275 3500 
L 2222 3500 
L 2222 3053 
L 1275 3053 
L 1275 0 
L 697 0 
L 697 3053 
L 147 3053 
L 147 3500 
L 697 3500 
L 697 3744 
Q 697 4328 969 4595 
Q 1241 4863 1831 4863 
L 2375 4863 
z
" transform="scale(0.015625)"/>
      <path id="DejaVuSans-65" d="M 3597 1894 
L 3597 1613 
L 953 1613 
Q 991 1019 1311 708 
Q 1631 397 2203 397 
Q 2534 397 2845 478 
Q 3156 559 3463 722 
L 3463 178 
Q 3153 47 2828 -22 
Q 2503 -91 2169 -91 
Q 1331 -91 842 396 
Q 353 884 353 1716 
Q 353 2575 817 3079 
Q 1281 3584 2069 3584 
Q 2775 3584 3186 3129 
Q 3597 2675 3597 1894 
z
M 3022 2063 
Q 3016 2534 2758 2815 
Q 2500 3097 2075 3097 
Q 1594 3097 1305 2825 
Q 1016 2553 972 2059 
L 3022 2063 
z
" transform="scale(0.015625)"/>
      <path id="DejaVuSans-72" d="M 2631 2963 
Q 2534 3019 2420 3045 
Q 2306 3072 2169 3072 
Q 1681 3072 1420 2755 
Q 1159 2438 1159 1844 
L 1159 0 
L 581 0 
L 581 3500 
L 1159 3500 
L 1159 2956 
Q 1341 3275 1631 3429 
Q 1922 3584 2338 3584 
Q 2397 3584 2469 3576 
Q 2541 3569 2628 3553 
L 2631 2963 
z
" transform="scale(0.015625)"/>
      <path id="DejaVuSans-20" transform="scale(0.015625)"/>
      <path id="DejaVuSans-53" d="M 3425 4513 
L 3425 3897 
Q 3066 4069 2747 4153 
Q 2428 4238 2131 4238 
Q 1616 4238 1336 4038 
Q 1056 3838 1056 3469 
Q 1056 3159 1242 3001 
Q 1428 2844 1947 2747 
L 2328 2669 
Q 3034 2534 3370 2195 
Q 3706 1856 3706 1288 
Q 3706 609 3251 259 
Q 2797 -91 1919 -91 
Q 1588 -91 1214 -16 
Q 841 59 441 206 
L 441 856 
Q 825 641 1194 531 
Q 1563 422 1919 422 
Q 2459 422 2753 634 
Q 3047 847 3047 1241 
Q 3047 1584 2836 1778 
Q 2625 1972 2144 2069 
L 1759 2144 
Q 1053 2284 737 2584 
Q 422 2884 422 3419 
Q 422 4038 858 4394 
Q 1294 4750 2059 4750 
Q 2388 4750 2728 4690 
Q 3069 4631 3425 4513 
z
" transform="scale(0.015625)"/>
      <path id="DejaVuSans-69" d="M 603 3500 
L 1178 3500 
L 1178 0 
L 603 0 
L 603 3500 
z
M 603 4863 
L 1178 4863 
L 1178 4134 
L 603 4134 
L 603 4863 
z
" transform="scale(0.015625)"/>
      <path id="DejaVuSans-7a" d="M 353 3500 
L 3084 3500 
L 3084 2975 
L 922 459 
L 3084 459 
L 3084 0 
L 275 0 
L 275 525 
L 2438 3041 
L 353 3041 
L 353 3500 
z
" transform="scale(0.015625)"/>
      <path id="DejaVuSans-6e" d="M 3513 2113 
L 3513 0 
L 2938 0 
L 2938 2094 
Q 2938 2591 2744 2837 
Q 2550 3084 2163 3084 
Q 1697 3084 1428 2787 
Q 1159 2491 1159 1978 
L 1159 0 
L 581 0 
L 581 3500 
L 1159 3500 
L 1159 2956 
Q 1366 3272 1645 3428 
Q 1925 3584 2291 3584 
Q 2894 3584 3203 3211 
Q 3513 2838 3513 2113 
z
" transform="scale(0.015625)"/>
      <path id="DejaVuSans-4e" d="M 628 4666 
L 1478 4666 
L 3547 763 
L 3547 4666 
L 4159 4666 
L 4159 0 
L 3309 0 
L 1241 3903 
L 1241 0 
L 628 0 
L 628 4666 
z
" transform="scale(0.015625)"/>
      <path id="DejaVuSans-74" d="M 1172 4494 
L 1172 3500 
L 2356 3500 
L 2356 3053 
L 1172 3053 
L 1172 1153 
Q 1172 725 1289 603 
Q 1406 481 1766 481 
L 2356 481 
L 2356 0 
L 1766 0 
Q 1100 0 847 248 
Q 594 497 594 1153 
L 594 3053 
L 172 3053 
L 172 3500 
L 594 3500 
L 594 4494 
L 1172 4494 
z
" transform="scale(0.015625)"/>
      <path id="DejaVuSans-77" d="M 269 3500 
L 844 3500 
L 1563 769 
L 2278 3500 
L 2956 3500 
L 3675 769 
L 4391 3500 
L 4966 3500 
L 4050 0 
L 3372 0 
L 2619 2869 
L 1863 0 
L 1184 0 
L 269 3500 
z
" transform="scale(0.015625)"/>
      <path id="DejaVuSans-6f" d="M 1959 3097 
Q 1497 3097 1228 2736 
Q 959 2375 959 1747 
Q 959 1119 1226 758 
Q 1494 397 1959 397 
Q 2419 397 2687 759 
Q 2956 1122 2956 1747 
Q 2956 2369 2687 2733 
Q 2419 3097 1959 3097 
z
M 1959 3584 
Q 2709 3584 3137 3096 
Q 3566 2609 3566 1747 
Q 3566 888 3137 398 
Q 2709 -91 1959 -91 
Q 1206 -91 779 398 
Q 353 888 353 1747 
Q 353 2609 779 3096 
Q 1206 3584 1959 3584 
z
" transform="scale(0.015625)"/>
      <path id="DejaVuSans-6b" d="M 581 4863 
L 1159 4863 
L 1159 1991 
L 2875 3500 
L 3609 3500 
L 1753 1863 
L 3688 0 
L 2938 0 
L 1159 1709 
L 1159 0 
L 581 0 
L 581 4863 
z
" transform="scale(0.015625)"/>
      <path id="DejaVuSans-2e" d="M 684 794 
L 1344 794 
L 1344 0 
L 684 0 
L 684 794 
z
" transform="scale(0.015625)"/>
      <path id="DejaVuSans-64" d="M 2906 2969 
L 2906 4863 
L 3481 4863 
L 3481 0 
L 2906 0 
L 2906 525 
Q 2725 213 2448 61 
Q 2172 -91 1784 -91 
Q 1150 -91 751 415 
Q 353 922 353 1747 
Q 353 2572 751 3078 
Q 1150 3584 1784 3584 
Q 2172 3584 2448 3432 
Q 2725 3281 2906 2969 
z
M 947 1747 
Q 947 1113 1208 752 
Q 1469 391 1925 391 
Q 2381 391 2643 752 
Q 2906 1113 2906 1747 
Q 2906 2381 2643 2742 
Q 2381 3103 1925 3103 
Q 1469 3103 1208 2742 
Q 947 2381 947 1747 
z
" transform="scale(0.015625)"/>
      <path id="DejaVuSans-5b" d="M 550 4863 
L 1875 4863 
L 1875 4416 
L 1125 4416 
L 1125 -397 
L 1875 -397 
L 1875 -844 
L 550 -844 
L 550 4863 
z
" transform="scale(0.015625)"/>
      <path id="DejaVuSans-5d" d="M 1947 4863 
L 1947 -844 
L 622 -844 
L 622 -397 
L 1369 -397 
L 1369 4416 
L 622 4416 
L 622 4863 
L 1947 4863 
z
" transform="scale(0.015625)"/>
      <path id="DejaVuSans-6c" d="M 603 4863 
L 1178 4863 
L 1178 0 
L 603 0 
L 603 4863 
z
" transform="scale(0.015625)"/>
     </defs>
     <use xlink:href="#DejaVuSans-42"/>
     <use xlink:href="#DejaVuSans-75" x="68.603516"/>
     <use xlink:href="#DejaVuSans-66" x="131.982422"/>
     <use xlink:href="#DejaVuSans-66" x="167.1875"/>
     <use xlink:href="#DejaVuSans-65" x="202.392578"/>
     <use xlink:href="#DejaVuSans-72" x="263.916016"/>
     <use xlink:href="#DejaVuSans-20" x="305.029297"/>
     <use xlink:href="#DejaVuSans-53" x="336.816406"/>
     <use xlink:href="#DejaVuSans-69" x="400.292969"/>
     <use xlink:href="#DejaVuSans-7a" x="428.076172"/>
     <use xlink:href="#DejaVuSans-65" x="480.566406"/>
     <use xlink:href="#DejaVuSans-20" x="542.089844"/>
     <use xlink:href="#DejaVuSans-69" x="573.876953"/>
     <use xlink:href="#DejaVuSans-6e" x="601.660156"/>
     <use xlink:href="#DejaVuSans-20" x="665.039062"/>
     <use xlink:href="#DejaVuSans-4e" x="696.826172"/>
     <use xlink:href="#DejaVuSans-65" x="771.630859"/>
     <use xlink:href="#DejaVuSans-74" x="833.154297"/>
     <use xlink:href="#DejaVuSans-77" x="872.363281"/>
     <use xlink:href="#DejaVuSans-6f" x="954.150391"/>
     <use xlink:href="#DejaVuSans-72" x="1015.332031"/>
     <use xlink:href="#DejaVuSans-6b" x="1056.445312"/>
     <use xlink:href="#DejaVuSans-2e" x="1114.355469"/>
     <use xlink:href="#DejaVuSans-6e" x="1146.142578"/>
     <use xlink:href="#DejaVuSans-6f" x="1209.521484"/>
     <use xlink:href="#DejaVuSans-64" x="1270.703125"/>
     <use xlink:href="#DejaVuSans-65" x="1334.179688"/>
     <use xlink:href="#DejaVuSans-5b" x="1395.703125"/>
     <use xlink:href="#DejaVuSans-30" x="1434.716797"/>
     <use xlink:href="#DejaVuSans-5d" x="1498.339844"/>
     <use xlink:href="#DejaVuSans-2e" x="1537.353516"/>
     <use xlink:href="#DejaVuSans-6c" x="1569.140625"/>
     <use xlink:href="#DejaVuSans-6e" x="1596.923828"/>
     <use xlink:href="#DejaVuSans-6b" x="1660.302734"/>
     <use xlink:href="#DejaVuSans-5b" x="1718.212891"/>
     <use xlink:href="#DejaVuSans-30" x="1757.226562"/>
     <use xlink:href="#DejaVuSans-5d" x="1820.849609"/>
    </g>
   </g>
   <g id="legend_1">
    <g id="patch_7">
     <path d="M 580.201563 53.498125 
L 802.1875 53.498125 
L 802.1875 35.82 
L 580.201563 35.82 
z
" style="fill: #e5e5e5; opacity: 0.8; stroke: #cccccc; stroke-width: 0.5; stroke-linejoin: miter"/>
    </g>
    <g id="line2d_38">
     <path d="M 584.201563 43.918438 
L 594.201563 43.918438 
L 604.201563 43.918438 
" style="fill: none; stroke: #e24a33; stroke-width: 1.5; stroke-linecap: square"/>
    </g>
    <g id="text_20">
     <!-- Buffer Size in Network.node[0].lnk[0] -->
     <g transform="translate(612.201563 47.418438) scale(0.1 -0.1)">
      <use xlink:href="#DejaVuSans-42"/>
      <use xlink:href="#DejaVuSans-75" x="68.603516"/>
      <use xlink:href="#DejaVuSans-66" x="131.982422"/>
      <use xlink:href="#DejaVuSans-66" x="167.1875"/>
      <use xlink:href="#DejaVuSans-65" x="202.392578"/>
      <use xlink:href="#DejaVuSans-72" x="263.916016"/>
      <use xlink:href="#DejaVuSans-20" x="305.029297"/>
      <use xlink:href="#DejaVuSans-53" x="336.816406"/>
      <use xlink:href="#DejaVuSans-69" x="400.292969"/>
      <use xlink:href="#DejaVuSans-7a" x="428.076172"/>
      <use xlink:href="#DejaVuSans-65" x="480.566406"/>
      <use xlink:href="#DejaVuSans-20" x="542.089844"/>
      <use xlink:href="#DejaVuSans-69" x="573.876953"/>
      <use xlink:href="#DejaVuSans-6e" x="601.660156"/>
      <use xlink:href="#DejaVuSans-20" x="665.039062"/>
      <use xlink:href="#DejaVuSans-4e" x="696.826172"/>
      <use xlink:href="#DejaVuSans-65" x="771.630859"/>
      <use xlink:href="#DejaVuSans-74" x="833.154297"/>
      <use xlink:href="#DejaVuSans-77" x="872.363281"/>
      <use xlink:href="#DejaVuSans-6f" x="954.150391"/>
      <use xlink:href="#DejaVuSans-72" x="1015.332031"/>
      <use xlink:href="#DejaVuSans-6b" x="1056.445312"/>
      <use xlink:href="#DejaVuSans-2e" x="1114.355469"/>
      <use xlink:href="#DejaVuSans-6e" x="1146.142578"/>
      <use xlink:href="#DejaVuSans-6f" x="1209.521484"/>
      <use xlink:href="#DejaVuSans-64" x="1270.703125"/>
      <use xlink:href="#DejaVuSans-65" x="1334.179688"/>
      <use xlink:href="#DejaVuSans-5b" x="1395.703125"/>
      <use xlink:href="#DejaVuSans-30" x="1434.716797"/>
      <use xlink:href="#DejaVuSans-5d" x="1498.339844"/>
      <use xlink:href="#DejaVuSans-2e" x="1537.353516"/>
      <use xlink:href="#DejaVuSans-6c" x="1569.140625"/>
      <use xlink:href="#DejaVuSans-6e" x="1596.923828"/>
      <use xlink:href="#DejaVuSans-6b" x="1660.302734"/>
      <use xlink:href="#DejaVuSans-5b" x="1718.212891"/>
      <use xlink:href="#DejaVuSans-30" x="1757.226562"/>
      <use xlink:href="#DejaVuSans-5d" x="1820.849609"/>
     </g>
    </g>
   </g>
  </g>
 </g>
 <defs>
  <clipPath id="p16efc1e324">
   <rect x="65.992063" y="30.82" width="741.195438" height="323.967333"/>
  </clipPath>
 </defs>
</svg>
