<?xml version="1.0" encoding="utf-8" standalone="no"?>
<!DOCTYPE svg PUBLIC "-//W3C//DTD SVG 1.1//EN"
  "http://www.w3.org/Graphics/SVG/1.1/DTD/svg11.dtd">
<svg xmlns:xlink="http://www.w3.org/1999/xlink" width="826.56pt" height="378pt" viewBox="0 0 826.56 378" xmlns="http://www.w3.org/2000/svg" version="1.1">
 <metadata>
  <rdf:RDF xmlns:dc="http://purl.org/dc/elements/1.1/" xmlns:cc="http://creativecommons.org/ns#" xmlns:rdf="http://www.w3.org/1999/02/22-rdf-syntax-ns#">
   <cc:Work>
    <dc:type rdf:resource="http://purl.org/dc/dcmitype/StillImage"/>
    <dc:date>2025-06-03T22:21:25.456862</dc:date>
    <dc:format>image/svg+xml</dc:format>
    <dc:creator>
     <cc:Agent>
      <dc:title>Matplotlib v3.7.1, https://matplotlib.org/</dc:title>
     </cc:Agent>
    </dc:creator>
   </cc:Work>
  </rdf:RDF>
 </metadata>
 <defs>
  <style type="text/css">*{stroke-linejoin: round; stroke-linecap: butt}</style>
 </defs>
 <g id="figure_1">
  <g id="patch_1">
   <path d="M 0 378 
L 826.56 378 
L 826.56 0 
L 0 0 
z
" style="fill: #ffffff"/>
  </g>
  <g id="axes_1">
   <g id="patch_2">
    <path d="M 65.992063 347.50625 
L 807.1875 347.50625 
L 807.1875 30.1875 
L 65.992063 30.1875 
z
" style="fill: #e5e5e5"/>
   </g>
   <g id="matplotlib.axis_1">
    <g id="xtick_1">
     <g id="line2d_1">
      <path d="M 93.358782 347.50625 
L 93.358782 30.1875 
" clip-path="url(#pe0f7ae080d)" style="fill: none; stroke: #ffffff; stroke-width: 0.8; stroke-linecap: square"/>
     </g>
     <g id="line2d_2">
      <defs>
       <path id="m5961f32797" d="M 0 0 
L 0 3.5 
" style="stroke: #555555; stroke-width: 0.8"/>
      </defs>
      <g>
       <use xlink:href="#m5961f32797" x="93.358782" y="347.50625" style="fill: #555555; stroke: #555555; stroke-width: 0.8"/>
      </g>
     </g>
     <g id="text_1">
      <!-- 0 -->
      <g style="fill: #555555" transform="translate(90.177532 362.104688) scale(0.1 -0.1)">
       <defs>
        <path id="DejaVuSans-30" d="M 2034 4250 
Q 1547 4250 1301 3770 
Q 1056 3291 1056 2328 
Q 1056 1369 1301 889 
Q 1547 409 2034 409 
Q 2525 409 2770 889 
Q 3016 1369 3016 2328 
Q 3016 3291 2770 3770 
Q 2525 4250 2034 4250 
z
M 2034 4750 
Q 2819 4750 3233 4129 
Q 3647 3509 3647 2328 
Q 3647 1150 3233 529 
Q 2819 -91 2034 -91 
Q 1250 -91 836 529 
Q 422 1150 422 2328 
Q 422 3509 836 4129 
Q 1250 4750 2034 4750 
z
" transform="scale(0.015625)"/>
       </defs>
       <use xlink:href="#DejaVuSans-30"/>
      </g>
     </g>
    </g>
    <g id="xtick_2">
     <g id="line2d_3">
      <path d="M 178.376631 347.50625 
L 178.376631 30.1875 
" clip-path="url(#pe0f7ae080d)" style="fill: none; stroke: #ffffff; stroke-width: 0.8; stroke-linecap: square"/>
     </g>
     <g id="line2d_4">
      <g>
       <use xlink:href="#m5961f32797" x="178.376631" y="347.50625" style="fill: #555555; stroke: #555555; stroke-width: 0.8"/>
      </g>
     </g>
     <g id="text_2">
      <!-- 25 -->
      <g style="fill: #555555" transform="translate(172.014131 362.104688) scale(0.1 -0.1)">
       <defs>
        <path id="DejaVuSans-32" d="M 1228 531 
L 3431 531 
L 3431 0 
L 469 0 
L 469 531 
Q 828 903 1448 1529 
Q 2069 2156 2228 2338 
Q 2531 2678 2651 2914 
Q 2772 3150 2772 3378 
Q 2772 3750 2511 3984 
Q 2250 4219 1831 4219 
Q 1534 4219 1204 4116 
Q 875 4013 500 3803 
L 500 4441 
Q 881 4594 1212 4672 
Q 1544 4750 1819 4750 
Q 2544 4750 2975 4387 
Q 3406 4025 3406 3419 
Q 3406 3131 3298 2873 
Q 3191 2616 2906 2266 
Q 2828 2175 2409 1742 
Q 1991 1309 1228 531 
z
" transform="scale(0.015625)"/>
        <path id="DejaVuSans-35" d="M 691 4666 
L 3169 4666 
L 3169 4134 
L 1269 4134 
L 1269 2991 
Q 1406 3038 1543 3061 
Q 1681 3084 1819 3084 
Q 2600 3084 3056 2656 
Q 3513 2228 3513 1497 
Q 3513 744 3044 326 
Q 2575 -91 1722 -91 
Q 1428 -91 1123 -41 
Q 819 9 494 109 
L 494 744 
Q 775 591 1075 516 
Q 1375 441 1709 441 
Q 2250 441 2565 725 
Q 2881 1009 2881 1497 
Q 2881 1984 2565 2268 
Q 2250 2553 1709 2553 
Q 1456 2553 1204 2497 
Q 953 2441 691 2322 
L 691 4666 
z
" transform="scale(0.015625)"/>
       </defs>
       <use xlink:href="#DejaVuSans-32"/>
       <use xlink:href="#DejaVuSans-35" x="63.623047"/>
      </g>
     </g>
    </g>
    <g id="xtick_3">
     <g id="line2d_5">
      <path d="M 263.394479 347.50625 
L 263.394479 30.1875 
" clip-path="url(#pe0f7ae080d)" style="fill: none; stroke: #ffffff; stroke-width: 0.8; stroke-linecap: square"/>
     </g>
     <g id="line2d_6">
      <g>
       <use xlink:href="#m5961f32797" x="263.394479" y="347.50625" style="fill: #555555; stroke: #555555; stroke-width: 0.8"/>
      </g>
     </g>
     <g id="text_3">
      <!-- 50 -->
      <g style="fill: #555555" transform="translate(257.031979 362.104688) scale(0.1 -0.1)">
       <use xlink:href="#DejaVuSans-35"/>
       <use xlink:href="#DejaVuSans-30" x="63.623047"/>
      </g>
     </g>
    </g>
    <g id="xtick_4">
     <g id="line2d_7">
      <path d="M 348.412327 347.50625 
L 348.412327 30.1875 
" clip-path="url(#pe0f7ae080d)" style="fill: none; stroke: #ffffff; stroke-width: 0.8; stroke-linecap: square"/>
     </g>
     <g id="line2d_8">
      <g>
       <use xlink:href="#m5961f32797" x="348.412327" y="347.50625" style="fill: #555555; stroke: #555555; stroke-width: 0.8"/>
      </g>
     </g>
     <g id="text_4">
      <!-- 75 -->
      <g style="fill: #555555" transform="translate(342.049827 362.104688) scale(0.1 -0.1)">
       <defs>
        <path id="DejaVuSans-37" d="M 525 4666 
L 3525 4666 
L 3525 4397 
L 1831 0 
L 1172 0 
L 2766 4134 
L 525 4134 
L 525 4666 
z
" transform="scale(0.015625)"/>
       </defs>
       <use xlink:href="#DejaVuSans-37"/>
       <use xlink:href="#DejaVuSans-35" x="63.623047"/>
      </g>
     </g>
    </g>
    <g id="xtick_5">
     <g id="line2d_9">
      <path d="M 433.430176 347.50625 
L 433.430176 30.1875 
" clip-path="url(#pe0f7ae080d)" style="fill: none; stroke: #ffffff; stroke-width: 0.8; stroke-linecap: square"/>
     </g>
     <g id="line2d_10">
      <g>
       <use xlink:href="#m5961f32797" x="433.430176" y="347.50625" style="fill: #555555; stroke: #555555; stroke-width: 0.8"/>
      </g>
     </g>
     <g id="text_5">
      <!-- 100 -->
      <g style="fill: #555555" transform="translate(423.886426 362.104688) scale(0.1 -0.1)">
       <defs>
        <path id="DejaVuSans-31" d="M 794 531 
L 1825 531 
L 1825 4091 
L 703 3866 
L 703 4441 
L 1819 4666 
L 2450 4666 
L 2450 531 
L 3481 531 
L 3481 0 
L 794 0 
L 794 531 
z
" transform="scale(0.015625)"/>
       </defs>
       <use xlink:href="#DejaVuSans-31"/>
       <use xlink:href="#DejaVuSans-30" x="63.623047"/>
       <use xlink:href="#DejaVuSans-30" x="127.246094"/>
      </g>
     </g>
    </g>
    <g id="xtick_6">
     <g id="line2d_11">
      <path d="M 518.448024 347.50625 
L 518.448024 30.1875 
" clip-path="url(#pe0f7ae080d)" style="fill: none; stroke: #ffffff; stroke-width: 0.8; stroke-linecap: square"/>
     </g>
     <g id="line2d_12">
      <g>
       <use xlink:href="#m5961f32797" x="518.448024" y="347.50625" style="fill: #555555; stroke: #555555; stroke-width: 0.8"/>
      </g>
     </g>
     <g id="text_6">
      <!-- 125 -->
      <g style="fill: #555555" transform="translate(508.904274 362.104688) scale(0.1 -0.1)">
       <use xlink:href="#DejaVuSans-31"/>
       <use xlink:href="#DejaVuSans-32" x="63.623047"/>
       <use xlink:href="#DejaVuSans-35" x="127.246094"/>
      </g>
     </g>
    </g>
    <g id="xtick_7">
     <g id="line2d_13">
      <path d="M 603.465873 347.50625 
L 603.465873 30.1875 
" clip-path="url(#pe0f7ae080d)" style="fill: none; stroke: #ffffff; stroke-width: 0.8; stroke-linecap: square"/>
     </g>
     <g id="line2d_14">
      <g>
       <use xlink:href="#m5961f32797" x="603.465873" y="347.50625" style="fill: #555555; stroke: #555555; stroke-width: 0.8"/>
      </g>
     </g>
     <g id="text_7">
      <!-- 150 -->
      <g style="fill: #555555" transform="translate(593.922123 362.104688) scale(0.1 -0.1)">
       <use xlink:href="#DejaVuSans-31"/>
       <use xlink:href="#DejaVuSans-35" x="63.623047"/>
       <use xlink:href="#DejaVuSans-30" x="127.246094"/>
      </g>
     </g>
    </g>
    <g id="xtick_8">
     <g id="line2d_15">
      <path d="M 688.483721 347.50625 
L 688.483721 30.1875 
" clip-path="url(#pe0f7ae080d)" style="fill: none; stroke: #ffffff; stroke-width: 0.8; stroke-linecap: square"/>
     </g>
     <g id="line2d_16">
      <g>
       <use xlink:href="#m5961f32797" x="688.483721" y="347.50625" style="fill: #555555; stroke: #555555; stroke-width: 0.8"/>
      </g>
     </g>
     <g id="text_8">
      <!-- 175 -->
      <g style="fill: #555555" transform="translate(678.939971 362.104688) scale(0.1 -0.1)">
       <use xlink:href="#DejaVuSans-31"/>
       <use xlink:href="#DejaVuSans-37" x="63.623047"/>
       <use xlink:href="#DejaVuSans-35" x="127.246094"/>
      </g>
     </g>
    </g>
    <g id="xtick_9">
     <g id="line2d_17">
      <path d="M 773.50157 347.50625 
L 773.50157 30.1875 
" clip-path="url(#pe0f7ae080d)" style="fill: none; stroke: #ffffff; stroke-width: 0.8; stroke-linecap: square"/>
     </g>
     <g id="line2d_18">
      <g>
       <use xlink:href="#m5961f32797" x="773.50157" y="347.50625" style="fill: #555555; stroke: #555555; stroke-width: 0.8"/>
      </g>
     </g>
     <g id="text_9">
      <!-- 200 -->
      <g style="fill: #555555" transform="translate(763.95782 362.104688) scale(0.1 -0.1)">
       <use xlink:href="#DejaVuSans-32"/>
       <use xlink:href="#DejaVuSans-30" x="63.623047"/>
       <use xlink:href="#DejaVuSans-30" x="127.246094"/>
      </g>
     </g>
    </g>
   </g>
   <g id="matplotlib.axis_2">
    <g id="ytick_1">
     <g id="line2d_19">
      <path d="M 65.992063 333.08267 
L 807.1875 333.08267 
" clip-path="url(#pe0f7ae080d)" style="fill: none; stroke: #ffffff; stroke-width: 0.8; stroke-linecap: square"/>
     </g>
     <g id="line2d_20">
      <defs>
       <path id="m77d70bcf46" d="M 0 0 
L -3.5 0 
" style="stroke: #555555; stroke-width: 0.8"/>
      </defs>
      <g>
       <use xlink:href="#m77d70bcf46" x="65.992063" y="333.08267" style="fill: #555555; stroke: #555555; stroke-width: 0.8"/>
      </g>
     </g>
     <g id="text_10">
      <!-- 0 -->
      <g style="fill: #555555" transform="translate(52.629563 336.881889) scale(0.1 -0.1)">
       <use xlink:href="#DejaVuSans-30"/>
      </g>
     </g>
    </g>
    <g id="ytick_2">
     <g id="line2d_21">
      <path d="M 65.992063 296.099133 
L 807.1875 296.099133 
" clip-path="url(#pe0f7ae080d)" style="fill: none; stroke: #ffffff; stroke-width: 0.8; stroke-linecap: square"/>
     </g>
     <g id="line2d_22">
      <g>
       <use xlink:href="#m77d70bcf46" x="65.992063" y="296.099133" style="fill: #555555; stroke: #555555; stroke-width: 0.8"/>
      </g>
     </g>
     <g id="text_11">
      <!-- 25 -->
      <g style="fill: #555555" transform="translate(46.267063 299.898352) scale(0.1 -0.1)">
       <use xlink:href="#DejaVuSans-32"/>
       <use xlink:href="#DejaVuSans-35" x="63.623047"/>
      </g>
     </g>
    </g>
    <g id="ytick_3">
     <g id="line2d_23">
      <path d="M 65.992063 259.115596 
L 807.1875 259.115596 
" clip-path="url(#pe0f7ae080d)" style="fill: none; stroke: #ffffff; stroke-width: 0.8; stroke-linecap: square"/>
     </g>
     <g id="line2d_24">
      <g>
       <use xlink:href="#m77d70bcf46" x="65.992063" y="259.115596" style="fill: #555555; stroke: #555555; stroke-width: 0.8"/>
      </g>
     </g>
     <g id="text_12">
      <!-- 50 -->
      <g style="fill: #555555" transform="translate(46.267063 262.914815) scale(0.1 -0.1)">
       <use xlink:href="#DejaVuSans-35"/>
       <use xlink:href="#DejaVuSans-30" x="63.623047"/>
      </g>
     </g>
    </g>
    <g id="ytick_4">
     <g id="line2d_25">
      <path d="M 65.992063 222.132059 
L 807.1875 222.132059 
" clip-path="url(#pe0f7ae080d)" style="fill: none; stroke: #ffffff; stroke-width: 0.8; stroke-linecap: square"/>
     </g>
     <g id="line2d_26">
      <g>
       <use xlink:href="#m77d70bcf46" x="65.992063" y="222.132059" style="fill: #555555; stroke: #555555; stroke-width: 0.8"/>
      </g>
     </g>
     <g id="text_13">
      <!-- 75 -->
      <g style="fill: #555555" transform="translate(46.267063 225.931277) scale(0.1 -0.1)">
       <use xlink:href="#DejaVuSans-37"/>
       <use xlink:href="#DejaVuSans-35" x="63.623047"/>
      </g>
     </g>
    </g>
    <g id="ytick_5">
     <g id="line2d_27">
      <path d="M 65.992063 185.148521 
L 807.1875 185.148521 
" clip-path="url(#pe0f7ae080d)" style="fill: none; stroke: #ffffff; stroke-width: 0.8; stroke-linecap: square"/>
     </g>
     <g id="line2d_28">
      <g>
       <use xlink:href="#m77d70bcf46" x="65.992063" y="185.148521" style="fill: #555555; stroke: #555555; stroke-width: 0.8"/>
      </g>
     </g>
     <g id="text_14">
      <!-- 100 -->
      <g style="fill: #555555" transform="translate(39.904562 188.94774) scale(0.1 -0.1)">
       <use xlink:href="#DejaVuSans-31"/>
       <use xlink:href="#DejaVuSans-30" x="63.623047"/>
       <use xlink:href="#DejaVuSans-30" x="127.246094"/>
      </g>
     </g>
    </g>
    <g id="ytick_6">
     <g id="line2d_29">
      <path d="M 65.992063 148.164984 
L 807.1875 148.164984 
" clip-path="url(#pe0f7ae080d)" style="fill: none; stroke: #ffffff; stroke-width: 0.8; stroke-linecap: square"/>
     </g>
     <g id="line2d_30">
      <g>
       <use xlink:href="#m77d70bcf46" x="65.992063" y="148.164984" style="fill: #555555; stroke: #555555; stroke-width: 0.8"/>
      </g>
     </g>
     <g id="text_15">
      <!-- 125 -->
      <g style="fill: #555555" transform="translate(39.904562 151.964203) scale(0.1 -0.1)">
       <use xlink:href="#DejaVuSans-31"/>
       <use xlink:href="#DejaVuSans-32" x="63.623047"/>
       <use xlink:href="#DejaVuSans-35" x="127.246094"/>
      </g>
     </g>
    </g>
    <g id="ytick_7">
     <g id="line2d_31">
      <path d="M 65.992063 111.181447 
L 807.1875 111.181447 
" clip-path="url(#pe0f7ae080d)" style="fill: none; stroke: #ffffff; stroke-width: 0.8; stroke-linecap: square"/>
     </g>
     <g id="line2d_32">
      <g>
       <use xlink:href="#m77d70bcf46" x="65.992063" y="111.181447" style="fill: #555555; stroke: #555555; stroke-width: 0.8"/>
      </g>
     </g>
     <g id="text_16">
      <!-- 150 -->
      <g style="fill: #555555" transform="translate(39.904562 114.980665) scale(0.1 -0.1)">
       <use xlink:href="#DejaVuSans-31"/>
       <use xlink:href="#DejaVuSans-35" x="63.623047"/>
       <use xlink:href="#DejaVuSans-30" x="127.246094"/>
      </g>
     </g>
    </g>
    <g id="ytick_8">
     <g id="line2d_33">
      <path d="M 65.992063 74.197909 
L 807.1875 74.197909 
" clip-path="url(#pe0f7ae080d)" style="fill: none; stroke: #ffffff; stroke-width: 0.8; stroke-linecap: square"/>
     </g>
     <g id="line2d_34">
      <g>
       <use xlink:href="#m77d70bcf46" x="65.992063" y="74.197909" style="fill: #555555; stroke: #555555; stroke-width: 0.8"/>
      </g>
     </g>
     <g id="text_17">
      <!-- 175 -->
      <g style="fill: #555555" transform="translate(39.904562 77.997128) scale(0.1 -0.1)">
       <use xlink:href="#DejaVuSans-31"/>
       <use xlink:href="#DejaVuSans-37" x="63.623047"/>
       <use xlink:href="#DejaVuSans-35" x="127.246094"/>
      </g>
     </g>
    </g>
    <g id="ytick_9">
     <g id="line2d_35">
      <path d="M 65.992063 37.214372 
L 807.1875 37.214372 
" clip-path="url(#pe0f7ae080d)" style="fill: none; stroke: #ffffff; stroke-width: 0.8; stroke-linecap: square"/>
     </g>
     <g id="line2d_36">
      <g>
       <use xlink:href="#m77d70bcf46" x="65.992063" y="37.214372" style="fill: #555555; stroke: #555555; stroke-width: 0.8"/>
      </g>
     </g>
     <g id="text_18">
      <!-- 200 -->
      <g style="fill: #555555" transform="translate(39.904562 41.013591) scale(0.1 -0.1)">
       <use xlink:href="#DejaVuSans-32"/>
       <use xlink:href="#DejaVuSans-30" x="63.623047"/>
       <use xlink:href="#DejaVuSans-30" x="127.246094"/>
      </g>
     </g>
    </g>
   </g>
   <g id="line2d_37">
    <path d="M 99.682764 331.603329 
L 99.682764 333.08267 
L 103.396484 331.603329 
L 103.396484 333.08267 
L 105.369476 331.603329 
L 106.797198 333.08267 
L 106.797198 331.603329 
L 110.197912 333.08267 
L 110.197912 331.603329 
L 113.598625 333.08267 
L 113.598625 331.603329 
L 116.082303 330.123987 
L 116.510366 328.644646 
L 116.999339 330.123987 
L 117.036557 327.165304 
L 119.657945 325.685963 
L 120.038642 324.206622 
L 120.400053 325.685963 
L 120.400053 324.206622 
L 122.220862 322.72728 
L 123.800767 324.206622 
L 123.800767 322.72728 
L 125.0786 321.247939 
L 127.201481 322.72728 
L 127.201481 321.247939 
L 128.341748 319.768597 
L 130.602195 321.247939 
L 130.602195 319.768597 
L 131.570708 318.289256 
L 134.002909 319.768597 
L 134.002909 318.289256 
L 135.1715 316.809914 
L 136.67939 315.330573 
L 137.403623 316.809914 
L 137.403623 315.330573 
L 138.21686 313.851231 
L 140.804337 315.330573 
L 140.804337 313.851231 
L 141.637539 312.37189 
L 144.205051 313.851231 
L 144.205051 312.37189 
L 145.238021 310.892548 
L 147.427336 309.413207 
L 147.605765 310.892548 
L 147.605765 309.413207 
L 151.006479 310.892548 
L 151.006479 309.413207 
L 151.24691 307.933865 
L 154.407193 309.413207 
L 154.407193 307.933865 
L 157.097266 306.454524 
L 157.807907 307.933865 
L 157.807907 306.454524 
L 161.208621 307.933865 
L 161.208621 306.454524 
L 164.256861 304.975182 
L 164.609335 306.454524 
L 164.609335 304.975182 
L 168.010048 306.454524 
L 168.010048 304.975182 
L 171.410762 306.454524 
L 171.410762 304.975182 
L 174.811476 306.454524 
L 174.811476 304.975182 
L 177.490978 303.495841 
L 178.21219 304.975182 
L 178.21219 303.495841 
L 178.795356 302.016499 
L 181.612904 303.495841 
L 181.612904 302.016499 
L 185.013618 303.495841 
L 185.077589 300.537158 
L 186.647804 299.057816 
L 188.414332 300.537158 
L 188.414332 299.057816 
L 190.784802 297.578475 
L 191.815046 299.057816 
L 191.815046 297.578475 
L 195.21576 299.057816 
L 195.21576 297.578475 
L 198.483112 296.099133 
L 198.616474 297.578475 
L 198.616474 296.099133 
L 198.903191 294.619792 
L 200.103711 293.14045 
L 202.017188 294.619792 
L 202.017188 293.14045 
L 205.417902 294.619792 
L 205.417902 293.14045 
L 205.820047 291.661109 
L 208.818616 293.14045 
L 208.818616 291.661109 
L 209.830791 290.181767 
L 212.197006 288.702426 
L 212.21933 290.181767 
L 212.21933 288.702426 
L 213.905221 287.223084 
L 215.620044 288.702426 
L 215.620044 287.223084 
L 216.095637 285.743743 
L 219.020758 287.223084 
L 219.020758 285.743743 
L 219.766096 284.264401 
L 220.464841 281.305718 
L 222.421471 282.78506 
L 222.421471 281.305718 
L 223.504157 279.826377 
L 224.820676 278.347035 
L 225.822185 279.826377 
L 225.822185 278.347035 
L 229.222899 279.826377 
L 229.222899 278.347035 
L 232.535651 276.867694 
L 232.623613 278.347035 
L 232.623613 276.867694 
L 234.012737 275.388352 
L 234.563211 273.909011 
L 236.024327 275.388352 
L 236.024327 273.909011 
L 239.425041 275.388352 
L 239.425041 273.909011 
L 242.555491 272.429669 
L 242.825755 273.909011 
L 242.825755 272.429669 
L 244.357879 270.950328 
L 244.870677 269.470986 
L 246.226469 270.950328 
L 246.226469 269.470986 
L 246.648808 267.991645 
L 248.237868 266.512303 
L 248.414408 265.032962 
L 249.627183 266.512303 
L 249.627183 265.032962 
L 253.027897 266.512303 
L 253.027897 265.032962 
L 255.259272 263.55362 
L 256.428611 265.032962 
L 256.428611 263.55362 
L 259.711821 262.074279 
L 259.829325 263.55362 
L 259.829325 262.074279 
L 261.119645 260.594937 
L 261.981746 259.115596 
L 263.230039 260.594937 
L 263.230039 259.115596 
L 266.630753 260.594937 
L 266.630753 259.115596 
L 270.031467 260.594937 
L 270.031467 259.115596 
L 270.933169 257.636254 
L 273.432181 259.115596 
L 273.432181 257.636254 
L 274.17007 256.156913 
L 276.832894 257.636254 
L 276.832894 256.156913 
L 278.624275 254.677571 
L 279.425227 253.19823 
L 280.233608 254.677571 
L 280.233608 253.19823 
L 283.634322 254.677571 
L 283.634322 253.19823 
L 287.035036 254.677571 
L 287.035036 253.19823 
L 289.250146 251.718888 
L 290.43575 253.19823 
L 290.43575 251.718888 
L 291.909422 250.239547 
L 293.836464 251.718888 
L 293.836464 250.239547 
L 294.124072 248.760205 
L 296.739628 247.280864 
L 297.237178 248.760205 
L 297.237178 247.280864 
L 298.895443 245.801522 
L 300.637892 247.280864 
L 300.637892 245.801522 
L 304.038606 247.280864 
L 304.038606 245.801522 
L 306.951456 244.322181 
L 307.43932 245.801522 
L 307.43932 244.322181 
L 310.323278 242.842839 
L 310.840034 244.322181 
L 310.840034 242.842839 
L 314.240748 244.322181 
L 314.240748 242.842839 
L 317.641462 244.322181 
L 317.688421 241.363498 
L 318.504332 239.884156 
L 321.042176 241.363498 
L 321.042176 239.884156 
L 324.44289 241.363498 
L 324.44289 239.884156 
L 327.843603 241.363498 
L 327.843603 239.884156 
L 329.240711 238.404815 
L 329.894537 236.925473 
L 331.244317 238.404815 
L 331.244317 236.925473 
L 331.609449 235.446132 
L 333.077548 232.487449 
L 334.645031 233.966791 
L 334.645031 232.487449 
L 335.354464 231.008108 
L 335.684903 229.528766 
L 338.045745 231.008108 
L 338.045745 229.528766 
L 341.446459 231.008108 
L 341.446459 229.528766 
L 343.644247 228.049425 
L 344.847173 229.528766 
L 344.847173 228.049425 
L 348.247887 229.528766 
L 348.247887 228.049425 
L 349.731489 226.570083 
L 349.956249 225.090742 
L 351.648601 226.570083 
L 351.648601 225.090742 
L 352.21707 223.6114 
L 355.049315 225.090742 
L 355.049315 223.6114 
L 358.450029 225.090742 
L 358.450029 223.6114 
L 359.329856 222.132059 
L 361.850743 223.6114 
L 361.850743 222.132059 
L 363.605359 220.652717 
L 365.251457 222.132059 
L 365.251457 220.652717 
L 366.990646 219.173376 
L 367.725528 217.694034 
L 368.652171 219.173376 
L 368.652171 217.694034 
L 370.997055 216.214693 
L 371.542306 214.735351 
L 372.052885 216.214693 
L 372.052885 214.735351 
L 375.453599 216.214693 
L 375.453599 214.735351 
L 376.698022 213.25601 
L 376.711817 211.776668 
L 378.854313 213.25601 
L 378.854313 211.776668 
L 380.181181 210.297327 
L 380.897145 208.817985 
L 381.760965 207.338644 
L 382.111131 205.859302 
L 382.255026 207.338644 
L 382.255026 205.859302 
L 383.883171 204.379961 
L 385.65574 205.859302 
L 385.65574 204.379961 
L 389.056454 205.859302 
L 389.056454 204.379961 
L 392.457168 205.859302 
L 392.457168 204.379961 
L 395.857882 205.859302 
L 395.857882 204.379961 
L 396.156147 202.900619 
L 399.258596 204.379961 
L 399.258596 202.900619 
L 401.162692 201.421278 
L 402.120074 199.941936 
L 402.65931 201.421278 
L 402.65931 199.941936 
L 404.04452 198.462595 
L 406.060024 199.941936 
L 406.060024 198.462595 
L 409.460738 199.941936 
L 409.460738 198.462595 
L 410.062491 196.983253 
L 412.861452 198.462595 
L 412.861452 196.983253 
L 413.972432 195.503912 
L 414.171469 194.02457 
L 416.262166 195.503912 
L 416.262166 194.02457 
L 418.231967 192.545229 
L 419.253286 191.065887 
L 419.66288 192.545229 
L 419.66288 191.065887 
L 422.265505 189.586546 
L 423.063594 191.065887 
L 423.063594 189.586546 
L 426.464308 191.065887 
L 426.53644 188.107204 
L 427.782636 186.627863 
L 429.603393 185.148521 
L 429.725828 183.66918 
L 429.865022 185.148521 
L 429.865022 183.66918 
L 433.265736 185.148521 
L 433.265736 183.66918 
L 434.931805 182.189838 
L 436.271883 180.710497 
L 436.666449 182.189838 
L 436.666449 180.710497 
L 436.864283 179.231155 
L 440.067163 180.710497 
L 440.067163 179.231155 
L 443.467877 180.710497 
L 443.467877 179.231155 
L 444.832971 177.751814 
L 445.166648 176.272472 
L 446.868591 177.751814 
L 446.868591 176.272472 
L 450.269305 177.751814 
L 450.269305 176.272472 
L 453.137478 174.793131 
L 453.670019 176.272472 
L 453.670019 174.793131 
L 454.038984 173.313789 
L 457.070733 174.793131 
L 457.070733 173.313789 
L 460.471447 174.793131 
L 460.471447 173.313789 
L 463.872161 174.793131 
L 463.872161 173.313789 
L 464.489633 171.834448 
L 464.791727 170.355106 
L 465.382283 168.875765 
L 467.272875 170.355106 
L 467.272875 168.875765 
L 468.796774 167.396423 
L 470.673589 168.875765 
L 470.673589 167.396423 
L 470.928863 164.43774 
L 472.175923 162.958399 
L 474.074303 164.43774 
L 474.074303 162.958399 
L 477.475017 164.43774 
L 477.475017 162.958399 
L 480.875731 164.43774 
L 480.875731 162.958399 
L 483.036993 161.479057 
L 484.276445 162.958399 
L 484.382199 159.999716 
L 487.677159 161.479057 
L 487.677159 159.999716 
L 490.603948 158.520374 
L 491.077872 159.999716 
L 491.077872 158.520374 
L 494.478586 159.999716 
L 494.478586 158.520374 
L 497.8793 159.999716 
L 497.8793 158.520374 
L 501.280014 159.999716 
L 501.280014 158.520374 
L 504.198518 157.041033 
L 504.680728 158.520374 
L 504.680728 157.041033 
L 505.828183 155.561691 
L 508.081442 157.041033 
L 508.081442 155.561691 
L 509.245674 154.08235 
L 511.482156 155.561691 
L 511.587113 152.603008 
L 514.88287 154.08235 
L 514.88287 152.603008 
L 515.756838 151.123667 
L 518.283584 152.603008 
L 518.283584 151.123667 
L 521.684298 152.603008 
L 521.684298 151.123667 
L 524.564095 149.644325 
L 525.085012 151.123667 
L 525.085012 149.644325 
L 528.485726 151.123667 
L 528.485726 149.644325 
L 531.88644 151.123667 
L 531.88644 149.644325 
L 532.567114 148.164984 
L 533.47108 146.685642 
L 535.125592 145.206301 
L 535.287154 146.685642 
L 535.287154 145.206301 
L 535.536505 143.726959 
L 538.687868 145.206301 
L 538.687868 143.726959 
L 542.088582 145.206301 
L 542.088582 143.726959 
L 542.796017 142.247618 
L 544.824713 140.768277 
L 545.489295 142.247618 
L 545.489295 140.768277 
L 548.890009 142.247618 
L 548.890009 140.768277 
L 551.039607 139.288935 
L 552.290723 140.768277 
L 552.290723 139.288935 
L 552.498214 137.809594 
L 555.691437 139.288935 
L 555.691437 137.809594 
L 559.092151 139.288935 
L 559.092151 137.809594 
L 562.492865 139.288935 
L 562.492865 137.809594 
L 564.19988 136.330252 
L 565.893579 137.809594 
L 565.893579 136.330252 
L 569.294293 137.809594 
L 569.294293 136.330252 
L 572.695007 137.809594 
L 572.695007 136.330252 
L 575.883452 134.850911 
L 576.095721 136.330252 
L 576.095721 134.850911 
L 578.280783 133.371569 
L 579.496435 134.850911 
L 579.496435 133.371569 
L 582.897149 134.850911 
L 582.897149 133.371569 
L 585.940867 131.892228 
L 586.297863 133.371569 
L 586.297863 131.892228 
L 587.30245 130.412886 
L 587.678283 128.933545 
L 589.698577 130.412886 
L 589.698577 128.933545 
L 590.12124 127.454203 
L 593.099291 128.933545 
L 593.099291 127.454203 
L 594.703528 125.974862 
L 595.48337 124.49552 
L 596.500004 125.974862 
L 596.500004 124.49552 
L 599.327732 123.016179 
L 599.900718 124.49552 
L 599.900718 123.016179 
L 601.995784 121.536837 
L 603.207002 120.057496 
L 603.301432 118.578154 
L 605.862958 117.098813 
L 606.430183 115.619471 
L 606.702146 117.098813 
L 606.702146 115.619471 
L 607.856712 114.14013 
L 608.65726 112.660788 
L 609.013356 111.181447 
L 610.10286 112.660788 
L 610.176995 109.702105 
L 612.810905 108.222764 
L 613.503574 109.702105 
L 613.503574 108.222764 
L 616.904288 109.702105 
L 616.904288 108.222764 
L 620.305002 109.702105 
L 620.305002 108.222764 
L 622.921936 106.743422 
L 623.705716 108.222764 
L 623.705716 106.743422 
L 627.10643 108.222764 
L 627.10643 106.743422 
L 628.636095 105.264081 
L 630.507144 106.743422 
L 630.507144 105.264081 
L 631.131777 103.784739 
L 633.233597 102.305398 
L 633.907858 103.784739 
L 633.907858 102.305398 
L 635.867836 100.826056 
L 637.308572 102.305398 
L 637.308572 100.826056 
L 640.709286 102.305398 
L 640.709286 100.826056 
L 643.081276 99.346715 
L 644.11 100.826056 
L 644.11 99.346715 
L 647.510714 100.826056 
L 647.510714 99.346715 
L 650.911427 100.826056 
L 650.911427 99.346715 
L 651.771861 97.867373 
L 653.448 96.388032 
L 654.04282 94.90869 
L 654.312141 96.388032 
L 654.312141 94.90869 
L 656.993807 93.429349 
L 657.712855 94.90869 
L 657.712855 93.429349 
L 659.004659 91.950007 
L 659.540856 90.470666 
L 660.931468 88.991324 
L 661.113569 90.470666 
L 661.113569 88.991324 
L 662.904867 87.511983 
L 663.871417 86.032641 
L 664.081636 84.5533 
L 664.514283 86.032641 
L 664.514283 84.5533 
L 666.560779 83.073958 
L 667.914997 84.5533 
L 667.914997 83.073958 
L 671.315711 84.5533 
L 671.315711 83.073958 
L 674.325949 81.594617 
L 674.716425 83.073958 
L 674.716425 81.594617 
L 678.117139 83.073958 
L 678.117139 81.594617 
L 681.517853 83.073958 
L 681.517853 81.594617 
L 684.918567 83.073958 
L 684.918567 81.594617 
L 686.275986 80.115275 
L 688.319281 81.594617 
L 688.349612 78.635934 
L 691.719995 80.115275 
L 691.719995 78.635934 
L 695.120709 80.115275 
L 695.120709 78.635934 
L 698.521423 80.115275 
L 698.521423 78.635934 
L 700.330842 77.156592 
L 701.922137 78.635934 
L 701.922137 77.156592 
L 705.32285 78.635934 
L 705.32285 77.156592 
L 706.033618 75.677251 
L 708.723564 77.156592 
L 708.723564 75.677251 
L 710.952096 74.197909 
L 712.124278 75.677251 
L 712.124278 74.197909 
L 715.524992 75.677251 
L 715.524992 74.197909 
L 715.880825 72.718568 
L 717.218045 71.239226 
L 718.925706 72.718568 
L 718.925706 71.239226 
L 722.32642 72.718568 
L 722.32642 71.239226 
L 725.727134 72.718568 
L 725.727134 71.239226 
L 726.591137 69.759885 
L 728.218639 68.280543 
L 729.127848 69.759885 
L 729.127848 68.280543 
L 732.528562 69.759885 
L 732.528562 68.280543 
L 733.14337 66.801202 
L 734.782443 65.32186 
L 735.127781 63.842519 
L 735.757444 62.363177 
L 735.929276 63.842519 
L 735.962568 60.883836 
L 737.038 59.404494 
L 739.21757 57.925153 
L 739.32999 59.404494 
L 739.32999 57.925153 
L 742.730704 59.404494 
L 742.730704 57.925153 
L 746.131418 59.404494 
L 746.131418 57.925153 
L 749.532132 59.404494 
L 749.532132 57.925153 
L 752.514841 56.445811 
L 752.761787 54.96647 
L 752.932846 56.445811 
L 752.932846 54.96647 
L 756.33356 56.445811 
L 756.33356 54.96647 
L 758.639103 53.487128 
L 759.734273 54.96647 
L 759.734273 53.487128 
L 760.406868 52.007787 
L 762.142114 50.528446 
L 763.134987 52.007787 
L 763.134987 50.528446 
L 765.312214 49.049104 
L 766.535701 50.528446 
L 766.535701 49.049104 
L 769.209698 47.569763 
L 769.936415 49.049104 
L 769.936415 47.569763 
L 770.971007 46.090421 
L 773.337129 47.569763 
L 773.337129 46.090421 
L 773.496798 44.61108 
L 773.496798 44.61108 
" clip-path="url(#pe0f7ae080d)" style="fill: none; stroke: #e24a33; stroke-width: 1.5; stroke-linecap: square"/>
   </g>
   <g id="patch_3">
    <path d="M 65.992063 347.50625 
L 65.992063 30.1875 
" style="fill: none; stroke: #ffffff; stroke-linejoin: miter; stroke-linecap: square"/>
   </g>
   <g id="patch_4">
    <path d="M 807.1875 347.50625 
L 807.1875 30.1875 
" style="fill: none; stroke: #ffffff; stroke-linejoin: miter; stroke-linecap: square"/>
   </g>
   <g id="patch_5">
    <path d="M 65.992063 347.50625 
L 807.1875 347.50625 
" style="fill: none; stroke: #ffffff; stroke-linejoin: miter; stroke-linecap: square"/>
   </g>
   <g id="patch_6">
    <path d="M 65.992063 30.1875 
L 807.1875 30.1875 
" style="fill: none; stroke: #ffffff; stroke-linejoin: miter; stroke-linecap: square"/>
   </g>
   <g id="text_19">
    <!-- Buffer Size in Network.node[1].lnk[0] -->
    <g transform="translate(302.679906 24.1875) scale(0.144 -0.144)">
     <defs>
      <path id="DejaVuSans-42" d="M 1259 2228 
L 1259 519 
L 2272 519 
Q 2781 519 3026 730 
Q 3272 941 3272 1375 
Q 3272 1813 3026 2020 
Q 2781 2228 2272 2228 
L 1259 2228 
z
M 1259 4147 
L 1259 2741 
L 2194 2741 
Q 2656 2741 2882 2914 
Q 3109 3088 3109 3444 
Q 3109 3797 2882 3972 
Q 2656 4147 2194 4147 
L 1259 4147 
z
M 628 4666 
L 2241 4666 
Q 2963 4666 3353 4366 
Q 3744 4066 3744 3513 
Q 3744 3084 3544 2831 
Q 3344 2578 2956 2516 
Q 3422 2416 3680 2098 
Q 3938 1781 3938 1306 
Q 3938 681 3513 340 
Q 3088 0 2303 0 
L 628 0 
L 628 4666 
z
" transform="scale(0.015625)"/>
      <path id="DejaVuSans-75" d="M 544 1381 
L 544 3500 
L 1119 3500 
L 1119 1403 
Q 1119 906 1312 657 
Q 1506 409 1894 409 
Q 2359 409 2629 706 
Q 2900 1003 2900 1516 
L 2900 3500 
L 3475 3500 
L 3475 0 
L 2900 0 
L 2900 538 
Q 2691 219 2414 64 
Q 2138 -91 1772 -91 
Q 1169 -91 856 284 
Q 544 659 544 1381 
z
M 1991 3584 
L 1991 3584 
z
" transform="scale(0.015625)"/>
      <path id="DejaVuSans-66" d="M 2375 4863 
L 2375 4384 
L 1825 4384 
Q 1516 4384 1395 4259 
Q 1275 4134 1275 3809 
L 1275 3500 
L 2222 3500 
L 2222 3053 
L 1275 3053 
L 1275 0 
L 697 0 
L 697 3053 
L 147 3053 
L 147 3500 
L 697 3500 
L 697 3744 
Q 697 4328 969 4595 
Q 1241 4863 1831 4863 
L 2375 4863 
z
" transform="scale(0.015625)"/>
      <path id="DejaVuSans-65" d="M 3597 1894 
L 3597 1613 
L 953 1613 
Q 991 1019 1311 708 
Q 1631 397 2203 397 
Q 2534 397 2845 478 
Q 3156 559 3463 722 
L 3463 178 
Q 3153 47 2828 -22 
Q 2503 -91 2169 -91 
Q 1331 -91 842 396 
Q 353 884 353 1716 
Q 353 2575 817 3079 
Q 1281 3584 2069 3584 
Q 2775 3584 3186 3129 
Q 3597 2675 3597 1894 
z
M 3022 2063 
Q 3016 2534 2758 2815 
Q 2500 3097 2075 3097 
Q 1594 3097 1305 2825 
Q 1016 2553 972 2059 
L 3022 2063 
z
" transform="scale(0.015625)"/>
      <path id="DejaVuSans-72" d="M 2631 2963 
Q 2534 3019 2420 3045 
Q 2306 3072 2169 3072 
Q 1681 3072 1420 2755 
Q 1159 2438 1159 1844 
L 1159 0 
L 581 0 
L 581 3500 
L 1159 3500 
L 1159 2956 
Q 1341 3275 1631 3429 
Q 1922 3584 2338 3584 
Q 2397 3584 2469 3576 
Q 2541 3569 2628 3553 
L 2631 2963 
z
" transform="scale(0.015625)"/>
      <path id="DejaVuSans-20" transform="scale(0.015625)"/>
      <path id="DejaVuSans-53" d="M 3425 4513 
L 3425 3897 
Q 3066 4069 2747 4153 
Q 2428 4238 2131 4238 
Q 1616 4238 1336 4038 
Q 1056 3838 1056 3469 
Q 1056 3159 1242 3001 
Q 1428 2844 1947 2747 
L 2328 2669 
Q 3034 2534 3370 2195 
Q 3706 1856 3706 1288 
Q 3706 609 3251 259 
Q 2797 -91 1919 -91 
Q 1588 -91 1214 -16 
Q 841 59 441 206 
L 441 856 
Q 825 641 1194 531 
Q 1563 422 1919 422 
Q 2459 422 2753 634 
Q 3047 847 3047 1241 
Q 3047 1584 2836 1778 
Q 2625 1972 2144 2069 
L 1759 2144 
Q 1053 2284 737 2584 
Q 422 2884 422 3419 
Q 422 4038 858 4394 
Q 1294 4750 2059 4750 
Q 2388 4750 2728 4690 
Q 3069 4631 3425 4513 
z
" transform="scale(0.015625)"/>
      <path id="DejaVuSans-69" d="M 603 3500 
L 1178 3500 
L 1178 0 
L 603 0 
L 603 3500 
z
M 603 4863 
L 1178 4863 
L 1178 4134 
L 603 4134 
L 603 4863 
z
" transform="scale(0.015625)"/>
      <path id="DejaVuSans-7a" d="M 353 3500 
L 3084 3500 
L 3084 2975 
L 922 459 
L 3084 459 
L 3084 0 
L 275 0 
L 275 525 
L 2438 3041 
L 353 3041 
L 353 3500 
z
" transform="scale(0.015625)"/>
      <path id="DejaVuSans-6e" d="M 3513 2113 
L 3513 0 
L 2938 0 
L 2938 2094 
Q 2938 2591 2744 2837 
Q 2550 3084 2163 3084 
Q 1697 3084 1428 2787 
Q 1159 2491 1159 1978 
L 1159 0 
L 581 0 
L 581 3500 
L 1159 3500 
L 1159 2956 
Q 1366 3272 1645 3428 
Q 1925 3584 2291 3584 
Q 2894 3584 3203 3211 
Q 3513 2838 3513 2113 
z
" transform="scale(0.015625)"/>
      <path id="DejaVuSans-4e" d="M 628 4666 
L 1478 4666 
L 3547 763 
L 3547 4666 
L 4159 4666 
L 4159 0 
L 3309 0 
L 1241 3903 
L 1241 0 
L 628 0 
L 628 4666 
z
" transform="scale(0.015625)"/>
      <path id="DejaVuSans-74" d="M 1172 4494 
L 1172 3500 
L 2356 3500 
L 2356 3053 
L 1172 3053 
L 1172 1153 
Q 1172 725 1289 603 
Q 1406 481 1766 481 
L 2356 481 
L 2356 0 
L 1766 0 
Q 1100 0 847 248 
Q 594 497 594 1153 
L 594 3053 
L 172 3053 
L 172 3500 
L 594 3500 
L 594 4494 
L 1172 4494 
z
" transform="scale(0.015625)"/>
      <path id="DejaVuSans-77" d="M 269 3500 
L 844 3500 
L 1563 769 
L 2278 3500 
L 2956 3500 
L 3675 769 
L 4391 3500 
L 4966 3500 
L 4050 0 
L 3372 0 
L 2619 2869 
L 1863 0 
L 1184 0 
L 269 3500 
z
" transform="scale(0.015625)"/>
      <path id="DejaVuSans-6f" d="M 1959 3097 
Q 1497 3097 1228 2736 
Q 959 2375 959 1747 
Q 959 1119 1226 758 
Q 1494 397 1959 397 
Q 2419 397 2687 759 
Q 2956 1122 2956 1747 
Q 2956 2369 2687 2733 
Q 2419 3097 1959 3097 
z
M 1959 3584 
Q 2709 3584 3137 3096 
Q 3566 2609 3566 1747 
Q 3566 888 3137 398 
Q 2709 -91 1959 -91 
Q 1206 -91 779 398 
Q 353 888 353 1747 
Q 353 2609 779 3096 
Q 1206 3584 1959 3584 
z
" transform="scale(0.015625)"/>
      <path id="DejaVuSans-6b" d="M 581 4863 
L 1159 4863 
L 1159 1991 
L 2875 3500 
L 3609 3500 
L 1753 1863 
L 3688 0 
L 2938 0 
L 1159 1709 
L 1159 0 
L 581 0 
L 581 4863 
z
" transform="scale(0.015625)"/>
      <path id="DejaVuSans-2e" d="M 684 794 
L 1344 794 
L 1344 0 
L 684 0 
L 684 794 
z
" transform="scale(0.015625)"/>
      <path id="DejaVuSans-64" d="M 2906 2969 
L 2906 4863 
L 3481 4863 
L 3481 0 
L 2906 0 
L 2906 525 
Q 2725 213 2448 61 
Q 2172 -91 1784 -91 
Q 1150 -91 751 415 
Q 353 922 353 1747 
Q 353 2572 751 3078 
Q 1150 3584 1784 3584 
Q 2172 3584 2448 3432 
Q 2725 3281 2906 2969 
z
M 947 1747 
Q 947 1113 1208 752 
Q 1469 391 1925 391 
Q 2381 391 2643 752 
Q 2906 1113 2906 1747 
Q 2906 2381 2643 2742 
Q 2381 3103 1925 3103 
Q 1469 3103 1208 2742 
Q 947 2381 947 1747 
z
" transform="scale(0.015625)"/>
      <path id="DejaVuSans-5b" d="M 550 4863 
L 1875 4863 
L 1875 4416 
L 1125 4416 
L 1125 -397 
L 1875 -397 
L 1875 -844 
L 550 -844 
L 550 4863 
z
" transform="scale(0.015625)"/>
      <path id="DejaVuSans-5d" d="M 1947 4863 
L 1947 -844 
L 622 -844 
L 622 -397 
L 1369 -397 
L 1369 4416 
L 622 4416 
L 622 4863 
L 1947 4863 
z
" transform="scale(0.015625)"/>
      <path id="DejaVuSans-6c" d="M 603 4863 
L 1178 4863 
L 1178 0 
L 603 0 
L 603 4863 
z
" transform="scale(0.015625)"/>
     </defs>
     <use xlink:href="#DejaVuSans-42"/>
     <use xlink:href="#DejaVuSans-75" x="68.603516"/>
     <use xlink:href="#DejaVuSans-66" x="131.982422"/>
     <use xlink:href="#DejaVuSans-66" x="167.1875"/>
     <use xlink:href="#DejaVuSans-65" x="202.392578"/>
     <use xlink:href="#DejaVuSans-72" x="263.916016"/>
     <use xlink:href="#DejaVuSans-20" x="305.029297"/>
     <use xlink:href="#DejaVuSans-53" x="336.816406"/>
     <use xlink:href="#DejaVuSans-69" x="400.292969"/>
     <use xlink:href="#DejaVuSans-7a" x="428.076172"/>
     <use xlink:href="#DejaVuSans-65" x="480.566406"/>
     <use xlink:href="#DejaVuSans-20" x="542.089844"/>
     <use xlink:href="#DejaVuSans-69" x="573.876953"/>
     <use xlink:href="#DejaVuSans-6e" x="601.660156"/>
     <use xlink:href="#DejaVuSans-20" x="665.039062"/>
     <use xlink:href="#DejaVuSans-4e" x="696.826172"/>
     <use xlink:href="#DejaVuSans-65" x="771.630859"/>
     <use xlink:href="#DejaVuSans-74" x="833.154297"/>
     <use xlink:href="#DejaVuSans-77" x="872.363281"/>
     <use xlink:href="#DejaVuSans-6f" x="954.150391"/>
     <use xlink:href="#DejaVuSans-72" x="1015.332031"/>
     <use xlink:href="#DejaVuSans-6b" x="1056.445312"/>
     <use xlink:href="#DejaVuSans-2e" x="1114.355469"/>
     <use xlink:href="#DejaVuSans-6e" x="1146.142578"/>
     <use xlink:href="#DejaVuSans-6f" x="1209.521484"/>
     <use xlink:href="#DejaVuSans-64" x="1270.703125"/>
     <use xlink:href="#DejaVuSans-65" x="1334.179688"/>
     <use xlink:href="#DejaVuSans-5b" x="1395.703125"/>
     <use xlink:href="#DejaVuSans-31" x="1434.716797"/>
     <use xlink:href="#DejaVuSans-5d" x="1498.339844"/>
     <use xlink:href="#DejaVuSans-2e" x="1537.353516"/>
     <use xlink:href="#DejaVuSans-6c" x="1569.140625"/>
     <use xlink:href="#DejaVuSans-6e" x="1596.923828"/>
     <use xlink:href="#DejaVuSans-6b" x="1660.302734"/>
     <use xlink:href="#DejaVuSans-5b" x="1718.212891"/>
     <use xlink:href="#DejaVuSans-30" x="1757.226562"/>
     <use xlink:href="#DejaVuSans-5d" x="1820.849609"/>
    </g>
   </g>
   <g id="legend_1">
    <g id="patch_7">
     <path d="M 580.201563 52.865625 
L 802.1875 52.865625 
L 802.1875 35.1875 
L 580.201563 35.1875 
z
" style="fill: #e5e5e5; opacity: 0.8; stroke: #cccccc; stroke-width: 0.5; stroke-linejoin: miter"/>
    </g>
    <g id="line2d_38">
     <path d="M 584.201563 43.285938 
L 594.201563 43.285938 
L 604.201563 43.285938 
" style="fill: none; stroke: #e24a33; stroke-width: 1.5; stroke-linecap: square"/>
    </g>
    <g id="text_20">
     <!-- Buffer Size in Network.node[1].lnk[0] -->
     <g transform="translate(612.201563 46.785938) scale(0.1 -0.1)">
      <use xlink:href="#DejaVuSans-42"/>
      <use xlink:href="#DejaVuSans-75" x="68.603516"/>
      <use xlink:href="#DejaVuSans-66" x="131.982422"/>
      <use xlink:href="#DejaVuSans-66" x="167.1875"/>
      <use xlink:href="#DejaVuSans-65" x="202.392578"/>
      <use xlink:href="#DejaVuSans-72" x="263.916016"/>
      <use xlink:href="#DejaVuSans-20" x="305.029297"/>
      <use xlink:href="#DejaVuSans-53" x="336.816406"/>
      <use xlink:href="#DejaVuSans-69" x="400.292969"/>
      <use xlink:href="#DejaVuSans-7a" x="428.076172"/>
      <use xlink:href="#DejaVuSans-65" x="480.566406"/>
      <use xlink:href="#DejaVuSans-20" x="542.089844"/>
      <use xlink:href="#DejaVuSans-69" x="573.876953"/>
      <use xlink:href="#DejaVuSans-6e" x="601.660156"/>
      <use xlink:href="#DejaVuSans-20" x="665.039062"/>
      <use xlink:href="#DejaVuSans-4e" x="696.826172"/>
      <use xlink:href="#DejaVuSans-65" x="771.630859"/>
      <use xlink:href="#DejaVuSans-74" x="833.154297"/>
      <use xlink:href="#DejaVuSans-77" x="872.363281"/>
      <use xlink:href="#DejaVuSans-6f" x="954.150391"/>
      <use xlink:href="#DejaVuSans-72" x="1015.332031"/>
      <use xlink:href="#DejaVuSans-6b" x="1056.445312"/>
      <use xlink:href="#DejaVuSans-2e" x="1114.355469"/>
      <use xlink:href="#DejaVuSans-6e" x="1146.142578"/>
      <use xlink:href="#DejaVuSans-6f" x="1209.521484"/>
      <use xlink:href="#DejaVuSans-64" x="1270.703125"/>
      <use xlink:href="#DejaVuSans-65" x="1334.179688"/>
      <use xlink:href="#DejaVuSans-5b" x="1395.703125"/>
      <use xlink:href="#DejaVuSans-31" x="1434.716797"/>
      <use xlink:href="#DejaVuSans-5d" x="1498.339844"/>
      <use xlink:href="#DejaVuSans-2e" x="1537.353516"/>
      <use xlink:href="#DejaVuSans-6c" x="1569.140625"/>
      <use xlink:href="#DejaVuSans-6e" x="1596.923828"/>
      <use xlink:href="#DejaVuSans-6b" x="1660.302734"/>
      <use xlink:href="#DejaVuSans-5b" x="1718.212891"/>
      <use xlink:href="#DejaVuSans-30" x="1757.226562"/>
      <use xlink:href="#DejaVuSans-5d" x="1820.849609"/>
     </g>
    </g>
   </g>
  </g>
 </g>
 <defs>
  <clipPath id="pe0f7ae080d">
   <rect x="65.992063" y="30.1875" width="741.195438" height="317.31875"/>
  </clipPath>
 </defs>
</svg>
