<?xml version="1.0" encoding="utf-8" standalone="no"?>
<!DOCTYPE svg PUBLIC "-//W3C//DTD SVG 1.1//EN"
  "http://www.w3.org/Graphics/SVG/1.1/DTD/svg11.dtd">
<svg xmlns:xlink="http://www.w3.org/1999/xlink" width="826.56pt" height="378pt" viewBox="0 0 826.56 378" xmlns="http://www.w3.org/2000/svg" version="1.1">
 <metadata>
  <rdf:RDF xmlns:dc="http://purl.org/dc/elements/1.1/" xmlns:cc="http://creativecommons.org/ns#" xmlns:rdf="http://www.w3.org/1999/02/22-rdf-syntax-ns#">
   <cc:Work>
    <dc:type rdf:resource="http://purl.org/dc/dcmitype/StillImage"/>
    <dc:date>2025-06-03T22:22:08.368919</dc:date>
    <dc:format>image/svg+xml</dc:format>
    <dc:creator>
     <cc:Agent>
      <dc:title>Matplotlib v3.7.1, https://matplotlib.org/</dc:title>
     </cc:Agent>
    </dc:creator>
   </cc:Work>
  </rdf:RDF>
 </metadata>
 <defs>
  <style type="text/css">*{stroke-linejoin: round; stroke-linecap: butt}</style>
 </defs>
 <g id="figure_1">
  <g id="patch_1">
   <path d="M 0 378 
L 826.56 378 
L 826.56 0 
L 0 0 
z
" style="fill: #ffffff"/>
  </g>
  <g id="axes_1">
   <g id="patch_2">
    <path d="M 65.992063 347.50625 
L 807.1875 347.50625 
L 807.1875 30.1875 
L 65.992063 30.1875 
z
" style="fill: #e5e5e5"/>
   </g>
   <g id="matplotlib.axis_1">
    <g id="xtick_1">
     <g id="line2d_1">
      <path d="M 93.041458 347.50625 
L 93.041458 30.1875 
" clip-path="url(#p258d0c26e1)" style="fill: none; stroke: #ffffff; stroke-width: 0.8; stroke-linecap: square"/>
     </g>
     <g id="line2d_2">
      <defs>
       <path id="m434f86d490" d="M 0 0 
L 0 3.5 
" style="stroke: #555555; stroke-width: 0.8"/>
      </defs>
      <g>
       <use xlink:href="#m434f86d490" x="93.041458" y="347.50625" style="fill: #555555; stroke: #555555; stroke-width: 0.8"/>
      </g>
     </g>
     <g id="text_1">
      <!-- 0 -->
      <g style="fill: #555555" transform="translate(89.860208 362.104688) scale(0.1 -0.1)">
       <defs>
        <path id="DejaVuSans-30" d="M 2034 4250 
Q 1547 4250 1301 3770 
Q 1056 3291 1056 2328 
Q 1056 1369 1301 889 
Q 1547 409 2034 409 
Q 2525 409 2770 889 
Q 3016 1369 3016 2328 
Q 3016 3291 2770 3770 
Q 2525 4250 2034 4250 
z
M 2034 4750 
Q 2819 4750 3233 4129 
Q 3647 3509 3647 2328 
Q 3647 1150 3233 529 
Q 2819 -91 2034 -91 
Q 1250 -91 836 529 
Q 422 1150 422 2328 
Q 422 3509 836 4129 
Q 1250 4750 2034 4750 
z
" transform="scale(0.015625)"/>
       </defs>
       <use xlink:href="#DejaVuSans-30"/>
      </g>
     </g>
    </g>
    <g id="xtick_2">
     <g id="line2d_3">
      <path d="M 178.118988 347.50625 
L 178.118988 30.1875 
" clip-path="url(#p258d0c26e1)" style="fill: none; stroke: #ffffff; stroke-width: 0.8; stroke-linecap: square"/>
     </g>
     <g id="line2d_4">
      <g>
       <use xlink:href="#m434f86d490" x="178.118988" y="347.50625" style="fill: #555555; stroke: #555555; stroke-width: 0.8"/>
      </g>
     </g>
     <g id="text_2">
      <!-- 25 -->
      <g style="fill: #555555" transform="translate(171.756488 362.104688) scale(0.1 -0.1)">
       <defs>
        <path id="DejaVuSans-32" d="M 1228 531 
L 3431 531 
L 3431 0 
L 469 0 
L 469 531 
Q 828 903 1448 1529 
Q 2069 2156 2228 2338 
Q 2531 2678 2651 2914 
Q 2772 3150 2772 3378 
Q 2772 3750 2511 3984 
Q 2250 4219 1831 4219 
Q 1534 4219 1204 4116 
Q 875 4013 500 3803 
L 500 4441 
Q 881 4594 1212 4672 
Q 1544 4750 1819 4750 
Q 2544 4750 2975 4387 
Q 3406 4025 3406 3419 
Q 3406 3131 3298 2873 
Q 3191 2616 2906 2266 
Q 2828 2175 2409 1742 
Q 1991 1309 1228 531 
z
" transform="scale(0.015625)"/>
        <path id="DejaVuSans-35" d="M 691 4666 
L 3169 4666 
L 3169 4134 
L 1269 4134 
L 1269 2991 
Q 1406 3038 1543 3061 
Q 1681 3084 1819 3084 
Q 2600 3084 3056 2656 
Q 3513 2228 3513 1497 
Q 3513 744 3044 326 
Q 2575 -91 1722 -91 
Q 1428 -91 1123 -41 
Q 819 9 494 109 
L 494 744 
Q 775 591 1075 516 
Q 1375 441 1709 441 
Q 2250 441 2565 725 
Q 2881 1009 2881 1497 
Q 2881 1984 2565 2268 
Q 2250 2553 1709 2553 
Q 1456 2553 1204 2497 
Q 953 2441 691 2322 
L 691 4666 
z
" transform="scale(0.015625)"/>
       </defs>
       <use xlink:href="#DejaVuSans-32"/>
       <use xlink:href="#DejaVuSans-35" x="63.623047"/>
      </g>
     </g>
    </g>
    <g id="xtick_3">
     <g id="line2d_5">
      <path d="M 263.196517 347.50625 
L 263.196517 30.1875 
" clip-path="url(#p258d0c26e1)" style="fill: none; stroke: #ffffff; stroke-width: 0.8; stroke-linecap: square"/>
     </g>
     <g id="line2d_6">
      <g>
       <use xlink:href="#m434f86d490" x="263.196517" y="347.50625" style="fill: #555555; stroke: #555555; stroke-width: 0.8"/>
      </g>
     </g>
     <g id="text_3">
      <!-- 50 -->
      <g style="fill: #555555" transform="translate(256.834017 362.104688) scale(0.1 -0.1)">
       <use xlink:href="#DejaVuSans-35"/>
       <use xlink:href="#DejaVuSans-30" x="63.623047"/>
      </g>
     </g>
    </g>
    <g id="xtick_4">
     <g id="line2d_7">
      <path d="M 348.274047 347.50625 
L 348.274047 30.1875 
" clip-path="url(#p258d0c26e1)" style="fill: none; stroke: #ffffff; stroke-width: 0.8; stroke-linecap: square"/>
     </g>
     <g id="line2d_8">
      <g>
       <use xlink:href="#m434f86d490" x="348.274047" y="347.50625" style="fill: #555555; stroke: #555555; stroke-width: 0.8"/>
      </g>
     </g>
     <g id="text_4">
      <!-- 75 -->
      <g style="fill: #555555" transform="translate(341.911547 362.104688) scale(0.1 -0.1)">
       <defs>
        <path id="DejaVuSans-37" d="M 525 4666 
L 3525 4666 
L 3525 4397 
L 1831 0 
L 1172 0 
L 2766 4134 
L 525 4134 
L 525 4666 
z
" transform="scale(0.015625)"/>
       </defs>
       <use xlink:href="#DejaVuSans-37"/>
       <use xlink:href="#DejaVuSans-35" x="63.623047"/>
      </g>
     </g>
    </g>
    <g id="xtick_5">
     <g id="line2d_9">
      <path d="M 433.351576 347.50625 
L 433.351576 30.1875 
" clip-path="url(#p258d0c26e1)" style="fill: none; stroke: #ffffff; stroke-width: 0.8; stroke-linecap: square"/>
     </g>
     <g id="line2d_10">
      <g>
       <use xlink:href="#m434f86d490" x="433.351576" y="347.50625" style="fill: #555555; stroke: #555555; stroke-width: 0.8"/>
      </g>
     </g>
     <g id="text_5">
      <!-- 100 -->
      <g style="fill: #555555" transform="translate(423.807826 362.104688) scale(0.1 -0.1)">
       <defs>
        <path id="DejaVuSans-31" d="M 794 531 
L 1825 531 
L 1825 4091 
L 703 3866 
L 703 4441 
L 1819 4666 
L 2450 4666 
L 2450 531 
L 3481 531 
L 3481 0 
L 794 0 
L 794 531 
z
" transform="scale(0.015625)"/>
       </defs>
       <use xlink:href="#DejaVuSans-31"/>
       <use xlink:href="#DejaVuSans-30" x="63.623047"/>
       <use xlink:href="#DejaVuSans-30" x="127.246094"/>
      </g>
     </g>
    </g>
    <g id="xtick_6">
     <g id="line2d_11">
      <path d="M 518.429106 347.50625 
L 518.429106 30.1875 
" clip-path="url(#p258d0c26e1)" style="fill: none; stroke: #ffffff; stroke-width: 0.8; stroke-linecap: square"/>
     </g>
     <g id="line2d_12">
      <g>
       <use xlink:href="#m434f86d490" x="518.429106" y="347.50625" style="fill: #555555; stroke: #555555; stroke-width: 0.8"/>
      </g>
     </g>
     <g id="text_6">
      <!-- 125 -->
      <g style="fill: #555555" transform="translate(508.885356 362.104688) scale(0.1 -0.1)">
       <use xlink:href="#DejaVuSans-31"/>
       <use xlink:href="#DejaVuSans-32" x="63.623047"/>
       <use xlink:href="#DejaVuSans-35" x="127.246094"/>
      </g>
     </g>
    </g>
    <g id="xtick_7">
     <g id="line2d_13">
      <path d="M 603.506635 347.50625 
L 603.506635 30.1875 
" clip-path="url(#p258d0c26e1)" style="fill: none; stroke: #ffffff; stroke-width: 0.8; stroke-linecap: square"/>
     </g>
     <g id="line2d_14">
      <g>
       <use xlink:href="#m434f86d490" x="603.506635" y="347.50625" style="fill: #555555; stroke: #555555; stroke-width: 0.8"/>
      </g>
     </g>
     <g id="text_7">
      <!-- 150 -->
      <g style="fill: #555555" transform="translate(593.962885 362.104688) scale(0.1 -0.1)">
       <use xlink:href="#DejaVuSans-31"/>
       <use xlink:href="#DejaVuSans-35" x="63.623047"/>
       <use xlink:href="#DejaVuSans-30" x="127.246094"/>
      </g>
     </g>
    </g>
    <g id="xtick_8">
     <g id="line2d_15">
      <path d="M 688.584165 347.50625 
L 688.584165 30.1875 
" clip-path="url(#p258d0c26e1)" style="fill: none; stroke: #ffffff; stroke-width: 0.8; stroke-linecap: square"/>
     </g>
     <g id="line2d_16">
      <g>
       <use xlink:href="#m434f86d490" x="688.584165" y="347.50625" style="fill: #555555; stroke: #555555; stroke-width: 0.8"/>
      </g>
     </g>
     <g id="text_8">
      <!-- 175 -->
      <g style="fill: #555555" transform="translate(679.040415 362.104688) scale(0.1 -0.1)">
       <use xlink:href="#DejaVuSans-31"/>
       <use xlink:href="#DejaVuSans-37" x="63.623047"/>
       <use xlink:href="#DejaVuSans-35" x="127.246094"/>
      </g>
     </g>
    </g>
    <g id="xtick_9">
     <g id="line2d_17">
      <path d="M 773.661694 347.50625 
L 773.661694 30.1875 
" clip-path="url(#p258d0c26e1)" style="fill: none; stroke: #ffffff; stroke-width: 0.8; stroke-linecap: square"/>
     </g>
     <g id="line2d_18">
      <g>
       <use xlink:href="#m434f86d490" x="773.661694" y="347.50625" style="fill: #555555; stroke: #555555; stroke-width: 0.8"/>
      </g>
     </g>
     <g id="text_9">
      <!-- 200 -->
      <g style="fill: #555555" transform="translate(764.117944 362.104688) scale(0.1 -0.1)">
       <use xlink:href="#DejaVuSans-32"/>
       <use xlink:href="#DejaVuSans-30" x="63.623047"/>
       <use xlink:href="#DejaVuSans-30" x="127.246094"/>
      </g>
     </g>
    </g>
   </g>
   <g id="matplotlib.axis_2">
    <g id="ytick_1">
     <g id="line2d_19">
      <path d="M 65.992063 333.08267 
L 807.1875 333.08267 
" clip-path="url(#p258d0c26e1)" style="fill: none; stroke: #ffffff; stroke-width: 0.8; stroke-linecap: square"/>
     </g>
     <g id="line2d_20">
      <defs>
       <path id="me8cb3a11d0" d="M 0 0 
L -3.5 0 
" style="stroke: #555555; stroke-width: 0.8"/>
      </defs>
      <g>
       <use xlink:href="#me8cb3a11d0" x="65.992063" y="333.08267" style="fill: #555555; stroke: #555555; stroke-width: 0.8"/>
      </g>
     </g>
     <g id="text_10">
      <!-- 0 -->
      <g style="fill: #555555" transform="translate(52.629563 336.881889) scale(0.1 -0.1)">
       <use xlink:href="#DejaVuSans-30"/>
      </g>
     </g>
    </g>
    <g id="ytick_2">
     <g id="line2d_21">
      <path d="M 65.992063 268.977872 
L 807.1875 268.977872 
" clip-path="url(#p258d0c26e1)" style="fill: none; stroke: #ffffff; stroke-width: 0.8; stroke-linecap: square"/>
     </g>
     <g id="line2d_22">
      <g>
       <use xlink:href="#me8cb3a11d0" x="65.992063" y="268.977872" style="fill: #555555; stroke: #555555; stroke-width: 0.8"/>
      </g>
     </g>
     <g id="text_11">
      <!-- 50 -->
      <g style="fill: #555555" transform="translate(46.267063 272.777091) scale(0.1 -0.1)">
       <use xlink:href="#DejaVuSans-35"/>
       <use xlink:href="#DejaVuSans-30" x="63.623047"/>
      </g>
     </g>
    </g>
    <g id="ytick_3">
     <g id="line2d_23">
      <path d="M 65.992063 204.873074 
L 807.1875 204.873074 
" clip-path="url(#p258d0c26e1)" style="fill: none; stroke: #ffffff; stroke-width: 0.8; stroke-linecap: square"/>
     </g>
     <g id="line2d_24">
      <g>
       <use xlink:href="#me8cb3a11d0" x="65.992063" y="204.873074" style="fill: #555555; stroke: #555555; stroke-width: 0.8"/>
      </g>
     </g>
     <g id="text_12">
      <!-- 100 -->
      <g style="fill: #555555" transform="translate(39.904562 208.672293) scale(0.1 -0.1)">
       <use xlink:href="#DejaVuSans-31"/>
       <use xlink:href="#DejaVuSans-30" x="63.623047"/>
       <use xlink:href="#DejaVuSans-30" x="127.246094"/>
      </g>
     </g>
    </g>
    <g id="ytick_4">
     <g id="line2d_25">
      <path d="M 65.992063 140.768277 
L 807.1875 140.768277 
" clip-path="url(#p258d0c26e1)" style="fill: none; stroke: #ffffff; stroke-width: 0.8; stroke-linecap: square"/>
     </g>
     <g id="line2d_26">
      <g>
       <use xlink:href="#me8cb3a11d0" x="65.992063" y="140.768277" style="fill: #555555; stroke: #555555; stroke-width: 0.8"/>
      </g>
     </g>
     <g id="text_13">
      <!-- 150 -->
      <g style="fill: #555555" transform="translate(39.904562 144.567495) scale(0.1 -0.1)">
       <use xlink:href="#DejaVuSans-31"/>
       <use xlink:href="#DejaVuSans-35" x="63.623047"/>
       <use xlink:href="#DejaVuSans-30" x="127.246094"/>
      </g>
     </g>
    </g>
    <g id="ytick_5">
     <g id="line2d_27">
      <path d="M 65.992063 76.663479 
L 807.1875 76.663479 
" clip-path="url(#p258d0c26e1)" style="fill: none; stroke: #ffffff; stroke-width: 0.8; stroke-linecap: square"/>
     </g>
     <g id="line2d_28">
      <g>
       <use xlink:href="#me8cb3a11d0" x="65.992063" y="76.663479" style="fill: #555555; stroke: #555555; stroke-width: 0.8"/>
      </g>
     </g>
     <g id="text_14">
      <!-- 200 -->
      <g style="fill: #555555" transform="translate(39.904562 80.462697) scale(0.1 -0.1)">
       <use xlink:href="#DejaVuSans-32"/>
       <use xlink:href="#DejaVuSans-30" x="63.623047"/>
       <use xlink:href="#DejaVuSans-30" x="127.246094"/>
      </g>
     </g>
    </g>
   </g>
   <g id="line2d_29">
    <path d="M 99.682764 331.800574 
L 99.682764 333.08267 
L 102.539439 331.800574 
L 102.790198 330.518479 
L 102.839204 329.236383 
L 103.085865 330.518479 
L 104.190839 329.236383 
L 106.242305 327.954287 
L 106.488967 329.236383 
L 109.645407 327.954287 
L 109.892068 329.236383 
L 110.273841 327.954287 
L 112.457642 326.672191 
L 113.048508 325.390095 
L 113.295169 326.672191 
L 114.563922 325.390095 
L 116.451609 324.107999 
L 116.69827 325.390095 
L 118.429637 324.107999 
L 119.85471 322.825903 
L 120.101371 324.107999 
L 123.257811 322.825903 
L 123.504472 324.107999 
L 126.660913 322.825903 
L 126.907574 324.107999 
L 128.279643 322.825903 
L 130.064014 321.543807 
L 130.234834 320.261711 
L 130.310675 321.543807 
L 130.802051 318.979615 
L 133.467115 317.697519 
L 133.713776 318.979615 
L 136.870216 317.697519 
L 137.116877 318.979615 
L 140.273317 317.697519 
L 140.519978 318.979615 
L 142.713633 317.697519 
L 143.676418 316.415423 
L 143.92308 317.697519 
L 145.680851 316.415423 
L 147.07952 315.133327 
L 147.326181 316.415423 
L 149.005218 315.133327 
L 150.482621 313.851231 
L 150.729282 315.133327 
L 153.885722 313.851231 
L 154.132383 315.133327 
L 154.13245 313.851231 
L 157.288823 312.569135 
L 157.535484 313.851231 
L 157.943292 312.569135 
L 160.095197 311.287039 
L 160.691924 310.004943 
L 160.938585 311.287039 
L 163.254904 310.004943 
L 164.095026 308.722847 
L 164.341687 310.004943 
L 164.386129 308.722847 
L 164.82192 307.440751 
L 166.017007 306.158655 
L 166.447121 304.876559 
L 167.498127 303.594463 
L 167.744788 304.876559 
L 167.749491 303.594463 
L 169.569756 302.312367 
L 170.901228 301.030271 
L 171.147889 302.312367 
L 172.404007 301.030271 
L 173.453574 299.748176 
L 174.304329 298.46608 
L 174.55099 299.748176 
L 177.70743 298.46608 
L 177.954091 299.748176 
L 181.110531 298.46608 
L 181.357193 299.748176 
L 181.912262 298.46608 
L 183.074946 297.183984 
L 183.763565 295.901888 
L 183.83269 294.619792 
L 184.446107 293.337696 
L 184.513633 292.0556 
L 184.760294 293.337696 
L 187.916734 292.0556 
L 188.163395 293.337696 
L 190.455103 292.0556 
L 191.319835 290.773504 
L 191.566496 292.0556 
L 193.506292 290.773504 
L 194.722936 289.491408 
L 194.969597 290.773504 
L 198.126037 289.491408 
L 198.372698 290.773504 
L 201.529139 289.491408 
L 201.7758 290.773504 
L 203.893515 289.491408 
L 204.93224 288.209312 
L 205.178901 289.491408 
L 206.856037 288.209312 
L 208.335341 286.927216 
L 208.582002 288.209312 
L 211.252535 286.927216 
L 211.738442 285.64512 
L 211.985103 286.927216 
L 212.144342 285.64512 
L 214.020798 284.363024 
L 214.08675 283.080928 
L 215.141543 281.798832 
L 215.388204 283.080928 
L 216.248154 281.798832 
L 218.544644 279.23464 
L 218.791306 280.516736 
L 219.815062 277.952544 
L 221.020523 276.670448 
L 221.947746 275.388352 
L 222.194407 276.670448 
L 225.350847 274.106256 
L 225.597508 275.388352 
L 225.673115 274.106256 
L 228.753948 272.82416 
L 229.000609 274.106256 
L 232.157049 272.82416 
L 232.40371 274.106256 
L 235.56015 272.82416 
L 235.806811 274.106256 
L 238.963252 272.82416 
L 239.209913 274.106256 
L 239.7545 272.82416 
L 242.366353 271.542064 
L 242.613014 272.82416 
L 243.007751 271.542064 
L 245.769454 270.259968 
L 245.872757 268.977872 
L 246.016115 270.259968 
L 249.172555 268.977872 
L 249.419216 270.259968 
L 249.940955 268.977872 
L 249.998017 267.695777 
L 252.575656 266.413681 
L 252.822317 267.695777 
L 255.978757 266.413681 
L 256.225419 267.695777 
L 256.588386 266.413681 
L 259.381859 263.849489 
L 259.62852 265.131585 
L 260.287805 263.849489 
L 260.351428 262.567393 
L 262.78496 261.285297 
L 263.031621 262.567393 
L 265.722926 261.285297 
L 266.188061 260.003201 
L 266.434722 261.285297 
L 269.591162 260.003201 
L 269.837823 261.285297 
L 270.9325 260.003201 
L 272.994263 258.721105 
L 273.240925 260.003201 
L 273.542949 258.721105 
L 276.397365 257.439009 
L 276.644026 258.721105 
L 278.272161 257.439009 
L 279.785809 254.874817 
L 279.800466 253.592721 
L 280.047127 254.874817 
L 283.203567 253.592721 
L 283.450228 254.874817 
L 284.364163 253.592721 
L 284.567603 252.310625 
L 286.507022 251.028529 
L 286.606668 249.746433 
L 286.853329 251.028529 
L 290.009769 249.746433 
L 290.25643 251.028529 
L 290.799952 248.464337 
L 293.41287 247.182241 
L 293.659532 248.464337 
L 294.671111 247.182241 
L 296.815972 245.900145 
L 297.062633 247.182241 
L 297.849812 245.900145 
L 299.921732 244.618049 
L 299.992746 243.335953 
L 300.219073 242.053857 
L 300.465734 243.335953 
L 300.878748 242.053857 
L 303.622174 239.489665 
L 303.868835 240.771761 
L 307.025275 239.489665 
L 307.271936 240.771761 
L 310.181232 239.489665 
L 310.428376 238.207569 
L 310.675038 239.489665 
L 310.880051 238.207569 
L 313.831478 236.925473 
L 314.078139 238.207569 
L 317.234579 236.925473 
L 317.48124 238.207569 
L 320.63768 236.925473 
L 320.884341 238.207569 
L 321.270348 236.925473 
L 321.838239 235.643378 
L 323.719604 234.361282 
L 324.040781 233.079186 
L 324.287442 234.361282 
L 327.443882 231.79709 
L 327.690543 233.079186 
L 330.51733 231.79709 
L 330.846983 230.514994 
L 331.093645 231.79709 
L 332.634185 230.514994 
L 333.247676 229.232898 
L 334.250085 227.950802 
L 334.496746 229.232898 
L 334.743187 227.950802 
L 337.653186 226.668706 
L 337.899847 227.950802 
L 339.442745 226.668706 
L 339.601628 225.38661 
L 341.056287 224.104514 
L 341.302948 225.38661 
L 344.459388 224.104514 
L 344.706049 225.38661 
L 347.862489 224.104514 
L 348.109151 225.38661 
L 350.724652 224.104514 
L 351.265591 222.822418 
L 351.512252 224.104514 
L 353.680469 222.822418 
L 354.668692 221.540322 
L 354.915353 222.822418 
L 358.071793 221.540322 
L 358.318454 222.822418 
L 361.474894 221.540322 
L 361.721555 222.822418 
L 364.770907 221.540322 
L 364.877995 220.258226 
L 365.124656 221.540322 
L 368.281096 220.258226 
L 368.527758 221.540322 
L 371.684198 220.258226 
L 371.828127 218.97613 
L 371.930859 220.258226 
L 375.087299 218.97613 
L 375.33396 220.258226 
L 378.4904 218.97613 
L 378.737061 220.258226 
L 381.893501 218.97613 
L 382.140162 220.258226 
L 385.296602 218.97613 
L 385.467585 217.694034 
L 385.543264 218.97613 
L 388.699704 217.694034 
L 388.946365 218.97613 
L 392.102805 217.694034 
L 392.349466 218.97613 
L 395.505906 217.694034 
L 395.752567 218.97613 
L 396.493507 217.694034 
L 397.729657 216.411938 
L 398.909007 213.847746 
L 399.155668 215.129842 
L 402.312108 213.847746 
L 402.558769 215.129842 
L 405.568083 213.847746 
L 405.913614 211.283554 
L 405.961871 212.56565 
L 406.986135 211.283554 
L 409.118311 210.001458 
L 409.364972 211.283554 
L 410.036434 210.001458 
L 412.021884 208.719362 
L 412.521412 207.437266 
L 412.768073 208.719362 
L 413.648288 207.437266 
L 413.955714 206.15517 
L 415.924513 204.873074 
L 416.171174 206.15517 
L 417.627412 204.873074 
L 419.327614 203.590979 
L 419.574275 204.873074 
L 422.730715 203.590979 
L 422.740275 202.308883 
L 422.977377 203.590979 
L 425.037201 202.308883 
L 426.133817 201.026787 
L 426.380478 202.308883 
L 427.526724 201.026787 
L 429.536918 199.744691 
L 429.783579 201.026787 
L 430.459066 199.744691 
L 432.374417 198.462595 
L 432.940019 197.180499 
L 433.18668 198.462595 
L 434.988861 197.180499 
L 436.34312 195.898403 
L 436.589781 197.180499 
L 436.685961 195.898403 
L 437.157586 194.616307 
L 439.235121 193.334211 
L 439.746221 190.770019 
L 439.992882 192.052115 
L 443.149322 189.487923 
L 443.395984 190.770019 
L 446.552424 189.487923 
L 446.799085 190.770019 
L 448.75311 189.487923 
L 448.846498 188.205827 
L 449.955525 186.923731 
L 450.202186 188.205827 
L 452.286248 186.923731 
L 453.358626 185.641635 
L 453.540573 184.359539 
L 453.605287 185.641635 
L 455.922831 184.359539 
L 456.761727 183.077443 
L 457.008388 184.359539 
L 458.002322 183.077443 
L 460.164828 181.795347 
L 460.41149 183.077443 
L 461.504023 180.513251 
L 463.56793 179.231155 
L 463.814591 180.513251 
L 466.971031 179.231155 
L 467.217692 180.513251 
L 469.655063 179.231155 
L 470.374132 177.949059 
L 470.620793 179.231155 
L 473.777233 177.949059 
L 474.023894 179.231155 
L 474.081944 177.949059 
L 474.51609 176.666963 
L 476.010313 175.384867 
L 477.180334 174.102771 
L 477.426995 175.384867 
L 477.511608 174.102771 
L 479.25715 172.820676 
L 479.614247 171.53858 
L 480.583435 170.256484 
L 480.830097 171.53858 
L 482.811467 170.256484 
L 483.315468 167.692292 
L 483.986537 166.410196 
L 484.217068 165.1281 
L 484.233198 166.410196 
L 487.389638 165.1281 
L 487.460641 163.846004 
L 487.636299 165.1281 
L 490.137381 163.846004 
L 490.17859 162.563908 
L 490.596201 161.281812 
L 490.792739 159.999716 
L 491.0394 161.281812 
L 493.875405 159.999716 
L 494.19584 158.71762 
L 494.442501 159.999716 
L 494.480737 158.71762 
L 496.774235 157.435524 
L 497.598941 156.153428 
L 497.845603 157.435524 
L 500.251246 156.153428 
L 501.002043 154.871332 
L 501.248704 156.153428 
L 501.52762 154.871332 
L 504.405144 153.589236 
L 504.651805 154.871332 
L 507.036087 153.589236 
L 507.808245 152.30714 
L 508.054906 153.589236 
L 511.211346 152.30714 
L 511.458007 153.589236 
L 514.614447 152.30714 
L 514.861108 153.589236 
L 515.937378 152.30714 
L 517.661808 151.025044 
L 518.017548 149.742948 
L 518.26421 151.025044 
L 519.120063 149.742948 
L 521.42065 148.460852 
L 521.667311 149.742948 
L 524.823751 148.460852 
L 524.861838 147.178756 
L 525.070412 148.460852 
L 528.226852 147.178756 
L 528.473513 148.460852 
L 531.629953 147.178756 
L 531.876614 148.460852 
L 532.599493 147.178756 
L 534.108205 145.89666 
L 534.312828 144.614564 
L 535.033054 143.332468 
L 535.279716 144.614564 
L 538.436156 143.332468 
L 538.682817 144.614564 
L 541.839257 143.332468 
L 542.085918 144.614564 
L 542.771682 143.332468 
L 545.157411 142.050372 
L 545.242358 140.768277 
L 545.489019 142.050372 
L 546.08125 140.768277 
L 548.645459 139.486181 
L 548.839441 138.204085 
L 548.89212 139.486181 
L 552.04856 138.204085 
L 552.295221 139.486181 
L 555.451661 138.204085 
L 555.698323 139.486181 
L 555.712291 138.204085 
L 558.854763 136.921989 
L 559.101424 138.204085 
L 559.900552 136.921989 
L 561.919716 135.639893 
L 562.257864 134.357797 
L 562.504525 135.639893 
L 565.073161 134.357797 
L 565.660965 133.075701 
L 565.907626 134.357797 
L 566.166714 133.075701 
L 566.713695 131.793605 
L 569.064066 130.511509 
L 569.310727 131.793605 
L 569.766457 130.511509 
L 570.592544 129.229413 
L 572.467167 127.947317 
L 572.713829 129.229413 
L 573.544027 127.947317 
L 574.629075 126.665221 
L 575.870269 125.383125 
L 576.11693 126.665221 
L 576.377199 125.383125 
L 579.27337 124.101029 
L 579.520031 125.383125 
L 580.573525 124.101029 
L 582.676471 122.818933 
L 582.923132 124.101029 
L 583.917168 122.818933 
L 586.079572 121.536837 
L 586.326233 122.818933 
L 589.482673 121.536837 
L 589.729334 122.818933 
L 592.885774 121.536837 
L 593.132436 122.818933 
L 595.538503 121.536837 
L 596.288876 120.254741 
L 596.535537 121.536837 
L 596.961312 120.254741 
L 599.666344 118.972645 
L 599.691977 117.690549 
L 599.938638 118.972645 
L 600.212488 117.690549 
L 603.095078 116.408453 
L 603.341739 117.690549 
L 606.498179 116.408453 
L 606.74484 117.690549 
L 606.814668 116.408453 
L 609.90128 115.126357 
L 610.127494 113.844261 
L 610.147942 115.126357 
L 613.304382 113.844261 
L 613.551043 115.126357 
L 614.171498 113.844261 
L 614.18071 112.562165 
L 615.057297 111.280069 
L 616.707483 109.997973 
L 616.954144 111.280069 
L 618.178866 109.997973 
L 620.110584 108.715878 
L 620.357245 109.997973 
L 623.513685 108.715878 
L 623.760346 109.997973 
L 626.916786 108.715878 
L 627.163447 109.997973 
L 629.377277 108.715878 
L 630.319888 107.433782 
L 630.566549 108.715878 
L 631.021155 107.433782 
L 631.345418 106.151686 
L 632.224981 104.86959 
L 633.722989 103.587494 
L 633.96965 104.86959 
L 634.022308 103.587494 
L 637.12609 102.305398 
L 637.372751 103.587494 
L 640.529191 102.305398 
L 640.775852 103.587494 
L 641.450305 102.305398 
L 643.932292 101.023302 
L 644.178953 102.305398 
L 644.758286 101.023302 
L 647.335393 99.741206 
L 647.582055 101.023302 
L 650.738495 99.741206 
L 650.985156 101.023302 
L 653.49722 99.741206 
L 654.141596 98.45911 
L 654.388257 99.741206 
L 657.544697 98.45911 
L 657.791358 99.741206 
L 660.947798 98.45911 
L 661.194459 99.741206 
L 661.556567 98.45911 
L 664.350899 97.177014 
L 664.59756 98.45911 
L 665.113698 95.894918 
L 667.304359 94.612822 
L 667.754001 93.330726 
L 668.000662 94.612822 
L 668.011194 93.330726 
L 671.157102 92.04863 
L 671.403763 93.330726 
L 671.81082 92.04863 
L 674.560203 89.484438 
L 674.806864 90.766534 
L 676.6898 89.484438 
L 677.963304 88.202342 
L 678.209965 89.484438 
L 680.57112 88.202342 
L 681.366405 86.920246 
L 681.613066 88.202342 
L 682.327813 86.920246 
L 683.254651 85.63815 
L 684.769506 84.356054 
L 685.016168 85.63815 
L 685.71374 84.356054 
L 687.274917 83.073958 
L 688.172608 81.791862 
L 688.419269 83.073958 
L 690.32643 81.791862 
L 691.575709 80.509766 
L 691.82237 81.791862 
L 693.968029 80.509766 
L 694.97881 79.22767 
L 695.225471 80.509766 
L 695.722149 79.22767 
L 697.198072 77.945574 
L 698.381911 76.663479 
L 698.628572 77.945574 
L 701.785012 76.663479 
L 702.031673 77.945574 
L 705.188114 76.663479 
L 705.434775 77.945574 
L 706.640843 76.663479 
L 707.050774 75.381383 
L 708.591215 74.099287 
L 708.837876 75.381383 
L 711.128205 74.099287 
L 711.34833 72.817191 
L 711.850736 71.535095 
L 711.994316 70.252999 
L 712.240977 71.535095 
L 712.878319 70.252999 
L 715.397417 68.970903 
L 715.644078 70.252999 
L 718.800518 68.970903 
L 719.047179 70.252999 
L 719.849855 68.970903 
L 722.203619 67.688807 
L 722.450281 68.970903 
L 725.606721 67.688807 
L 725.853382 68.970903 
L 729.009822 67.688807 
L 729.195628 66.406711 
L 729.256483 67.688807 
L 732.412923 66.406711 
L 732.659584 67.688807 
L 732.83467 66.406711 
L 735.79564 65.124615 
L 735.816024 63.842519 
L 736.062685 65.124615 
L 739.219125 63.842519 
L 739.465786 65.124615 
L 742.476347 63.842519 
L 742.622227 62.560423 
L 742.868888 63.842519 
L 744.726068 62.560423 
L 745.638859 61.278327 
L 746.025328 59.996231 
L 746.271989 61.278327 
L 749.426047 59.996231 
L 749.428429 58.714135 
L 749.67509 59.996231 
L 752.83153 58.714135 
L 752.895152 57.432039 
L 753.078191 58.714135 
L 756.234631 57.432039 
L 756.236265 56.149943 
L 756.481292 57.432039 
L 758.856183 56.149943 
L 759.637732 54.867847 
L 759.884394 56.149943 
L 760.083051 53.585751 
L 762.889152 52.303655 
L 763.192321 49.739463 
L 763.287495 51.021559 
L 766.443935 49.739463 
L 766.690596 51.021559 
L 766.920928 49.739463 
L 767.025856 47.175271 
L 769.631063 45.893176 
L 769.847036 44.61108 
L 770.093697 45.893176 
L 773.250137 44.61108 
L 773.496798 45.893176 
L 773.496798 45.893176 
" clip-path="url(#p258d0c26e1)" style="fill: none; stroke: #e24a33; stroke-width: 1.5; stroke-linecap: square"/>
   </g>
   <g id="patch_3">
    <path d="M 65.992063 347.50625 
L 65.992063 30.1875 
" style="fill: none; stroke: #ffffff; stroke-linejoin: miter; stroke-linecap: square"/>
   </g>
   <g id="patch_4">
    <path d="M 807.1875 347.50625 
L 807.1875 30.1875 
" style="fill: none; stroke: #ffffff; stroke-linejoin: miter; stroke-linecap: square"/>
   </g>
   <g id="patch_5">
    <path d="M 65.992063 347.50625 
L 807.1875 347.50625 
" style="fill: none; stroke: #ffffff; stroke-linejoin: miter; stroke-linecap: square"/>
   </g>
   <g id="patch_6">
    <path d="M 65.992063 30.1875 
L 807.1875 30.1875 
" style="fill: none; stroke: #ffffff; stroke-linejoin: miter; stroke-linecap: square"/>
   </g>
   <g id="text_15">
    <!-- Buffer Size in Network.node[2].lnk[0] -->
    <g transform="translate(302.679906 24.1875) scale(0.144 -0.144)">
     <defs>
      <path id="DejaVuSans-42" d="M 1259 2228 
L 1259 519 
L 2272 519 
Q 2781 519 3026 730 
Q 3272 941 3272 1375 
Q 3272 1813 3026 2020 
Q 2781 2228 2272 2228 
L 1259 2228 
z
M 1259 4147 
L 1259 2741 
L 2194 2741 
Q 2656 2741 2882 2914 
Q 3109 3088 3109 3444 
Q 3109 3797 2882 3972 
Q 2656 4147 2194 4147 
L 1259 4147 
z
M 628 4666 
L 2241 4666 
Q 2963 4666 3353 4366 
Q 3744 4066 3744 3513 
Q 3744 3084 3544 2831 
Q 3344 2578 2956 2516 
Q 3422 2416 3680 2098 
Q 3938 1781 3938 1306 
Q 3938 681 3513 340 
Q 3088 0 2303 0 
L 628 0 
L 628 4666 
z
" transform="scale(0.015625)"/>
      <path id="DejaVuSans-75" d="M 544 1381 
L 544 3500 
L 1119 3500 
L 1119 1403 
Q 1119 906 1312 657 
Q 1506 409 1894 409 
Q 2359 409 2629 706 
Q 2900 1003 2900 1516 
L 2900 3500 
L 3475 3500 
L 3475 0 
L 2900 0 
L 2900 538 
Q 2691 219 2414 64 
Q 2138 -91 1772 -91 
Q 1169 -91 856 284 
Q 544 659 544 1381 
z
M 1991 3584 
L 1991 3584 
z
" transform="scale(0.015625)"/>
      <path id="DejaVuSans-66" d="M 2375 4863 
L 2375 4384 
L 1825 4384 
Q 1516 4384 1395 4259 
Q 1275 4134 1275 3809 
L 1275 3500 
L 2222 3500 
L 2222 3053 
L 1275 3053 
L 1275 0 
L 697 0 
L 697 3053 
L 147 3053 
L 147 3500 
L 697 3500 
L 697 3744 
Q 697 4328 969 4595 
Q 1241 4863 1831 4863 
L 2375 4863 
z
" transform="scale(0.015625)"/>
      <path id="DejaVuSans-65" d="M 3597 1894 
L 3597 1613 
L 953 1613 
Q 991 1019 1311 708 
Q 1631 397 2203 397 
Q 2534 397 2845 478 
Q 3156 559 3463 722 
L 3463 178 
Q 3153 47 2828 -22 
Q 2503 -91 2169 -91 
Q 1331 -91 842 396 
Q 353 884 353 1716 
Q 353 2575 817 3079 
Q 1281 3584 2069 3584 
Q 2775 3584 3186 3129 
Q 3597 2675 3597 1894 
z
M 3022 2063 
Q 3016 2534 2758 2815 
Q 2500 3097 2075 3097 
Q 1594 3097 1305 2825 
Q 1016 2553 972 2059 
L 3022 2063 
z
" transform="scale(0.015625)"/>
      <path id="DejaVuSans-72" d="M 2631 2963 
Q 2534 3019 2420 3045 
Q 2306 3072 2169 3072 
Q 1681 3072 1420 2755 
Q 1159 2438 1159 1844 
L 1159 0 
L 581 0 
L 581 3500 
L 1159 3500 
L 1159 2956 
Q 1341 3275 1631 3429 
Q 1922 3584 2338 3584 
Q 2397 3584 2469 3576 
Q 2541 3569 2628 3553 
L 2631 2963 
z
" transform="scale(0.015625)"/>
      <path id="DejaVuSans-20" transform="scale(0.015625)"/>
      <path id="DejaVuSans-53" d="M 3425 4513 
L 3425 3897 
Q 3066 4069 2747 4153 
Q 2428 4238 2131 4238 
Q 1616 4238 1336 4038 
Q 1056 3838 1056 3469 
Q 1056 3159 1242 3001 
Q 1428 2844 1947 2747 
L 2328 2669 
Q 3034 2534 3370 2195 
Q 3706 1856 3706 1288 
Q 3706 609 3251 259 
Q 2797 -91 1919 -91 
Q 1588 -91 1214 -16 
Q 841 59 441 206 
L 441 856 
Q 825 641 1194 531 
Q 1563 422 1919 422 
Q 2459 422 2753 634 
Q 3047 847 3047 1241 
Q 3047 1584 2836 1778 
Q 2625 1972 2144 2069 
L 1759 2144 
Q 1053 2284 737 2584 
Q 422 2884 422 3419 
Q 422 4038 858 4394 
Q 1294 4750 2059 4750 
Q 2388 4750 2728 4690 
Q 3069 4631 3425 4513 
z
" transform="scale(0.015625)"/>
      <path id="DejaVuSans-69" d="M 603 3500 
L 1178 3500 
L 1178 0 
L 603 0 
L 603 3500 
z
M 603 4863 
L 1178 4863 
L 1178 4134 
L 603 4134 
L 603 4863 
z
" transform="scale(0.015625)"/>
      <path id="DejaVuSans-7a" d="M 353 3500 
L 3084 3500 
L 3084 2975 
L 922 459 
L 3084 459 
L 3084 0 
L 275 0 
L 275 525 
L 2438 3041 
L 353 3041 
L 353 3500 
z
" transform="scale(0.015625)"/>
      <path id="DejaVuSans-6e" d="M 3513 2113 
L 3513 0 
L 2938 0 
L 2938 2094 
Q 2938 2591 2744 2837 
Q 2550 3084 2163 3084 
Q 1697 3084 1428 2787 
Q 1159 2491 1159 1978 
L 1159 0 
L 581 0 
L 581 3500 
L 1159 3500 
L 1159 2956 
Q 1366 3272 1645 3428 
Q 1925 3584 2291 3584 
Q 2894 3584 3203 3211 
Q 3513 2838 3513 2113 
z
" transform="scale(0.015625)"/>
      <path id="DejaVuSans-4e" d="M 628 4666 
L 1478 4666 
L 3547 763 
L 3547 4666 
L 4159 4666 
L 4159 0 
L 3309 0 
L 1241 3903 
L 1241 0 
L 628 0 
L 628 4666 
z
" transform="scale(0.015625)"/>
      <path id="DejaVuSans-74" d="M 1172 4494 
L 1172 3500 
L 2356 3500 
L 2356 3053 
L 1172 3053 
L 1172 1153 
Q 1172 725 1289 603 
Q 1406 481 1766 481 
L 2356 481 
L 2356 0 
L 1766 0 
Q 1100 0 847 248 
Q 594 497 594 1153 
L 594 3053 
L 172 3053 
L 172 3500 
L 594 3500 
L 594 4494 
L 1172 4494 
z
" transform="scale(0.015625)"/>
      <path id="DejaVuSans-77" d="M 269 3500 
L 844 3500 
L 1563 769 
L 2278 3500 
L 2956 3500 
L 3675 769 
L 4391 3500 
L 4966 3500 
L 4050 0 
L 3372 0 
L 2619 2869 
L 1863 0 
L 1184 0 
L 269 3500 
z
" transform="scale(0.015625)"/>
      <path id="DejaVuSans-6f" d="M 1959 3097 
Q 1497 3097 1228 2736 
Q 959 2375 959 1747 
Q 959 1119 1226 758 
Q 1494 397 1959 397 
Q 2419 397 2687 759 
Q 2956 1122 2956 1747 
Q 2956 2369 2687 2733 
Q 2419 3097 1959 3097 
z
M 1959 3584 
Q 2709 3584 3137 3096 
Q 3566 2609 3566 1747 
Q 3566 888 3137 398 
Q 2709 -91 1959 -91 
Q 1206 -91 779 398 
Q 353 888 353 1747 
Q 353 2609 779 3096 
Q 1206 3584 1959 3584 
z
" transform="scale(0.015625)"/>
      <path id="DejaVuSans-6b" d="M 581 4863 
L 1159 4863 
L 1159 1991 
L 2875 3500 
L 3609 3500 
L 1753 1863 
L 3688 0 
L 2938 0 
L 1159 1709 
L 1159 0 
L 581 0 
L 581 4863 
z
" transform="scale(0.015625)"/>
      <path id="DejaVuSans-2e" d="M 684 794 
L 1344 794 
L 1344 0 
L 684 0 
L 684 794 
z
" transform="scale(0.015625)"/>
      <path id="DejaVuSans-64" d="M 2906 2969 
L 2906 4863 
L 3481 4863 
L 3481 0 
L 2906 0 
L 2906 525 
Q 2725 213 2448 61 
Q 2172 -91 1784 -91 
Q 1150 -91 751 415 
Q 353 922 353 1747 
Q 353 2572 751 3078 
Q 1150 3584 1784 3584 
Q 2172 3584 2448 3432 
Q 2725 3281 2906 2969 
z
M 947 1747 
Q 947 1113 1208 752 
Q 1469 391 1925 391 
Q 2381 391 2643 752 
Q 2906 1113 2906 1747 
Q 2906 2381 2643 2742 
Q 2381 3103 1925 3103 
Q 1469 3103 1208 2742 
Q 947 2381 947 1747 
z
" transform="scale(0.015625)"/>
      <path id="DejaVuSans-5b" d="M 550 4863 
L 1875 4863 
L 1875 4416 
L 1125 4416 
L 1125 -397 
L 1875 -397 
L 1875 -844 
L 550 -844 
L 550 4863 
z
" transform="scale(0.015625)"/>
      <path id="DejaVuSans-5d" d="M 1947 4863 
L 1947 -844 
L 622 -844 
L 622 -397 
L 1369 -397 
L 1369 4416 
L 622 4416 
L 622 4863 
L 1947 4863 
z
" transform="scale(0.015625)"/>
      <path id="DejaVuSans-6c" d="M 603 4863 
L 1178 4863 
L 1178 0 
L 603 0 
L 603 4863 
z
" transform="scale(0.015625)"/>
     </defs>
     <use xlink:href="#DejaVuSans-42"/>
     <use xlink:href="#DejaVuSans-75" x="68.603516"/>
     <use xlink:href="#DejaVuSans-66" x="131.982422"/>
     <use xlink:href="#DejaVuSans-66" x="167.1875"/>
     <use xlink:href="#DejaVuSans-65" x="202.392578"/>
     <use xlink:href="#DejaVuSans-72" x="263.916016"/>
     <use xlink:href="#DejaVuSans-20" x="305.029297"/>
     <use xlink:href="#DejaVuSans-53" x="336.816406"/>
     <use xlink:href="#DejaVuSans-69" x="400.292969"/>
     <use xlink:href="#DejaVuSans-7a" x="428.076172"/>
     <use xlink:href="#DejaVuSans-65" x="480.566406"/>
     <use xlink:href="#DejaVuSans-20" x="542.089844"/>
     <use xlink:href="#DejaVuSans-69" x="573.876953"/>
     <use xlink:href="#DejaVuSans-6e" x="601.660156"/>
     <use xlink:href="#DejaVuSans-20" x="665.039062"/>
     <use xlink:href="#DejaVuSans-4e" x="696.826172"/>
     <use xlink:href="#DejaVuSans-65" x="771.630859"/>
     <use xlink:href="#DejaVuSans-74" x="833.154297"/>
     <use xlink:href="#DejaVuSans-77" x="872.363281"/>
     <use xlink:href="#DejaVuSans-6f" x="954.150391"/>
     <use xlink:href="#DejaVuSans-72" x="1015.332031"/>
     <use xlink:href="#DejaVuSans-6b" x="1056.445312"/>
     <use xlink:href="#DejaVuSans-2e" x="1114.355469"/>
     <use xlink:href="#DejaVuSans-6e" x="1146.142578"/>
     <use xlink:href="#DejaVuSans-6f" x="1209.521484"/>
     <use xlink:href="#DejaVuSans-64" x="1270.703125"/>
     <use xlink:href="#DejaVuSans-65" x="1334.179688"/>
     <use xlink:href="#DejaVuSans-5b" x="1395.703125"/>
     <use xlink:href="#DejaVuSans-32" x="1434.716797"/>
     <use xlink:href="#DejaVuSans-5d" x="1498.339844"/>
     <use xlink:href="#DejaVuSans-2e" x="1537.353516"/>
     <use xlink:href="#DejaVuSans-6c" x="1569.140625"/>
     <use xlink:href="#DejaVuSans-6e" x="1596.923828"/>
     <use xlink:href="#DejaVuSans-6b" x="1660.302734"/>
     <use xlink:href="#DejaVuSans-5b" x="1718.212891"/>
     <use xlink:href="#DejaVuSans-30" x="1757.226562"/>
     <use xlink:href="#DejaVuSans-5d" x="1820.849609"/>
    </g>
   </g>
   <g id="legend_1">
    <g id="patch_7">
     <path d="M 580.201563 52.865625 
L 802.1875 52.865625 
L 802.1875 35.1875 
L 580.201563 35.1875 
z
" style="fill: #e5e5e5; opacity: 0.8; stroke: #cccccc; stroke-width: 0.5; stroke-linejoin: miter"/>
    </g>
    <g id="line2d_30">
     <path d="M 584.201563 43.285938 
L 594.201563 43.285938 
L 604.201563 43.285938 
" style="fill: none; stroke: #e24a33; stroke-width: 1.5; stroke-linecap: square"/>
    </g>
    <g id="text_16">
     <!-- Buffer Size in Network.node[2].lnk[0] -->
     <g transform="translate(612.201563 46.785938) scale(0.1 -0.1)">
      <use xlink:href="#DejaVuSans-42"/>
      <use xlink:href="#DejaVuSans-75" x="68.603516"/>
      <use xlink:href="#DejaVuSans-66" x="131.982422"/>
      <use xlink:href="#DejaVuSans-66" x="167.1875"/>
      <use xlink:href="#DejaVuSans-65" x="202.392578"/>
      <use xlink:href="#DejaVuSans-72" x="263.916016"/>
      <use xlink:href="#DejaVuSans-20" x="305.029297"/>
      <use xlink:href="#DejaVuSans-53" x="336.816406"/>
      <use xlink:href="#DejaVuSans-69" x="400.292969"/>
      <use xlink:href="#DejaVuSans-7a" x="428.076172"/>
      <use xlink:href="#DejaVuSans-65" x="480.566406"/>
      <use xlink:href="#DejaVuSans-20" x="542.089844"/>
      <use xlink:href="#DejaVuSans-69" x="573.876953"/>
      <use xlink:href="#DejaVuSans-6e" x="601.660156"/>
      <use xlink:href="#DejaVuSans-20" x="665.039062"/>
      <use xlink:href="#DejaVuSans-4e" x="696.826172"/>
      <use xlink:href="#DejaVuSans-65" x="771.630859"/>
      <use xlink:href="#DejaVuSans-74" x="833.154297"/>
      <use xlink:href="#DejaVuSans-77" x="872.363281"/>
      <use xlink:href="#DejaVuSans-6f" x="954.150391"/>
      <use xlink:href="#DejaVuSans-72" x="1015.332031"/>
      <use xlink:href="#DejaVuSans-6b" x="1056.445312"/>
      <use xlink:href="#DejaVuSans-2e" x="1114.355469"/>
      <use xlink:href="#DejaVuSans-6e" x="1146.142578"/>
      <use xlink:href="#DejaVuSans-6f" x="1209.521484"/>
      <use xlink:href="#DejaVuSans-64" x="1270.703125"/>
      <use xlink:href="#DejaVuSans-65" x="1334.179688"/>
      <use xlink:href="#DejaVuSans-5b" x="1395.703125"/>
      <use xlink:href="#DejaVuSans-32" x="1434.716797"/>
      <use xlink:href="#DejaVuSans-5d" x="1498.339844"/>
      <use xlink:href="#DejaVuSans-2e" x="1537.353516"/>
      <use xlink:href="#DejaVuSans-6c" x="1569.140625"/>
      <use xlink:href="#DejaVuSans-6e" x="1596.923828"/>
      <use xlink:href="#DejaVuSans-6b" x="1660.302734"/>
      <use xlink:href="#DejaVuSans-5b" x="1718.212891"/>
      <use xlink:href="#DejaVuSans-30" x="1757.226562"/>
      <use xlink:href="#DejaVuSans-5d" x="1820.849609"/>
     </g>
    </g>
   </g>
  </g>
 </g>
 <defs>
  <clipPath id="p258d0c26e1">
   <rect x="65.992063" y="30.1875" width="741.195438" height="317.31875"/>
  </clipPath>
 </defs>
</svg>
