<?xml version="1.0" encoding="utf-8" standalone="no"?>
<!DOCTYPE svg PUBLIC "-//W3C//DTD SVG 1.1//EN"
  "http://www.w3.org/Graphics/SVG/1.1/DTD/svg11.dtd">
<svg xmlns:xlink="http://www.w3.org/1999/xlink" width="826.56pt" height="378pt" viewBox="0 0 826.56 378" xmlns="http://www.w3.org/2000/svg" version="1.1">
 <metadata>
  <rdf:RDF xmlns:dc="http://purl.org/dc/elements/1.1/" xmlns:cc="http://creativecommons.org/ns#" xmlns:rdf="http://www.w3.org/1999/02/22-rdf-syntax-ns#">
   <cc:Work>
    <dc:type rdf:resource="http://purl.org/dc/dcmitype/StillImage"/>
    <dc:date>2025-06-03T22:21:45.067650</dc:date>
    <dc:format>image/svg+xml</dc:format>
    <dc:creator>
     <cc:Agent>
      <dc:title>Matplotlib v3.7.1, https://matplotlib.org/</dc:title>
     </cc:Agent>
    </dc:creator>
   </cc:Work>
  </rdf:RDF>
 </metadata>
 <defs>
  <style type="text/css">*{stroke-linejoin: round; stroke-linecap: butt}</style>
 </defs>
 <g id="figure_1">
  <g id="patch_1">
   <path d="M 0 378 
L 826.56 378 
L 826.56 0 
L 0 0 
z
" style="fill: #ffffff"/>
  </g>
  <g id="axes_1">
   <g id="patch_2">
    <path d="M 65.992063 347.50625 
L 807.1875 347.50625 
L 807.1875 30.1875 
L 65.992063 30.1875 
z
" style="fill: #e5e5e5"/>
   </g>
   <g id="matplotlib.axis_1">
    <g id="xtick_1">
     <g id="line2d_1">
      <path d="M 93.288459 347.50625 
L 93.288459 30.1875 
" clip-path="url(#pd0a4e1d363)" style="fill: none; stroke: #ffffff; stroke-width: 0.8; stroke-linecap: square"/>
     </g>
     <g id="line2d_2">
      <defs>
       <path id="m343c29ad3a" d="M 0 0 
L 0 3.5 
" style="stroke: #555555; stroke-width: 0.8"/>
      </defs>
      <g>
       <use xlink:href="#m343c29ad3a" x="93.288459" y="347.50625" style="fill: #555555; stroke: #555555; stroke-width: 0.8"/>
      </g>
     </g>
     <g id="text_1">
      <!-- 0 -->
      <g style="fill: #555555" transform="translate(90.107209 362.104688) scale(0.1 -0.1)">
       <defs>
        <path id="DejaVuSans-30" d="M 2034 4250 
Q 1547 4250 1301 3770 
Q 1056 3291 1056 2328 
Q 1056 1369 1301 889 
Q 1547 409 2034 409 
Q 2525 409 2770 889 
Q 3016 1369 3016 2328 
Q 3016 3291 2770 3770 
Q 2525 4250 2034 4250 
z
M 2034 4750 
Q 2819 4750 3233 4129 
Q 3647 3509 3647 2328 
Q 3647 1150 3233 529 
Q 2819 -91 2034 -91 
Q 1250 -91 836 529 
Q 422 1150 422 2328 
Q 422 3509 836 4129 
Q 1250 4750 2034 4750 
z
" transform="scale(0.015625)"/>
       </defs>
       <use xlink:href="#DejaVuSans-30"/>
      </g>
     </g>
    </g>
    <g id="xtick_2">
     <g id="line2d_3">
      <path d="M 178.365989 347.50625 
L 178.365989 30.1875 
" clip-path="url(#pd0a4e1d363)" style="fill: none; stroke: #ffffff; stroke-width: 0.8; stroke-linecap: square"/>
     </g>
     <g id="line2d_4">
      <g>
       <use xlink:href="#m343c29ad3a" x="178.365989" y="347.50625" style="fill: #555555; stroke: #555555; stroke-width: 0.8"/>
      </g>
     </g>
     <g id="text_2">
      <!-- 25 -->
      <g style="fill: #555555" transform="translate(172.003489 362.104688) scale(0.1 -0.1)">
       <defs>
        <path id="DejaVuSans-32" d="M 1228 531 
L 3431 531 
L 3431 0 
L 469 0 
L 469 531 
Q 828 903 1448 1529 
Q 2069 2156 2228 2338 
Q 2531 2678 2651 2914 
Q 2772 3150 2772 3378 
Q 2772 3750 2511 3984 
Q 2250 4219 1831 4219 
Q 1534 4219 1204 4116 
Q 875 4013 500 3803 
L 500 4441 
Q 881 4594 1212 4672 
Q 1544 4750 1819 4750 
Q 2544 4750 2975 4387 
Q 3406 4025 3406 3419 
Q 3406 3131 3298 2873 
Q 3191 2616 2906 2266 
Q 2828 2175 2409 1742 
Q 1991 1309 1228 531 
z
" transform="scale(0.015625)"/>
        <path id="DejaVuSans-35" d="M 691 4666 
L 3169 4666 
L 3169 4134 
L 1269 4134 
L 1269 2991 
Q 1406 3038 1543 3061 
Q 1681 3084 1819 3084 
Q 2600 3084 3056 2656 
Q 3513 2228 3513 1497 
Q 3513 744 3044 326 
Q 2575 -91 1722 -91 
Q 1428 -91 1123 -41 
Q 819 9 494 109 
L 494 744 
Q 775 591 1075 516 
Q 1375 441 1709 441 
Q 2250 441 2565 725 
Q 2881 1009 2881 1497 
Q 2881 1984 2565 2268 
Q 2250 2553 1709 2553 
Q 1456 2553 1204 2497 
Q 953 2441 691 2322 
L 691 4666 
z
" transform="scale(0.015625)"/>
       </defs>
       <use xlink:href="#DejaVuSans-32"/>
       <use xlink:href="#DejaVuSans-35" x="63.623047"/>
      </g>
     </g>
    </g>
    <g id="xtick_3">
     <g id="line2d_5">
      <path d="M 263.443519 347.50625 
L 263.443519 30.1875 
" clip-path="url(#pd0a4e1d363)" style="fill: none; stroke: #ffffff; stroke-width: 0.8; stroke-linecap: square"/>
     </g>
     <g id="line2d_6">
      <g>
       <use xlink:href="#m343c29ad3a" x="263.443519" y="347.50625" style="fill: #555555; stroke: #555555; stroke-width: 0.8"/>
      </g>
     </g>
     <g id="text_3">
      <!-- 50 -->
      <g style="fill: #555555" transform="translate(257.081019 362.104688) scale(0.1 -0.1)">
       <use xlink:href="#DejaVuSans-35"/>
       <use xlink:href="#DejaVuSans-30" x="63.623047"/>
      </g>
     </g>
    </g>
    <g id="xtick_4">
     <g id="line2d_7">
      <path d="M 348.521048 347.50625 
L 348.521048 30.1875 
" clip-path="url(#pd0a4e1d363)" style="fill: none; stroke: #ffffff; stroke-width: 0.8; stroke-linecap: square"/>
     </g>
     <g id="line2d_8">
      <g>
       <use xlink:href="#m343c29ad3a" x="348.521048" y="347.50625" style="fill: #555555; stroke: #555555; stroke-width: 0.8"/>
      </g>
     </g>
     <g id="text_4">
      <!-- 75 -->
      <g style="fill: #555555" transform="translate(342.158548 362.104688) scale(0.1 -0.1)">
       <defs>
        <path id="DejaVuSans-37" d="M 525 4666 
L 3525 4666 
L 3525 4397 
L 1831 0 
L 1172 0 
L 2766 4134 
L 525 4134 
L 525 4666 
z
" transform="scale(0.015625)"/>
       </defs>
       <use xlink:href="#DejaVuSans-37"/>
       <use xlink:href="#DejaVuSans-35" x="63.623047"/>
      </g>
     </g>
    </g>
    <g id="xtick_5">
     <g id="line2d_9">
      <path d="M 433.598578 347.50625 
L 433.598578 30.1875 
" clip-path="url(#pd0a4e1d363)" style="fill: none; stroke: #ffffff; stroke-width: 0.8; stroke-linecap: square"/>
     </g>
     <g id="line2d_10">
      <g>
       <use xlink:href="#m343c29ad3a" x="433.598578" y="347.50625" style="fill: #555555; stroke: #555555; stroke-width: 0.8"/>
      </g>
     </g>
     <g id="text_5">
      <!-- 100 -->
      <g style="fill: #555555" transform="translate(424.054828 362.104688) scale(0.1 -0.1)">
       <defs>
        <path id="DejaVuSans-31" d="M 794 531 
L 1825 531 
L 1825 4091 
L 703 3866 
L 703 4441 
L 1819 4666 
L 2450 4666 
L 2450 531 
L 3481 531 
L 3481 0 
L 794 0 
L 794 531 
z
" transform="scale(0.015625)"/>
       </defs>
       <use xlink:href="#DejaVuSans-31"/>
       <use xlink:href="#DejaVuSans-30" x="63.623047"/>
       <use xlink:href="#DejaVuSans-30" x="127.246094"/>
      </g>
     </g>
    </g>
    <g id="xtick_6">
     <g id="line2d_11">
      <path d="M 518.676107 347.50625 
L 518.676107 30.1875 
" clip-path="url(#pd0a4e1d363)" style="fill: none; stroke: #ffffff; stroke-width: 0.8; stroke-linecap: square"/>
     </g>
     <g id="line2d_12">
      <g>
       <use xlink:href="#m343c29ad3a" x="518.676107" y="347.50625" style="fill: #555555; stroke: #555555; stroke-width: 0.8"/>
      </g>
     </g>
     <g id="text_6">
      <!-- 125 -->
      <g style="fill: #555555" transform="translate(509.132357 362.104688) scale(0.1 -0.1)">
       <use xlink:href="#DejaVuSans-31"/>
       <use xlink:href="#DejaVuSans-32" x="63.623047"/>
       <use xlink:href="#DejaVuSans-35" x="127.246094"/>
      </g>
     </g>
    </g>
    <g id="xtick_7">
     <g id="line2d_13">
      <path d="M 603.753637 347.50625 
L 603.753637 30.1875 
" clip-path="url(#pd0a4e1d363)" style="fill: none; stroke: #ffffff; stroke-width: 0.8; stroke-linecap: square"/>
     </g>
     <g id="line2d_14">
      <g>
       <use xlink:href="#m343c29ad3a" x="603.753637" y="347.50625" style="fill: #555555; stroke: #555555; stroke-width: 0.8"/>
      </g>
     </g>
     <g id="text_7">
      <!-- 150 -->
      <g style="fill: #555555" transform="translate(594.209887 362.104688) scale(0.1 -0.1)">
       <use xlink:href="#DejaVuSans-31"/>
       <use xlink:href="#DejaVuSans-35" x="63.623047"/>
       <use xlink:href="#DejaVuSans-30" x="127.246094"/>
      </g>
     </g>
    </g>
    <g id="xtick_8">
     <g id="line2d_15">
      <path d="M 688.831166 347.50625 
L 688.831166 30.1875 
" clip-path="url(#pd0a4e1d363)" style="fill: none; stroke: #ffffff; stroke-width: 0.8; stroke-linecap: square"/>
     </g>
     <g id="line2d_16">
      <g>
       <use xlink:href="#m343c29ad3a" x="688.831166" y="347.50625" style="fill: #555555; stroke: #555555; stroke-width: 0.8"/>
      </g>
     </g>
     <g id="text_8">
      <!-- 175 -->
      <g style="fill: #555555" transform="translate(679.287416 362.104688) scale(0.1 -0.1)">
       <use xlink:href="#DejaVuSans-31"/>
       <use xlink:href="#DejaVuSans-37" x="63.623047"/>
       <use xlink:href="#DejaVuSans-35" x="127.246094"/>
      </g>
     </g>
    </g>
    <g id="xtick_9">
     <g id="line2d_17">
      <path d="M 773.908696 347.50625 
L 773.908696 30.1875 
" clip-path="url(#pd0a4e1d363)" style="fill: none; stroke: #ffffff; stroke-width: 0.8; stroke-linecap: square"/>
     </g>
     <g id="line2d_18">
      <g>
       <use xlink:href="#m343c29ad3a" x="773.908696" y="347.50625" style="fill: #555555; stroke: #555555; stroke-width: 0.8"/>
      </g>
     </g>
     <g id="text_9">
      <!-- 200 -->
      <g style="fill: #555555" transform="translate(764.364946 362.104688) scale(0.1 -0.1)">
       <use xlink:href="#DejaVuSans-32"/>
       <use xlink:href="#DejaVuSans-30" x="63.623047"/>
       <use xlink:href="#DejaVuSans-30" x="127.246094"/>
      </g>
     </g>
    </g>
   </g>
   <g id="matplotlib.axis_2">
    <g id="ytick_1">
     <g id="line2d_19">
      <path d="M 65.992063 333.08267 
L 807.1875 333.08267 
" clip-path="url(#pd0a4e1d363)" style="fill: none; stroke: #ffffff; stroke-width: 0.8; stroke-linecap: square"/>
     </g>
     <g id="line2d_20">
      <defs>
       <path id="mb9525e606b" d="M 0 0 
L -3.5 0 
" style="stroke: #555555; stroke-width: 0.8"/>
      </defs>
      <g>
       <use xlink:href="#mb9525e606b" x="65.992063" y="333.08267" style="fill: #555555; stroke: #555555; stroke-width: 0.8"/>
      </g>
     </g>
     <g id="text_10">
      <!-- 0 -->
      <g style="fill: #555555" transform="translate(52.629563 336.881889) scale(0.1 -0.1)">
       <use xlink:href="#DejaVuSans-30"/>
      </g>
     </g>
    </g>
    <g id="ytick_2">
     <g id="line2d_21">
      <path d="M 65.992063 291.396024 
L 807.1875 291.396024 
" clip-path="url(#pd0a4e1d363)" style="fill: none; stroke: #ffffff; stroke-width: 0.8; stroke-linecap: square"/>
     </g>
     <g id="line2d_22">
      <g>
       <use xlink:href="#mb9525e606b" x="65.992063" y="291.396024" style="fill: #555555; stroke: #555555; stroke-width: 0.8"/>
      </g>
     </g>
     <g id="text_11">
      <!-- 25 -->
      <g style="fill: #555555" transform="translate(46.267063 295.195243) scale(0.1 -0.1)">
       <use xlink:href="#DejaVuSans-32"/>
       <use xlink:href="#DejaVuSans-35" x="63.623047"/>
      </g>
     </g>
    </g>
    <g id="ytick_3">
     <g id="line2d_23">
      <path d="M 65.992063 249.709378 
L 807.1875 249.709378 
" clip-path="url(#pd0a4e1d363)" style="fill: none; stroke: #ffffff; stroke-width: 0.8; stroke-linecap: square"/>
     </g>
     <g id="line2d_24">
      <g>
       <use xlink:href="#mb9525e606b" x="65.992063" y="249.709378" style="fill: #555555; stroke: #555555; stroke-width: 0.8"/>
      </g>
     </g>
     <g id="text_12">
      <!-- 50 -->
      <g style="fill: #555555" transform="translate(46.267063 253.508597) scale(0.1 -0.1)">
       <use xlink:href="#DejaVuSans-35"/>
       <use xlink:href="#DejaVuSans-30" x="63.623047"/>
      </g>
     </g>
    </g>
    <g id="ytick_4">
     <g id="line2d_25">
      <path d="M 65.992063 208.022732 
L 807.1875 208.022732 
" clip-path="url(#pd0a4e1d363)" style="fill: none; stroke: #ffffff; stroke-width: 0.8; stroke-linecap: square"/>
     </g>
     <g id="line2d_26">
      <g>
       <use xlink:href="#mb9525e606b" x="65.992063" y="208.022732" style="fill: #555555; stroke: #555555; stroke-width: 0.8"/>
      </g>
     </g>
     <g id="text_13">
      <!-- 75 -->
      <g style="fill: #555555" transform="translate(46.267063 211.821951) scale(0.1 -0.1)">
       <use xlink:href="#DejaVuSans-37"/>
       <use xlink:href="#DejaVuSans-35" x="63.623047"/>
      </g>
     </g>
    </g>
    <g id="ytick_5">
     <g id="line2d_27">
      <path d="M 65.992063 166.336086 
L 807.1875 166.336086 
" clip-path="url(#pd0a4e1d363)" style="fill: none; stroke: #ffffff; stroke-width: 0.8; stroke-linecap: square"/>
     </g>
     <g id="line2d_28">
      <g>
       <use xlink:href="#mb9525e606b" x="65.992063" y="166.336086" style="fill: #555555; stroke: #555555; stroke-width: 0.8"/>
      </g>
     </g>
     <g id="text_14">
      <!-- 100 -->
      <g style="fill: #555555" transform="translate(39.904562 170.135305) scale(0.1 -0.1)">
       <use xlink:href="#DejaVuSans-31"/>
       <use xlink:href="#DejaVuSans-30" x="63.623047"/>
       <use xlink:href="#DejaVuSans-30" x="127.246094"/>
      </g>
     </g>
    </g>
    <g id="ytick_6">
     <g id="line2d_29">
      <path d="M 65.992063 124.64944 
L 807.1875 124.64944 
" clip-path="url(#pd0a4e1d363)" style="fill: none; stroke: #ffffff; stroke-width: 0.8; stroke-linecap: square"/>
     </g>
     <g id="line2d_30">
      <g>
       <use xlink:href="#mb9525e606b" x="65.992063" y="124.64944" style="fill: #555555; stroke: #555555; stroke-width: 0.8"/>
      </g>
     </g>
     <g id="text_15">
      <!-- 125 -->
      <g style="fill: #555555" transform="translate(39.904562 128.448659) scale(0.1 -0.1)">
       <use xlink:href="#DejaVuSans-31"/>
       <use xlink:href="#DejaVuSans-32" x="63.623047"/>
       <use xlink:href="#DejaVuSans-35" x="127.246094"/>
      </g>
     </g>
    </g>
    <g id="ytick_7">
     <g id="line2d_31">
      <path d="M 65.992063 82.962794 
L 807.1875 82.962794 
" clip-path="url(#pd0a4e1d363)" style="fill: none; stroke: #ffffff; stroke-width: 0.8; stroke-linecap: square"/>
     </g>
     <g id="line2d_32">
      <g>
       <use xlink:href="#mb9525e606b" x="65.992063" y="82.962794" style="fill: #555555; stroke: #555555; stroke-width: 0.8"/>
      </g>
     </g>
     <g id="text_16">
      <!-- 150 -->
      <g style="fill: #555555" transform="translate(39.904562 86.762013) scale(0.1 -0.1)">
       <use xlink:href="#DejaVuSans-31"/>
       <use xlink:href="#DejaVuSans-35" x="63.623047"/>
       <use xlink:href="#DejaVuSans-30" x="127.246094"/>
      </g>
     </g>
    </g>
    <g id="ytick_8">
     <g id="line2d_33">
      <path d="M 65.992063 41.276148 
L 807.1875 41.276148 
" clip-path="url(#pd0a4e1d363)" style="fill: none; stroke: #ffffff; stroke-width: 0.8; stroke-linecap: square"/>
     </g>
     <g id="line2d_34">
      <g>
       <use xlink:href="#mb9525e606b" x="65.992063" y="41.276148" style="fill: #555555; stroke: #555555; stroke-width: 0.8"/>
      </g>
     </g>
     <g id="text_17">
      <!-- 175 -->
      <g style="fill: #555555" transform="translate(39.904562 45.075367) scale(0.1 -0.1)">
       <use xlink:href="#DejaVuSans-31"/>
       <use xlink:href="#DejaVuSans-37" x="63.623047"/>
       <use xlink:href="#DejaVuSans-35" x="127.246094"/>
      </g>
     </g>
    </g>
   </g>
   <g id="line2d_35">
    <path d="M 99.682764 331.415205 
L 99.682764 333.08267 
L 100.016753 331.415205 
L 101.907993 329.747739 
L 103.085865 331.415205 
L 103.419854 329.747739 
L 103.605705 328.080273 
L 106.488967 329.747739 
L 107.001612 328.080273 
L 107.160627 326.412807 
L 109.892068 328.080273 
L 110.404713 326.412807 
L 113.295169 328.080273 
L 113.807814 326.412807 
L 114.105989 324.745341 
L 116.69827 326.412807 
L 117.210915 324.745341 
L 119.266915 323.077875 
L 120.101371 324.745341 
L 120.614016 323.077875 
L 123.504472 324.745341 
L 124.017118 323.077875 
L 124.103963 321.41041 
L 124.65573 319.742944 
L 126.907574 321.41041 
L 127.878455 318.075478 
L 129.3946 316.408012 
L 130.310675 318.075478 
L 130.82332 316.408012 
L 133.713776 318.075478 
L 134.226421 316.408012 
L 137.116877 318.075478 
L 137.444752 314.740546 
L 137.906994 313.07308 
L 139.409445 311.405614 
L 139.775738 309.738149 
L 140.519978 311.405614 
L 141.310095 309.738149 
L 143.375628 308.070683 
L 143.92308 309.738149 
L 144.713196 306.403217 
L 146.506557 304.735751 
L 147.095727 303.068285 
L 147.326181 304.735751 
L 147.493738 303.068285 
L 148.116297 301.400819 
L 150.729282 303.068285 
L 151.519398 299.733354 
L 154.132383 301.400819 
L 154.82518 299.733354 
L 154.9225 298.065888 
L 155.169012 296.398422 
L 157.535484 298.065888 
L 158.325601 296.398422 
L 160.938585 298.065888 
L 161.728702 296.398422 
L 164.341687 298.065888 
L 165.131803 296.398422 
L 167.330295 294.730956 
L 167.744788 296.398422 
L 168.534904 294.730956 
L 171.147889 296.398422 
L 171.938005 294.730956 
L 174.55099 296.398422 
L 174.559289 294.730956 
L 175.341107 291.396024 
L 177.954091 293.06349 
L 178.744208 291.396024 
L 181.357193 293.06349 
L 182.147309 291.396024 
L 183.539919 289.728559 
L 184.760294 291.396024 
L 185.265973 289.728559 
L 185.281989 288.061093 
L 185.820842 284.726161 
L 188.163395 286.393627 
L 188.689938 284.726161 
L 188.953511 283.058695 
L 190.622574 281.391229 
L 191.566496 283.058695 
L 192.338907 281.391229 
L 192.356613 279.723763 
L 194.969597 281.391229 
L 195.759714 279.723763 
L 195.805505 278.056298 
L 197.835045 276.388832 
L 198.372698 278.056298 
L 199.162815 276.388832 
L 201.7758 278.056298 
L 202.565916 276.388832 
L 205.178901 278.056298 
L 205.969017 276.388832 
L 208.582002 278.056298 
L 209.372118 276.388832 
L 210.913185 274.721366 
L 211.985103 276.388832 
L 212.77522 274.721366 
L 215.388204 276.388832 
L 216.178321 274.721366 
L 218.791306 276.388832 
L 219.581422 274.721366 
L 221.54947 273.0539 
L 222.194407 274.721366 
L 222.984523 273.0539 
L 224.45599 271.386434 
L 225.307043 269.718968 
L 225.597508 271.386434 
L 225.825313 269.718968 
L 226.387624 268.051503 
L 227.773458 266.384037 
L 229.000609 268.051503 
L 229.790726 266.384037 
L 231.915098 264.716571 
L 232.274509 263.049105 
L 232.40371 264.716571 
L 232.631432 263.049105 
L 233.193827 261.381639 
L 235.806811 263.049105 
L 236.596928 261.381639 
L 236.894182 259.714173 
L 237.024463 258.046708 
L 237.62792 256.379242 
L 239.209913 258.046708 
L 240.000029 256.379242 
L 240.043842 254.711776 
L 240.66504 253.04431 
L 242.613014 254.711776 
L 243.40313 253.04431 
L 246.016115 254.711776 
L 246.806231 253.04431 
L 247.07624 251.376844 
L 249.132731 249.709378 
L 249.419216 251.376844 
L 250.209333 249.709378 
L 250.680842 248.041912 
L 251.573575 246.374447 
L 251.613675 244.706981 
L 252.822317 246.374447 
L 253.612434 244.706981 
L 256.225419 246.374447 
L 256.540665 244.706981 
L 257.181452 243.039515 
L 259.62852 244.706981 
L 259.68658 243.039515 
L 259.876712 241.372049 
L 259.92291 239.704583 
L 261.188091 236.369652 
L 263.031621 238.037117 
L 264.640599 236.369652 
L 266.434722 238.037117 
L 268.043701 236.369652 
L 268.253035 234.702186 
L 269.837823 236.369652 
L 271.446802 234.702186 
L 272.340061 233.03472 
L 273.240925 234.702186 
L 274.849903 233.03472 
L 275.373512 231.367254 
L 276.644026 233.03472 
L 276.645886 231.367254 
L 278.253004 229.699788 
L 279.395524 228.032322 
L 280.047127 229.699788 
L 280.235611 228.032322 
L 281.656105 226.364856 
L 283.408177 223.029925 
L 283.450228 224.697391 
L 284.407013 223.029925 
L 284.90804 219.694993 
L 285.059206 218.027527 
L 286.853329 219.694993 
L 287.185102 218.027527 
L 288.462308 216.360061 
L 288.799589 214.692596 
L 289.473293 213.02513 
L 289.558331 211.357664 
L 290.25643 213.02513 
L 291.865409 211.357664 
L 293.659532 213.02513 
L 295.26851 211.357664 
L 296.120735 209.690198 
L 297.062633 211.357664 
L 300.465734 213.02513 
L 302.919874 211.357664 
L 303.868835 213.02513 
L 306.322975 211.357664 
L 307.271936 213.02513 
L 310.675038 214.692596 
L 311.22061 213.02513 
L 311.909942 211.357664 
L 313.982583 209.690198 
L 314.078139 211.357664 
L 314.623711 209.690198 
L 316.230342 208.022732 
L 317.48124 209.690198 
L 318.026812 208.022732 
L 320.696939 206.355266 
L 320.785412 204.687801 
L 320.884341 206.355266 
L 321.429913 204.687801 
L 324.287442 206.355266 
L 324.833014 204.687801 
L 325.016661 203.020335 
L 325.718918 201.352869 
L 327.690543 203.020335 
L 328.236116 201.352869 
L 331.093645 203.020335 
L 331.639217 199.685403 
L 334.496746 201.352869 
L 335.042318 199.685403 
L 337.573075 198.017937 
L 337.899847 199.685403 
L 338.407509 198.017937 
L 338.445419 196.350471 
L 341.141532 194.683005 
L 341.302948 196.350471 
L 341.84852 194.683005 
L 341.94009 193.01554 
L 343.090864 191.348074 
L 343.450529 189.680608 
L 343.48212 188.013142 
L 344.706049 189.680608 
L 345.251621 188.013142 
L 347.25415 186.345676 
L 348.109151 188.013142 
L 348.654723 186.345676 
L 351.391268 184.67821 
L 351.512252 186.345676 
L 352.057824 184.67821 
L 354.915353 186.345676 
L 355.460925 184.67821 
L 356.662711 183.010745 
L 358.318454 184.67821 
L 361.721555 186.345676 
L 363.683816 184.67821 
L 365.124656 186.345676 
L 366.811442 184.67821 
L 368.527758 186.345676 
L 369.147355 184.67821 
L 371.930859 186.345676 
L 373.146082 183.010745 
L 375.33396 184.67821 
L 375.360811 183.010745 
L 377.701953 179.675813 
L 378.737061 181.343279 
L 379.266669 179.675813 
L 382.140162 181.343279 
L 385.142577 179.675813 
L 385.543264 181.343279 
L 386.57526 179.675813 
L 388.946365 181.343279 
L 390.843951 179.675813 
L 392.349466 181.343279 
L 394.247052 179.675813 
L 394.641929 178.008347 
L 395.752567 179.675813 
L 397.650153 178.008347 
L 399.155668 179.675813 
L 401.053254 178.008347 
L 402.558769 179.675813 
L 404.456355 176.340881 
L 405.961871 178.008347 
L 406.285946 176.340881 
L 407.29293 174.673415 
L 407.486793 173.005949 
L 407.859457 171.338484 
L 409.364972 173.005949 
L 409.689194 171.338484 
L 411.262558 169.671018 
L 411.776789 168.003552 
L 412.768073 169.671018 
L 412.911395 168.003552 
L 413.591523 166.336086 
L 414.665659 164.66862 
L 416.014559 163.001154 
L 416.171174 164.66862 
L 418.06876 163.001154 
L 419.574275 164.66862 
L 421.471861 163.001154 
L 422.409389 161.333689 
L 422.5647 159.666223 
L 422.977377 161.333689 
L 424.874963 159.666223 
L 426.380478 161.333689 
L 428.038308 159.666223 
L 428.278064 157.998757 
L 429.783579 159.666223 
L 431.681165 157.998757 
L 433.18668 159.666223 
L 435.084266 157.998757 
L 436.589781 159.666223 
L 438.487367 157.998757 
L 438.944597 156.331291 
L 439.992882 157.998757 
L 441.890468 156.331291 
L 443.395984 157.998757 
L 445.29357 156.331291 
L 446.218459 154.663825 
L 446.799085 156.331291 
L 448.399757 154.663825 
L 448.696671 152.996359 
L 450.202186 154.663825 
L 452.099772 152.996359 
L 452.686444 151.328894 
L 453.605287 152.996359 
L 455.502873 151.328894 
L 457.008388 152.996359 
L 458.905974 151.328894 
L 460.41149 152.996359 
L 462.309076 151.328894 
L 463.570429 149.661428 
L 463.814591 151.328894 
L 465.712177 149.661428 
L 467.217692 151.328894 
L 469.115278 149.661428 
L 469.32247 147.993962 
L 470.341114 146.326496 
L 470.620793 147.993962 
L 472.518379 146.326496 
L 474.023894 147.993962 
L 475.92148 146.326496 
L 476.775457 144.65903 
L 477.426995 146.326496 
L 478.46751 144.65903 
L 479.324581 142.991564 
L 480.830097 144.65903 
L 482.727683 142.991564 
L 484.233198 144.65903 
L 486.130784 142.991564 
L 487.482966 141.324098 
L 487.636299 142.991564 
L 489.388731 141.324098 
L 489.533885 139.656633 
L 491.0394 141.324098 
L 492.936986 139.656633 
L 494.406339 137.989167 
L 494.442501 139.656633 
L 496.340087 137.989167 
L 497.845603 139.656633 
L 499.743189 137.989167 
L 500.46704 136.321701 
L 500.696866 134.654235 
L 501.248704 136.321701 
L 503.14629 134.654235 
L 504.651805 136.321701 
L 505.899999 134.654235 
L 506.549391 132.986769 
L 506.861194 131.319303 
L 508.054906 132.986769 
L 510.591648 131.319303 
L 511.227991 129.651838 
L 511.458007 131.319303 
L 511.743074 129.651838 
L 514.631092 127.984372 
L 514.861108 129.651838 
L 517.627444 127.984372 
L 518.034194 126.316906 
L 518.26421 127.984372 
L 519.656277 126.316906 
L 520.668269 124.64944 
L 521.437295 122.981974 
L 521.667311 124.64944 
L 524.840396 122.981974 
L 525.070412 124.64944 
L 528.243497 122.981974 
L 528.473513 124.64944 
L 531.646598 122.981974 
L 531.876614 124.64944 
L 535.049699 122.981974 
L 535.07365 121.314508 
L 535.279716 122.981974 
L 538.452801 121.314508 
L 538.682817 122.981974 
L 539.538393 121.314508 
L 540.023345 119.647042 
L 541.618704 117.979577 
L 541.855902 116.312111 
L 542.085918 117.979577 
L 545.259003 116.312111 
L 545.489019 117.979577 
L 545.497543 116.312111 
L 548.662104 114.644645 
L 548.89212 116.312111 
L 550.060768 114.644645 
L 552.065205 112.977179 
L 552.295221 114.644645 
L 552.556008 112.977179 
L 553.585567 109.642247 
L 555.468307 107.974782 
L 555.698323 109.642247 
L 558.871408 107.974782 
L 559.101424 109.642247 
L 562.274509 107.974782 
L 562.504525 109.642247 
L 565.67761 107.974782 
L 565.907626 109.642247 
L 569.080711 107.974782 
L 569.310727 109.642247 
L 571.231087 107.974782 
L 572.483812 106.307316 
L 572.713829 107.974782 
L 573.964243 106.307316 
L 576.032596 104.63985 
L 576.11693 106.307316 
L 576.120491 104.63985 
L 577.181816 102.972384 
L 579.520031 104.63985 
L 580.584917 102.972384 
L 582.923132 104.63985 
L 583.572081 102.972384 
L 586.326233 104.63985 
L 589.729334 106.307316 
L 590.20222 104.63985 
L 592.349064 102.972384 
L 593.132436 104.63985 
L 594.919126 102.972384 
L 596.535537 104.63985 
L 597.690164 102.972384 
L 599.938638 104.63985 
L 601.908982 102.972384 
L 602.520428 101.304918 
L 602.547365 99.637452 
L 603.341739 101.304918 
L 604.645694 99.637452 
L 606.74484 101.304918 
L 609.10282 99.637452 
L 610.147942 101.304918 
L 612.505922 99.637452 
L 613.33203 97.969987 
L 613.551043 99.637452 
L 615.007857 97.969987 
L 615.909023 96.302521 
L 616.954144 97.969987 
L 617.072561 96.302521 
L 619.312124 94.635055 
L 620.357245 96.302521 
L 622.715225 94.635055 
L 623.180015 92.967589 
L 623.760346 94.635055 
L 625.157247 92.967589 
L 626.118326 91.300123 
L 627.163447 92.967589 
L 628.716296 91.300123 
L 629.521428 89.632657 
L 630.566549 91.300123 
L 632.924529 89.632657 
L 633.96965 91.300123 
L 636.32763 89.632657 
L 637.372751 91.300123 
L 639.730731 89.632657 
L 640.775852 91.300123 
L 643.133832 89.632657 
L 644.178953 91.300123 
L 644.800697 89.632657 
L 646.536933 87.965191 
L 647.453534 86.297726 
L 647.582055 87.965191 
L 648.605283 86.297726 
L 648.754772 84.63026 
L 649.940035 82.962794 
L 650.985156 84.63026 
L 653.343136 82.962794 
L 654.388257 84.63026 
L 656.746237 82.962794 
L 657.340855 81.295328 
L 657.791358 82.962794 
L 658.266042 81.295328 
L 660.149338 79.627862 
L 661.194459 81.295328 
L 664.59756 82.962794 
L 665.226162 81.295328 
L 666.38113 79.627862 
L 668.000662 81.295328 
L 668.629263 79.627862 
L 670.963839 77.960396 
L 671.403763 79.627862 
L 672.032364 77.960396 
L 672.199325 76.292931 
L 674.806864 77.960396 
L 675.435465 76.292931 
L 678.209965 77.960396 
L 678.838566 76.292931 
L 681.613066 77.960396 
L 682.241667 76.292931 
L 685.016168 77.960396 
L 685.644769 76.292931 
L 688.419269 77.960396 
L 689.04787 76.292931 
L 691.82237 77.960396 
L 692.450971 76.292931 
L 693.284634 74.625465 
L 695.225471 76.292931 
L 695.854072 74.625465 
L 696.9477 72.957999 
L 698.628572 74.625465 
L 699.257173 72.957999 
L 701.29687 71.290533 
L 702.031673 72.957999 
L 702.660275 69.623067 
L 705.17796 67.955601 
L 705.434775 69.623067 
L 706.063376 67.955601 
L 708.837876 69.623067 
L 709.466477 67.955601 
L 712.240977 69.623067 
L 712.869578 67.955601 
L 715.644078 69.623067 
L 715.880705 67.955601 
L 716.272679 66.288136 
L 716.305388 64.62067 
L 716.690529 62.953204 
L 719.047179 64.62067 
L 719.670416 62.953204 
L 719.67578 61.285738 
L 722.450281 62.953204 
L 723.078882 61.285738 
L 725.853382 62.953204 
L 726.481983 61.285738 
L 729.256483 62.953204 
L 729.289363 61.285738 
L 729.885084 59.618272 
L 730.002532 57.950806 
L 732.659584 59.618272 
L 733.288185 57.950806 
L 736.062685 59.618272 
L 736.691286 57.950806 
L 737.796509 56.28334 
L 739.465786 57.950806 
L 740.020277 56.28334 
L 740.094388 54.615875 
L 742.868888 56.28334 
L 743.497489 54.615875 
L 746.271989 56.28334 
L 746.90059 54.615875 
L 749.67509 56.28334 
L 750.303691 54.615875 
L 751.655944 52.948409 
L 753.078191 54.615875 
L 753.254068 52.948409 
L 753.706792 51.280943 
L 756.481292 52.948409 
L 757.109893 51.280943 
L 759.884394 52.948409 
L 760.512995 51.280943 
L 761.602916 49.613477 
L 761.998668 47.946011 
L 763.287495 49.613477 
L 764.57432 46.278545 
L 766.690596 47.946011 
L 767.319197 46.278545 
L 770.093697 47.946011 
L 770.722298 46.278545 
L 772.063923 44.61108 
L 773.496798 46.278545 
L 773.496798 46.278545 
" clip-path="url(#pd0a4e1d363)" style="fill: none; stroke: #e24a33; stroke-width: 1.5; stroke-linecap: square"/>
   </g>
   <g id="patch_3">
    <path d="M 65.992063 347.50625 
L 65.992063 30.1875 
" style="fill: none; stroke: #ffffff; stroke-linejoin: miter; stroke-linecap: square"/>
   </g>
   <g id="patch_4">
    <path d="M 807.1875 347.50625 
L 807.1875 30.1875 
" style="fill: none; stroke: #ffffff; stroke-linejoin: miter; stroke-linecap: square"/>
   </g>
   <g id="patch_5">
    <path d="M 65.992063 347.50625 
L 807.1875 347.50625 
" style="fill: none; stroke: #ffffff; stroke-linejoin: miter; stroke-linecap: square"/>
   </g>
   <g id="patch_6">
    <path d="M 65.992063 30.1875 
L 807.1875 30.1875 
" style="fill: none; stroke: #ffffff; stroke-linejoin: miter; stroke-linecap: square"/>
   </g>
   <g id="text_18">
    <!-- Buffer Size in Network.node[3].lnk[0] -->
    <g transform="translate(302.679906 24.1875) scale(0.144 -0.144)">
     <defs>
      <path id="DejaVuSans-42" d="M 1259 2228 
L 1259 519 
L 2272 519 
Q 2781 519 3026 730 
Q 3272 941 3272 1375 
Q 3272 1813 3026 2020 
Q 2781 2228 2272 2228 
L 1259 2228 
z
M 1259 4147 
L 1259 2741 
L 2194 2741 
Q 2656 2741 2882 2914 
Q 3109 3088 3109 3444 
Q 3109 3797 2882 3972 
Q 2656 4147 2194 4147 
L 1259 4147 
z
M 628 4666 
L 2241 4666 
Q 2963 4666 3353 4366 
Q 3744 4066 3744 3513 
Q 3744 3084 3544 2831 
Q 3344 2578 2956 2516 
Q 3422 2416 3680 2098 
Q 3938 1781 3938 1306 
Q 3938 681 3513 340 
Q 3088 0 2303 0 
L 628 0 
L 628 4666 
z
" transform="scale(0.015625)"/>
      <path id="DejaVuSans-75" d="M 544 1381 
L 544 3500 
L 1119 3500 
L 1119 1403 
Q 1119 906 1312 657 
Q 1506 409 1894 409 
Q 2359 409 2629 706 
Q 2900 1003 2900 1516 
L 2900 3500 
L 3475 3500 
L 3475 0 
L 2900 0 
L 2900 538 
Q 2691 219 2414 64 
Q 2138 -91 1772 -91 
Q 1169 -91 856 284 
Q 544 659 544 1381 
z
M 1991 3584 
L 1991 3584 
z
" transform="scale(0.015625)"/>
      <path id="DejaVuSans-66" d="M 2375 4863 
L 2375 4384 
L 1825 4384 
Q 1516 4384 1395 4259 
Q 1275 4134 1275 3809 
L 1275 3500 
L 2222 3500 
L 2222 3053 
L 1275 3053 
L 1275 0 
L 697 0 
L 697 3053 
L 147 3053 
L 147 3500 
L 697 3500 
L 697 3744 
Q 697 4328 969 4595 
Q 1241 4863 1831 4863 
L 2375 4863 
z
" transform="scale(0.015625)"/>
      <path id="DejaVuSans-65" d="M 3597 1894 
L 3597 1613 
L 953 1613 
Q 991 1019 1311 708 
Q 1631 397 2203 397 
Q 2534 397 2845 478 
Q 3156 559 3463 722 
L 3463 178 
Q 3153 47 2828 -22 
Q 2503 -91 2169 -91 
Q 1331 -91 842 396 
Q 353 884 353 1716 
Q 353 2575 817 3079 
Q 1281 3584 2069 3584 
Q 2775 3584 3186 3129 
Q 3597 2675 3597 1894 
z
M 3022 2063 
Q 3016 2534 2758 2815 
Q 2500 3097 2075 3097 
Q 1594 3097 1305 2825 
Q 1016 2553 972 2059 
L 3022 2063 
z
" transform="scale(0.015625)"/>
      <path id="DejaVuSans-72" d="M 2631 2963 
Q 2534 3019 2420 3045 
Q 2306 3072 2169 3072 
Q 1681 3072 1420 2755 
Q 1159 2438 1159 1844 
L 1159 0 
L 581 0 
L 581 3500 
L 1159 3500 
L 1159 2956 
Q 1341 3275 1631 3429 
Q 1922 3584 2338 3584 
Q 2397 3584 2469 3576 
Q 2541 3569 2628 3553 
L 2631 2963 
z
" transform="scale(0.015625)"/>
      <path id="DejaVuSans-20" transform="scale(0.015625)"/>
      <path id="DejaVuSans-53" d="M 3425 4513 
L 3425 3897 
Q 3066 4069 2747 4153 
Q 2428 4238 2131 4238 
Q 1616 4238 1336 4038 
Q 1056 3838 1056 3469 
Q 1056 3159 1242 3001 
Q 1428 2844 1947 2747 
L 2328 2669 
Q 3034 2534 3370 2195 
Q 3706 1856 3706 1288 
Q 3706 609 3251 259 
Q 2797 -91 1919 -91 
Q 1588 -91 1214 -16 
Q 841 59 441 206 
L 441 856 
Q 825 641 1194 531 
Q 1563 422 1919 422 
Q 2459 422 2753 634 
Q 3047 847 3047 1241 
Q 3047 1584 2836 1778 
Q 2625 1972 2144 2069 
L 1759 2144 
Q 1053 2284 737 2584 
Q 422 2884 422 3419 
Q 422 4038 858 4394 
Q 1294 4750 2059 4750 
Q 2388 4750 2728 4690 
Q 3069 4631 3425 4513 
z
" transform="scale(0.015625)"/>
      <path id="DejaVuSans-69" d="M 603 3500 
L 1178 3500 
L 1178 0 
L 603 0 
L 603 3500 
z
M 603 4863 
L 1178 4863 
L 1178 4134 
L 603 4134 
L 603 4863 
z
" transform="scale(0.015625)"/>
      <path id="DejaVuSans-7a" d="M 353 3500 
L 3084 3500 
L 3084 2975 
L 922 459 
L 3084 459 
L 3084 0 
L 275 0 
L 275 525 
L 2438 3041 
L 353 3041 
L 353 3500 
z
" transform="scale(0.015625)"/>
      <path id="DejaVuSans-6e" d="M 3513 2113 
L 3513 0 
L 2938 0 
L 2938 2094 
Q 2938 2591 2744 2837 
Q 2550 3084 2163 3084 
Q 1697 3084 1428 2787 
Q 1159 2491 1159 1978 
L 1159 0 
L 581 0 
L 581 3500 
L 1159 3500 
L 1159 2956 
Q 1366 3272 1645 3428 
Q 1925 3584 2291 3584 
Q 2894 3584 3203 3211 
Q 3513 2838 3513 2113 
z
" transform="scale(0.015625)"/>
      <path id="DejaVuSans-4e" d="M 628 4666 
L 1478 4666 
L 3547 763 
L 3547 4666 
L 4159 4666 
L 4159 0 
L 3309 0 
L 1241 3903 
L 1241 0 
L 628 0 
L 628 4666 
z
" transform="scale(0.015625)"/>
      <path id="DejaVuSans-74" d="M 1172 4494 
L 1172 3500 
L 2356 3500 
L 2356 3053 
L 1172 3053 
L 1172 1153 
Q 1172 725 1289 603 
Q 1406 481 1766 481 
L 2356 481 
L 2356 0 
L 1766 0 
Q 1100 0 847 248 
Q 594 497 594 1153 
L 594 3053 
L 172 3053 
L 172 3500 
L 594 3500 
L 594 4494 
L 1172 4494 
z
" transform="scale(0.015625)"/>
      <path id="DejaVuSans-77" d="M 269 3500 
L 844 3500 
L 1563 769 
L 2278 3500 
L 2956 3500 
L 3675 769 
L 4391 3500 
L 4966 3500 
L 4050 0 
L 3372 0 
L 2619 2869 
L 1863 0 
L 1184 0 
L 269 3500 
z
" transform="scale(0.015625)"/>
      <path id="DejaVuSans-6f" d="M 1959 3097 
Q 1497 3097 1228 2736 
Q 959 2375 959 1747 
Q 959 1119 1226 758 
Q 1494 397 1959 397 
Q 2419 397 2687 759 
Q 2956 1122 2956 1747 
Q 2956 2369 2687 2733 
Q 2419 3097 1959 3097 
z
M 1959 3584 
Q 2709 3584 3137 3096 
Q 3566 2609 3566 1747 
Q 3566 888 3137 398 
Q 2709 -91 1959 -91 
Q 1206 -91 779 398 
Q 353 888 353 1747 
Q 353 2609 779 3096 
Q 1206 3584 1959 3584 
z
" transform="scale(0.015625)"/>
      <path id="DejaVuSans-6b" d="M 581 4863 
L 1159 4863 
L 1159 1991 
L 2875 3500 
L 3609 3500 
L 1753 1863 
L 3688 0 
L 2938 0 
L 1159 1709 
L 1159 0 
L 581 0 
L 581 4863 
z
" transform="scale(0.015625)"/>
      <path id="DejaVuSans-2e" d="M 684 794 
L 1344 794 
L 1344 0 
L 684 0 
L 684 794 
z
" transform="scale(0.015625)"/>
      <path id="DejaVuSans-64" d="M 2906 2969 
L 2906 4863 
L 3481 4863 
L 3481 0 
L 2906 0 
L 2906 525 
Q 2725 213 2448 61 
Q 2172 -91 1784 -91 
Q 1150 -91 751 415 
Q 353 922 353 1747 
Q 353 2572 751 3078 
Q 1150 3584 1784 3584 
Q 2172 3584 2448 3432 
Q 2725 3281 2906 2969 
z
M 947 1747 
Q 947 1113 1208 752 
Q 1469 391 1925 391 
Q 2381 391 2643 752 
Q 2906 1113 2906 1747 
Q 2906 2381 2643 2742 
Q 2381 3103 1925 3103 
Q 1469 3103 1208 2742 
Q 947 2381 947 1747 
z
" transform="scale(0.015625)"/>
      <path id="DejaVuSans-5b" d="M 550 4863 
L 1875 4863 
L 1875 4416 
L 1125 4416 
L 1125 -397 
L 1875 -397 
L 1875 -844 
L 550 -844 
L 550 4863 
z
" transform="scale(0.015625)"/>
      <path id="DejaVuSans-33" d="M 2597 2516 
Q 3050 2419 3304 2112 
Q 3559 1806 3559 1356 
Q 3559 666 3084 287 
Q 2609 -91 1734 -91 
Q 1441 -91 1130 -33 
Q 819 25 488 141 
L 488 750 
Q 750 597 1062 519 
Q 1375 441 1716 441 
Q 2309 441 2620 675 
Q 2931 909 2931 1356 
Q 2931 1769 2642 2001 
Q 2353 2234 1838 2234 
L 1294 2234 
L 1294 2753 
L 1863 2753 
Q 2328 2753 2575 2939 
Q 2822 3125 2822 3475 
Q 2822 3834 2567 4026 
Q 2313 4219 1838 4219 
Q 1578 4219 1281 4162 
Q 984 4106 628 3988 
L 628 4550 
Q 988 4650 1302 4700 
Q 1616 4750 1894 4750 
Q 2613 4750 3031 4423 
Q 3450 4097 3450 3541 
Q 3450 3153 3228 2886 
Q 3006 2619 2597 2516 
z
" transform="scale(0.015625)"/>
      <path id="DejaVuSans-5d" d="M 1947 4863 
L 1947 -844 
L 622 -844 
L 622 -397 
L 1369 -397 
L 1369 4416 
L 622 4416 
L 622 4863 
L 1947 4863 
z
" transform="scale(0.015625)"/>
      <path id="DejaVuSans-6c" d="M 603 4863 
L 1178 4863 
L 1178 0 
L 603 0 
L 603 4863 
z
" transform="scale(0.015625)"/>
     </defs>
     <use xlink:href="#DejaVuSans-42"/>
     <use xlink:href="#DejaVuSans-75" x="68.603516"/>
     <use xlink:href="#DejaVuSans-66" x="131.982422"/>
     <use xlink:href="#DejaVuSans-66" x="167.1875"/>
     <use xlink:href="#DejaVuSans-65" x="202.392578"/>
     <use xlink:href="#DejaVuSans-72" x="263.916016"/>
     <use xlink:href="#DejaVuSans-20" x="305.029297"/>
     <use xlink:href="#DejaVuSans-53" x="336.816406"/>
     <use xlink:href="#DejaVuSans-69" x="400.292969"/>
     <use xlink:href="#DejaVuSans-7a" x="428.076172"/>
     <use xlink:href="#DejaVuSans-65" x="480.566406"/>
     <use xlink:href="#DejaVuSans-20" x="542.089844"/>
     <use xlink:href="#DejaVuSans-69" x="573.876953"/>
     <use xlink:href="#DejaVuSans-6e" x="601.660156"/>
     <use xlink:href="#DejaVuSans-20" x="665.039062"/>
     <use xlink:href="#DejaVuSans-4e" x="696.826172"/>
     <use xlink:href="#DejaVuSans-65" x="771.630859"/>
     <use xlink:href="#DejaVuSans-74" x="833.154297"/>
     <use xlink:href="#DejaVuSans-77" x="872.363281"/>
     <use xlink:href="#DejaVuSans-6f" x="954.150391"/>
     <use xlink:href="#DejaVuSans-72" x="1015.332031"/>
     <use xlink:href="#DejaVuSans-6b" x="1056.445312"/>
     <use xlink:href="#DejaVuSans-2e" x="1114.355469"/>
     <use xlink:href="#DejaVuSans-6e" x="1146.142578"/>
     <use xlink:href="#DejaVuSans-6f" x="1209.521484"/>
     <use xlink:href="#DejaVuSans-64" x="1270.703125"/>
     <use xlink:href="#DejaVuSans-65" x="1334.179688"/>
     <use xlink:href="#DejaVuSans-5b" x="1395.703125"/>
     <use xlink:href="#DejaVuSans-33" x="1434.716797"/>
     <use xlink:href="#DejaVuSans-5d" x="1498.339844"/>
     <use xlink:href="#DejaVuSans-2e" x="1537.353516"/>
     <use xlink:href="#DejaVuSans-6c" x="1569.140625"/>
     <use xlink:href="#DejaVuSans-6e" x="1596.923828"/>
     <use xlink:href="#DejaVuSans-6b" x="1660.302734"/>
     <use xlink:href="#DejaVuSans-5b" x="1718.212891"/>
     <use xlink:href="#DejaVuSans-30" x="1757.226562"/>
     <use xlink:href="#DejaVuSans-5d" x="1820.849609"/>
    </g>
   </g>
   <g id="legend_1">
    <g id="patch_7">
     <path d="M 580.201563 52.865625 
L 802.1875 52.865625 
L 802.1875 35.1875 
L 580.201563 35.1875 
z
" style="fill: #e5e5e5; opacity: 0.8; stroke: #cccccc; stroke-width: 0.5; stroke-linejoin: miter"/>
    </g>
    <g id="line2d_36">
     <path d="M 584.201563 43.285938 
L 594.201563 43.285938 
L 604.201563 43.285938 
" style="fill: none; stroke: #e24a33; stroke-width: 1.5; stroke-linecap: square"/>
    </g>
    <g id="text_19">
     <!-- Buffer Size in Network.node[3].lnk[0] -->
     <g transform="translate(612.201563 46.785938) scale(0.1 -0.1)">
      <use xlink:href="#DejaVuSans-42"/>
      <use xlink:href="#DejaVuSans-75" x="68.603516"/>
      <use xlink:href="#DejaVuSans-66" x="131.982422"/>
      <use xlink:href="#DejaVuSans-66" x="167.1875"/>
      <use xlink:href="#DejaVuSans-65" x="202.392578"/>
      <use xlink:href="#DejaVuSans-72" x="263.916016"/>
      <use xlink:href="#DejaVuSans-20" x="305.029297"/>
      <use xlink:href="#DejaVuSans-53" x="336.816406"/>
      <use xlink:href="#DejaVuSans-69" x="400.292969"/>
      <use xlink:href="#DejaVuSans-7a" x="428.076172"/>
      <use xlink:href="#DejaVuSans-65" x="480.566406"/>
      <use xlink:href="#DejaVuSans-20" x="542.089844"/>
      <use xlink:href="#DejaVuSans-69" x="573.876953"/>
      <use xlink:href="#DejaVuSans-6e" x="601.660156"/>
      <use xlink:href="#DejaVuSans-20" x="665.039062"/>
      <use xlink:href="#DejaVuSans-4e" x="696.826172"/>
      <use xlink:href="#DejaVuSans-65" x="771.630859"/>
      <use xlink:href="#DejaVuSans-74" x="833.154297"/>
      <use xlink:href="#DejaVuSans-77" x="872.363281"/>
      <use xlink:href="#DejaVuSans-6f" x="954.150391"/>
      <use xlink:href="#DejaVuSans-72" x="1015.332031"/>
      <use xlink:href="#DejaVuSans-6b" x="1056.445312"/>
      <use xlink:href="#DejaVuSans-2e" x="1114.355469"/>
      <use xlink:href="#DejaVuSans-6e" x="1146.142578"/>
      <use xlink:href="#DejaVuSans-6f" x="1209.521484"/>
      <use xlink:href="#DejaVuSans-64" x="1270.703125"/>
      <use xlink:href="#DejaVuSans-65" x="1334.179688"/>
      <use xlink:href="#DejaVuSans-5b" x="1395.703125"/>
      <use xlink:href="#DejaVuSans-33" x="1434.716797"/>
      <use xlink:href="#DejaVuSans-5d" x="1498.339844"/>
      <use xlink:href="#DejaVuSans-2e" x="1537.353516"/>
      <use xlink:href="#DejaVuSans-6c" x="1569.140625"/>
      <use xlink:href="#DejaVuSans-6e" x="1596.923828"/>
      <use xlink:href="#DejaVuSans-6b" x="1660.302734"/>
      <use xlink:href="#DejaVuSans-5b" x="1718.212891"/>
      <use xlink:href="#DejaVuSans-30" x="1757.226562"/>
      <use xlink:href="#DejaVuSans-5d" x="1820.849609"/>
     </g>
    </g>
   </g>
  </g>
 </g>
 <defs>
  <clipPath id="pd0a4e1d363">
   <rect x="65.992063" y="30.1875" width="741.195438" height="317.31875"/>
  </clipPath>
 </defs>
</svg>
