<?xml version="1.0" encoding="utf-8" standalone="no"?>
<!DOCTYPE svg PUBLIC "-//W3C//DTD SVG 1.1//EN"
  "http://www.w3.org/Graphics/SVG/1.1/DTD/svg11.dtd">
<svg xmlns:xlink="http://www.w3.org/1999/xlink" width="826.56pt" height="385.92pt" viewBox="0 0 826.56 385.92" xmlns="http://www.w3.org/2000/svg" version="1.1">
 <metadata>
  <rdf:RDF xmlns:dc="http://purl.org/dc/elements/1.1/" xmlns:cc="http://creativecommons.org/ns#" xmlns:rdf="http://www.w3.org/1999/02/22-rdf-syntax-ns#">
   <cc:Work>
    <dc:type rdf:resource="http://purl.org/dc/dcmitype/StillImage"/>
    <dc:date>2025-06-03T22:19:37.766572</dc:date>
    <dc:format>image/svg+xml</dc:format>
    <dc:creator>
     <cc:Agent>
      <dc:title>Matplotlib v3.7.1, https://matplotlib.org/</dc:title>
     </cc:Agent>
    </dc:creator>
   </cc:Work>
  </rdf:RDF>
 </metadata>
 <defs>
  <style type="text/css">*{stroke-linejoin: round; stroke-linecap: butt}</style>
 </defs>
 <g id="figure_1">
  <g id="patch_1">
   <path d="M 0 385.92 
L 826.56 385.92 
L 826.56 0 
L 0 0 
z
" style="fill: #ffffff"/>
  </g>
  <g id="axes_1">
   <g id="patch_2">
    <path d="M 96.414063 335.848667 
L 807.1875 335.848667 
L 807.1875 30.82 
L 96.414063 30.82 
z
" style="fill: #e5e5e5"/>
   </g>
   <g id="matplotlib.axis_1">
    <g id="xtick_1">
     <g id="line2d_1">
      <path d="M 127.149991 335.848667 
L 127.149991 30.82 
" clip-path="url(#p7cea4d23bb)" style="fill: none; stroke: #ffffff; stroke-width: 0.8; stroke-linecap: square"/>
     </g>
     <g id="line2d_2">
      <defs>
       <path id="me91fa4efd7" d="M 0 0 
L 0 3.5 
" style="stroke: #555555; stroke-width: 0.8"/>
      </defs>
      <g>
       <use xlink:href="#me91fa4efd7" x="127.149991" y="335.848667" style="fill: #555555; stroke: #555555; stroke-width: 0.8"/>
      </g>
     </g>
     <g id="text_1">
      <!-- 0 -->
      <g style="fill: #555555" transform="translate(123.968741 350.447104) scale(0.1 -0.1)">
       <defs>
        <path id="DejaVuSans-30" d="M 2034 4250 
Q 1547 4250 1301 3770 
Q 1056 3291 1056 2328 
Q 1056 1369 1301 889 
Q 1547 409 2034 409 
Q 2525 409 2770 889 
Q 3016 1369 3016 2328 
Q 3016 3291 2770 3770 
Q 2525 4250 2034 4250 
z
M 2034 4750 
Q 2819 4750 3233 4129 
Q 3647 3509 3647 2328 
Q 3647 1150 3233 529 
Q 2819 -91 2034 -91 
Q 1250 -91 836 529 
Q 422 1150 422 2328 
Q 422 3509 836 4129 
Q 1250 4750 2034 4750 
z
" transform="scale(0.015625)"/>
       </defs>
       <use xlink:href="#DejaVuSans-30"/>
      </g>
     </g>
    </g>
    <g id="xtick_2">
     <g id="line2d_3">
      <path d="M 208.1572 335.848667 
L 208.1572 30.82 
" clip-path="url(#p7cea4d23bb)" style="fill: none; stroke: #ffffff; stroke-width: 0.8; stroke-linecap: square"/>
     </g>
     <g id="line2d_4">
      <g>
       <use xlink:href="#me91fa4efd7" x="208.1572" y="335.848667" style="fill: #555555; stroke: #555555; stroke-width: 0.8"/>
      </g>
     </g>
     <g id="text_2">
      <!-- 25 -->
      <g style="fill: #555555" transform="translate(201.7947 350.447104) scale(0.1 -0.1)">
       <defs>
        <path id="DejaVuSans-32" d="M 1228 531 
L 3431 531 
L 3431 0 
L 469 0 
L 469 531 
Q 828 903 1448 1529 
Q 2069 2156 2228 2338 
Q 2531 2678 2651 2914 
Q 2772 3150 2772 3378 
Q 2772 3750 2511 3984 
Q 2250 4219 1831 4219 
Q 1534 4219 1204 4116 
Q 875 4013 500 3803 
L 500 4441 
Q 881 4594 1212 4672 
Q 1544 4750 1819 4750 
Q 2544 4750 2975 4387 
Q 3406 4025 3406 3419 
Q 3406 3131 3298 2873 
Q 3191 2616 2906 2266 
Q 2828 2175 2409 1742 
Q 1991 1309 1228 531 
z
" transform="scale(0.015625)"/>
        <path id="DejaVuSans-35" d="M 691 4666 
L 3169 4666 
L 3169 4134 
L 1269 4134 
L 1269 2991 
Q 1406 3038 1543 3061 
Q 1681 3084 1819 3084 
Q 2600 3084 3056 2656 
Q 3513 2228 3513 1497 
Q 3513 744 3044 326 
Q 2575 -91 1722 -91 
Q 1428 -91 1123 -41 
Q 819 9 494 109 
L 494 744 
Q 775 591 1075 516 
Q 1375 441 1709 441 
Q 2250 441 2565 725 
Q 2881 1009 2881 1497 
Q 2881 1984 2565 2268 
Q 2250 2553 1709 2553 
Q 1456 2553 1204 2497 
Q 953 2441 691 2322 
L 691 4666 
z
" transform="scale(0.015625)"/>
       </defs>
       <use xlink:href="#DejaVuSans-32"/>
       <use xlink:href="#DejaVuSans-35" x="63.623047"/>
      </g>
     </g>
    </g>
    <g id="xtick_3">
     <g id="line2d_5">
      <path d="M 289.164409 335.848667 
L 289.164409 30.82 
" clip-path="url(#p7cea4d23bb)" style="fill: none; stroke: #ffffff; stroke-width: 0.8; stroke-linecap: square"/>
     </g>
     <g id="line2d_6">
      <g>
       <use xlink:href="#me91fa4efd7" x="289.164409" y="335.848667" style="fill: #555555; stroke: #555555; stroke-width: 0.8"/>
      </g>
     </g>
     <g id="text_3">
      <!-- 50 -->
      <g style="fill: #555555" transform="translate(282.801909 350.447104) scale(0.1 -0.1)">
       <use xlink:href="#DejaVuSans-35"/>
       <use xlink:href="#DejaVuSans-30" x="63.623047"/>
      </g>
     </g>
    </g>
    <g id="xtick_4">
     <g id="line2d_7">
      <path d="M 370.171618 335.848667 
L 370.171618 30.82 
" clip-path="url(#p7cea4d23bb)" style="fill: none; stroke: #ffffff; stroke-width: 0.8; stroke-linecap: square"/>
     </g>
     <g id="line2d_8">
      <g>
       <use xlink:href="#me91fa4efd7" x="370.171618" y="335.848667" style="fill: #555555; stroke: #555555; stroke-width: 0.8"/>
      </g>
     </g>
     <g id="text_4">
      <!-- 75 -->
      <g style="fill: #555555" transform="translate(363.809118 350.447104) scale(0.1 -0.1)">
       <defs>
        <path id="DejaVuSans-37" d="M 525 4666 
L 3525 4666 
L 3525 4397 
L 1831 0 
L 1172 0 
L 2766 4134 
L 525 4134 
L 525 4666 
z
" transform="scale(0.015625)"/>
       </defs>
       <use xlink:href="#DejaVuSans-37"/>
       <use xlink:href="#DejaVuSans-35" x="63.623047"/>
      </g>
     </g>
    </g>
    <g id="xtick_5">
     <g id="line2d_9">
      <path d="M 451.178826 335.848667 
L 451.178826 30.82 
" clip-path="url(#p7cea4d23bb)" style="fill: none; stroke: #ffffff; stroke-width: 0.8; stroke-linecap: square"/>
     </g>
     <g id="line2d_10">
      <g>
       <use xlink:href="#me91fa4efd7" x="451.178826" y="335.848667" style="fill: #555555; stroke: #555555; stroke-width: 0.8"/>
      </g>
     </g>
     <g id="text_5">
      <!-- 100 -->
      <g style="fill: #555555" transform="translate(441.635076 350.447104) scale(0.1 -0.1)">
       <defs>
        <path id="DejaVuSans-31" d="M 794 531 
L 1825 531 
L 1825 4091 
L 703 3866 
L 703 4441 
L 1819 4666 
L 2450 4666 
L 2450 531 
L 3481 531 
L 3481 0 
L 794 0 
L 794 531 
z
" transform="scale(0.015625)"/>
       </defs>
       <use xlink:href="#DejaVuSans-31"/>
       <use xlink:href="#DejaVuSans-30" x="63.623047"/>
       <use xlink:href="#DejaVuSans-30" x="127.246094"/>
      </g>
     </g>
    </g>
    <g id="xtick_6">
     <g id="line2d_11">
      <path d="M 532.186035 335.848667 
L 532.186035 30.82 
" clip-path="url(#p7cea4d23bb)" style="fill: none; stroke: #ffffff; stroke-width: 0.8; stroke-linecap: square"/>
     </g>
     <g id="line2d_12">
      <g>
       <use xlink:href="#me91fa4efd7" x="532.186035" y="335.848667" style="fill: #555555; stroke: #555555; stroke-width: 0.8"/>
      </g>
     </g>
     <g id="text_6">
      <!-- 125 -->
      <g style="fill: #555555" transform="translate(522.642285 350.447104) scale(0.1 -0.1)">
       <use xlink:href="#DejaVuSans-31"/>
       <use xlink:href="#DejaVuSans-32" x="63.623047"/>
       <use xlink:href="#DejaVuSans-35" x="127.246094"/>
      </g>
     </g>
    </g>
    <g id="xtick_7">
     <g id="line2d_13">
      <path d="M 613.193244 335.848667 
L 613.193244 30.82 
" clip-path="url(#p7cea4d23bb)" style="fill: none; stroke: #ffffff; stroke-width: 0.8; stroke-linecap: square"/>
     </g>
     <g id="line2d_14">
      <g>
       <use xlink:href="#me91fa4efd7" x="613.193244" y="335.848667" style="fill: #555555; stroke: #555555; stroke-width: 0.8"/>
      </g>
     </g>
     <g id="text_7">
      <!-- 150 -->
      <g style="fill: #555555" transform="translate(603.649494 350.447104) scale(0.1 -0.1)">
       <use xlink:href="#DejaVuSans-31"/>
       <use xlink:href="#DejaVuSans-35" x="63.623047"/>
       <use xlink:href="#DejaVuSans-30" x="127.246094"/>
      </g>
     </g>
    </g>
    <g id="xtick_8">
     <g id="line2d_15">
      <path d="M 694.200453 335.848667 
L 694.200453 30.82 
" clip-path="url(#p7cea4d23bb)" style="fill: none; stroke: #ffffff; stroke-width: 0.8; stroke-linecap: square"/>
     </g>
     <g id="line2d_16">
      <g>
       <use xlink:href="#me91fa4efd7" x="694.200453" y="335.848667" style="fill: #555555; stroke: #555555; stroke-width: 0.8"/>
      </g>
     </g>
     <g id="text_8">
      <!-- 175 -->
      <g style="fill: #555555" transform="translate(684.656703 350.447104) scale(0.1 -0.1)">
       <use xlink:href="#DejaVuSans-31"/>
       <use xlink:href="#DejaVuSans-37" x="63.623047"/>
       <use xlink:href="#DejaVuSans-35" x="127.246094"/>
      </g>
     </g>
    </g>
    <g id="xtick_9">
     <g id="line2d_17">
      <path d="M 775.207662 335.848667 
L 775.207662 30.82 
" clip-path="url(#p7cea4d23bb)" style="fill: none; stroke: #ffffff; stroke-width: 0.8; stroke-linecap: square"/>
     </g>
     <g id="line2d_18">
      <g>
       <use xlink:href="#me91fa4efd7" x="775.207662" y="335.848667" style="fill: #555555; stroke: #555555; stroke-width: 0.8"/>
      </g>
     </g>
     <g id="text_9">
      <!-- 200 -->
      <g style="fill: #555555" transform="translate(765.663912 350.447104) scale(0.1 -0.1)">
       <use xlink:href="#DejaVuSans-32"/>
       <use xlink:href="#DejaVuSans-30" x="63.623047"/>
       <use xlink:href="#DejaVuSans-30" x="127.246094"/>
      </g>
     </g>
    </g>
    <g id="text_10">
     <!-- Time -->
     <g style="fill: #555555" transform="translate(437.120469 365.644917) scale(0.12 -0.12)">
      <defs>
       <path id="DejaVuSans-54" d="M -19 4666 
L 3928 4666 
L 3928 4134 
L 2272 4134 
L 2272 0 
L 1638 0 
L 1638 4134 
L -19 4134 
L -19 4666 
z
" transform="scale(0.015625)"/>
       <path id="DejaVuSans-69" d="M 603 3500 
L 1178 3500 
L 1178 0 
L 603 0 
L 603 3500 
z
M 603 4863 
L 1178 4863 
L 1178 4134 
L 603 4134 
L 603 4863 
z
" transform="scale(0.015625)"/>
       <path id="DejaVuSans-6d" d="M 3328 2828 
Q 3544 3216 3844 3400 
Q 4144 3584 4550 3584 
Q 5097 3584 5394 3201 
Q 5691 2819 5691 2113 
L 5691 0 
L 5113 0 
L 5113 2094 
Q 5113 2597 4934 2840 
Q 4756 3084 4391 3084 
Q 3944 3084 3684 2787 
Q 3425 2491 3425 1978 
L 3425 0 
L 2847 0 
L 2847 2094 
Q 2847 2600 2669 2842 
Q 2491 3084 2119 3084 
Q 1678 3084 1418 2786 
Q 1159 2488 1159 1978 
L 1159 0 
L 581 0 
L 581 3500 
L 1159 3500 
L 1159 2956 
Q 1356 3278 1631 3431 
Q 1906 3584 2284 3584 
Q 2666 3584 2933 3390 
Q 3200 3197 3328 2828 
z
" transform="scale(0.015625)"/>
       <path id="DejaVuSans-65" d="M 3597 1894 
L 3597 1613 
L 953 1613 
Q 991 1019 1311 708 
Q 1631 397 2203 397 
Q 2534 397 2845 478 
Q 3156 559 3463 722 
L 3463 178 
Q 3153 47 2828 -22 
Q 2503 -91 2169 -91 
Q 1331 -91 842 396 
Q 353 884 353 1716 
Q 353 2575 817 3079 
Q 1281 3584 2069 3584 
Q 2775 3584 3186 3129 
Q 3597 2675 3597 1894 
z
M 3022 2063 
Q 3016 2534 2758 2815 
Q 2500 3097 2075 3097 
Q 1594 3097 1305 2825 
Q 1016 2553 972 2059 
L 3022 2063 
z
" transform="scale(0.015625)"/>
      </defs>
      <use xlink:href="#DejaVuSans-54"/>
      <use xlink:href="#DejaVuSans-69" x="57.958984"/>
      <use xlink:href="#DejaVuSans-6d" x="85.742188"/>
      <use xlink:href="#DejaVuSans-65" x="183.154297"/>
     </g>
    </g>
   </g>
   <g id="matplotlib.axis_2">
    <g id="ytick_1">
     <g id="line2d_19">
      <path d="M 96.414063 321.983727 
L 807.1875 321.983727 
" clip-path="url(#p7cea4d23bb)" style="fill: none; stroke: #ffffff; stroke-width: 0.8; stroke-linecap: square"/>
     </g>
     <g id="line2d_20">
      <defs>
       <path id="m84c8f5db62" d="M 0 0 
L -3.5 0 
" style="stroke: #555555; stroke-width: 0.8"/>
      </defs>
      <g>
       <use xlink:href="#m84c8f5db62" x="96.414063" y="321.983727" style="fill: #555555; stroke: #555555; stroke-width: 0.8"/>
      </g>
     </g>
     <g id="text_11">
      <!-- 0 -->
      <g style="fill: #555555" transform="translate(83.051563 325.782946) scale(0.1 -0.1)">
       <use xlink:href="#DejaVuSans-30"/>
      </g>
     </g>
    </g>
    <g id="ytick_2">
     <g id="line2d_21">
      <path d="M 96.414063 279.712571 
L 807.1875 279.712571 
" clip-path="url(#p7cea4d23bb)" style="fill: none; stroke: #ffffff; stroke-width: 0.8; stroke-linecap: square"/>
     </g>
     <g id="line2d_22">
      <g>
       <use xlink:href="#m84c8f5db62" x="96.414063" y="279.712571" style="fill: #555555; stroke: #555555; stroke-width: 0.8"/>
      </g>
     </g>
     <g id="text_12">
      <!-- 25 -->
      <g style="fill: #555555" transform="translate(76.689063 283.511789) scale(0.1 -0.1)">
       <use xlink:href="#DejaVuSans-32"/>
       <use xlink:href="#DejaVuSans-35" x="63.623047"/>
      </g>
     </g>
    </g>
    <g id="ytick_3">
     <g id="line2d_23">
      <path d="M 96.414063 237.441414 
L 807.1875 237.441414 
" clip-path="url(#p7cea4d23bb)" style="fill: none; stroke: #ffffff; stroke-width: 0.8; stroke-linecap: square"/>
     </g>
     <g id="line2d_24">
      <g>
       <use xlink:href="#m84c8f5db62" x="96.414063" y="237.441414" style="fill: #555555; stroke: #555555; stroke-width: 0.8"/>
      </g>
     </g>
     <g id="text_13">
      <!-- 50 -->
      <g style="fill: #555555" transform="translate(76.689063 241.240633) scale(0.1 -0.1)">
       <use xlink:href="#DejaVuSans-35"/>
       <use xlink:href="#DejaVuSans-30" x="63.623047"/>
      </g>
     </g>
    </g>
    <g id="ytick_4">
     <g id="line2d_25">
      <path d="M 96.414063 195.170257 
L 807.1875 195.170257 
" clip-path="url(#p7cea4d23bb)" style="fill: none; stroke: #ffffff; stroke-width: 0.8; stroke-linecap: square"/>
     </g>
     <g id="line2d_26">
      <g>
       <use xlink:href="#m84c8f5db62" x="96.414063" y="195.170257" style="fill: #555555; stroke: #555555; stroke-width: 0.8"/>
      </g>
     </g>
     <g id="text_14">
      <!-- 75 -->
      <g style="fill: #555555" transform="translate(76.689063 198.969476) scale(0.1 -0.1)">
       <use xlink:href="#DejaVuSans-37"/>
       <use xlink:href="#DejaVuSans-35" x="63.623047"/>
      </g>
     </g>
    </g>
    <g id="ytick_5">
     <g id="line2d_27">
      <path d="M 96.414063 152.899101 
L 807.1875 152.899101 
" clip-path="url(#p7cea4d23bb)" style="fill: none; stroke: #ffffff; stroke-width: 0.8; stroke-linecap: square"/>
     </g>
     <g id="line2d_28">
      <g>
       <use xlink:href="#m84c8f5db62" x="96.414063" y="152.899101" style="fill: #555555; stroke: #555555; stroke-width: 0.8"/>
      </g>
     </g>
     <g id="text_15">
      <!-- 100 -->
      <g style="fill: #555555" transform="translate(70.326563 156.698319) scale(0.1 -0.1)">
       <use xlink:href="#DejaVuSans-31"/>
       <use xlink:href="#DejaVuSans-30" x="63.623047"/>
       <use xlink:href="#DejaVuSans-30" x="127.246094"/>
      </g>
     </g>
    </g>
    <g id="ytick_6">
     <g id="line2d_29">
      <path d="M 96.414063 110.627944 
L 807.1875 110.627944 
" clip-path="url(#p7cea4d23bb)" style="fill: none; stroke: #ffffff; stroke-width: 0.8; stroke-linecap: square"/>
     </g>
     <g id="line2d_30">
      <g>
       <use xlink:href="#m84c8f5db62" x="96.414063" y="110.627944" style="fill: #555555; stroke: #555555; stroke-width: 0.8"/>
      </g>
     </g>
     <g id="text_16">
      <!-- 125 -->
      <g style="fill: #555555" transform="translate(70.326563 114.427163) scale(0.1 -0.1)">
       <use xlink:href="#DejaVuSans-31"/>
       <use xlink:href="#DejaVuSans-32" x="63.623047"/>
       <use xlink:href="#DejaVuSans-35" x="127.246094"/>
      </g>
     </g>
    </g>
    <g id="ytick_7">
     <g id="line2d_31">
      <path d="M 96.414063 68.356787 
L 807.1875 68.356787 
" clip-path="url(#p7cea4d23bb)" style="fill: none; stroke: #ffffff; stroke-width: 0.8; stroke-linecap: square"/>
     </g>
     <g id="line2d_32">
      <g>
       <use xlink:href="#m84c8f5db62" x="96.414063" y="68.356787" style="fill: #555555; stroke: #555555; stroke-width: 0.8"/>
      </g>
     </g>
     <g id="text_17">
      <!-- 150 -->
      <g style="fill: #555555" transform="translate(70.326563 72.156006) scale(0.1 -0.1)">
       <use xlink:href="#DejaVuSans-31"/>
       <use xlink:href="#DejaVuSans-35" x="63.623047"/>
       <use xlink:href="#DejaVuSans-30" x="127.246094"/>
      </g>
     </g>
    </g>
    <g id="text_18">
     <!-- Buffer Size -->
     <g style="fill: #555555" transform="translate(63.830938 215.859958) rotate(-90) scale(0.12 -0.12)">
      <defs>
       <path id="DejaVuSans-42" d="M 1259 2228 
L 1259 519 
L 2272 519 
Q 2781 519 3026 730 
Q 3272 941 3272 1375 
Q 3272 1813 3026 2020 
Q 2781 2228 2272 2228 
L 1259 2228 
z
M 1259 4147 
L 1259 2741 
L 2194 2741 
Q 2656 2741 2882 2914 
Q 3109 3088 3109 3444 
Q 3109 3797 2882 3972 
Q 2656 4147 2194 4147 
L 1259 4147 
z
M 628 4666 
L 2241 4666 
Q 2963 4666 3353 4366 
Q 3744 4066 3744 3513 
Q 3744 3084 3544 2831 
Q 3344 2578 2956 2516 
Q 3422 2416 3680 2098 
Q 3938 1781 3938 1306 
Q 3938 681 3513 340 
Q 3088 0 2303 0 
L 628 0 
L 628 4666 
z
" transform="scale(0.015625)"/>
       <path id="DejaVuSans-75" d="M 544 1381 
L 544 3500 
L 1119 3500 
L 1119 1403 
Q 1119 906 1312 657 
Q 1506 409 1894 409 
Q 2359 409 2629 706 
Q 2900 1003 2900 1516 
L 2900 3500 
L 3475 3500 
L 3475 0 
L 2900 0 
L 2900 538 
Q 2691 219 2414 64 
Q 2138 -91 1772 -91 
Q 1169 -91 856 284 
Q 544 659 544 1381 
z
M 1991 3584 
L 1991 3584 
z
" transform="scale(0.015625)"/>
       <path id="DejaVuSans-66" d="M 2375 4863 
L 2375 4384 
L 1825 4384 
Q 1516 4384 1395 4259 
Q 1275 4134 1275 3809 
L 1275 3500 
L 2222 3500 
L 2222 3053 
L 1275 3053 
L 1275 0 
L 697 0 
L 697 3053 
L 147 3053 
L 147 3500 
L 697 3500 
L 697 3744 
Q 697 4328 969 4595 
Q 1241 4863 1831 4863 
L 2375 4863 
z
" transform="scale(0.015625)"/>
       <path id="DejaVuSans-72" d="M 2631 2963 
Q 2534 3019 2420 3045 
Q 2306 3072 2169 3072 
Q 1681 3072 1420 2755 
Q 1159 2438 1159 1844 
L 1159 0 
L 581 0 
L 581 3500 
L 1159 3500 
L 1159 2956 
Q 1341 3275 1631 3429 
Q 1922 3584 2338 3584 
Q 2397 3584 2469 3576 
Q 2541 3569 2628 3553 
L 2631 2963 
z
" transform="scale(0.015625)"/>
       <path id="DejaVuSans-20" transform="scale(0.015625)"/>
       <path id="DejaVuSans-53" d="M 3425 4513 
L 3425 3897 
Q 3066 4069 2747 4153 
Q 2428 4238 2131 4238 
Q 1616 4238 1336 4038 
Q 1056 3838 1056 3469 
Q 1056 3159 1242 3001 
Q 1428 2844 1947 2747 
L 2328 2669 
Q 3034 2534 3370 2195 
Q 3706 1856 3706 1288 
Q 3706 609 3251 259 
Q 2797 -91 1919 -91 
Q 1588 -91 1214 -16 
Q 841 59 441 206 
L 441 856 
Q 825 641 1194 531 
Q 1563 422 1919 422 
Q 2459 422 2753 634 
Q 3047 847 3047 1241 
Q 3047 1584 2836 1778 
Q 2625 1972 2144 2069 
L 1759 2144 
Q 1053 2284 737 2584 
Q 422 2884 422 3419 
Q 422 4038 858 4394 
Q 1294 4750 2059 4750 
Q 2388 4750 2728 4690 
Q 3069 4631 3425 4513 
z
" transform="scale(0.015625)"/>
       <path id="DejaVuSans-7a" d="M 353 3500 
L 3084 3500 
L 3084 2975 
L 922 459 
L 3084 459 
L 3084 0 
L 275 0 
L 275 525 
L 2438 3041 
L 353 3041 
L 353 3500 
z
" transform="scale(0.015625)"/>
      </defs>
      <use xlink:href="#DejaVuSans-42"/>
      <use xlink:href="#DejaVuSans-75" x="68.603516"/>
      <use xlink:href="#DejaVuSans-66" x="131.982422"/>
      <use xlink:href="#DejaVuSans-66" x="167.1875"/>
      <use xlink:href="#DejaVuSans-65" x="202.392578"/>
      <use xlink:href="#DejaVuSans-72" x="263.916016"/>
      <use xlink:href="#DejaVuSans-20" x="305.029297"/>
      <use xlink:href="#DejaVuSans-53" x="336.816406"/>
      <use xlink:href="#DejaVuSans-69" x="400.292969"/>
      <use xlink:href="#DejaVuSans-7a" x="428.076172"/>
      <use xlink:href="#DejaVuSans-65" x="480.566406"/>
     </g>
    </g>
   </g>
   <g id="line2d_33">
    <path d="M 128.721946 320.292881 
L 128.721946 321.983727 
L 128.911129 320.292881 
L 131.534941 318.602035 
L 131.962234 320.292881 
L 135.202523 321.983727 
L 136.54281 320.292881 
L 138.442811 321.983727 
L 139.652401 320.292881 
L 139.783099 318.602035 
L 140.142432 316.911188 
L 141.683099 318.602035 
L 143.023387 316.911188 
L 144.923388 318.602035 
L 146.263675 316.911188 
L 146.753639 315.220342 
L 148.163676 316.911188 
L 149.135136 315.220342 
L 149.503964 313.529496 
L 151.403965 315.220342 
L 152.444869 313.529496 
L 152.744252 311.83865 
L 154.180257 310.147803 
L 154.644253 311.83865 
L 155.984541 310.147803 
L 157.884541 311.83865 
L 159.224829 308.456957 
L 161.12483 310.147803 
L 162.465117 308.456957 
L 164.365118 310.147803 
L 165.705406 308.456957 
L 167.605406 310.147803 
L 167.832257 308.456957 
L 168.945694 306.766111 
L 170.845695 308.456957 
L 170.865366 306.766111 
L 172.185982 305.075265 
L 174.085983 306.766111 
L 175.426271 305.075265 
L 177.326271 306.766111 
L 178.666559 305.075265 
L 180.56656 306.766111 
L 181.906847 303.384418 
L 183.806848 305.075265 
L 185.147136 303.384418 
L 187.047136 305.075265 
L 188.387424 303.384418 
L 190.287425 305.075265 
L 190.89079 303.384418 
L 191.076546 301.693572 
L 191.627712 300.002726 
L 193.020547 298.31188 
L 193.215504 294.930187 
L 193.527713 296.621033 
L 194.868001 294.930187 
L 195.104198 293.239341 
L 196.547485 291.548494 
L 196.768001 293.239341 
L 198.108289 291.548494 
L 198.671968 289.857648 
L 200.00829 291.548494 
L 201.348578 289.857648 
L 203.248578 291.548494 
L 204.588866 289.857648 
L 206.488867 291.548494 
L 206.785364 289.857648 
L 207.829154 288.166802 
L 207.870022 284.785109 
L 209.729155 286.475956 
L 211.069443 284.785109 
L 211.43708 283.094263 
L 212.969443 284.785109 
L 214.309731 283.094263 
L 216.209732 284.785109 
L 217.403367 283.094263 
L 217.550019 281.403417 
L 219.45002 283.094263 
L 220.790308 281.403417 
L 222.690308 283.094263 
L 224.030596 281.403417 
L 225.930597 283.094263 
L 227.270884 281.403417 
L 228.015775 279.712571 
L 229.170885 281.403417 
L 230.511173 279.712571 
L 232.411173 281.403417 
L 232.736287 279.712571 
L 233.751461 278.021724 
L 233.953789 276.330878 
L 235.651462 278.021724 
L 236.991749 276.330878 
L 238.89175 278.021724 
L 240.232038 276.330878 
L 242.132038 278.021724 
L 244.85532 274.640032 
L 245.372327 276.330878 
L 247.973692 272.949186 
L 248.612615 274.640032 
L 249.952903 272.949186 
L 250.708134 271.258339 
L 251.852904 272.949186 
L 253.193191 271.258339 
L 254.129392 269.567493 
L 255.093192 271.258339 
L 255.106552 269.567493 
L 256.43348 267.876647 
L 257.601823 266.1858 
L 258.33348 267.876647 
L 259.526793 266.1858 
L 259.673768 264.494954 
L 261.573769 266.1858 
L 262.914056 264.494954 
L 264.814057 266.1858 
L 266.154345 264.494954 
L 267.689993 262.804108 
L 268.054345 264.494954 
L 269.394633 262.804108 
L 271.294634 264.494954 
L 272.634921 262.804108 
L 274.177007 261.113262 
L 274.534922 262.804108 
L 275.87521 261.113262 
L 277.77521 262.804108 
L 278.325659 261.113262 
L 279.115498 259.422415 
L 279.771647 257.731569 
L 281.015499 259.422415 
L 282.355786 257.731569 
L 284.255787 259.422415 
L 285.596075 257.731569 
L 287.496075 259.422415 
L 288.836363 257.731569 
L 289.11862 256.040723 
L 290.736364 257.731569 
L 292.060686 256.040723 
L 292.076651 254.349877 
L 293.976652 256.040723 
L 294.306853 254.349877 
L 295.187136 252.65903 
L 295.31694 250.968184 
L 297.216941 252.65903 
L 298.557228 250.968184 
L 300.457229 252.65903 
L 301.797517 250.968184 
L 303.697517 252.65903 
L 305.037805 250.968184 
L 306.937806 252.65903 
L 308.278093 250.968184 
L 310.178094 252.65903 
L 310.996933 250.968184 
L 311.518382 249.277338 
L 313.418382 250.968184 
L 314.75867 249.277338 
L 316.658671 250.968184 
L 317.894438 249.277338 
L 317.998958 247.586492 
L 319.853456 245.895645 
L 319.898959 247.586492 
L 321.239247 245.895645 
L 323.139247 247.586492 
L 323.917436 245.895645 
L 324.39569 244.204799 
L 324.479535 242.513953 
L 326.379536 244.204799 
L 328.998142 240.823106 
L 329.619824 242.513953 
L 330.960112 239.13226 
L 332.860112 240.823106 
L 334.2004 239.13226 
L 336.031889 237.441414 
L 336.100401 239.13226 
L 337.440688 237.441414 
L 339.340689 239.13226 
L 339.800711 237.441414 
L 340.680977 235.750568 
L 340.749958 234.059721 
L 341.969698 232.368875 
L 342.580977 234.059721 
L 343.921265 232.368875 
L 344.335846 230.678029 
L 345.089294 228.987183 
L 345.821266 230.678029 
L 347.161554 228.987183 
L 349.061554 230.678029 
L 349.337223 228.987183 
L 349.742364 227.296336 
L 350.401842 225.60549 
L 352.301843 227.296336 
L 353.3827 225.60549 
L 353.64213 223.914644 
L 355.542131 225.60549 
L 356.083086 223.914644 
L 356.882419 222.223797 
L 358.782419 223.914644 
L 360.122707 222.223797 
L 360.23203 220.532951 
L 360.514287 218.842105 
L 362.022708 220.532951 
L 363.362995 218.842105 
L 364.996631 217.151259 
L 365.262996 218.842105 
L 366.603284 217.151259 
L 368.503284 218.842105 
L 368.661133 217.151259 
L 369.733377 215.460412 
L 369.843572 213.769566 
L 371.743573 215.460412 
L 372.594164 213.769566 
L 373.08386 212.07872 
L 374.983861 213.769566 
L 376.324149 212.07872 
L 378.224149 213.769566 
L 379.564437 212.07872 
L 381.464438 213.769566 
L 382.804725 212.07872 
L 384.704726 213.769566 
L 384.887895 212.07872 
L 386.045014 210.387874 
L 387.945014 212.07872 
L 388.882784 210.387874 
L 388.925961 208.697027 
L 389.285302 207.006181 
L 391.185303 208.697027 
L 392.525591 207.006181 
L 394.425591 208.697027 
L 395.765879 207.006181 
L 397.66588 208.697027 
L 399.006167 207.006181 
L 400.784306 205.315335 
L 400.906168 207.006181 
L 402.246456 205.315335 
L 402.44565 203.624489 
L 404.146456 205.315335 
L 405.486744 203.624489 
L 407.386745 205.315335 
L 408.727032 203.624489 
L 408.867546 201.933642 
L 410.627033 203.624489 
L 411.967321 201.933642 
L 413.687247 200.242796 
L 413.867321 201.933642 
L 414.54356 200.242796 
L 414.721475 198.55195 
L 415.207609 196.861103 
L 417.10761 198.55195 
L 418.447897 196.861103 
L 418.911647 195.170257 
L 420.347898 196.861103 
L 421.688186 195.170257 
L 422.524204 193.479411 
L 423.588186 195.170257 
L 424.928474 193.479411 
L 426.828475 195.170257 
L 427.043982 193.479411 
L 429.212716 190.097718 
L 430.068763 191.788565 
L 431.409051 190.097718 
L 433.067027 188.406872 
L 433.309051 190.097718 
L 433.816898 188.406872 
L 434.649339 186.716026 
L 436.54934 188.406872 
L 437.889627 186.716026 
L 438.70395 185.02518 
L 439.789628 186.716026 
L 441.129916 185.02518 
L 443.029917 186.716026 
L 444.370204 185.02518 
L 445.917104 183.334333 
L 446.270205 185.02518 
L 446.536958 183.334333 
L 447.610493 181.643487 
L 449.510493 183.334333 
L 449.897932 181.643487 
L 450.462374 179.952641 
L 450.850781 178.261795 
L 450.965544 176.570948 
L 452.750782 178.261795 
L 454.091069 176.570948 
L 454.671771 174.880102 
L 455.99107 176.570948 
L 457.331358 174.880102 
L 457.47442 173.189256 
L 459.231358 174.880102 
L 460.571646 173.189256 
L 461.647788 171.498409 
L 462.471647 173.189256 
L 463.297751 171.498409 
L 463.811934 169.807563 
L 465.711935 171.498409 
L 467.052223 169.807563 
L 467.194891 168.116717 
L 468.952223 169.807563 
L 470.292511 168.116717 
L 471.914566 166.425871 
L 472.192512 168.116717 
L 473.532799 166.425871 
L 475.4328 168.116717 
L 478.233053 164.735024 
L 478.673088 166.425871 
L 480.013376 164.735024 
L 481.913377 166.425871 
L 483.253664 164.735024 
L 485.153665 166.425871 
L 486.493953 164.735024 
L 488.393953 166.425871 
L 489.734241 164.735024 
L 491.634242 166.425871 
L 492.97453 164.735024 
L 494.056998 163.044178 
L 494.87453 164.735024 
L 496.214818 163.044178 
L 497.75183 161.353332 
L 498.064652 159.662486 
L 498.114819 161.353332 
L 499.455106 159.662486 
L 500.026432 157.971639 
L 500.186383 154.589947 
L 501.355107 156.280793 
L 502.51824 154.589947 
L 502.695395 152.899101 
L 502.746686 151.208254 
L 503.687256 149.517408 
L 504.595395 151.208254 
L 505.935683 149.517408 
L 506.499378 147.826562 
L 507.835684 149.517408 
L 509.175971 147.826562 
L 511.075972 149.517408 
L 512.41626 147.826562 
L 514.31626 149.517408 
L 515.656548 147.826562 
L 517.556549 149.517408 
L 518.357415 147.826562 
L 518.896836 146.135715 
L 520.796837 147.826562 
L 522.085894 146.135715 
L 522.137125 144.444869 
L 523.873892 142.754023 
L 524.037125 144.444869 
L 525.377413 142.754023 
L 526.495219 141.063177 
L 527.277414 142.754023 
L 528.231686 141.063177 
L 528.617701 139.37233 
L 530.517702 141.063177 
L 531.85799 139.37233 
L 533.75799 141.063177 
L 535.098278 139.37233 
L 536.998279 141.063177 
L 538.338567 139.37233 
L 539.477577 137.681484 
L 540.238567 139.37233 
L 540.617404 137.681484 
L 541.578855 135.990638 
L 543.478856 137.681484 
L 544.819143 135.990638 
L 546.719144 137.681484 
L 548.059432 135.990638 
L 549.959432 137.681484 
L 551.29972 135.990638 
L 553.199721 137.681484 
L 554.540008 135.990638 
L 556.267091 134.299792 
L 556.440009 135.990638 
L 557.443571 134.299792 
L 557.780297 132.608945 
L 558.84877 130.918099 
L 559.680297 132.608945 
L 561.020585 130.918099 
L 562.920586 132.608945 
L 564.260873 130.918099 
L 566.160874 132.608945 
L 567.501162 130.918099 
L 568.107652 129.227253 
L 569.401162 130.918099 
L 572.108371 127.536407 
L 572.641451 129.227253 
L 573.981738 127.536407 
L 575.881739 129.227253 
L 575.967494 127.536407 
L 577.222027 125.84556 
L 579.122027 127.536407 
L 580.462315 125.84556 
L 582.362316 127.536407 
L 583.702603 125.84556 
L 585.602604 127.536407 
L 586.942892 125.84556 
L 588.575165 124.154714 
L 588.842893 125.84556 
L 589.629609 124.154714 
L 590.18318 122.463868 
L 592.041609 120.773021 
L 592.083181 122.463868 
L 593.356279 120.773021 
L 593.423469 119.082175 
L 594.651731 117.391329 
L 595.323469 119.082175 
L 596.663757 117.391329 
L 598.563758 119.082175 
L 599.904045 117.391329 
L 601.076616 115.700483 
L 601.804046 117.391329 
L 602.661468 115.700483 
L 603.144334 114.009636 
L 605.044334 115.700483 
L 605.817116 114.009636 
L 606.384622 112.31879 
L 608.284623 114.009636 
L 609.118818 112.31879 
L 610.150503 108.937098 
L 610.249985 107.246251 
L 611.524911 108.937098 
L 612.865199 107.246251 
L 613.51624 105.555405 
L 614.765199 107.246251 
L 616.105487 105.555405 
L 616.162236 103.864559 
L 618.005488 105.555405 
L 619.345775 103.864559 
L 621.245776 105.555405 
L 623.829699 102.173712 
L 624.486064 103.864559 
L 627.205575 100.482866 
L 627.726353 102.173712 
L 629.06664 100.482866 
L 630.966641 102.173712 
L 632.306929 100.482866 
L 634.20693 102.173712 
L 635.185253 100.482866 
L 635.280944 98.79202 
L 635.547217 97.101174 
L 637.447218 98.79202 
L 638.787506 97.101174 
L 640.350883 95.410327 
L 640.687506 97.101174 
L 642.027794 95.410327 
L 643.927795 97.101174 
L 645.268082 95.410327 
L 646.03256 93.719481 
L 646.496727 92.028635 
L 647.168083 93.719481 
L 648.508371 92.028635 
L 650.408371 93.719481 
L 651.748659 92.028635 
L 653.64866 93.719481 
L 654.988947 92.028635 
L 656.888948 93.719481 
L 658.229236 92.028635 
L 659.26819 90.337789 
L 660.129236 92.028635 
L 661.469524 90.337789 
L 663.369525 92.028635 
L 664.709812 90.337789 
L 666.609813 92.028635 
L 667.950101 90.337789 
L 669.117149 88.646942 
L 669.850101 90.337789 
L 671.190389 88.646942 
L 673.09039 90.337789 
L 674.430677 88.646942 
L 676.330678 90.337789 
L 677.670966 86.956096 
L 679.354203 85.26525 
L 679.570966 86.956096 
L 680.911254 85.26525 
L 681.415362 83.574404 
L 682.811255 85.26525 
L 684.151543 83.574404 
L 684.948072 81.883557 
L 686.051543 83.574404 
L 686.146911 81.883557 
L 687.391831 80.192711 
L 688.251189 78.501865 
L 689.291832 80.192711 
L 690.632119 78.501865 
L 692.53212 80.192711 
L 693.872408 78.501865 
L 695.422684 76.811018 
L 695.772408 78.501865 
L 696.841086 76.811018 
L 697.112696 75.120172 
L 699.012697 76.811018 
L 700.264259 75.120172 
L 700.388326 71.73848 
L 702.252985 73.429326 
L 703.593273 71.73848 
L 705.493273 73.429326 
L 706.833561 71.73848 
L 708.733562 73.429326 
L 710.073849 71.73848 
L 711.97385 73.429326 
L 713.314138 71.73848 
L 715.214138 73.429326 
L 716.554426 71.73848 
L 718.454427 73.429326 
L 719.794714 71.73848 
L 721.694715 73.429326 
L 723.035003 71.73848 
L 723.82685 70.047633 
L 724.935003 71.73848 
L 726.275291 70.047633 
L 728.175292 71.73848 
L 729.515579 70.047633 
L 729.934354 68.356787 
L 731.41558 70.047633 
L 732.755868 68.356787 
L 734.655869 70.047633 
L 734.854308 68.356787 
L 734.883378 66.665941 
L 735.521343 63.284248 
L 735.996156 61.593402 
L 737.752965 59.902556 
L 737.896157 61.593402 
L 738.648865 59.902556 
L 739.236445 58.21171 
L 741.136445 59.902556 
L 742.476733 58.21171 
L 744.376734 59.902556 
L 745.717021 58.21171 
L 747.617022 59.902556 
L 748.95731 58.21171 
L 750.85731 59.902556 
L 752.197598 58.21171 
L 752.242745 56.520863 
L 753.799029 54.830017 
L 753.871023 53.139171 
L 754.097599 54.830017 
L 755.437886 53.139171 
L 755.702472 51.448324 
L 757.337887 53.139171 
L 758.678175 51.448324 
L 759.136027 49.757478 
L 760.367723 48.066632 
L 760.578175 49.757478 
L 761.918463 48.066632 
L 763.818464 49.757478 
L 765.158751 48.066632 
L 765.212703 46.375786 
L 767.058752 48.066632 
L 768.39904 46.375786 
L 769.148861 44.684939 
L 770.29904 46.375786 
L 771.639328 44.684939 
L 773.539329 46.375786 
L 774.879616 44.684939 
L 774.879616 44.684939 
" clip-path="url(#p7cea4d23bb)" style="fill: none; stroke: #e24a33; stroke-width: 1.5; stroke-linecap: square"/>
   </g>
   <g id="patch_3">
    <path d="M 96.414063 335.848667 
L 96.414063 30.82 
" style="fill: none; stroke: #ffffff; stroke-linejoin: miter; stroke-linecap: square"/>
   </g>
   <g id="patch_4">
    <path d="M 807.1875 335.848667 
L 807.1875 30.82 
" style="fill: none; stroke: #ffffff; stroke-linejoin: miter; stroke-linecap: square"/>
   </g>
   <g id="patch_5">
    <path d="M 96.414063 335.848667 
L 807.1875 335.848667 
" style="fill: none; stroke: #ffffff; stroke-linejoin: miter; stroke-linecap: square"/>
   </g>
   <g id="patch_6">
    <path d="M 96.414063 30.82 
L 807.1875 30.82 
" style="fill: none; stroke: #ffffff; stroke-linejoin: miter; stroke-linecap: square"/>
   </g>
   <g id="text_19">
    <!-- Buffer Size in Network.node[6].lnk[0] -->
    <g transform="translate(317.890906 24.82) scale(0.144 -0.144)">
     <defs>
      <path id="DejaVuSans-6e" d="M 3513 2113 
L 3513 0 
L 2938 0 
L 2938 2094 
Q 2938 2591 2744 2837 
Q 2550 3084 2163 3084 
Q 1697 3084 1428 2787 
Q 1159 2491 1159 1978 
L 1159 0 
L 581 0 
L 581 3500 
L 1159 3500 
L 1159 2956 
Q 1366 3272 1645 3428 
Q 1925 3584 2291 3584 
Q 2894 3584 3203 3211 
Q 3513 2838 3513 2113 
z
" transform="scale(0.015625)"/>
      <path id="DejaVuSans-4e" d="M 628 4666 
L 1478 4666 
L 3547 763 
L 3547 4666 
L 4159 4666 
L 4159 0 
L 3309 0 
L 1241 3903 
L 1241 0 
L 628 0 
L 628 4666 
z
" transform="scale(0.015625)"/>
      <path id="DejaVuSans-74" d="M 1172 4494 
L 1172 3500 
L 2356 3500 
L 2356 3053 
L 1172 3053 
L 1172 1153 
Q 1172 725 1289 603 
Q 1406 481 1766 481 
L 2356 481 
L 2356 0 
L 1766 0 
Q 1100 0 847 248 
Q 594 497 594 1153 
L 594 3053 
L 172 3053 
L 172 3500 
L 594 3500 
L 594 4494 
L 1172 4494 
z
" transform="scale(0.015625)"/>
      <path id="DejaVuSans-77" d="M 269 3500 
L 844 3500 
L 1563 769 
L 2278 3500 
L 2956 3500 
L 3675 769 
L 4391 3500 
L 4966 3500 
L 4050 0 
L 3372 0 
L 2619 2869 
L 1863 0 
L 1184 0 
L 269 3500 
z
" transform="scale(0.015625)"/>
      <path id="DejaVuSans-6f" d="M 1959 3097 
Q 1497 3097 1228 2736 
Q 959 2375 959 1747 
Q 959 1119 1226 758 
Q 1494 397 1959 397 
Q 2419 397 2687 759 
Q 2956 1122 2956 1747 
Q 2956 2369 2687 2733 
Q 2419 3097 1959 3097 
z
M 1959 3584 
Q 2709 3584 3137 3096 
Q 3566 2609 3566 1747 
Q 3566 888 3137 398 
Q 2709 -91 1959 -91 
Q 1206 -91 779 398 
Q 353 888 353 1747 
Q 353 2609 779 3096 
Q 1206 3584 1959 3584 
z
" transform="scale(0.015625)"/>
      <path id="DejaVuSans-6b" d="M 581 4863 
L 1159 4863 
L 1159 1991 
L 2875 3500 
L 3609 3500 
L 1753 1863 
L 3688 0 
L 2938 0 
L 1159 1709 
L 1159 0 
L 581 0 
L 581 4863 
z
" transform="scale(0.015625)"/>
      <path id="DejaVuSans-2e" d="M 684 794 
L 1344 794 
L 1344 0 
L 684 0 
L 684 794 
z
" transform="scale(0.015625)"/>
      <path id="DejaVuSans-64" d="M 2906 2969 
L 2906 4863 
L 3481 4863 
L 3481 0 
L 2906 0 
L 2906 525 
Q 2725 213 2448 61 
Q 2172 -91 1784 -91 
Q 1150 -91 751 415 
Q 353 922 353 1747 
Q 353 2572 751 3078 
Q 1150 3584 1784 3584 
Q 2172 3584 2448 3432 
Q 2725 3281 2906 2969 
z
M 947 1747 
Q 947 1113 1208 752 
Q 1469 391 1925 391 
Q 2381 391 2643 752 
Q 2906 1113 2906 1747 
Q 2906 2381 2643 2742 
Q 2381 3103 1925 3103 
Q 1469 3103 1208 2742 
Q 947 2381 947 1747 
z
" transform="scale(0.015625)"/>
      <path id="DejaVuSans-5b" d="M 550 4863 
L 1875 4863 
L 1875 4416 
L 1125 4416 
L 1125 -397 
L 1875 -397 
L 1875 -844 
L 550 -844 
L 550 4863 
z
" transform="scale(0.015625)"/>
      <path id="DejaVuSans-36" d="M 2113 2584 
Q 1688 2584 1439 2293 
Q 1191 2003 1191 1497 
Q 1191 994 1439 701 
Q 1688 409 2113 409 
Q 2538 409 2786 701 
Q 3034 994 3034 1497 
Q 3034 2003 2786 2293 
Q 2538 2584 2113 2584 
z
M 3366 4563 
L 3366 3988 
Q 3128 4100 2886 4159 
Q 2644 4219 2406 4219 
Q 1781 4219 1451 3797 
Q 1122 3375 1075 2522 
Q 1259 2794 1537 2939 
Q 1816 3084 2150 3084 
Q 2853 3084 3261 2657 
Q 3669 2231 3669 1497 
Q 3669 778 3244 343 
Q 2819 -91 2113 -91 
Q 1303 -91 875 529 
Q 447 1150 447 2328 
Q 447 3434 972 4092 
Q 1497 4750 2381 4750 
Q 2619 4750 2861 4703 
Q 3103 4656 3366 4563 
z
" transform="scale(0.015625)"/>
      <path id="DejaVuSans-5d" d="M 1947 4863 
L 1947 -844 
L 622 -844 
L 622 -397 
L 1369 -397 
L 1369 4416 
L 622 4416 
L 622 4863 
L 1947 4863 
z
" transform="scale(0.015625)"/>
      <path id="DejaVuSans-6c" d="M 603 4863 
L 1178 4863 
L 1178 0 
L 603 0 
L 603 4863 
z
" transform="scale(0.015625)"/>
     </defs>
     <use xlink:href="#DejaVuSans-42"/>
     <use xlink:href="#DejaVuSans-75" x="68.603516"/>
     <use xlink:href="#DejaVuSans-66" x="131.982422"/>
     <use xlink:href="#DejaVuSans-66" x="167.1875"/>
     <use xlink:href="#DejaVuSans-65" x="202.392578"/>
     <use xlink:href="#DejaVuSans-72" x="263.916016"/>
     <use xlink:href="#DejaVuSans-20" x="305.029297"/>
     <use xlink:href="#DejaVuSans-53" x="336.816406"/>
     <use xlink:href="#DejaVuSans-69" x="400.292969"/>
     <use xlink:href="#DejaVuSans-7a" x="428.076172"/>
     <use xlink:href="#DejaVuSans-65" x="480.566406"/>
     <use xlink:href="#DejaVuSans-20" x="542.089844"/>
     <use xlink:href="#DejaVuSans-69" x="573.876953"/>
     <use xlink:href="#DejaVuSans-6e" x="601.660156"/>
     <use xlink:href="#DejaVuSans-20" x="665.039062"/>
     <use xlink:href="#DejaVuSans-4e" x="696.826172"/>
     <use xlink:href="#DejaVuSans-65" x="771.630859"/>
     <use xlink:href="#DejaVuSans-74" x="833.154297"/>
     <use xlink:href="#DejaVuSans-77" x="872.363281"/>
     <use xlink:href="#DejaVuSans-6f" x="954.150391"/>
     <use xlink:href="#DejaVuSans-72" x="1015.332031"/>
     <use xlink:href="#DejaVuSans-6b" x="1056.445312"/>
     <use xlink:href="#DejaVuSans-2e" x="1114.355469"/>
     <use xlink:href="#DejaVuSans-6e" x="1146.142578"/>
     <use xlink:href="#DejaVuSans-6f" x="1209.521484"/>
     <use xlink:href="#DejaVuSans-64" x="1270.703125"/>
     <use xlink:href="#DejaVuSans-65" x="1334.179688"/>
     <use xlink:href="#DejaVuSans-5b" x="1395.703125"/>
     <use xlink:href="#DejaVuSans-36" x="1434.716797"/>
     <use xlink:href="#DejaVuSans-5d" x="1498.339844"/>
     <use xlink:href="#DejaVuSans-2e" x="1537.353516"/>
     <use xlink:href="#DejaVuSans-6c" x="1569.140625"/>
     <use xlink:href="#DejaVuSans-6e" x="1596.923828"/>
     <use xlink:href="#DejaVuSans-6b" x="1660.302734"/>
     <use xlink:href="#DejaVuSans-5b" x="1718.212891"/>
     <use xlink:href="#DejaVuSans-30" x="1757.226562"/>
     <use xlink:href="#DejaVuSans-5d" x="1820.849609"/>
    </g>
   </g>
   <g id="legend_1">
    <g id="patch_7">
     <path d="M 580.201563 53.498125 
L 802.1875 53.498125 
L 802.1875 35.82 
L 580.201563 35.82 
z
" style="fill: #e5e5e5; opacity: 0.8; stroke: #cccccc; stroke-width: 0.5; stroke-linejoin: miter"/>
    </g>
    <g id="line2d_34">
     <path d="M 584.201563 43.918438 
L 594.201563 43.918438 
L 604.201563 43.918438 
" style="fill: none; stroke: #e24a33; stroke-width: 1.5; stroke-linecap: square"/>
    </g>
    <g id="text_20">
     <!-- Buffer Size in Network.node[6].lnk[0] -->
     <g transform="translate(612.201563 47.418438) scale(0.1 -0.1)">
      <use xlink:href="#DejaVuSans-42"/>
      <use xlink:href="#DejaVuSans-75" x="68.603516"/>
      <use xlink:href="#DejaVuSans-66" x="131.982422"/>
      <use xlink:href="#DejaVuSans-66" x="167.1875"/>
      <use xlink:href="#DejaVuSans-65" x="202.392578"/>
      <use xlink:href="#DejaVuSans-72" x="263.916016"/>
      <use xlink:href="#DejaVuSans-20" x="305.029297"/>
      <use xlink:href="#DejaVuSans-53" x="336.816406"/>
      <use xlink:href="#DejaVuSans-69" x="400.292969"/>
      <use xlink:href="#DejaVuSans-7a" x="428.076172"/>
      <use xlink:href="#DejaVuSans-65" x="480.566406"/>
      <use xlink:href="#DejaVuSans-20" x="542.089844"/>
      <use xlink:href="#DejaVuSans-69" x="573.876953"/>
      <use xlink:href="#DejaVuSans-6e" x="601.660156"/>
      <use xlink:href="#DejaVuSans-20" x="665.039062"/>
      <use xlink:href="#DejaVuSans-4e" x="696.826172"/>
      <use xlink:href="#DejaVuSans-65" x="771.630859"/>
      <use xlink:href="#DejaVuSans-74" x="833.154297"/>
      <use xlink:href="#DejaVuSans-77" x="872.363281"/>
      <use xlink:href="#DejaVuSans-6f" x="954.150391"/>
      <use xlink:href="#DejaVuSans-72" x="1015.332031"/>
      <use xlink:href="#DejaVuSans-6b" x="1056.445312"/>
      <use xlink:href="#DejaVuSans-2e" x="1114.355469"/>
      <use xlink:href="#DejaVuSans-6e" x="1146.142578"/>
      <use xlink:href="#DejaVuSans-6f" x="1209.521484"/>
      <use xlink:href="#DejaVuSans-64" x="1270.703125"/>
      <use xlink:href="#DejaVuSans-65" x="1334.179688"/>
      <use xlink:href="#DejaVuSans-5b" x="1395.703125"/>
      <use xlink:href="#DejaVuSans-36" x="1434.716797"/>
      <use xlink:href="#DejaVuSans-5d" x="1498.339844"/>
      <use xlink:href="#DejaVuSans-2e" x="1537.353516"/>
      <use xlink:href="#DejaVuSans-6c" x="1569.140625"/>
      <use xlink:href="#DejaVuSans-6e" x="1596.923828"/>
      <use xlink:href="#DejaVuSans-6b" x="1660.302734"/>
      <use xlink:href="#DejaVuSans-5b" x="1718.212891"/>
      <use xlink:href="#DejaVuSans-30" x="1757.226562"/>
      <use xlink:href="#DejaVuSans-5d" x="1820.849609"/>
     </g>
    </g>
   </g>
  </g>
 </g>
 <defs>
  <clipPath id="p7cea4d23bb">
   <rect x="96.414063" y="30.82" width="710.773438" height="305.028667"/>
  </clipPath>
 </defs>
</svg>
