<?xml version="1.0" encoding="utf-8" standalone="no"?>
<!DOCTYPE svg PUBLIC "-//W3C//DTD SVG 1.1//EN"
  "http://www.w3.org/Graphics/SVG/1.1/DTD/svg11.dtd">
<svg xmlns:xlink="http://www.w3.org/1999/xlink" width="826.56pt" height="385.92pt" viewBox="0 0 826.56 385.92" xmlns="http://www.w3.org/2000/svg" version="1.1">
 <metadata>
  <rdf:RDF xmlns:dc="http://purl.org/dc/elements/1.1/" xmlns:cc="http://creativecommons.org/ns#" xmlns:rdf="http://www.w3.org/1999/02/22-rdf-syntax-ns#">
   <cc:Work>
    <dc:type rdf:resource="http://purl.org/dc/dcmitype/StillImage"/>
    <dc:date>2025-06-03T22:18:47.317472</dc:date>
    <dc:format>image/svg+xml</dc:format>
    <dc:creator>
     <cc:Agent>
      <dc:title>Matplotlib v3.7.1, https://matplotlib.org/</dc:title>
     </cc:Agent>
    </dc:creator>
   </cc:Work>
  </rdf:RDF>
 </metadata>
 <defs>
  <style type="text/css">*{stroke-linejoin: round; stroke-linecap: butt}</style>
 </defs>
 <g id="figure_1">
  <g id="patch_1">
   <path d="M 0 385.92 
L 826.56 385.92 
L 826.56 0 
L 0 0 
z
" style="fill: #ffffff"/>
  </g>
  <g id="axes_1">
   <g id="patch_2">
    <path d="M 96.414063 335.848667 
L 807.1875 335.848667 
L 807.1875 30.82 
L 96.414063 30.82 
z
" style="fill: #e5e5e5"/>
   </g>
   <g id="matplotlib.axis_1">
    <g id="xtick_1">
     <g id="line2d_1">
      <path d="M 127.578365 335.848667 
L 127.578365 30.82 
" clip-path="url(#pdce14ef7ac)" style="fill: none; stroke: #ffffff; stroke-width: 0.8; stroke-linecap: square"/>
     </g>
     <g id="line2d_2">
      <defs>
       <path id="md82b46589b" d="M 0 0 
L 0 3.5 
" style="stroke: #555555; stroke-width: 0.8"/>
      </defs>
      <g>
       <use xlink:href="#md82b46589b" x="127.578365" y="335.848667" style="fill: #555555; stroke: #555555; stroke-width: 0.8"/>
      </g>
     </g>
     <g id="text_1">
      <!-- 0 -->
      <g style="fill: #555555" transform="translate(124.397115 350.447104) scale(0.1 -0.1)">
       <defs>
        <path id="DejaVuSans-30" d="M 2034 4250 
Q 1547 4250 1301 3770 
Q 1056 3291 1056 2328 
Q 1056 1369 1301 889 
Q 1547 409 2034 409 
Q 2525 409 2770 889 
Q 3016 1369 3016 2328 
Q 3016 3291 2770 3770 
Q 2525 4250 2034 4250 
z
M 2034 4750 
Q 2819 4750 3233 4129 
Q 3647 3509 3647 2328 
Q 3647 1150 3233 529 
Q 2819 -91 2034 -91 
Q 1250 -91 836 529 
Q 422 1150 422 2328 
Q 422 3509 836 4129 
Q 1250 4750 2034 4750 
z
" transform="scale(0.015625)"/>
       </defs>
       <use xlink:href="#DejaVuSans-30"/>
      </g>
     </g>
    </g>
    <g id="xtick_2">
     <g id="line2d_3">
      <path d="M 208.53204 335.848667 
L 208.53204 30.82 
" clip-path="url(#pdce14ef7ac)" style="fill: none; stroke: #ffffff; stroke-width: 0.8; stroke-linecap: square"/>
     </g>
     <g id="line2d_4">
      <g>
       <use xlink:href="#md82b46589b" x="208.53204" y="335.848667" style="fill: #555555; stroke: #555555; stroke-width: 0.8"/>
      </g>
     </g>
     <g id="text_2">
      <!-- 25 -->
      <g style="fill: #555555" transform="translate(202.16954 350.447104) scale(0.1 -0.1)">
       <defs>
        <path id="DejaVuSans-32" d="M 1228 531 
L 3431 531 
L 3431 0 
L 469 0 
L 469 531 
Q 828 903 1448 1529 
Q 2069 2156 2228 2338 
Q 2531 2678 2651 2914 
Q 2772 3150 2772 3378 
Q 2772 3750 2511 3984 
Q 2250 4219 1831 4219 
Q 1534 4219 1204 4116 
Q 875 4013 500 3803 
L 500 4441 
Q 881 4594 1212 4672 
Q 1544 4750 1819 4750 
Q 2544 4750 2975 4387 
Q 3406 4025 3406 3419 
Q 3406 3131 3298 2873 
Q 3191 2616 2906 2266 
Q 2828 2175 2409 1742 
Q 1991 1309 1228 531 
z
" transform="scale(0.015625)"/>
        <path id="DejaVuSans-35" d="M 691 4666 
L 3169 4666 
L 3169 4134 
L 1269 4134 
L 1269 2991 
Q 1406 3038 1543 3061 
Q 1681 3084 1819 3084 
Q 2600 3084 3056 2656 
Q 3513 2228 3513 1497 
Q 3513 744 3044 326 
Q 2575 -91 1722 -91 
Q 1428 -91 1123 -41 
Q 819 9 494 109 
L 494 744 
Q 775 591 1075 516 
Q 1375 441 1709 441 
Q 2250 441 2565 725 
Q 2881 1009 2881 1497 
Q 2881 1984 2565 2268 
Q 2250 2553 1709 2553 
Q 1456 2553 1204 2497 
Q 953 2441 691 2322 
L 691 4666 
z
" transform="scale(0.015625)"/>
       </defs>
       <use xlink:href="#DejaVuSans-32"/>
       <use xlink:href="#DejaVuSans-35" x="63.623047"/>
      </g>
     </g>
    </g>
    <g id="xtick_3">
     <g id="line2d_5">
      <path d="M 289.485716 335.848667 
L 289.485716 30.82 
" clip-path="url(#pdce14ef7ac)" style="fill: none; stroke: #ffffff; stroke-width: 0.8; stroke-linecap: square"/>
     </g>
     <g id="line2d_6">
      <g>
       <use xlink:href="#md82b46589b" x="289.485716" y="335.848667" style="fill: #555555; stroke: #555555; stroke-width: 0.8"/>
      </g>
     </g>
     <g id="text_3">
      <!-- 50 -->
      <g style="fill: #555555" transform="translate(283.123216 350.447104) scale(0.1 -0.1)">
       <use xlink:href="#DejaVuSans-35"/>
       <use xlink:href="#DejaVuSans-30" x="63.623047"/>
      </g>
     </g>
    </g>
    <g id="xtick_4">
     <g id="line2d_7">
      <path d="M 370.439391 335.848667 
L 370.439391 30.82 
" clip-path="url(#pdce14ef7ac)" style="fill: none; stroke: #ffffff; stroke-width: 0.8; stroke-linecap: square"/>
     </g>
     <g id="line2d_8">
      <g>
       <use xlink:href="#md82b46589b" x="370.439391" y="335.848667" style="fill: #555555; stroke: #555555; stroke-width: 0.8"/>
      </g>
     </g>
     <g id="text_4">
      <!-- 75 -->
      <g style="fill: #555555" transform="translate(364.076891 350.447104) scale(0.1 -0.1)">
       <defs>
        <path id="DejaVuSans-37" d="M 525 4666 
L 3525 4666 
L 3525 4397 
L 1831 0 
L 1172 0 
L 2766 4134 
L 525 4134 
L 525 4666 
z
" transform="scale(0.015625)"/>
       </defs>
       <use xlink:href="#DejaVuSans-37"/>
       <use xlink:href="#DejaVuSans-35" x="63.623047"/>
      </g>
     </g>
    </g>
    <g id="xtick_5">
     <g id="line2d_9">
      <path d="M 451.393067 335.848667 
L 451.393067 30.82 
" clip-path="url(#pdce14ef7ac)" style="fill: none; stroke: #ffffff; stroke-width: 0.8; stroke-linecap: square"/>
     </g>
     <g id="line2d_10">
      <g>
       <use xlink:href="#md82b46589b" x="451.393067" y="335.848667" style="fill: #555555; stroke: #555555; stroke-width: 0.8"/>
      </g>
     </g>
     <g id="text_5">
      <!-- 100 -->
      <g style="fill: #555555" transform="translate(441.849317 350.447104) scale(0.1 -0.1)">
       <defs>
        <path id="DejaVuSans-31" d="M 794 531 
L 1825 531 
L 1825 4091 
L 703 3866 
L 703 4441 
L 1819 4666 
L 2450 4666 
L 2450 531 
L 3481 531 
L 3481 0 
L 794 0 
L 794 531 
z
" transform="scale(0.015625)"/>
       </defs>
       <use xlink:href="#DejaVuSans-31"/>
       <use xlink:href="#DejaVuSans-30" x="63.623047"/>
       <use xlink:href="#DejaVuSans-30" x="127.246094"/>
      </g>
     </g>
    </g>
    <g id="xtick_6">
     <g id="line2d_11">
      <path d="M 532.346742 335.848667 
L 532.346742 30.82 
" clip-path="url(#pdce14ef7ac)" style="fill: none; stroke: #ffffff; stroke-width: 0.8; stroke-linecap: square"/>
     </g>
     <g id="line2d_12">
      <g>
       <use xlink:href="#md82b46589b" x="532.346742" y="335.848667" style="fill: #555555; stroke: #555555; stroke-width: 0.8"/>
      </g>
     </g>
     <g id="text_6">
      <!-- 125 -->
      <g style="fill: #555555" transform="translate(522.802992 350.447104) scale(0.1 -0.1)">
       <use xlink:href="#DejaVuSans-31"/>
       <use xlink:href="#DejaVuSans-32" x="63.623047"/>
       <use xlink:href="#DejaVuSans-35" x="127.246094"/>
      </g>
     </g>
    </g>
    <g id="xtick_7">
     <g id="line2d_13">
      <path d="M 613.300418 335.848667 
L 613.300418 30.82 
" clip-path="url(#pdce14ef7ac)" style="fill: none; stroke: #ffffff; stroke-width: 0.8; stroke-linecap: square"/>
     </g>
     <g id="line2d_14">
      <g>
       <use xlink:href="#md82b46589b" x="613.300418" y="335.848667" style="fill: #555555; stroke: #555555; stroke-width: 0.8"/>
      </g>
     </g>
     <g id="text_7">
      <!-- 150 -->
      <g style="fill: #555555" transform="translate(603.756668 350.447104) scale(0.1 -0.1)">
       <use xlink:href="#DejaVuSans-31"/>
       <use xlink:href="#DejaVuSans-35" x="63.623047"/>
       <use xlink:href="#DejaVuSans-30" x="127.246094"/>
      </g>
     </g>
    </g>
    <g id="xtick_8">
     <g id="line2d_15">
      <path d="M 694.254094 335.848667 
L 694.254094 30.82 
" clip-path="url(#pdce14ef7ac)" style="fill: none; stroke: #ffffff; stroke-width: 0.8; stroke-linecap: square"/>
     </g>
     <g id="line2d_16">
      <g>
       <use xlink:href="#md82b46589b" x="694.254094" y="335.848667" style="fill: #555555; stroke: #555555; stroke-width: 0.8"/>
      </g>
     </g>
     <g id="text_8">
      <!-- 175 -->
      <g style="fill: #555555" transform="translate(684.710344 350.447104) scale(0.1 -0.1)">
       <use xlink:href="#DejaVuSans-31"/>
       <use xlink:href="#DejaVuSans-37" x="63.623047"/>
       <use xlink:href="#DejaVuSans-35" x="127.246094"/>
      </g>
     </g>
    </g>
    <g id="xtick_9">
     <g id="line2d_17">
      <path d="M 775.207769 335.848667 
L 775.207769 30.82 
" clip-path="url(#pdce14ef7ac)" style="fill: none; stroke: #ffffff; stroke-width: 0.8; stroke-linecap: square"/>
     </g>
     <g id="line2d_18">
      <g>
       <use xlink:href="#md82b46589b" x="775.207769" y="335.848667" style="fill: #555555; stroke: #555555; stroke-width: 0.8"/>
      </g>
     </g>
     <g id="text_9">
      <!-- 200 -->
      <g style="fill: #555555" transform="translate(765.664019 350.447104) scale(0.1 -0.1)">
       <use xlink:href="#DejaVuSans-32"/>
       <use xlink:href="#DejaVuSans-30" x="63.623047"/>
       <use xlink:href="#DejaVuSans-30" x="127.246094"/>
      </g>
     </g>
    </g>
    <g id="text_10">
     <!-- Time -->
     <g style="fill: #555555" transform="translate(437.120469 365.644917) scale(0.12 -0.12)">
      <defs>
       <path id="DejaVuSans-54" d="M -19 4666 
L 3928 4666 
L 3928 4134 
L 2272 4134 
L 2272 0 
L 1638 0 
L 1638 4134 
L -19 4134 
L -19 4666 
z
" transform="scale(0.015625)"/>
       <path id="DejaVuSans-69" d="M 603 3500 
L 1178 3500 
L 1178 0 
L 603 0 
L 603 3500 
z
M 603 4863 
L 1178 4863 
L 1178 4134 
L 603 4134 
L 603 4863 
z
" transform="scale(0.015625)"/>
       <path id="DejaVuSans-6d" d="M 3328 2828 
Q 3544 3216 3844 3400 
Q 4144 3584 4550 3584 
Q 5097 3584 5394 3201 
Q 5691 2819 5691 2113 
L 5691 0 
L 5113 0 
L 5113 2094 
Q 5113 2597 4934 2840 
Q 4756 3084 4391 3084 
Q 3944 3084 3684 2787 
Q 3425 2491 3425 1978 
L 3425 0 
L 2847 0 
L 2847 2094 
Q 2847 2600 2669 2842 
Q 2491 3084 2119 3084 
Q 1678 3084 1418 2786 
Q 1159 2488 1159 1978 
L 1159 0 
L 581 0 
L 581 3500 
L 1159 3500 
L 1159 2956 
Q 1356 3278 1631 3431 
Q 1906 3584 2284 3584 
Q 2666 3584 2933 3390 
Q 3200 3197 3328 2828 
z
" transform="scale(0.015625)"/>
       <path id="DejaVuSans-65" d="M 3597 1894 
L 3597 1613 
L 953 1613 
Q 991 1019 1311 708 
Q 1631 397 2203 397 
Q 2534 397 2845 478 
Q 3156 559 3463 722 
L 3463 178 
Q 3153 47 2828 -22 
Q 2503 -91 2169 -91 
Q 1331 -91 842 396 
Q 353 884 353 1716 
Q 353 2575 817 3079 
Q 1281 3584 2069 3584 
Q 2775 3584 3186 3129 
Q 3597 2675 3597 1894 
z
M 3022 2063 
Q 3016 2534 2758 2815 
Q 2500 3097 2075 3097 
Q 1594 3097 1305 2825 
Q 1016 2553 972 2059 
L 3022 2063 
z
" transform="scale(0.015625)"/>
      </defs>
      <use xlink:href="#DejaVuSans-54"/>
      <use xlink:href="#DejaVuSans-69" x="57.958984"/>
      <use xlink:href="#DejaVuSans-6d" x="85.742188"/>
      <use xlink:href="#DejaVuSans-65" x="183.154297"/>
     </g>
    </g>
   </g>
   <g id="matplotlib.axis_2">
    <g id="ytick_1">
     <g id="line2d_19">
      <path d="M 96.414063 321.983727 
L 807.1875 321.983727 
" clip-path="url(#pdce14ef7ac)" style="fill: none; stroke: #ffffff; stroke-width: 0.8; stroke-linecap: square"/>
     </g>
     <g id="line2d_20">
      <defs>
       <path id="m4ad99d1ea0" d="M 0 0 
L -3.5 0 
" style="stroke: #555555; stroke-width: 0.8"/>
      </defs>
      <g>
       <use xlink:href="#m4ad99d1ea0" x="96.414063" y="321.983727" style="fill: #555555; stroke: #555555; stroke-width: 0.8"/>
      </g>
     </g>
     <g id="text_11">
      <!-- 0 -->
      <g style="fill: #555555" transform="translate(83.051563 325.782946) scale(0.1 -0.1)">
       <use xlink:href="#DejaVuSans-30"/>
      </g>
     </g>
    </g>
    <g id="ytick_2">
     <g id="line2d_21">
      <path d="M 96.414063 254.349877 
L 807.1875 254.349877 
" clip-path="url(#pdce14ef7ac)" style="fill: none; stroke: #ffffff; stroke-width: 0.8; stroke-linecap: square"/>
     </g>
     <g id="line2d_22">
      <g>
       <use xlink:href="#m4ad99d1ea0" x="96.414063" y="254.349877" style="fill: #555555; stroke: #555555; stroke-width: 0.8"/>
      </g>
     </g>
     <g id="text_12">
      <!-- 50 -->
      <g style="fill: #555555" transform="translate(76.689063 258.149095) scale(0.1 -0.1)">
       <use xlink:href="#DejaVuSans-35"/>
       <use xlink:href="#DejaVuSans-30" x="63.623047"/>
      </g>
     </g>
    </g>
    <g id="ytick_3">
     <g id="line2d_23">
      <path d="M 96.414063 186.716026 
L 807.1875 186.716026 
" clip-path="url(#pdce14ef7ac)" style="fill: none; stroke: #ffffff; stroke-width: 0.8; stroke-linecap: square"/>
     </g>
     <g id="line2d_24">
      <g>
       <use xlink:href="#m4ad99d1ea0" x="96.414063" y="186.716026" style="fill: #555555; stroke: #555555; stroke-width: 0.8"/>
      </g>
     </g>
     <g id="text_13">
      <!-- 100 -->
      <g style="fill: #555555" transform="translate(70.326563 190.515245) scale(0.1 -0.1)">
       <use xlink:href="#DejaVuSans-31"/>
       <use xlink:href="#DejaVuSans-30" x="63.623047"/>
       <use xlink:href="#DejaVuSans-30" x="127.246094"/>
      </g>
     </g>
    </g>
    <g id="ytick_4">
     <g id="line2d_25">
      <path d="M 96.414063 119.082175 
L 807.1875 119.082175 
" clip-path="url(#pdce14ef7ac)" style="fill: none; stroke: #ffffff; stroke-width: 0.8; stroke-linecap: square"/>
     </g>
     <g id="line2d_26">
      <g>
       <use xlink:href="#m4ad99d1ea0" x="96.414063" y="119.082175" style="fill: #555555; stroke: #555555; stroke-width: 0.8"/>
      </g>
     </g>
     <g id="text_14">
      <!-- 150 -->
      <g style="fill: #555555" transform="translate(70.326563 122.881394) scale(0.1 -0.1)">
       <use xlink:href="#DejaVuSans-31"/>
       <use xlink:href="#DejaVuSans-35" x="63.623047"/>
       <use xlink:href="#DejaVuSans-30" x="127.246094"/>
      </g>
     </g>
    </g>
    <g id="ytick_5">
     <g id="line2d_27">
      <path d="M 96.414063 51.448324 
L 807.1875 51.448324 
" clip-path="url(#pdce14ef7ac)" style="fill: none; stroke: #ffffff; stroke-width: 0.8; stroke-linecap: square"/>
     </g>
     <g id="line2d_28">
      <g>
       <use xlink:href="#m4ad99d1ea0" x="96.414063" y="51.448324" style="fill: #555555; stroke: #555555; stroke-width: 0.8"/>
      </g>
     </g>
     <g id="text_15">
      <!-- 200 -->
      <g style="fill: #555555" transform="translate(70.326563 55.247543) scale(0.1 -0.1)">
       <use xlink:href="#DejaVuSans-32"/>
       <use xlink:href="#DejaVuSans-30" x="63.623047"/>
       <use xlink:href="#DejaVuSans-30" x="127.246094"/>
      </g>
     </g>
    </g>
    <g id="text_16">
     <!-- Buffer Size -->
     <g style="fill: #555555" transform="translate(63.830938 215.859958) rotate(-90) scale(0.12 -0.12)">
      <defs>
       <path id="DejaVuSans-42" d="M 1259 2228 
L 1259 519 
L 2272 519 
Q 2781 519 3026 730 
Q 3272 941 3272 1375 
Q 3272 1813 3026 2020 
Q 2781 2228 2272 2228 
L 1259 2228 
z
M 1259 4147 
L 1259 2741 
L 2194 2741 
Q 2656 2741 2882 2914 
Q 3109 3088 3109 3444 
Q 3109 3797 2882 3972 
Q 2656 4147 2194 4147 
L 1259 4147 
z
M 628 4666 
L 2241 4666 
Q 2963 4666 3353 4366 
Q 3744 4066 3744 3513 
Q 3744 3084 3544 2831 
Q 3344 2578 2956 2516 
Q 3422 2416 3680 2098 
Q 3938 1781 3938 1306 
Q 3938 681 3513 340 
Q 3088 0 2303 0 
L 628 0 
L 628 4666 
z
" transform="scale(0.015625)"/>
       <path id="DejaVuSans-75" d="M 544 1381 
L 544 3500 
L 1119 3500 
L 1119 1403 
Q 1119 906 1312 657 
Q 1506 409 1894 409 
Q 2359 409 2629 706 
Q 2900 1003 2900 1516 
L 2900 3500 
L 3475 3500 
L 3475 0 
L 2900 0 
L 2900 538 
Q 2691 219 2414 64 
Q 2138 -91 1772 -91 
Q 1169 -91 856 284 
Q 544 659 544 1381 
z
M 1991 3584 
L 1991 3584 
z
" transform="scale(0.015625)"/>
       <path id="DejaVuSans-66" d="M 2375 4863 
L 2375 4384 
L 1825 4384 
Q 1516 4384 1395 4259 
Q 1275 4134 1275 3809 
L 1275 3500 
L 2222 3500 
L 2222 3053 
L 1275 3053 
L 1275 0 
L 697 0 
L 697 3053 
L 147 3053 
L 147 3500 
L 697 3500 
L 697 3744 
Q 697 4328 969 4595 
Q 1241 4863 1831 4863 
L 2375 4863 
z
" transform="scale(0.015625)"/>
       <path id="DejaVuSans-72" d="M 2631 2963 
Q 2534 3019 2420 3045 
Q 2306 3072 2169 3072 
Q 1681 3072 1420 2755 
Q 1159 2438 1159 1844 
L 1159 0 
L 581 0 
L 581 3500 
L 1159 3500 
L 1159 2956 
Q 1341 3275 1631 3429 
Q 1922 3584 2338 3584 
Q 2397 3584 2469 3576 
Q 2541 3569 2628 3553 
L 2631 2963 
z
" transform="scale(0.015625)"/>
       <path id="DejaVuSans-20" transform="scale(0.015625)"/>
       <path id="DejaVuSans-53" d="M 3425 4513 
L 3425 3897 
Q 3066 4069 2747 4153 
Q 2428 4238 2131 4238 
Q 1616 4238 1336 4038 
Q 1056 3838 1056 3469 
Q 1056 3159 1242 3001 
Q 1428 2844 1947 2747 
L 2328 2669 
Q 3034 2534 3370 2195 
Q 3706 1856 3706 1288 
Q 3706 609 3251 259 
Q 2797 -91 1919 -91 
Q 1588 -91 1214 -16 
Q 841 59 441 206 
L 441 856 
Q 825 641 1194 531 
Q 1563 422 1919 422 
Q 2459 422 2753 634 
Q 3047 847 3047 1241 
Q 3047 1584 2836 1778 
Q 2625 1972 2144 2069 
L 1759 2144 
Q 1053 2284 737 2584 
Q 422 2884 422 3419 
Q 422 4038 858 4394 
Q 1294 4750 2059 4750 
Q 2388 4750 2728 4690 
Q 3069 4631 3425 4513 
z
" transform="scale(0.015625)"/>
       <path id="DejaVuSans-7a" d="M 353 3500 
L 3084 3500 
L 3084 2975 
L 922 459 
L 3084 459 
L 3084 0 
L 275 0 
L 275 525 
L 2438 3041 
L 353 3041 
L 353 3500 
z
" transform="scale(0.015625)"/>
      </defs>
      <use xlink:href="#DejaVuSans-42"/>
      <use xlink:href="#DejaVuSans-75" x="68.603516"/>
      <use xlink:href="#DejaVuSans-66" x="131.982422"/>
      <use xlink:href="#DejaVuSans-66" x="167.1875"/>
      <use xlink:href="#DejaVuSans-65" x="202.392578"/>
      <use xlink:href="#DejaVuSans-72" x="263.916016"/>
      <use xlink:href="#DejaVuSans-20" x="305.029297"/>
      <use xlink:href="#DejaVuSans-53" x="336.816406"/>
      <use xlink:href="#DejaVuSans-69" x="400.292969"/>
      <use xlink:href="#DejaVuSans-7a" x="428.076172"/>
      <use xlink:href="#DejaVuSans-65" x="480.566406"/>
     </g>
    </g>
   </g>
   <g id="line2d_29">
    <path d="M 128.721946 320.63105 
L 128.721946 321.983727 
L 133.726506 320.63105 
L 133.726506 321.983727 
L 135.922045 320.63105 
L 136.964653 321.983727 
L 136.964653 320.63105 
L 140.2028 321.983727 
L 140.2028 320.63105 
L 143.440947 321.983727 
L 143.440947 320.63105 
L 144.335574 319.278373 
L 146.679094 320.63105 
L 146.679094 319.278373 
L 149.56195 317.925696 
L 149.917241 319.278373 
L 149.917241 317.925696 
L 152.386654 316.573019 
L 153.155388 317.925696 
L 153.155388 316.573019 
L 154.775847 315.220342 
L 156.393535 316.573019 
L 156.393535 315.220342 
L 156.748146 313.867665 
L 159.631682 315.220342 
L 159.631682 313.867665 
L 159.861239 312.514988 
L 162.869829 313.867665 
L 162.869829 312.514988 
L 163.569367 311.162311 
L 166.107977 312.514988 
L 166.107977 311.162311 
L 167.127807 309.809634 
L 167.892679 308.456957 
L 169.119814 307.10428 
L 169.346124 308.456957 
L 169.346124 307.10428 
L 170.39277 305.751603 
L 172.584271 307.10428 
L 172.584271 305.751603 
L 175.822418 307.10428 
L 175.822418 305.751603 
L 179.060565 307.10428 
L 179.060565 305.751603 
L 182.298712 307.10428 
L 182.298712 305.751603 
L 184.817086 304.398926 
L 185.536859 305.751603 
L 185.536859 304.398926 
L 188.775006 305.751603 
L 188.775006 304.398926 
L 190.709927 303.046249 
L 192.013153 304.398926 
L 192.013153 303.046249 
L 193.017377 301.693572 
L 195.2513 303.046249 
L 195.2513 301.693572 
L 197.370241 300.340895 
L 198.489447 301.693572 
L 198.489447 300.340895 
L 201.148749 298.988218 
L 201.727594 300.340895 
L 201.727594 298.988218 
L 203.856156 297.635541 
L 204.965741 298.988218 
L 204.965741 297.635541 
L 206.159281 296.282864 
L 208.203888 297.635541 
L 208.203888 296.282864 
L 208.937273 294.930187 
L 209.394923 293.57751 
L 211.442035 294.930187 
L 211.442035 293.57751 
L 212.768362 292.224833 
L 213.76415 290.872156 
L 214.680182 292.224833 
L 214.680182 290.872156 
L 216.370202 289.519479 
L 217.389317 288.166802 
L 217.918329 289.519479 
L 217.918329 288.166802 
L 218.49141 286.814125 
L 219.417588 285.461448 
L 221.156476 286.814125 
L 221.156476 285.461448 
L 222.19719 284.108771 
L 223.014563 282.756094 
L 224.394623 284.108771 
L 224.394623 282.756094 
L 227.63277 284.108771 
L 227.63277 282.756094 
L 230.208129 281.403417 
L 230.870917 282.756094 
L 230.870917 281.403417 
L 231.926687 280.05074 
L 234.109064 281.403417 
L 234.109064 280.05074 
L 237.347211 281.403417 
L 237.347211 280.05074 
L 238.822319 278.698063 
L 240.585358 280.05074 
L 240.585358 278.698063 
L 241.289359 277.345386 
L 243.823505 278.698063 
L 243.823505 277.345386 
L 244.412401 275.992709 
L 247.061652 277.345386 
L 247.061652 275.992709 
L 249.90453 273.287355 
L 250.015286 271.934678 
L 250.299799 273.287355 
L 250.299799 271.934678 
L 253.444514 270.582001 
L 253.537946 271.934678 
L 253.537946 270.582001 
L 254.928145 269.229324 
L 256.776093 270.582001 
L 256.776093 269.229324 
L 260.01424 270.582001 
L 260.01424 269.229324 
L 260.241613 267.876647 
L 262.292858 266.52397 
L 263.252387 267.876647 
L 263.252387 266.52397 
L 266.490534 267.876647 
L 266.490534 266.52397 
L 268.853048 265.171293 
L 269.728681 266.52397 
L 269.728681 265.171293 
L 272.966828 266.52397 
L 272.966828 265.171293 
L 274.185367 263.818616 
L 275.949694 262.465939 
L 276.204975 263.818616 
L 276.204975 262.465939 
L 279.443122 263.818616 
L 279.443122 262.465939 
L 282.681269 263.818616 
L 282.681269 262.465939 
L 285.919416 263.818616 
L 285.919416 262.465939 
L 287.963092 261.113262 
L 289.157563 262.465939 
L 289.157563 261.113262 
L 292.39571 262.465939 
L 292.39571 261.113262 
L 295.633857 262.465939 
L 295.633857 261.113262 
L 297.303671 259.760585 
L 298.872004 261.113262 
L 298.872004 259.760585 
L 302.110151 261.113262 
L 302.110151 259.760585 
L 303.770807 258.407908 
L 305.348298 259.760585 
L 305.415349 257.055231 
L 307.363674 255.702554 
L 308.586445 257.055231 
L 308.586445 255.702554 
L 311.824592 257.055231 
L 311.824592 255.702554 
L 315.062739 257.055231 
L 315.062739 255.702554 
L 318.300886 257.055231 
L 318.300886 255.702554 
L 318.744073 254.349877 
L 321.539034 255.702554 
L 321.539034 254.349877 
L 323.196028 251.644523 
L 324.777181 252.9972 
L 324.777181 251.644523 
L 326.718823 250.291846 
L 328.015328 251.644523 
L 328.015328 250.291846 
L 328.284915 248.939169 
L 331.158776 247.586492 
L 331.253475 246.233814 
L 334.491622 247.586492 
L 334.491622 246.233814 
L 337.729769 247.586492 
L 337.832198 244.881137 
L 338.618156 243.52846 
L 340.967916 244.881137 
L 340.967916 243.52846 
L 344.206063 244.881137 
L 344.206063 243.52846 
L 347.44421 244.881137 
L 347.44421 243.52846 
L 348.152816 242.175783 
L 350.682357 243.52846 
L 350.682357 242.175783 
L 351.014644 240.823106 
L 352.064448 239.470429 
L 352.523106 238.117752 
L 353.920504 239.470429 
L 353.920504 238.117752 
L 356.609041 236.765075 
L 357.158651 238.117752 
L 357.158651 236.765075 
L 360.396798 238.117752 
L 360.396798 236.765075 
L 361.302913 235.412398 
L 363.634945 236.765075 
L 363.634945 235.412398 
L 364.146702 234.059721 
L 365.265545 232.707044 
L 366.157745 231.354367 
L 366.873092 232.707044 
L 366.873092 231.354367 
L 370.111239 232.707044 
L 370.111239 231.354367 
L 371.137461 230.00169 
L 371.786522 228.649013 
L 373.349386 230.00169 
L 373.349386 228.649013 
L 374.11231 227.296336 
L 376.587533 228.649013 
L 376.587533 227.296336 
L 377.132244 225.943659 
L 377.985745 224.590982 
L 379.82568 225.943659 
L 379.82568 224.590982 
L 383.063827 225.943659 
L 383.063827 224.590982 
L 384.821114 223.238305 
L 386.301974 224.590982 
L 386.301974 223.238305 
L 386.97721 221.885628 
L 388.100048 220.532951 
L 389.540121 221.885628 
L 389.540121 220.532951 
L 392.778268 221.885628 
L 392.778268 220.532951 
L 394.220475 219.180274 
L 396.016415 220.532951 
L 396.016415 219.180274 
L 398.756069 217.827597 
L 399.232805 216.47492 
L 399.254562 217.827597 
L 399.254562 216.47492 
L 401.042954 215.122243 
L 402.492709 216.47492 
L 402.492709 215.122243 
L 403.361614 213.769566 
L 405.730856 215.122243 
L 405.730856 213.769566 
L 406.088575 212.416889 
L 408.969003 213.769566 
L 408.969003 212.416889 
L 411.124847 211.064212 
L 412.20715 212.416889 
L 412.20715 211.064212 
L 412.776272 209.711535 
L 414.469718 208.358858 
L 414.929942 207.006181 
L 415.445297 208.358858 
L 415.445297 207.006181 
L 418.683444 208.358858 
L 418.683444 207.006181 
L 421.921591 208.358858 
L 421.921591 207.006181 
L 424.822027 205.653504 
L 425.159738 207.006181 
L 425.159738 205.653504 
L 428.397885 207.006181 
L 428.397885 205.653504 
L 429.026585 204.300827 
L 431.434416 202.94815 
L 431.636032 204.300827 
L 431.636032 202.94815 
L 434.874179 204.300827 
L 434.874179 202.94815 
L 437.113202 201.595473 
L 437.749375 200.242796 
L 437.983878 198.890119 
L 438.015403 197.537442 
L 438.112326 198.890119 
L 438.112326 197.537442 
L 439.047025 196.184765 
L 440.54755 194.832088 
L 441.350473 196.184765 
L 441.350473 194.832088 
L 444.58862 196.184765 
L 444.58862 194.832088 
L 447.826767 196.184765 
L 447.826767 194.832088 
L 448.942279 193.479411 
L 451.064914 194.832088 
L 451.064914 193.479411 
L 451.574564 192.126734 
L 454.303061 193.479411 
L 454.303061 192.126734 
L 454.969078 190.774057 
L 455.282522 189.42138 
L 457.541208 190.774057 
L 457.541208 189.42138 
L 460.779355 190.774057 
L 460.779355 189.42138 
L 463.099463 188.068703 
L 464.017502 189.42138 
L 464.017502 188.068703 
L 466.892187 186.716026 
L 467.255649 188.068703 
L 467.255649 186.716026 
L 468.347599 184.010672 
L 468.37938 182.657995 
L 470.493796 184.010672 
L 470.493796 182.657995 
L 473.533073 181.305318 
L 473.731944 182.657995 
L 473.731944 181.305318 
L 473.865151 179.952641 
L 476.970091 181.305318 
L 476.970091 179.952641 
L 480.208238 181.305318 
L 480.208238 179.952641 
L 483.446385 181.305318 
L 483.446385 179.952641 
L 483.689503 178.599964 
L 486.684532 179.952641 
L 486.684532 178.599964 
L 489.922679 179.952641 
L 489.922679 178.599964 
L 493.160826 179.952641 
L 493.160826 178.599964 
L 493.344944 177.247287 
L 494.008286 175.89461 
L 496.398973 177.247287 
L 496.49668 174.541933 
L 496.832382 173.189256 
L 499.63712 174.541933 
L 499.63712 173.189256 
L 502.875267 174.541933 
L 502.875267 173.189256 
L 503.426202 171.836579 
L 503.533074 170.483902 
L 504.342451 169.131225 
L 505.287815 167.778548 
L 506.113414 169.131225 
L 506.113414 167.778548 
L 506.816117 166.425871 
L 508.334554 165.073194 
L 509.351561 166.425871 
L 509.351561 165.073194 
L 509.53643 163.720517 
L 512.589708 165.073194 
L 512.589708 163.720517 
L 514.863776 162.36784 
L 515.827855 163.720517 
L 515.827855 162.36784 
L 516.350176 161.015163 
L 517.451914 159.662486 
L 517.688466 158.309809 
L 518.583183 156.957132 
L 519.066002 158.309809 
L 519.066002 156.957132 
L 522.100469 155.604455 
L 522.304149 156.957132 
L 522.304149 155.604455 
L 525.542296 156.957132 
L 525.542296 155.604455 
L 528.329817 154.251778 
L 528.780443 155.604455 
L 528.780443 154.251778 
L 529.777722 152.899101 
L 531.238899 151.546424 
L 532.01859 152.899101 
L 532.096303 150.193746 
L 535.256737 151.546424 
L 535.256737 150.193746 
L 538.494884 151.546424 
L 538.494884 150.193746 
L 541.0632 148.841069 
L 541.733031 150.193746 
L 541.733031 148.841069 
L 542.354747 146.135715 
L 544.532022 144.783038 
L 544.971178 146.135715 
L 544.971178 144.783038 
L 548.209325 146.135715 
L 548.209325 144.783038 
L 551.447472 146.135715 
L 551.447472 144.783038 
L 551.72464 143.430361 
L 552.754547 142.077684 
L 554.272843 140.725007 
L 554.685619 142.077684 
L 554.685619 140.725007 
L 555.152181 139.37233 
L 555.762781 138.019653 
L 556.900411 136.666976 
L 557.923766 138.019653 
L 557.923766 136.666976 
L 561.161913 138.019653 
L 561.161913 136.666976 
L 563.93116 135.314299 
L 564.011881 133.961622 
L 564.40006 135.314299 
L 564.40006 133.961622 
L 567.638207 135.314299 
L 567.638207 133.961622 
L 567.905938 132.608945 
L 569.852565 131.256268 
L 570.876354 132.608945 
L 570.974367 129.903591 
L 574.114501 131.256268 
L 574.114501 129.903591 
L 574.583147 128.550914 
L 577.352648 129.903591 
L 577.352648 128.550914 
L 580.590795 129.903591 
L 580.590795 128.550914 
L 581.893189 127.198237 
L 583.583862 125.84556 
L 583.828942 127.198237 
L 583.828942 125.84556 
L 587.067089 127.198237 
L 587.067089 125.84556 
L 590.305236 127.198237 
L 590.305236 125.84556 
L 593.543383 127.198237 
L 593.543383 125.84556 
L 595.627853 124.492883 
L 595.789487 123.140206 
L 596.736809 121.787529 
L 596.78153 123.140206 
L 596.78153 121.787529 
L 598.65002 120.434852 
L 600.019677 121.787529 
L 600.037375 119.082175 
L 602.351466 117.729498 
L 603.257824 119.082175 
L 603.257824 117.729498 
L 606.046332 116.376821 
L 606.495971 117.729498 
L 606.495971 116.376821 
L 609.698186 115.024144 
L 609.734118 116.376821 
L 609.734118 115.024144 
L 610.774095 113.671467 
L 612.972265 115.024144 
L 612.972265 113.671467 
L 614.786277 112.31879 
L 615.089871 110.966113 
L 616.210412 112.31879 
L 616.210412 110.966113 
L 617.351979 109.613436 
L 619.448559 110.966113 
L 619.448559 109.613436 
L 622.686706 110.966113 
L 622.686706 109.613436 
L 625.924854 110.966113 
L 625.924854 109.613436 
L 628.586386 108.260759 
L 629.163001 109.613436 
L 629.163001 108.260759 
L 632.401148 109.613436 
L 632.44728 106.908082 
L 634.755938 105.555405 
L 635.639295 106.908082 
L 635.639295 105.555405 
L 636.40323 102.850051 
L 638.29256 101.497374 
L 638.877442 102.850051 
L 638.877442 101.497374 
L 642.115589 102.850051 
L 642.126616 100.144697 
L 645.287993 98.79202 
L 645.353736 100.144697 
L 645.353736 98.79202 
L 646.576609 97.439343 
L 648.254707 96.086666 
L 648.591883 97.439343 
L 648.591883 96.086666 
L 651.83003 97.439343 
L 651.83003 96.086666 
L 654.906031 94.733989 
L 655.068177 96.086666 
L 655.068177 94.733989 
L 658.306324 96.086666 
L 658.306324 94.733989 
L 661.544471 96.086666 
L 661.544471 94.733989 
L 664.782618 96.086666 
L 664.782618 94.733989 
L 666.080909 93.381312 
L 666.646379 92.028635 
L 668.020765 93.381312 
L 668.020765 92.028635 
L 670.150384 90.675958 
L 670.281275 89.323281 
L 671.258912 90.675958 
L 671.258912 89.323281 
L 672.125193 87.970604 
L 674.497059 89.323281 
L 674.497059 87.970604 
L 677.735206 89.323281 
L 677.735206 87.970604 
L 679.841919 86.617927 
L 680.973353 87.970604 
L 680.973353 86.617927 
L 681.380717 85.26525 
L 682.002304 83.912573 
L 683.2894 82.559896 
L 684.013447 81.207219 
L 684.2115 82.559896 
L 684.2115 81.207219 
L 687.039756 79.854542 
L 687.449647 81.207219 
L 687.449647 79.854542 
L 688.12154 78.501865 
L 690.687794 79.854542 
L 690.687794 78.501865 
L 691.367984 77.149188 
L 693.203049 75.796511 
L 693.925941 77.149188 
L 693.925941 75.796511 
L 694.536196 74.443834 
L 697.164088 75.796511 
L 697.164088 74.443834 
L 697.445355 73.091157 
L 700.402235 74.443834 
L 700.402235 73.091157 
L 703.029189 71.73848 
L 703.640382 73.091157 
L 703.640382 71.73848 
L 706.315775 70.385803 
L 706.878529 71.73848 
L 706.878529 70.385803 
L 710.116676 71.73848 
L 710.116676 70.385803 
L 713.354823 71.73848 
L 713.354823 70.385803 
L 716.59297 71.73848 
L 716.59297 70.385803 
L 718.423688 69.033126 
L 719.063972 67.680449 
L 719.831117 69.033126 
L 719.831117 67.680449 
L 723.069264 69.033126 
L 723.069264 67.680449 
L 726.307411 69.033126 
L 726.307411 67.680449 
L 729.38681 66.327772 
L 729.545558 67.680449 
L 729.545558 66.327772 
L 731.039868 64.975095 
L 731.809465 63.622418 
L 732.327388 62.269741 
L 732.783705 63.622418 
L 732.783705 62.269741 
L 736.021852 63.622418 
L 736.067366 60.917064 
L 739.193589 59.564387 
L 739.259999 60.917064 
L 739.259999 59.564387 
L 742.498146 60.917064 
L 742.498146 59.564387 
L 745.736293 60.917064 
L 745.736293 59.564387 
L 746.540844 58.21171 
L 748.525722 56.859033 
L 748.722195 55.506356 
L 748.97444 56.859033 
L 748.97444 55.506356 
L 749.150315 54.153678 
L 750.519047 52.801001 
L 752.212587 54.153678 
L 752.212587 52.801001 
L 754.569803 51.448324 
L 755.450734 52.801001 
L 755.450734 51.448324 
L 758.078491 50.095647 
L 758.688881 51.448324 
L 758.688881 50.095647 
L 759.346823 48.74297 
L 759.725913 47.390293 
L 761.927028 48.74297 
L 761.927028 47.390293 
L 765.165175 48.74297 
L 765.165175 47.390293 
L 765.527553 46.037616 
L 768.403322 47.390293 
L 768.403322 46.037616 
L 768.78925 44.684939 
L 771.641469 46.037616 
L 771.641469 44.684939 
L 774.879616 46.037616 
L 774.879616 44.684939 
L 774.879616 44.684939 
" clip-path="url(#pdce14ef7ac)" style="fill: none; stroke: #e24a33; stroke-width: 1.5; stroke-linecap: square"/>
   </g>
   <g id="patch_3">
    <path d="M 96.414063 335.848667 
L 96.414063 30.82 
" style="fill: none; stroke: #ffffff; stroke-linejoin: miter; stroke-linecap: square"/>
   </g>
   <g id="patch_4">
    <path d="M 807.1875 335.848667 
L 807.1875 30.82 
" style="fill: none; stroke: #ffffff; stroke-linejoin: miter; stroke-linecap: square"/>
   </g>
   <g id="patch_5">
    <path d="M 96.414063 335.848667 
L 807.1875 335.848667 
" style="fill: none; stroke: #ffffff; stroke-linejoin: miter; stroke-linecap: square"/>
   </g>
   <g id="patch_6">
    <path d="M 96.414063 30.82 
L 807.1875 30.82 
" style="fill: none; stroke: #ffffff; stroke-linejoin: miter; stroke-linecap: square"/>
   </g>
   <g id="text_17">
    <!-- Buffer Size in Network.node[7].lnk[0] -->
    <g transform="translate(317.890906 24.82) scale(0.144 -0.144)">
     <defs>
      <path id="DejaVuSans-6e" d="M 3513 2113 
L 3513 0 
L 2938 0 
L 2938 2094 
Q 2938 2591 2744 2837 
Q 2550 3084 2163 3084 
Q 1697 3084 1428 2787 
Q 1159 2491 1159 1978 
L 1159 0 
L 581 0 
L 581 3500 
L 1159 3500 
L 1159 2956 
Q 1366 3272 1645 3428 
Q 1925 3584 2291 3584 
Q 2894 3584 3203 3211 
Q 3513 2838 3513 2113 
z
" transform="scale(0.015625)"/>
      <path id="DejaVuSans-4e" d="M 628 4666 
L 1478 4666 
L 3547 763 
L 3547 4666 
L 4159 4666 
L 4159 0 
L 3309 0 
L 1241 3903 
L 1241 0 
L 628 0 
L 628 4666 
z
" transform="scale(0.015625)"/>
      <path id="DejaVuSans-74" d="M 1172 4494 
L 1172 3500 
L 2356 3500 
L 2356 3053 
L 1172 3053 
L 1172 1153 
Q 1172 725 1289 603 
Q 1406 481 1766 481 
L 2356 481 
L 2356 0 
L 1766 0 
Q 1100 0 847 248 
Q 594 497 594 1153 
L 594 3053 
L 172 3053 
L 172 3500 
L 594 3500 
L 594 4494 
L 1172 4494 
z
" transform="scale(0.015625)"/>
      <path id="DejaVuSans-77" d="M 269 3500 
L 844 3500 
L 1563 769 
L 2278 3500 
L 2956 3500 
L 3675 769 
L 4391 3500 
L 4966 3500 
L 4050 0 
L 3372 0 
L 2619 2869 
L 1863 0 
L 1184 0 
L 269 3500 
z
" transform="scale(0.015625)"/>
      <path id="DejaVuSans-6f" d="M 1959 3097 
Q 1497 3097 1228 2736 
Q 959 2375 959 1747 
Q 959 1119 1226 758 
Q 1494 397 1959 397 
Q 2419 397 2687 759 
Q 2956 1122 2956 1747 
Q 2956 2369 2687 2733 
Q 2419 3097 1959 3097 
z
M 1959 3584 
Q 2709 3584 3137 3096 
Q 3566 2609 3566 1747 
Q 3566 888 3137 398 
Q 2709 -91 1959 -91 
Q 1206 -91 779 398 
Q 353 888 353 1747 
Q 353 2609 779 3096 
Q 1206 3584 1959 3584 
z
" transform="scale(0.015625)"/>
      <path id="DejaVuSans-6b" d="M 581 4863 
L 1159 4863 
L 1159 1991 
L 2875 3500 
L 3609 3500 
L 1753 1863 
L 3688 0 
L 2938 0 
L 1159 1709 
L 1159 0 
L 581 0 
L 581 4863 
z
" transform="scale(0.015625)"/>
      <path id="DejaVuSans-2e" d="M 684 794 
L 1344 794 
L 1344 0 
L 684 0 
L 684 794 
z
" transform="scale(0.015625)"/>
      <path id="DejaVuSans-64" d="M 2906 2969 
L 2906 4863 
L 3481 4863 
L 3481 0 
L 2906 0 
L 2906 525 
Q 2725 213 2448 61 
Q 2172 -91 1784 -91 
Q 1150 -91 751 415 
Q 353 922 353 1747 
Q 353 2572 751 3078 
Q 1150 3584 1784 3584 
Q 2172 3584 2448 3432 
Q 2725 3281 2906 2969 
z
M 947 1747 
Q 947 1113 1208 752 
Q 1469 391 1925 391 
Q 2381 391 2643 752 
Q 2906 1113 2906 1747 
Q 2906 2381 2643 2742 
Q 2381 3103 1925 3103 
Q 1469 3103 1208 2742 
Q 947 2381 947 1747 
z
" transform="scale(0.015625)"/>
      <path id="DejaVuSans-5b" d="M 550 4863 
L 1875 4863 
L 1875 4416 
L 1125 4416 
L 1125 -397 
L 1875 -397 
L 1875 -844 
L 550 -844 
L 550 4863 
z
" transform="scale(0.015625)"/>
      <path id="DejaVuSans-5d" d="M 1947 4863 
L 1947 -844 
L 622 -844 
L 622 -397 
L 1369 -397 
L 1369 4416 
L 622 4416 
L 622 4863 
L 1947 4863 
z
" transform="scale(0.015625)"/>
      <path id="DejaVuSans-6c" d="M 603 4863 
L 1178 4863 
L 1178 0 
L 603 0 
L 603 4863 
z
" transform="scale(0.015625)"/>
     </defs>
     <use xlink:href="#DejaVuSans-42"/>
     <use xlink:href="#DejaVuSans-75" x="68.603516"/>
     <use xlink:href="#DejaVuSans-66" x="131.982422"/>
     <use xlink:href="#DejaVuSans-66" x="167.1875"/>
     <use xlink:href="#DejaVuSans-65" x="202.392578"/>
     <use xlink:href="#DejaVuSans-72" x="263.916016"/>
     <use xlink:href="#DejaVuSans-20" x="305.029297"/>
     <use xlink:href="#DejaVuSans-53" x="336.816406"/>
     <use xlink:href="#DejaVuSans-69" x="400.292969"/>
     <use xlink:href="#DejaVuSans-7a" x="428.076172"/>
     <use xlink:href="#DejaVuSans-65" x="480.566406"/>
     <use xlink:href="#DejaVuSans-20" x="542.089844"/>
     <use xlink:href="#DejaVuSans-69" x="573.876953"/>
     <use xlink:href="#DejaVuSans-6e" x="601.660156"/>
     <use xlink:href="#DejaVuSans-20" x="665.039062"/>
     <use xlink:href="#DejaVuSans-4e" x="696.826172"/>
     <use xlink:href="#DejaVuSans-65" x="771.630859"/>
     <use xlink:href="#DejaVuSans-74" x="833.154297"/>
     <use xlink:href="#DejaVuSans-77" x="872.363281"/>
     <use xlink:href="#DejaVuSans-6f" x="954.150391"/>
     <use xlink:href="#DejaVuSans-72" x="1015.332031"/>
     <use xlink:href="#DejaVuSans-6b" x="1056.445312"/>
     <use xlink:href="#DejaVuSans-2e" x="1114.355469"/>
     <use xlink:href="#DejaVuSans-6e" x="1146.142578"/>
     <use xlink:href="#DejaVuSans-6f" x="1209.521484"/>
     <use xlink:href="#DejaVuSans-64" x="1270.703125"/>
     <use xlink:href="#DejaVuSans-65" x="1334.179688"/>
     <use xlink:href="#DejaVuSans-5b" x="1395.703125"/>
     <use xlink:href="#DejaVuSans-37" x="1434.716797"/>
     <use xlink:href="#DejaVuSans-5d" x="1498.339844"/>
     <use xlink:href="#DejaVuSans-2e" x="1537.353516"/>
     <use xlink:href="#DejaVuSans-6c" x="1569.140625"/>
     <use xlink:href="#DejaVuSans-6e" x="1596.923828"/>
     <use xlink:href="#DejaVuSans-6b" x="1660.302734"/>
     <use xlink:href="#DejaVuSans-5b" x="1718.212891"/>
     <use xlink:href="#DejaVuSans-30" x="1757.226562"/>
     <use xlink:href="#DejaVuSans-5d" x="1820.849609"/>
    </g>
   </g>
   <g id="legend_1">
    <g id="patch_7">
     <path d="M 580.201563 53.498125 
L 802.1875 53.498125 
L 802.1875 35.82 
L 580.201563 35.82 
z
" style="fill: #e5e5e5; opacity: 0.8; stroke: #cccccc; stroke-width: 0.5; stroke-linejoin: miter"/>
    </g>
    <g id="line2d_30">
     <path d="M 584.201563 43.918438 
L 594.201563 43.918438 
L 604.201563 43.918438 
" style="fill: none; stroke: #e24a33; stroke-width: 1.5; stroke-linecap: square"/>
    </g>
    <g id="text_18">
     <!-- Buffer Size in Network.node[7].lnk[0] -->
     <g transform="translate(612.201563 47.418438) scale(0.1 -0.1)">
      <use xlink:href="#DejaVuSans-42"/>
      <use xlink:href="#DejaVuSans-75" x="68.603516"/>
      <use xlink:href="#DejaVuSans-66" x="131.982422"/>
      <use xlink:href="#DejaVuSans-66" x="167.1875"/>
      <use xlink:href="#DejaVuSans-65" x="202.392578"/>
      <use xlink:href="#DejaVuSans-72" x="263.916016"/>
      <use xlink:href="#DejaVuSans-20" x="305.029297"/>
      <use xlink:href="#DejaVuSans-53" x="336.816406"/>
      <use xlink:href="#DejaVuSans-69" x="400.292969"/>
      <use xlink:href="#DejaVuSans-7a" x="428.076172"/>
      <use xlink:href="#DejaVuSans-65" x="480.566406"/>
      <use xlink:href="#DejaVuSans-20" x="542.089844"/>
      <use xlink:href="#DejaVuSans-69" x="573.876953"/>
      <use xlink:href="#DejaVuSans-6e" x="601.660156"/>
      <use xlink:href="#DejaVuSans-20" x="665.039062"/>
      <use xlink:href="#DejaVuSans-4e" x="696.826172"/>
      <use xlink:href="#DejaVuSans-65" x="771.630859"/>
      <use xlink:href="#DejaVuSans-74" x="833.154297"/>
      <use xlink:href="#DejaVuSans-77" x="872.363281"/>
      <use xlink:href="#DejaVuSans-6f" x="954.150391"/>
      <use xlink:href="#DejaVuSans-72" x="1015.332031"/>
      <use xlink:href="#DejaVuSans-6b" x="1056.445312"/>
      <use xlink:href="#DejaVuSans-2e" x="1114.355469"/>
      <use xlink:href="#DejaVuSans-6e" x="1146.142578"/>
      <use xlink:href="#DejaVuSans-6f" x="1209.521484"/>
      <use xlink:href="#DejaVuSans-64" x="1270.703125"/>
      <use xlink:href="#DejaVuSans-65" x="1334.179688"/>
      <use xlink:href="#DejaVuSans-5b" x="1395.703125"/>
      <use xlink:href="#DejaVuSans-37" x="1434.716797"/>
      <use xlink:href="#DejaVuSans-5d" x="1498.339844"/>
      <use xlink:href="#DejaVuSans-2e" x="1537.353516"/>
      <use xlink:href="#DejaVuSans-6c" x="1569.140625"/>
      <use xlink:href="#DejaVuSans-6e" x="1596.923828"/>
      <use xlink:href="#DejaVuSans-6b" x="1660.302734"/>
      <use xlink:href="#DejaVuSans-5b" x="1718.212891"/>
      <use xlink:href="#DejaVuSans-30" x="1757.226562"/>
      <use xlink:href="#DejaVuSans-5d" x="1820.849609"/>
     </g>
    </g>
   </g>
  </g>
 </g>
 <defs>
  <clipPath id="pdce14ef7ac">
   <rect x="96.414063" y="30.82" width="710.773438" height="305.028667"/>
  </clipPath>
 </defs>
</svg>
