<?xml version="1.0" encoding="utf-8" standalone="no"?>
<!DOCTYPE svg PUBLIC "-//W3C//DTD SVG 1.1//EN"
  "http://www.w3.org/Graphics/SVG/1.1/DTD/svg11.dtd">
<svg xmlns:xlink="http://www.w3.org/1999/xlink" width="826.56pt" height="385.92pt" viewBox="0 0 826.56 385.92" xmlns="http://www.w3.org/2000/svg" version="1.1">
 <metadata>
  <rdf:RDF xmlns:dc="http://purl.org/dc/elements/1.1/" xmlns:cc="http://creativecommons.org/ns#" xmlns:rdf="http://www.w3.org/1999/02/22-rdf-syntax-ns#">
   <cc:Work>
    <dc:type rdf:resource="http://purl.org/dc/dcmitype/StillImage"/>
    <dc:date>2025-06-03T22:41:01.467849</dc:date>
    <dc:format>image/svg+xml</dc:format>
    <dc:creator>
     <cc:Agent>
      <dc:title>Matplotlib v3.7.1, https://matplotlib.org/</dc:title>
     </cc:Agent>
    </dc:creator>
   </cc:Work>
  </rdf:RDF>
 </metadata>
 <defs>
  <style type="text/css">*{stroke-linejoin: round; stroke-linecap: butt}</style>
 </defs>
 <g id="figure_1">
  <g id="patch_1">
   <path d="M 0 385.92 
L 826.56 385.92 
L 826.56 0 
L 0 0 
z
" style="fill: #ffffff"/>
  </g>
  <g id="axes_1">
   <g id="patch_2">
    <path d="M 96.414063 335.848667 
L 807.1875 335.848667 
L 807.1875 30.82 
L 96.414063 30.82 
z
" style="fill: #e5e5e5"/>
   </g>
   <g id="matplotlib.axis_1">
    <g id="xtick_1">
     <g id="line2d_1">
      <path d="M 125.802465 335.848667 
L 125.802465 30.82 
" clip-path="url(#pb612870589)" style="fill: none; stroke: #ffffff; stroke-width: 0.8; stroke-linecap: square"/>
     </g>
     <g id="line2d_2">
      <defs>
       <path id="ma2e839ab2f" d="M 0 0 
L 0 3.5 
" style="stroke: #555555; stroke-width: 0.8"/>
      </defs>
      <g>
       <use xlink:href="#ma2e839ab2f" x="125.802465" y="335.848667" style="fill: #555555; stroke: #555555; stroke-width: 0.8"/>
      </g>
     </g>
     <g id="text_1">
      <!-- 0 -->
      <g style="fill: #555555" transform="translate(122.621215 350.447104) scale(0.1 -0.1)">
       <defs>
        <path id="DejaVuSans-30" d="M 2034 4250 
Q 1547 4250 1301 3770 
Q 1056 3291 1056 2328 
Q 1056 1369 1301 889 
Q 1547 409 2034 409 
Q 2525 409 2770 889 
Q 3016 1369 3016 2328 
Q 3016 3291 2770 3770 
Q 2525 4250 2034 4250 
z
M 2034 4750 
Q 2819 4750 3233 4129 
Q 3647 3509 3647 2328 
Q 3647 1150 3233 529 
Q 2819 -91 2034 -91 
Q 1250 -91 836 529 
Q 422 1150 422 2328 
Q 422 3509 836 4129 
Q 1250 4750 2034 4750 
z
" transform="scale(0.015625)"/>
       </defs>
       <use xlink:href="#DejaVuSans-30"/>
      </g>
     </g>
    </g>
    <g id="xtick_2">
     <g id="line2d_3">
      <path d="M 207.029086 335.848667 
L 207.029086 30.82 
" clip-path="url(#pb612870589)" style="fill: none; stroke: #ffffff; stroke-width: 0.8; stroke-linecap: square"/>
     </g>
     <g id="line2d_4">
      <g>
       <use xlink:href="#ma2e839ab2f" x="207.029086" y="335.848667" style="fill: #555555; stroke: #555555; stroke-width: 0.8"/>
      </g>
     </g>
     <g id="text_2">
      <!-- 25 -->
      <g style="fill: #555555" transform="translate(200.666586 350.447104) scale(0.1 -0.1)">
       <defs>
        <path id="DejaVuSans-32" d="M 1228 531 
L 3431 531 
L 3431 0 
L 469 0 
L 469 531 
Q 828 903 1448 1529 
Q 2069 2156 2228 2338 
Q 2531 2678 2651 2914 
Q 2772 3150 2772 3378 
Q 2772 3750 2511 3984 
Q 2250 4219 1831 4219 
Q 1534 4219 1204 4116 
Q 875 4013 500 3803 
L 500 4441 
Q 881 4594 1212 4672 
Q 1544 4750 1819 4750 
Q 2544 4750 2975 4387 
Q 3406 4025 3406 3419 
Q 3406 3131 3298 2873 
Q 3191 2616 2906 2266 
Q 2828 2175 2409 1742 
Q 1991 1309 1228 531 
z
" transform="scale(0.015625)"/>
        <path id="DejaVuSans-35" d="M 691 4666 
L 3169 4666 
L 3169 4134 
L 1269 4134 
L 1269 2991 
Q 1406 3038 1543 3061 
Q 1681 3084 1819 3084 
Q 2600 3084 3056 2656 
Q 3513 2228 3513 1497 
Q 3513 744 3044 326 
Q 2575 -91 1722 -91 
Q 1428 -91 1123 -41 
Q 819 9 494 109 
L 494 744 
Q 775 591 1075 516 
Q 1375 441 1709 441 
Q 2250 441 2565 725 
Q 2881 1009 2881 1497 
Q 2881 1984 2565 2268 
Q 2250 2553 1709 2553 
Q 1456 2553 1204 2497 
Q 953 2441 691 2322 
L 691 4666 
z
" transform="scale(0.015625)"/>
       </defs>
       <use xlink:href="#DejaVuSans-32"/>
       <use xlink:href="#DejaVuSans-35" x="63.623047"/>
      </g>
     </g>
    </g>
    <g id="xtick_3">
     <g id="line2d_5">
      <path d="M 288.255708 335.848667 
L 288.255708 30.82 
" clip-path="url(#pb612870589)" style="fill: none; stroke: #ffffff; stroke-width: 0.8; stroke-linecap: square"/>
     </g>
     <g id="line2d_6">
      <g>
       <use xlink:href="#ma2e839ab2f" x="288.255708" y="335.848667" style="fill: #555555; stroke: #555555; stroke-width: 0.8"/>
      </g>
     </g>
     <g id="text_3">
      <!-- 50 -->
      <g style="fill: #555555" transform="translate(281.893208 350.447104) scale(0.1 -0.1)">
       <use xlink:href="#DejaVuSans-35"/>
       <use xlink:href="#DejaVuSans-30" x="63.623047"/>
      </g>
     </g>
    </g>
    <g id="xtick_4">
     <g id="line2d_7">
      <path d="M 369.482329 335.848667 
L 369.482329 30.82 
" clip-path="url(#pb612870589)" style="fill: none; stroke: #ffffff; stroke-width: 0.8; stroke-linecap: square"/>
     </g>
     <g id="line2d_8">
      <g>
       <use xlink:href="#ma2e839ab2f" x="369.482329" y="335.848667" style="fill: #555555; stroke: #555555; stroke-width: 0.8"/>
      </g>
     </g>
     <g id="text_4">
      <!-- 75 -->
      <g style="fill: #555555" transform="translate(363.119829 350.447104) scale(0.1 -0.1)">
       <defs>
        <path id="DejaVuSans-37" d="M 525 4666 
L 3525 4666 
L 3525 4397 
L 1831 0 
L 1172 0 
L 2766 4134 
L 525 4134 
L 525 4666 
z
" transform="scale(0.015625)"/>
       </defs>
       <use xlink:href="#DejaVuSans-37"/>
       <use xlink:href="#DejaVuSans-35" x="63.623047"/>
      </g>
     </g>
    </g>
    <g id="xtick_5">
     <g id="line2d_9">
      <path d="M 450.70895 335.848667 
L 450.70895 30.82 
" clip-path="url(#pb612870589)" style="fill: none; stroke: #ffffff; stroke-width: 0.8; stroke-linecap: square"/>
     </g>
     <g id="line2d_10">
      <g>
       <use xlink:href="#ma2e839ab2f" x="450.70895" y="335.848667" style="fill: #555555; stroke: #555555; stroke-width: 0.8"/>
      </g>
     </g>
     <g id="text_5">
      <!-- 100 -->
      <g style="fill: #555555" transform="translate(441.1652 350.447104) scale(0.1 -0.1)">
       <defs>
        <path id="DejaVuSans-31" d="M 794 531 
L 1825 531 
L 1825 4091 
L 703 3866 
L 703 4441 
L 1819 4666 
L 2450 4666 
L 2450 531 
L 3481 531 
L 3481 0 
L 794 0 
L 794 531 
z
" transform="scale(0.015625)"/>
       </defs>
       <use xlink:href="#DejaVuSans-31"/>
       <use xlink:href="#DejaVuSans-30" x="63.623047"/>
       <use xlink:href="#DejaVuSans-30" x="127.246094"/>
      </g>
     </g>
    </g>
    <g id="xtick_6">
     <g id="line2d_11">
      <path d="M 531.935572 335.848667 
L 531.935572 30.82 
" clip-path="url(#pb612870589)" style="fill: none; stroke: #ffffff; stroke-width: 0.8; stroke-linecap: square"/>
     </g>
     <g id="line2d_12">
      <g>
       <use xlink:href="#ma2e839ab2f" x="531.935572" y="335.848667" style="fill: #555555; stroke: #555555; stroke-width: 0.8"/>
      </g>
     </g>
     <g id="text_6">
      <!-- 125 -->
      <g style="fill: #555555" transform="translate(522.391822 350.447104) scale(0.1 -0.1)">
       <use xlink:href="#DejaVuSans-31"/>
       <use xlink:href="#DejaVuSans-32" x="63.623047"/>
       <use xlink:href="#DejaVuSans-35" x="127.246094"/>
      </g>
     </g>
    </g>
    <g id="xtick_7">
     <g id="line2d_13">
      <path d="M 613.162193 335.848667 
L 613.162193 30.82 
" clip-path="url(#pb612870589)" style="fill: none; stroke: #ffffff; stroke-width: 0.8; stroke-linecap: square"/>
     </g>
     <g id="line2d_14">
      <g>
       <use xlink:href="#ma2e839ab2f" x="613.162193" y="335.848667" style="fill: #555555; stroke: #555555; stroke-width: 0.8"/>
      </g>
     </g>
     <g id="text_7">
      <!-- 150 -->
      <g style="fill: #555555" transform="translate(603.618443 350.447104) scale(0.1 -0.1)">
       <use xlink:href="#DejaVuSans-31"/>
       <use xlink:href="#DejaVuSans-35" x="63.623047"/>
       <use xlink:href="#DejaVuSans-30" x="127.246094"/>
      </g>
     </g>
    </g>
    <g id="xtick_8">
     <g id="line2d_15">
      <path d="M 694.388815 335.848667 
L 694.388815 30.82 
" clip-path="url(#pb612870589)" style="fill: none; stroke: #ffffff; stroke-width: 0.8; stroke-linecap: square"/>
     </g>
     <g id="line2d_16">
      <g>
       <use xlink:href="#ma2e839ab2f" x="694.388815" y="335.848667" style="fill: #555555; stroke: #555555; stroke-width: 0.8"/>
      </g>
     </g>
     <g id="text_8">
      <!-- 175 -->
      <g style="fill: #555555" transform="translate(684.845065 350.447104) scale(0.1 -0.1)">
       <use xlink:href="#DejaVuSans-31"/>
       <use xlink:href="#DejaVuSans-37" x="63.623047"/>
       <use xlink:href="#DejaVuSans-35" x="127.246094"/>
      </g>
     </g>
    </g>
    <g id="xtick_9">
     <g id="line2d_17">
      <path d="M 775.615436 335.848667 
L 775.615436 30.82 
" clip-path="url(#pb612870589)" style="fill: none; stroke: #ffffff; stroke-width: 0.8; stroke-linecap: square"/>
     </g>
     <g id="line2d_18">
      <g>
       <use xlink:href="#ma2e839ab2f" x="775.615436" y="335.848667" style="fill: #555555; stroke: #555555; stroke-width: 0.8"/>
      </g>
     </g>
     <g id="text_9">
      <!-- 200 -->
      <g style="fill: #555555" transform="translate(766.071686 350.447104) scale(0.1 -0.1)">
       <use xlink:href="#DejaVuSans-32"/>
       <use xlink:href="#DejaVuSans-30" x="63.623047"/>
       <use xlink:href="#DejaVuSans-30" x="127.246094"/>
      </g>
     </g>
    </g>
    <g id="text_10">
     <!-- Time -->
     <g style="fill: #555555" transform="translate(437.120469 365.644917) scale(0.12 -0.12)">
      <defs>
       <path id="DejaVuSans-54" d="M -19 4666 
L 3928 4666 
L 3928 4134 
L 2272 4134 
L 2272 0 
L 1638 0 
L 1638 4134 
L -19 4134 
L -19 4666 
z
" transform="scale(0.015625)"/>
       <path id="DejaVuSans-69" d="M 603 3500 
L 1178 3500 
L 1178 0 
L 603 0 
L 603 3500 
z
M 603 4863 
L 1178 4863 
L 1178 4134 
L 603 4134 
L 603 4863 
z
" transform="scale(0.015625)"/>
       <path id="DejaVuSans-6d" d="M 3328 2828 
Q 3544 3216 3844 3400 
Q 4144 3584 4550 3584 
Q 5097 3584 5394 3201 
Q 5691 2819 5691 2113 
L 5691 0 
L 5113 0 
L 5113 2094 
Q 5113 2597 4934 2840 
Q 4756 3084 4391 3084 
Q 3944 3084 3684 2787 
Q 3425 2491 3425 1978 
L 3425 0 
L 2847 0 
L 2847 2094 
Q 2847 2600 2669 2842 
Q 2491 3084 2119 3084 
Q 1678 3084 1418 2786 
Q 1159 2488 1159 1978 
L 1159 0 
L 581 0 
L 581 3500 
L 1159 3500 
L 1159 2956 
Q 1356 3278 1631 3431 
Q 1906 3584 2284 3584 
Q 2666 3584 2933 3390 
Q 3200 3197 3328 2828 
z
" transform="scale(0.015625)"/>
       <path id="DejaVuSans-65" d="M 3597 1894 
L 3597 1613 
L 953 1613 
Q 991 1019 1311 708 
Q 1631 397 2203 397 
Q 2534 397 2845 478 
Q 3156 559 3463 722 
L 3463 178 
Q 3153 47 2828 -22 
Q 2503 -91 2169 -91 
Q 1331 -91 842 396 
Q 353 884 353 1716 
Q 353 2575 817 3079 
Q 1281 3584 2069 3584 
Q 2775 3584 3186 3129 
Q 3597 2675 3597 1894 
z
M 3022 2063 
Q 3016 2534 2758 2815 
Q 2500 3097 2075 3097 
Q 1594 3097 1305 2825 
Q 1016 2553 972 2059 
L 3022 2063 
z
" transform="scale(0.015625)"/>
      </defs>
      <use xlink:href="#DejaVuSans-54"/>
      <use xlink:href="#DejaVuSans-69" x="57.958984"/>
      <use xlink:href="#DejaVuSans-6d" x="85.742188"/>
      <use xlink:href="#DejaVuSans-65" x="183.154297"/>
     </g>
    </g>
   </g>
   <g id="matplotlib.axis_2">
    <g id="ytick_1">
     <g id="line2d_19">
      <path d="M 96.414063 321.983727 
L 807.1875 321.983727 
" clip-path="url(#pb612870589)" style="fill: none; stroke: #ffffff; stroke-width: 0.8; stroke-linecap: square"/>
     </g>
     <g id="line2d_20">
      <defs>
       <path id="mc385f0f80f" d="M 0 0 
L -3.5 0 
" style="stroke: #555555; stroke-width: 0.8"/>
      </defs>
      <g>
       <use xlink:href="#mc385f0f80f" x="96.414063" y="321.983727" style="fill: #555555; stroke: #555555; stroke-width: 0.8"/>
      </g>
     </g>
     <g id="text_11">
      <!-- 0 -->
      <g style="fill: #555555" transform="translate(83.051563 325.782946) scale(0.1 -0.1)">
       <use xlink:href="#DejaVuSans-30"/>
      </g>
     </g>
    </g>
    <g id="ytick_2">
     <g id="line2d_21">
      <path d="M 96.414063 285.497045 
L 807.1875 285.497045 
" clip-path="url(#pb612870589)" style="fill: none; stroke: #ffffff; stroke-width: 0.8; stroke-linecap: square"/>
     </g>
     <g id="line2d_22">
      <g>
       <use xlink:href="#mc385f0f80f" x="96.414063" y="285.497045" style="fill: #555555; stroke: #555555; stroke-width: 0.8"/>
      </g>
     </g>
     <g id="text_12">
      <!-- 25 -->
      <g style="fill: #555555" transform="translate(76.689063 289.296263) scale(0.1 -0.1)">
       <use xlink:href="#DejaVuSans-32"/>
       <use xlink:href="#DejaVuSans-35" x="63.623047"/>
      </g>
     </g>
    </g>
    <g id="ytick_3">
     <g id="line2d_23">
      <path d="M 96.414063 249.010362 
L 807.1875 249.010362 
" clip-path="url(#pb612870589)" style="fill: none; stroke: #ffffff; stroke-width: 0.8; stroke-linecap: square"/>
     </g>
     <g id="line2d_24">
      <g>
       <use xlink:href="#mc385f0f80f" x="96.414063" y="249.010362" style="fill: #555555; stroke: #555555; stroke-width: 0.8"/>
      </g>
     </g>
     <g id="text_13">
      <!-- 50 -->
      <g style="fill: #555555" transform="translate(76.689063 252.809581) scale(0.1 -0.1)">
       <use xlink:href="#DejaVuSans-35"/>
       <use xlink:href="#DejaVuSans-30" x="63.623047"/>
      </g>
     </g>
    </g>
    <g id="ytick_4">
     <g id="line2d_25">
      <path d="M 96.414063 212.523679 
L 807.1875 212.523679 
" clip-path="url(#pb612870589)" style="fill: none; stroke: #ffffff; stroke-width: 0.8; stroke-linecap: square"/>
     </g>
     <g id="line2d_26">
      <g>
       <use xlink:href="#mc385f0f80f" x="96.414063" y="212.523679" style="fill: #555555; stroke: #555555; stroke-width: 0.8"/>
      </g>
     </g>
     <g id="text_14">
      <!-- 75 -->
      <g style="fill: #555555" transform="translate(76.689063 216.322898) scale(0.1 -0.1)">
       <use xlink:href="#DejaVuSans-37"/>
       <use xlink:href="#DejaVuSans-35" x="63.623047"/>
      </g>
     </g>
    </g>
    <g id="ytick_5">
     <g id="line2d_27">
      <path d="M 96.414063 176.036997 
L 807.1875 176.036997 
" clip-path="url(#pb612870589)" style="fill: none; stroke: #ffffff; stroke-width: 0.8; stroke-linecap: square"/>
     </g>
     <g id="line2d_28">
      <g>
       <use xlink:href="#mc385f0f80f" x="96.414063" y="176.036997" style="fill: #555555; stroke: #555555; stroke-width: 0.8"/>
      </g>
     </g>
     <g id="text_15">
      <!-- 100 -->
      <g style="fill: #555555" transform="translate(70.326563 179.836216) scale(0.1 -0.1)">
       <use xlink:href="#DejaVuSans-31"/>
       <use xlink:href="#DejaVuSans-30" x="63.623047"/>
       <use xlink:href="#DejaVuSans-30" x="127.246094"/>
      </g>
     </g>
    </g>
    <g id="ytick_6">
     <g id="line2d_29">
      <path d="M 96.414063 139.550314 
L 807.1875 139.550314 
" clip-path="url(#pb612870589)" style="fill: none; stroke: #ffffff; stroke-width: 0.8; stroke-linecap: square"/>
     </g>
     <g id="line2d_30">
      <g>
       <use xlink:href="#mc385f0f80f" x="96.414063" y="139.550314" style="fill: #555555; stroke: #555555; stroke-width: 0.8"/>
      </g>
     </g>
     <g id="text_16">
      <!-- 125 -->
      <g style="fill: #555555" transform="translate(70.326563 143.349533) scale(0.1 -0.1)">
       <use xlink:href="#DejaVuSans-31"/>
       <use xlink:href="#DejaVuSans-32" x="63.623047"/>
       <use xlink:href="#DejaVuSans-35" x="127.246094"/>
      </g>
     </g>
    </g>
    <g id="ytick_7">
     <g id="line2d_31">
      <path d="M 96.414063 103.063632 
L 807.1875 103.063632 
" clip-path="url(#pb612870589)" style="fill: none; stroke: #ffffff; stroke-width: 0.8; stroke-linecap: square"/>
     </g>
     <g id="line2d_32">
      <g>
       <use xlink:href="#mc385f0f80f" x="96.414063" y="103.063632" style="fill: #555555; stroke: #555555; stroke-width: 0.8"/>
      </g>
     </g>
     <g id="text_17">
      <!-- 150 -->
      <g style="fill: #555555" transform="translate(70.326563 106.86285) scale(0.1 -0.1)">
       <use xlink:href="#DejaVuSans-31"/>
       <use xlink:href="#DejaVuSans-35" x="63.623047"/>
       <use xlink:href="#DejaVuSans-30" x="127.246094"/>
      </g>
     </g>
    </g>
    <g id="ytick_8">
     <g id="line2d_33">
      <path d="M 96.414063 66.576949 
L 807.1875 66.576949 
" clip-path="url(#pb612870589)" style="fill: none; stroke: #ffffff; stroke-width: 0.8; stroke-linecap: square"/>
     </g>
     <g id="line2d_34">
      <g>
       <use xlink:href="#mc385f0f80f" x="96.414063" y="66.576949" style="fill: #555555; stroke: #555555; stroke-width: 0.8"/>
      </g>
     </g>
     <g id="text_18">
      <!-- 175 -->
      <g style="fill: #555555" transform="translate(70.326563 70.376168) scale(0.1 -0.1)">
       <use xlink:href="#DejaVuSans-31"/>
       <use xlink:href="#DejaVuSans-37" x="63.623047"/>
       <use xlink:href="#DejaVuSans-35" x="127.246094"/>
      </g>
     </g>
    </g>
    <g id="text_19">
     <!-- Buffer Size -->
     <g style="fill: #555555" transform="translate(63.830938 215.859958) rotate(-90) scale(0.12 -0.12)">
      <defs>
       <path id="DejaVuSans-42" d="M 1259 2228 
L 1259 519 
L 2272 519 
Q 2781 519 3026 730 
Q 3272 941 3272 1375 
Q 3272 1813 3026 2020 
Q 2781 2228 2272 2228 
L 1259 2228 
z
M 1259 4147 
L 1259 2741 
L 2194 2741 
Q 2656 2741 2882 2914 
Q 3109 3088 3109 3444 
Q 3109 3797 2882 3972 
Q 2656 4147 2194 4147 
L 1259 4147 
z
M 628 4666 
L 2241 4666 
Q 2963 4666 3353 4366 
Q 3744 4066 3744 3513 
Q 3744 3084 3544 2831 
Q 3344 2578 2956 2516 
Q 3422 2416 3680 2098 
Q 3938 1781 3938 1306 
Q 3938 681 3513 340 
Q 3088 0 2303 0 
L 628 0 
L 628 4666 
z
" transform="scale(0.015625)"/>
       <path id="DejaVuSans-75" d="M 544 1381 
L 544 3500 
L 1119 3500 
L 1119 1403 
Q 1119 906 1312 657 
Q 1506 409 1894 409 
Q 2359 409 2629 706 
Q 2900 1003 2900 1516 
L 2900 3500 
L 3475 3500 
L 3475 0 
L 2900 0 
L 2900 538 
Q 2691 219 2414 64 
Q 2138 -91 1772 -91 
Q 1169 -91 856 284 
Q 544 659 544 1381 
z
M 1991 3584 
L 1991 3584 
z
" transform="scale(0.015625)"/>
       <path id="DejaVuSans-66" d="M 2375 4863 
L 2375 4384 
L 1825 4384 
Q 1516 4384 1395 4259 
Q 1275 4134 1275 3809 
L 1275 3500 
L 2222 3500 
L 2222 3053 
L 1275 3053 
L 1275 0 
L 697 0 
L 697 3053 
L 147 3053 
L 147 3500 
L 697 3500 
L 697 3744 
Q 697 4328 969 4595 
Q 1241 4863 1831 4863 
L 2375 4863 
z
" transform="scale(0.015625)"/>
       <path id="DejaVuSans-72" d="M 2631 2963 
Q 2534 3019 2420 3045 
Q 2306 3072 2169 3072 
Q 1681 3072 1420 2755 
Q 1159 2438 1159 1844 
L 1159 0 
L 581 0 
L 581 3500 
L 1159 3500 
L 1159 2956 
Q 1341 3275 1631 3429 
Q 1922 3584 2338 3584 
Q 2397 3584 2469 3576 
Q 2541 3569 2628 3553 
L 2631 2963 
z
" transform="scale(0.015625)"/>
       <path id="DejaVuSans-20" transform="scale(0.015625)"/>
       <path id="DejaVuSans-53" d="M 3425 4513 
L 3425 3897 
Q 3066 4069 2747 4153 
Q 2428 4238 2131 4238 
Q 1616 4238 1336 4038 
Q 1056 3838 1056 3469 
Q 1056 3159 1242 3001 
Q 1428 2844 1947 2747 
L 2328 2669 
Q 3034 2534 3370 2195 
Q 3706 1856 3706 1288 
Q 3706 609 3251 259 
Q 2797 -91 1919 -91 
Q 1588 -91 1214 -16 
Q 841 59 441 206 
L 441 856 
Q 825 641 1194 531 
Q 1563 422 1919 422 
Q 2459 422 2753 634 
Q 3047 847 3047 1241 
Q 3047 1584 2836 1778 
Q 2625 1972 2144 2069 
L 1759 2144 
Q 1053 2284 737 2584 
Q 422 2884 422 3419 
Q 422 4038 858 4394 
Q 1294 4750 2059 4750 
Q 2388 4750 2728 4690 
Q 3069 4631 3425 4513 
z
" transform="scale(0.015625)"/>
       <path id="DejaVuSans-7a" d="M 353 3500 
L 3084 3500 
L 3084 2975 
L 922 459 
L 3084 459 
L 3084 0 
L 275 0 
L 275 525 
L 2438 3041 
L 353 3041 
L 353 3500 
z
" transform="scale(0.015625)"/>
      </defs>
      <use xlink:href="#DejaVuSans-42"/>
      <use xlink:href="#DejaVuSans-75" x="68.603516"/>
      <use xlink:href="#DejaVuSans-66" x="131.982422"/>
      <use xlink:href="#DejaVuSans-66" x="167.1875"/>
      <use xlink:href="#DejaVuSans-65" x="202.392578"/>
      <use xlink:href="#DejaVuSans-72" x="263.916016"/>
      <use xlink:href="#DejaVuSans-20" x="305.029297"/>
      <use xlink:href="#DejaVuSans-53" x="336.816406"/>
      <use xlink:href="#DejaVuSans-69" x="400.292969"/>
      <use xlink:href="#DejaVuSans-7a" x="428.076172"/>
      <use xlink:href="#DejaVuSans-65" x="480.566406"/>
     </g>
    </g>
   </g>
   <g id="line2d_35">
    <path d="M 128.721946 320.52426 
L 128.721946 321.983727 
L 131.721558 320.52426 
L 131.971011 321.983727 
L 138.062255 320.52426 
L 138.062255 321.983727 
L 138.343219 320.52426 
L 139.852647 319.064793 
L 141.31132 320.52426 
L 141.592284 319.064793 
L 143.027005 317.605325 
L 144.560385 319.064793 
L 144.603218 317.605325 
L 145.750655 316.145858 
L 145.94035 314.686391 
L 147.005763 313.226923 
L 147.80945 314.686391 
L 150.37881 313.226923 
L 151.058515 314.686391 
L 153.627875 313.226923 
L 154.307579 314.686391 
L 156.710715 313.226923 
L 157.556644 314.686391 
L 159.473084 313.226923 
L 160.805709 314.686391 
L 162.722149 311.767456 
L 164.054774 313.226923 
L 164.253647 311.767456 
L 165.971214 310.307989 
L 166.981019 308.848522 
L 167.303839 310.307989 
L 169.220279 308.848522 
L 170.552904 310.307989 
L 172.469343 308.848522 
L 172.856528 307.389054 
L 173.095937 305.929587 
L 173.801969 307.389054 
L 174.43318 305.929587 
L 174.729368 304.47012 
L 175.718408 303.010652 
L 177.051033 304.47012 
L 178.123382 303.010652 
L 178.967473 301.551185 
L 180.300098 303.010652 
L 182.216538 301.551185 
L 183.549163 303.010652 
L 185.465603 301.551185 
L 186.798228 303.010652 
L 188.358489 301.551185 
L 188.714668 300.091718 
L 190.047293 301.551185 
L 191.963733 300.091718 
L 193.296358 301.551185 
L 194.98948 300.091718 
L 195.212797 298.63225 
L 196.545423 300.091718 
L 197.074434 298.63225 
L 198.461862 297.172783 
L 199.794487 298.63225 
L 201.710927 297.172783 
L 202.289962 295.713316 
L 203.043552 297.172783 
L 206.292617 298.63225 
L 207.533959 297.172783 
L 209.541682 298.63225 
L 209.921906 297.172783 
L 212.790747 298.63225 
L 213.612646 297.172783 
L 213.681577 295.713316 
L 214.02162 294.253848 
L 216.039812 295.713316 
L 216.930642 294.253848 
L 218.164917 292.794381 
L 218.667644 291.334914 
L 219.288877 292.794381 
L 220.619843 291.334914 
L 221.172136 289.875447 
L 222.537941 291.334914 
L 223.938541 289.875447 
L 225.787006 291.334914 
L 225.790242 289.875447 
L 227.187606 288.415979 
L 228.187491 286.956512 
L 228.551211 285.497045 
L 229.036071 286.956512 
L 230.291299 285.497045 
L 231.289672 284.037577 
L 231.95964 282.57811 
L 232.285136 284.037577 
L 235.534201 285.497045 
L 236.176929 284.037577 
L 236.298085 282.57811 
L 238.277033 281.118643 
L 238.749051 279.659175 
L 238.783266 281.118643 
L 238.810681 279.659175 
L 240.08357 276.740241 
L 242.032331 278.199708 
L 243.097273 276.740241 
L 243.207159 275.280774 
L 244.02411 273.821306 
L 245.281395 275.280774 
L 245.611463 273.821306 
L 246.346338 272.361839 
L 248.53046 273.821306 
L 249.595403 272.361839 
L 251.779525 273.821306 
L 252.844468 272.361839 
L 254.961996 270.902372 
L 255.02859 272.361839 
L 256.093533 270.902372 
L 256.904112 269.442904 
L 258.277655 270.902372 
L 258.35163 269.442904 
L 260.218323 266.52397 
L 261.52672 267.983437 
L 262.591663 266.52397 
L 264.775785 267.983437 
L 265.840727 266.52397 
L 267.776789 265.064502 
L 268.024849 266.52397 
L 269.089792 265.064502 
L 271.273914 266.52397 
L 271.347227 265.064502 
L 272.338857 263.605035 
L 274.522979 265.064502 
L 274.787447 263.605035 
L 275.587922 262.145568 
L 277.772044 263.605035 
L 278.39585 262.145568 
L 278.836987 260.6861 
L 278.844315 259.226633 
L 281.021109 260.6861 
L 283.357404 259.226633 
L 283.514371 257.767166 
L 284.270174 259.226633 
L 284.826313 257.767166 
L 286.763436 256.307699 
L 287.519239 257.767166 
L 287.569914 256.307699 
L 290.0125 254.848231 
L 290.768303 256.307699 
L 293.261565 254.848231 
L 294.017368 256.307699 
L 296.51063 254.848231 
L 297.266433 256.307699 
L 299.759695 254.848231 
L 300.515498 256.307699 
L 302.042863 254.848231 
L 302.804124 253.388764 
L 303.00876 251.929297 
L 303.764563 253.388764 
L 306.079244 251.929297 
L 306.257825 250.469829 
L 307.013628 251.929297 
L 309.50689 250.469829 
L 309.519168 249.010362 
L 310.262692 250.469829 
L 312.352079 249.010362 
L 312.755954 247.550895 
L 313.301067 246.091427 
L 313.511757 247.550895 
L 315.039527 246.091427 
L 316.005019 244.63196 
L 316.760822 246.091427 
L 317.07975 244.63196 
L 319.171436 243.172493 
L 319.254084 241.713026 
L 320.009887 243.172493 
L 320.082074 241.713026 
L 322.503149 240.253558 
L 323.255969 238.794091 
L 323.258952 240.253558 
L 324.596212 238.794091 
L 325.752214 237.334624 
L 326.508017 238.794091 
L 328.066448 237.334624 
L 328.549624 235.875156 
L 329.300106 234.415689 
L 329.757082 235.875156 
L 332.549171 234.415689 
L 333.006146 235.875156 
L 333.44478 234.415689 
L 334.939395 232.956222 
L 335.798236 231.496754 
L 336.255211 232.956222 
L 338.468755 231.496754 
L 339.047301 230.037287 
L 339.504276 231.496754 
L 342.296366 230.037287 
L 342.753341 231.496754 
L 344.058224 230.037287 
L 345.545431 228.57782 
L 346.002406 230.037287 
L 347.696573 228.57782 
L 348.024842 227.118352 
L 348.794495 225.658885 
L 349.251471 227.118352 
L 352.04356 225.658885 
L 352.500536 227.118352 
L 355.292625 225.658885 
L 355.7496 227.118352 
L 358.54169 225.658885 
L 358.998665 227.118352 
L 359.635662 225.658885 
L 361.790755 224.199418 
L 362.24773 225.658885 
L 365.496795 227.118352 
L 366.475988 225.658885 
L 366.662247 224.199418 
L 367.18628 222.739951 
L 368.74586 224.199418 
L 369.678934 222.739951 
L 370.435344 221.280483 
L 371.6282 219.821016 
L 371.994925 221.280483 
L 373.684409 219.821016 
L 375.24399 221.280483 
L 375.99574 219.821016 
L 376.191225 216.902081 
L 378.085034 215.442614 
L 378.493054 216.902081 
L 381.742119 218.361549 
L 383.778758 216.902081 
L 384.991184 218.361549 
L 387.027823 216.902081 
L 388.240249 218.361549 
L 390.276888 216.902081 
L 390.728998 215.442614 
L 391.489314 216.902081 
L 393.525953 213.983147 
L 394.738379 215.442614 
L 396.775018 213.983147 
L 397.987444 215.442614 
L 400.024082 213.983147 
L 400.602244 212.523679 
L 401.236508 213.983147 
L 403.273147 212.523679 
L 403.308206 211.064212 
L 404.485573 212.523679 
L 406.522212 211.064212 
L 407.734638 212.523679 
L 409.771277 211.064212 
L 409.816865 209.604745 
L 410.137386 208.145278 
L 410.983703 209.604745 
L 413.020342 208.145278 
L 414.232768 209.604745 
L 416.269407 208.145278 
L 417.481833 209.604745 
L 418.391 208.145278 
L 418.672923 206.68581 
L 419.518472 205.226343 
L 420.730898 206.68581 
L 422.767536 205.226343 
L 423.979962 206.68581 
L 426.016601 205.226343 
L 427.229027 206.68581 
L 427.280527 205.226343 
L 427.73972 203.766876 
L 429.265666 202.307408 
L 430.478092 203.766876 
L 431.124533 202.307408 
L 432.514731 200.847941 
L 433.727157 202.307408 
L 435.21814 200.847941 
L 436.328196 197.929006 
L 436.976222 199.388474 
L 437.327341 197.929006 
L 437.984791 196.469539 
L 439.012861 195.010072 
L 440.225287 196.469539 
L 440.854134 195.010072 
L 440.920131 193.550604 
L 441.505782 192.091137 
L 442.261926 190.63167 
L 443.474352 192.091137 
L 445.51099 190.63167 
L 446.723416 192.091137 
L 447.242789 190.63167 
L 448.760055 189.172203 
L 449.972481 190.63167 
L 449.982021 189.172203 
L 452.00912 187.712735 
L 453.221546 189.172203 
L 455.258185 186.253268 
L 456.144399 184.793801 
L 456.470611 186.253268 
L 457.0737 184.793801 
L 458.50725 183.334333 
L 459.719676 184.793801 
L 461.658209 183.334333 
L 461.756315 181.874866 
L 462.968741 183.334333 
L 464.447184 181.874866 
L 465.00538 180.415399 
L 466.085829 178.955931 
L 466.217806 180.415399 
L 468.254444 178.955931 
L 469.46687 180.415399 
L 471.503509 178.955931 
L 472.715935 180.415399 
L 474.260976 177.496464 
L 474.752574 176.036997 
L 475.965 177.496464 
L 478.001639 176.036997 
L 479.214065 177.496464 
L 481.250704 176.036997 
L 482.46313 177.496464 
L 484.178037 176.036997 
L 484.499769 174.57753 
L 485.712195 176.036997 
L 486.103511 174.57753 
L 487.748833 173.118062 
L 488.961259 174.57753 
L 490.997898 173.118062 
L 492.190503 171.658595 
L 492.210324 173.118062 
L 494.246963 171.658595 
L 495.459389 173.118062 
L 496.096654 171.658595 
L 496.498 170.199128 
L 497.496028 168.73966 
L 497.644986 167.280193 
L 498.708454 168.73966 
L 500.745093 167.280193 
L 501.957519 168.73966 
L 502.378284 167.280193 
L 503.994158 165.820726 
L 504.102635 164.361258 
L 505.206584 165.820726 
L 505.743474 164.361258 
L 507.243223 162.901791 
L 508.455649 164.361258 
L 510.492287 162.901791 
L 511.704713 164.361258 
L 513.741352 161.442324 
L 514.953778 162.901791 
L 516.990417 161.442324 
L 518.202843 162.901791 
L 519.598558 161.442324 
L 520.239482 159.982856 
L 521.451908 161.442324 
L 523.43045 159.982856 
L 523.488547 158.523389 
L 524.700973 159.982856 
L 526.315169 158.523389 
L 526.737612 157.063922 
L 527.950038 158.523389 
L 529.817125 157.063922 
L 529.986677 155.604455 
L 531.199103 157.063922 
L 532.292483 155.604455 
L 533.143924 154.144987 
L 533.235741 152.68552 
L 534.448167 154.144987 
L 536.484806 152.68552 
L 536.499548 151.226053 
L 537.697232 152.68552 
L 538.131588 151.226053 
L 539.733871 149.766585 
L 539.92311 148.307118 
L 540.946297 149.766585 
L 542.982936 148.307118 
L 543.056682 146.847651 
L 544.195362 148.307118 
L 545.14942 146.847651 
L 546.315598 145.388183 
L 547.041295 143.928716 
L 547.444427 145.388183 
L 549.822379 143.928716 
L 550.29036 142.469249 
L 550.693492 143.928716 
L 550.935507 142.469249 
L 553.539425 141.009781 
L 553.942557 142.469249 
L 554.062326 141.009781 
L 555.881676 139.550314 
L 556.788489 138.090847 
L 557.191621 139.550314 
L 560.037554 138.090847 
L 560.440686 139.550314 
L 562.72891 138.090847 
L 563.286619 136.63138 
L 563.689751 138.090847 
L 565.632694 136.63138 
L 566.535684 135.171912 
L 566.938816 136.63138 
L 569.784749 133.712445 
L 570.187881 135.171912 
L 573.033814 133.712445 
L 573.436946 135.171912 
L 576.282879 133.712445 
L 576.686011 135.171912 
L 579.531943 133.712445 
L 579.690147 132.252978 
L 579.935075 133.712445 
L 580.184959 132.252978 
L 581.673593 130.79351 
L 582.006039 129.334043 
L 582.781008 127.874576 
L 583.18414 129.334043 
L 583.866004 127.874576 
L 586.030073 126.415108 
L 586.433205 127.874576 
L 589.279138 126.415108 
L 589.68227 127.874576 
L 592.528203 126.415108 
L 592.931335 127.874576 
L 595.777268 126.415108 
L 596.1804 127.874576 
L 597.310016 126.415108 
L 599.026332 124.955641 
L 599.429465 126.415108 
L 599.812046 124.955641 
L 601.742229 123.496174 
L 602.085371 122.036707 
L 602.275397 120.577239 
L 602.678529 122.036707 
L 605.524462 120.577239 
L 605.927594 122.036707 
L 608.773527 120.577239 
L 609.176659 122.036707 
L 610.270682 120.577239 
L 612.022592 119.117772 
L 612.425724 120.577239 
L 615.271657 119.117772 
L 615.674789 120.577239 
L 616.77402 117.658305 
L 618.520722 116.198837 
L 618.923854 117.658305 
L 621.769786 116.198837 
L 622.172919 117.658305 
L 624.409898 116.198837 
L 625.018851 114.73937 
L 625.421983 116.198837 
L 628.267916 114.73937 
L 628.671048 116.198837 
L 630.992207 114.73937 
L 631.116591 113.279903 
L 631.516981 111.820435 
L 631.692733 110.360968 
L 631.920113 111.820435 
L 634.766046 110.360968 
L 634.79873 108.901501 
L 635.169178 110.360968 
L 638.015111 108.901501 
L 638.418243 110.360968 
L 639.704245 108.901501 
L 641.264176 107.442033 
L 641.667308 108.901501 
L 644.51324 107.442033 
L 644.916372 108.901501 
L 646.208828 107.442033 
L 647.762305 105.982566 
L 647.930842 104.523099 
L 648.165437 105.982566 
L 648.420772 104.523099 
L 650.119611 103.063632 
L 651.01137 101.604164 
L 651.414502 103.063632 
L 654.003668 101.604164 
L 654.260435 100.144697 
L 654.663567 101.604164 
L 655.521867 100.144697 
L 657.485274 98.68523 
L 657.5095 97.225762 
L 657.912632 98.68523 
L 659.25555 97.225762 
L 660.758565 95.766295 
L 661.161697 97.225762 
L 663.415439 95.766295 
L 664.00763 94.306828 
L 664.410762 95.766295 
L 664.893477 94.306828 
L 667.256694 92.84736 
L 667.659826 94.306828 
L 670.505759 92.84736 
L 670.908891 94.306828 
L 673.754824 92.84736 
L 674.157956 94.306828 
L 676.947379 92.84736 
L 677.003889 91.387893 
L 677.407021 92.84736 
L 678.397284 91.387893 
L 680.252954 89.928426 
L 680.656086 91.387893 
L 683.502019 89.928426 
L 683.905151 91.387893 
L 686.751084 89.928426 
L 687.154216 91.387893 
L 688.381357 88.468959 
L 689.72846 87.009491 
L 690.000148 85.550024 
L 690.40328 87.009491 
L 692.120198 85.550024 
L 692.301723 84.090557 
L 693.026717 82.631089 
L 693.249213 81.171622 
L 693.652345 82.631089 
L 693.669478 81.171622 
L 696.498278 79.712155 
L 696.90141 81.171622 
L 698.797843 79.712155 
L 699.747343 78.252687 
L 700.150475 79.712155 
L 700.174333 78.252687 
L 702.996408 76.79322 
L 703.39954 78.252687 
L 706.245473 76.79322 
L 706.648605 78.252687 
L 709.494538 76.79322 
L 709.546404 75.333753 
L 709.89767 76.79322 
L 712.591229 75.333753 
L 712.743602 73.874285 
L 713.146734 75.333753 
L 715.541263 73.874285 
L 715.646392 72.414818 
L 715.992667 70.955351 
L 716.395799 72.414818 
L 719.241732 70.955351 
L 719.644864 72.414818 
L 720.620162 70.955351 
L 720.788083 69.495884 
L 722.490797 68.036416 
L 722.893929 69.495884 
L 723.58528 68.036416 
L 724.467947 66.576949 
L 725.739862 65.117482 
L 726.142994 66.576949 
L 728.988927 65.117482 
L 729.392059 66.576949 
L 732.237992 65.117482 
L 732.641124 66.576949 
L 735.487056 65.117482 
L 735.890188 66.576949 
L 738.736121 65.117482 
L 739.139253 66.576949 
L 740.320566 65.117482 
L 741.985186 63.658014 
L 742.388318 65.117482 
L 742.812858 63.658014 
L 745.234251 62.198547 
L 745.637383 63.658014 
L 748.483316 62.198547 
L 748.886448 63.658014 
L 749.301799 62.198547 
L 751.732381 60.73908 
L 752.135513 62.198547 
L 753.557376 60.73908 
L 754.772158 59.279612 
L 754.981445 57.820145 
L 755.384578 59.279612 
L 757.397338 57.820145 
L 758.23051 56.360678 
L 758.633642 57.820145 
L 759.047424 56.360678 
L 761.405843 51.982276 
L 761.479575 50.522809 
L 761.882707 51.982276 
L 762.207904 50.522809 
L 764.72864 49.063341 
L 764.946797 47.603874 
L 765.131772 49.063341 
L 767.977705 47.603874 
L 768.380837 49.063341 
L 769.317918 47.603874 
L 771.22677 46.144407 
L 771.272812 44.684939 
L 771.629902 46.144407 
L 774.878967 47.603874 
L 774.878967 47.603874 
" clip-path="url(#pb612870589)" style="fill: none; stroke: #e24a33; stroke-width: 1.5; stroke-linecap: square"/>
   </g>
   <g id="line2d_36">
    <path d="M 135.093829 320.52426 
L 135.093829 321.983727 
L 138.342894 320.52426 
L 138.342894 321.983727 
L 143.756373 320.52426 
L 143.756373 321.983727 
L 147.12942 320.52426 
L 147.12942 321.983727 
L 150.378485 320.52426 
L 150.378485 321.983727 
L 156.223694 320.52426 
L 156.223694 321.983727 
L 159.472759 320.52426 
L 159.472759 321.983727 
L 162.721824 320.52426 
L 162.721824 321.983727 
L 165.970889 320.52426 
L 165.970889 321.983727 
L 169.219954 320.52426 
L 169.219954 321.983727 
L 172.469019 320.52426 
L 172.469019 321.983727 
L 175.718083 320.52426 
L 175.718083 321.983727 
L 178.967148 320.52426 
L 178.967148 321.983727 
L 182.216213 320.52426 
L 182.216213 321.983727 
L 185.465278 320.52426 
L 185.465278 321.983727 
L 188.714343 320.52426 
L 188.714343 321.983727 
L 191.963408 320.52426 
L 191.963408 321.983727 
L 195.212473 320.52426 
L 195.212473 321.983727 
L 198.461537 320.52426 
L 198.461537 321.983727 
L 210.432188 320.52426 
L 210.432188 321.983727 
L 213.681252 320.52426 
L 213.681252 321.983727 
L 217.370453 320.52426 
L 217.370453 321.983727 
L 220.689152 320.52426 
L 220.689152 321.983727 
L 223.938216 320.52426 
L 223.938216 321.983727 
L 232.92754 320.52426 
L 232.92754 321.983727 
L 236.176604 320.52426 
L 236.176604 321.983727 
L 239.847884 320.52426 
L 239.847884 321.983727 
L 243.096949 320.52426 
L 243.096949 321.983727 
L 246.346013 320.52426 
L 246.346013 321.983727 
L 249.595078 320.52426 
L 249.595078 321.983727 
L 252.844143 320.52426 
L 252.844143 321.983727 
L 256.093208 320.52426 
L 256.093208 321.983727 
L 259.342273 320.52426 
L 259.342273 321.983727 
L 262.591338 320.52426 
L 262.591338 321.983727 
L 265.840403 320.52426 
L 265.840403 321.983727 
L 269.089467 320.52426 
L 269.089467 321.983727 
L 272.338532 320.52426 
L 272.338532 321.983727 
L 275.587597 320.52426 
L 275.587597 321.983727 
L 280.264981 320.52426 
L 280.264981 321.983727 
L 283.514046 320.52426 
L 283.514046 321.983727 
L 286.763111 320.52426 
L 286.763111 321.983727 
L 290.012176 320.52426 
L 290.012176 321.983727 
L 293.26124 320.52426 
L 293.26124 321.983727 
L 296.510305 320.52426 
L 296.510305 321.983727 
L 299.75937 320.52426 
L 299.75937 321.983727 
L 303.008435 320.52426 
L 303.008435 321.983727 
L 306.2575 320.52426 
L 306.2575 321.983727 
L 309.506565 320.52426 
L 309.506565 321.983727 
L 312.75563 320.52426 
L 312.75563 321.983727 
L 316.004694 320.52426 
L 316.004694 321.983727 
L 319.253759 320.52426 
L 319.253759 321.983727 
L 322.502824 320.52426 
L 322.502824 321.983727 
L 326.050717 320.52426 
L 326.050717 321.983727 
L 329.299781 320.52426 
L 329.299781 321.983727 
L 332.548846 320.52426 
L 332.548846 321.983727 
L 335.797911 320.52426 
L 335.797911 321.983727 
L 339.046976 320.52426 
L 339.046976 321.983727 
L 342.296041 320.52426 
L 342.296041 321.983727 
L 345.545106 320.52426 
L 345.545106 321.983727 
L 348.79417 320.52426 
L 348.79417 321.983727 
L 352.043235 320.52426 
L 352.043235 321.983727 
L 355.2923 320.52426 
L 355.2923 321.983727 
L 358.541365 320.52426 
L 358.541365 321.983727 
L 363.93689 320.52426 
L 363.93689 321.983727 
L 367.185955 320.52426 
L 367.185955 321.983727 
L 370.435019 320.52426 
L 370.435019 321.983727 
L 380.529368 320.52426 
L 380.529368 321.983727 
L 383.778433 320.52426 
L 383.778433 321.983727 
L 387.027498 320.52426 
L 387.027498 321.983727 
L 390.276563 320.52426 
L 390.276563 321.983727 
L 393.525628 320.52426 
L 393.525628 321.983727 
L 396.774693 320.52426 
L 396.774693 321.983727 
L 400.023758 320.52426 
L 400.023758 321.983727 
L 403.272822 320.52426 
L 403.272822 321.983727 
L 406.521887 320.52426 
L 406.521887 321.983727 
L 409.770952 320.52426 
L 409.770952 321.983727 
L 413.020017 320.52426 
L 413.020017 321.983727 
L 416.269082 320.52426 
L 416.269082 321.983727 
L 419.518147 320.52426 
L 419.518147 321.983727 
L 422.767211 320.52426 
L 422.767211 321.983727 
L 426.016276 320.52426 
L 426.016276 321.983727 
L 429.265341 320.52426 
L 429.265341 321.983727 
L 432.514406 320.52426 
L 432.514406 321.983727 
L 435.763471 320.52426 
L 435.763471 321.983727 
L 439.012536 320.52426 
L 439.012536 321.983727 
L 442.261601 320.52426 
L 442.261601 321.983727 
L 445.510665 320.52426 
L 445.510665 321.983727 
L 448.75973 320.52426 
L 448.75973 321.983727 
L 452.008795 320.52426 
L 452.008795 321.983727 
L 455.25786 320.52426 
L 455.25786 321.983727 
L 458.506925 320.52426 
L 458.506925 321.983727 
L 461.75599 320.52426 
L 461.75599 321.983727 
L 465.005055 320.52426 
L 465.005055 321.983727 
L 468.254119 320.52426 
L 468.254119 321.983727 
L 471.503184 320.52426 
L 471.503184 321.983727 
L 474.752249 320.52426 
L 474.752249 321.983727 
L 478.001314 320.52426 
L 478.001314 321.983727 
L 481.250379 320.52426 
L 481.250379 321.983727 
L 484.499444 320.52426 
L 484.499444 321.983727 
L 487.748509 320.52426 
L 487.748509 321.983727 
L 490.997573 320.52426 
L 490.997573 321.983727 
L 494.246638 320.52426 
L 494.246638 321.983727 
L 497.495703 320.52426 
L 497.495703 321.983727 
L 500.744768 320.52426 
L 500.744768 321.983727 
L 503.993833 320.52426 
L 503.993833 321.983727 
L 507.242898 320.52426 
L 507.242898 321.983727 
L 510.491963 320.52426 
L 510.491963 321.983727 
L 513.741027 320.52426 
L 513.741027 321.983727 
L 516.990092 320.52426 
L 516.990092 321.983727 
L 520.239157 320.52426 
L 520.239157 321.983727 
L 523.488222 320.52426 
L 523.488222 321.983727 
L 526.737287 320.52426 
L 526.737287 321.983727 
L 529.986352 320.52426 
L 529.986352 321.983727 
L 533.235417 320.52426 
L 533.235417 321.983727 
L 536.484481 320.52426 
L 536.484481 321.983727 
L 539.733546 320.52426 
L 539.733546 321.983727 
L 543.791905 320.52426 
L 543.791905 321.983727 
L 547.04097 320.52426 
L 547.04097 321.983727 
L 550.290035 320.52426 
L 550.290035 321.983727 
L 553.5391 320.52426 
L 553.5391 321.983727 
L 556.788164 320.52426 
L 556.788164 321.983727 
L 560.037229 320.52426 
L 560.037229 321.983727 
L 563.286294 320.52426 
L 563.286294 321.983727 
L 566.535359 320.52426 
L 566.535359 321.983727 
L 569.784424 320.52426 
L 569.784424 321.983727 
L 573.033489 320.52426 
L 573.033489 321.983727 
L 576.282554 320.52426 
L 576.282554 321.983727 
L 579.531618 320.52426 
L 579.531618 321.983727 
L 582.780683 320.52426 
L 582.780683 321.983727 
L 586.029748 320.52426 
L 586.029748 321.983727 
L 589.278813 320.52426 
L 589.278813 321.983727 
L 592.527878 320.52426 
L 592.527878 321.983727 
L 595.776943 320.52426 
L 595.776943 321.983727 
L 599.026008 320.52426 
L 599.026008 321.983727 
L 602.275072 320.52426 
L 602.275072 321.983727 
L 605.524137 320.52426 
L 605.524137 321.983727 
L 608.773202 320.52426 
L 608.773202 321.983727 
L 612.022267 320.52426 
L 612.022267 321.983727 
L 615.271332 320.52426 
L 615.271332 321.983727 
L 618.520397 320.52426 
L 618.520397 321.983727 
L 621.769462 320.52426 
L 621.769462 321.983727 
L 625.018526 320.52426 
L 625.018526 321.983727 
L 628.267591 320.52426 
L 628.267591 321.983727 
L 631.516656 320.52426 
L 631.516656 321.983727 
L 634.765721 320.52426 
L 634.765721 321.983727 
L 638.014786 320.52426 
L 638.014786 321.983727 
L 641.263851 320.52426 
L 641.263851 321.983727 
L 644.512916 320.52426 
L 644.512916 321.983727 
L 647.76198 320.52426 
L 647.76198 321.983727 
L 651.011045 320.52426 
L 651.011045 321.983727 
L 654.26011 320.52426 
L 654.26011 321.983727 
L 657.509175 320.52426 
L 657.509175 321.983727 
L 660.75824 320.52426 
L 660.75824 321.983727 
L 664.007305 320.52426 
L 664.007305 321.983727 
L 667.25637 320.52426 
L 667.25637 321.983727 
L 670.505434 320.52426 
L 670.505434 321.983727 
L 673.754499 320.52426 
L 673.754499 321.983727 
L 677.003564 320.52426 
L 677.003564 321.983727 
L 680.252629 320.52426 
L 680.252629 321.983727 
L 683.501694 320.52426 
L 683.501694 321.983727 
L 686.750759 320.52426 
L 686.750759 321.983727 
L 689.999824 320.52426 
L 689.999824 321.983727 
L 693.248888 320.52426 
L 693.248888 321.983727 
L 696.497953 320.52426 
L 696.497953 321.983727 
L 699.747018 320.52426 
L 699.747018 321.983727 
L 702.996083 320.52426 
L 702.996083 321.983727 
L 706.245148 320.52426 
L 706.245148 321.983727 
L 709.494213 320.52426 
L 709.494213 321.983727 
L 712.743277 320.52426 
L 712.743277 321.983727 
L 715.992342 320.52426 
L 715.992342 321.983727 
L 719.241407 320.52426 
L 719.241407 321.983727 
L 722.490472 320.52426 
L 722.490472 321.983727 
L 725.739537 320.52426 
L 725.739537 321.983727 
L 728.988602 320.52426 
L 728.988602 321.983727 
L 732.237667 320.52426 
L 732.237667 321.983727 
L 735.486731 320.52426 
L 735.486731 321.983727 
L 738.735796 320.52426 
L 738.735796 321.983727 
L 741.984861 320.52426 
L 741.984861 321.983727 
L 745.233926 320.52426 
L 745.233926 321.983727 
L 748.482991 320.52426 
L 748.482991 321.983727 
L 751.732056 320.52426 
L 751.732056 321.983727 
L 754.981121 320.52426 
L 754.981121 321.983727 
L 758.230185 320.52426 
L 758.230185 321.983727 
L 761.47925 320.52426 
L 761.47925 321.983727 
L 764.728315 320.52426 
L 764.728315 321.983727 
L 767.97738 320.52426 
L 767.97738 321.983727 
L 774.474966 320.52426 
L 774.474966 321.983727 
L 774.474966 321.983727 
" clip-path="url(#pb612870589)" style="fill: none; stroke: #348abd; stroke-width: 1.5; stroke-linecap: square"/>
   </g>
   <g id="line2d_37">
    <path d="M 131.84444 320.52426 
L 131.84444 321.983727 
L 134.402107 320.52426 
L 135.093505 321.983727 
L 140.506983 320.52426 
L 140.506983 321.983727 
L 143.88003 320.52426 
L 143.88003 321.983727 
L 145.749929 320.52426 
L 147.129095 321.983727 
L 152.974305 320.52426 
L 152.974305 321.983727 
L 154.008664 320.52426 
L 155.579919 319.064793 
L 156.223369 320.52426 
L 157.690012 319.064793 
L 159.472434 320.52426 
L 162.721499 321.983727 
L 163.123135 320.52426 
L 165.247642 319.064793 
L 165.970564 320.52426 
L 166.868509 319.064793 
L 169.219629 320.52426 
L 172.468694 321.983727 
L 175.310405 320.52426 
L 175.376769 319.064793 
L 175.717758 320.52426 
L 176.868896 319.064793 
L 178.966823 320.52426 
L 182.215888 321.983727 
L 182.67656 320.52426 
L 185.464953 321.983727 
L 187.56895 320.52426 
L 188.060309 319.064793 
L 188.714018 320.52426 
L 191.963083 321.983727 
L 194.689423 320.52426 
L 195.212148 321.983727 
L 207.182798 320.52426 
L 207.182798 321.983727 
L 209.19374 320.52426 
L 210.431863 321.983727 
L 214.121063 320.52426 
L 214.121063 321.983727 
L 217.439762 320.52426 
L 217.439762 321.983727 
L 220.27399 320.52426 
L 220.688827 321.983727 
L 229.67815 320.52426 
L 229.67815 321.983727 
L 231.763058 320.52426 
L 232.927215 321.983727 
L 236.598494 320.52426 
L 236.598494 321.983727 
L 237.391423 320.52426 
L 239.847559 321.983727 
L 240.121725 320.52426 
L 240.648517 319.064793 
L 243.096624 320.52426 
L 243.725371 319.064793 
L 246.345689 320.52426 
L 246.843005 319.064793 
L 249.594753 320.52426 
L 252.843818 321.983727 
L 254.409795 320.52426 
L 256.092883 321.983727 
L 258.130426 320.52426 
L 259.341948 321.983727 
L 261.215395 320.52426 
L 262.591013 321.983727 
L 265.101627 320.52426 
L 265.441353 319.064793 
L 265.64317 317.605325 
L 265.840078 319.064793 
L 272.338207 321.983727 
L 277.015591 320.52426 
L 277.015591 321.983727 
L 277.624551 320.52426 
L 278.392002 319.064793 
L 279.83265 317.605325 
L 280.264656 319.064793 
L 281.063922 317.605325 
L 283.513721 319.064793 
L 284.105247 317.605325 
L 285.382495 316.145858 
L 285.509804 314.686391 
L 286.762786 316.145858 
L 287.385568 314.686391 
L 290.011851 316.145858 
L 290.653708 314.686391 
L 293.260915 316.145858 
L 299.759045 319.064793 
L 301.027798 317.605325 
L 301.377512 316.145858 
L 303.00811 317.605325 
L 304.814459 316.145858 
L 305.386013 314.686391 
L 306.257175 316.145858 
L 319.253434 321.983727 
L 322.801327 320.52426 
L 322.801327 321.983727 
L 323.363829 320.52426 
L 323.743825 319.064793 
L 326.050392 320.52426 
L 328.632771 317.605325 
L 329.299456 319.064793 
L 329.343928 317.605325 
L 339.046651 321.983727 
L 339.093899 319.064793 
L 339.425775 317.605325 
L 342.295716 319.064793 
L 342.593944 317.605325 
L 345.544781 319.064793 
L 348.506654 317.605325 
L 348.793846 319.064793 
L 355.291975 321.983727 
L 360.6875 320.52426 
L 360.6875 321.983727 
L 362.742003 320.52426 
L 363.936565 321.983727 
L 365.057233 320.52426 
L 367.18563 321.983727 
L 377.279979 320.52426 
L 377.279979 321.983727 
L 378.360001 320.52426 
L 378.776066 319.064793 
L 380.223263 317.605325 
L 380.529043 319.064793 
L 381.364256 317.605325 
L 383.494494 316.145858 
L 383.778108 317.605325 
L 383.905139 316.145858 
L 387.027173 317.605325 
L 387.696386 316.145858 
L 388.939807 314.686391 
L 390.276238 316.145858 
L 393.525303 317.605325 
L 395.841591 316.145858 
L 396.056996 314.686391 
L 396.774368 316.145858 
L 396.851052 314.686391 
L 400.023433 316.145858 
L 400.682315 314.686391 
L 403.272497 316.145858 
L 403.398851 314.686391 
L 404.40091 313.226923 
L 406.521562 314.686391 
L 406.711801 313.226923 
L 409.118575 311.767456 
L 409.770627 313.226923 
L 416.268757 316.145858 
L 417.194393 314.686391 
L 419.517822 316.145858 
L 419.981752 314.686391 
L 421.038804 313.226923 
L 422.285016 311.767456 
L 422.31556 310.307989 
L 422.766887 311.767456 
L 425.892279 310.307989 
L 426.015951 311.767456 
L 429.265016 313.226923 
L 431.894367 311.767456 
L 432.514081 313.226923 
L 435.763146 314.686391 
L 437.876813 313.226923 
L 439.012211 314.686391 
L 439.524739 313.226923 
L 442.139578 311.767456 
L 442.261276 313.226923 
L 443.639771 311.767456 
L 443.655063 310.307989 
L 444.169525 308.848522 
L 445.510341 310.307989 
L 447.849527 308.848522 
L 448.759405 310.307989 
L 448.872078 308.848522 
L 452.00847 310.307989 
L 452.824594 308.848522 
L 453.930402 307.389054 
L 455.257535 308.848522 
L 461.755665 311.767456 
L 464.571555 310.307989 
L 465.00473 311.767456 
L 467.484637 310.307989 
L 468.253795 311.767456 
L 470.24381 310.307989 
L 471.502859 311.767456 
L 473.553498 310.307989 
L 474.751924 311.767456 
L 478.000989 313.226923 
L 480.771318 311.767456 
L 481.250054 313.226923 
L 484.473979 311.767456 
L 484.499119 313.226923 
L 486.411654 311.767456 
L 487.748184 313.226923 
L 497.495378 317.605325 
L 498.897832 316.145858 
L 500.744443 317.605325 
L 503.993508 319.064793 
L 504.359257 317.605325 
L 507.242573 319.064793 
L 508.015371 317.605325 
L 508.949186 316.145858 
L 510.491638 317.605325 
L 512.998414 314.686391 
L 513.740703 316.145858 
L 523.487897 320.52426 
L 523.929471 319.064793 
L 526.736962 320.52426 
L 528.126968 319.064793 
L 529.986027 320.52426 
L 530.387666 319.064793 
L 533.235092 320.52426 
L 536.484156 321.983727 
L 540.542515 320.52426 
L 540.542515 321.983727 
L 543.571953 320.52426 
L 543.634919 319.064793 
L 543.79158 320.52426 
L 545.69849 319.064793 
L 547.040645 320.52426 
L 549.789204 319.064793 
L 550.28971 320.52426 
L 550.892797 319.064793 
L 552.464161 317.605325 
L 553.538775 319.064793 
L 556.78784 320.52426 
L 556.95755 319.064793 
L 557.430529 317.605325 
L 557.783206 316.145858 
L 558.934103 314.686391 
L 559.249011 313.226923 
L 560.036904 314.686391 
L 561.990859 313.226923 
L 563.285969 314.686391 
L 563.410792 313.226923 
L 566.018335 311.767456 
L 566.129464 310.307989 
L 566.535034 311.767456 
L 569.570255 310.307989 
L 569.784099 311.767456 
L 573.000778 310.307989 
L 573.033164 311.767456 
L 574.258589 310.307989 
L 576.093045 308.848522 
L 576.282229 310.307989 
L 576.905576 308.848522 
L 579.531294 310.307989 
L 582.780358 311.767456 
L 584.276515 310.307989 
L 586.029423 311.767456 
L 589.278488 313.226923 
L 591.505407 311.767456 
L 592.485214 310.307989 
L 592.527553 311.767456 
L 595.776618 313.226923 
L 597.816597 311.767456 
L 599.025683 313.226923 
L 601.770772 311.767456 
L 602.11154 310.307989 
L 602.274748 311.767456 
L 603.522757 310.307989 
L 605.523812 311.767456 
L 607.592561 310.307989 
L 608.772877 311.767456 
L 609.650722 310.307989 
L 612.021942 311.767456 
L 631.516331 320.52426 
L 631.631914 319.064793 
L 633.938484 317.605325 
L 634.531563 316.145858 
L 634.765396 317.605325 
L 634.961037 316.145858 
L 638.014461 317.605325 
L 641.082044 316.145858 
L 641.263526 317.605325 
L 644.512591 319.064793 
L 646.432341 317.605325 
L 647.761655 319.064793 
L 649.167667 317.605325 
L 649.277442 316.145858 
L 649.51032 314.686391 
L 651.01072 316.145858 
L 660.757915 320.52426 
L 662.668535 319.064793 
L 662.837203 317.605325 
L 664.00698 319.064793 
L 667.256045 320.52426 
L 669.376832 319.064793 
L 669.431311 317.605325 
L 670.505109 319.064793 
L 673.754174 320.52426 
L 675.723376 319.064793 
L 676.575701 317.605325 
L 676.613986 316.145858 
L 677.003239 317.605325 
L 680.252304 319.064793 
L 681.317963 317.605325 
L 683.501369 319.064793 
L 685.571958 317.605325 
L 686.750434 319.064793 
L 689.999499 320.52426 
L 690.076109 319.064793 
L 692.260976 317.605325 
L 693.248563 319.064793 
L 693.606021 317.605325 
L 693.666764 316.145858 
L 694.276025 314.686391 
L 696.298884 313.226923 
L 696.497628 314.686391 
L 697.12254 313.226923 
L 699.746693 314.686391 
L 702.995758 316.145858 
L 703.8677 314.686391 
L 706.244823 316.145858 
L 709.493888 317.605325 
L 712.41995 316.145858 
L 712.742953 317.605325 
L 715.992017 319.064793 
L 716.3799 317.605325 
L 716.964593 316.145858 
L 719.216844 314.686391 
L 719.241082 316.145858 
L 722.373252 314.686391 
L 722.490147 316.145858 
L 725.739212 317.605325 
L 726.275285 316.145858 
L 728.988277 317.605325 
L 732.237342 319.064793 
L 735.117122 317.605325 
L 735.486407 319.064793 
L 736.127476 317.605325 
L 738.735471 319.064793 
L 739.220033 317.605325 
L 741.984536 319.064793 
L 742.912908 317.605325 
L 745.233601 319.064793 
L 745.809055 317.605325 
L 748.482666 319.064793 
L 750.324206 317.605325 
L 751.731731 319.064793 
L 758.229861 321.983727 
L 761.169371 320.52426 
L 761.478925 321.983727 
L 761.838783 320.52426 
L 764.72799 321.983727 
L 771.225577 320.52426 
L 771.225577 321.983727 
L 773.416241 320.52426 
L 774.254541 319.064793 
L 774.474641 320.52426 
L 774.474641 320.52426 
" clip-path="url(#pb612870589)" style="fill: none; stroke: #988ed5; stroke-width: 1.5; stroke-linecap: square"/>
   </g>
   <g id="line2d_38">
    <path d="M 135.220726 320.52426 
L 135.220726 321.983727 
L 138.46979 320.52426 
L 138.46979 321.983727 
L 144.561035 320.52426 
L 144.561035 321.983727 
L 147.8101 320.52426 
L 147.8101 321.983727 
L 151.059164 320.52426 
L 151.059164 321.983727 
L 154.308229 320.52426 
L 154.308229 321.983727 
L 157.557294 320.52426 
L 157.557294 321.983727 
L 160.806359 320.52426 
L 160.806359 321.983727 
L 164.055424 320.52426 
L 164.055424 321.983727 
L 167.304489 320.52426 
L 167.304489 321.983727 
L 170.553554 320.52426 
L 170.553554 321.983727 
L 173.802618 320.52426 
L 173.802618 321.983727 
L 177.051683 320.52426 
L 177.051683 321.983727 
L 180.300748 320.52426 
L 180.300748 321.983727 
L 183.549813 320.52426 
L 183.549813 321.983727 
L 186.798878 320.52426 
L 186.798878 321.983727 
L 190.047943 320.52426 
L 190.047943 321.983727 
L 193.297008 320.52426 
L 193.297008 321.983727 
L 196.546072 320.52426 
L 196.546072 321.983727 
L 199.795137 320.52426 
L 199.795137 321.983727 
L 203.044202 320.52426 
L 203.044202 321.983727 
L 206.293267 320.52426 
L 206.293267 321.983727 
L 209.542332 320.52426 
L 209.542332 321.983727 
L 212.791397 320.52426 
L 212.791397 321.983727 
L 216.040462 320.52426 
L 216.040462 321.983727 
L 219.289526 320.52426 
L 219.289526 321.983727 
L 222.538591 320.52426 
L 222.538591 321.983727 
L 225.787656 320.52426 
L 225.787656 321.983727 
L 229.036721 320.52426 
L 229.036721 321.983727 
L 232.285786 320.52426 
L 232.285786 321.983727 
L 235.534851 320.52426 
L 235.534851 321.983727 
L 238.783916 320.52426 
L 238.783916 321.983727 
L 242.03298 320.52426 
L 242.03298 321.983727 
L 245.282045 320.52426 
L 245.282045 321.983727 
L 248.53111 320.52426 
L 248.53111 321.983727 
L 251.780175 320.52426 
L 251.780175 321.983727 
L 255.02924 320.52426 
L 255.02924 321.983727 
L 258.278305 320.52426 
L 258.278305 321.983727 
L 261.527369 320.52426 
L 261.527369 321.983727 
L 264.776434 320.52426 
L 264.776434 321.983727 
L 268.025499 320.52426 
L 268.025499 321.983727 
L 271.274564 320.52426 
L 271.274564 321.983727 
L 274.523629 320.52426 
L 274.523629 321.983727 
L 277.772694 320.52426 
L 277.772694 321.983727 
L 281.021759 320.52426 
L 281.021759 321.983727 
L 284.270823 320.52426 
L 284.270823 321.983727 
L 287.519888 320.52426 
L 287.519888 321.983727 
L 290.768953 320.52426 
L 290.768953 321.983727 
L 294.018018 320.52426 
L 294.018018 321.983727 
L 297.267083 320.52426 
L 297.267083 321.983727 
L 300.516148 320.52426 
L 300.516148 321.983727 
L 303.765213 320.52426 
L 303.765213 321.983727 
L 307.014277 320.52426 
L 307.014277 321.983727 
L 310.263342 320.52426 
L 310.263342 321.983727 
L 313.512407 320.52426 
L 313.512407 321.983727 
L 316.761472 320.52426 
L 316.761472 321.983727 
L 320.010537 320.52426 
L 320.010537 321.983727 
L 323.259602 320.52426 
L 323.259602 321.983727 
L 326.508667 320.52426 
L 326.508667 321.983727 
L 329.757731 320.52426 
L 329.757731 321.983727 
L 333.006796 320.52426 
L 333.006796 321.983727 
L 336.255861 320.52426 
L 336.255861 321.983727 
L 339.504926 320.52426 
L 339.504926 321.983727 
L 342.753991 320.52426 
L 342.753991 321.983727 
L 346.003056 320.52426 
L 346.003056 321.983727 
L 349.252121 320.52426 
L 349.252121 321.983727 
L 352.501185 320.52426 
L 352.501185 321.983727 
L 355.75025 320.52426 
L 355.75025 321.983727 
L 358.999315 320.52426 
L 358.999315 321.983727 
L 362.24838 320.52426 
L 362.24838 321.983727 
L 365.497445 320.52426 
L 365.497445 321.983727 
L 368.74651 320.52426 
L 368.74651 321.983727 
L 371.995575 320.52426 
L 371.995575 321.983727 
L 375.244639 320.52426 
L 375.244639 321.983727 
L 378.493704 320.52426 
L 378.493704 321.983727 
L 381.742769 320.52426 
L 381.742769 321.983727 
L 384.991834 320.52426 
L 384.991834 321.983727 
L 388.240899 320.52426 
L 388.240899 321.983727 
L 391.489964 320.52426 
L 391.489964 321.983727 
L 394.739029 320.52426 
L 394.739029 321.983727 
L 397.988093 320.52426 
L 397.988093 321.983727 
L 401.237158 320.52426 
L 401.237158 321.983727 
L 404.486223 320.52426 
L 404.486223 321.983727 
L 407.735288 320.52426 
L 407.735288 321.983727 
L 410.984353 320.52426 
L 410.984353 321.983727 
L 414.233418 320.52426 
L 414.233418 321.983727 
L 417.482483 320.52426 
L 417.482483 321.983727 
L 420.731547 320.52426 
L 420.731547 321.983727 
L 423.980612 320.52426 
L 423.980612 321.983727 
L 427.229677 320.52426 
L 427.229677 321.983727 
L 430.478742 320.52426 
L 430.478742 321.983727 
L 433.727807 320.52426 
L 433.727807 321.983727 
L 436.976872 320.52426 
L 436.976872 321.983727 
L 440.225936 320.52426 
L 440.225936 321.983727 
L 443.475001 320.52426 
L 443.475001 321.983727 
L 446.724066 320.52426 
L 446.724066 321.983727 
L 449.973131 320.52426 
L 449.973131 321.983727 
L 453.222196 320.52426 
L 453.222196 321.983727 
L 456.471261 320.52426 
L 456.471261 321.983727 
L 459.720326 320.52426 
L 459.720326 321.983727 
L 462.96939 320.52426 
L 462.96939 321.983727 
L 466.218455 320.52426 
L 466.218455 321.983727 
L 469.46752 320.52426 
L 469.46752 321.983727 
L 472.716585 320.52426 
L 472.716585 321.983727 
L 475.96565 320.52426 
L 475.96565 321.983727 
L 479.214715 320.52426 
L 479.214715 321.983727 
L 482.46378 320.52426 
L 482.46378 321.983727 
L 485.712844 320.52426 
L 485.712844 321.983727 
L 488.961909 320.52426 
L 488.961909 321.983727 
L 492.210974 320.52426 
L 492.210974 321.983727 
L 495.460039 320.52426 
L 495.460039 321.983727 
L 498.709104 320.52426 
L 498.709104 321.983727 
L 501.958169 320.52426 
L 501.958169 321.983727 
L 505.207234 320.52426 
L 505.207234 321.983727 
L 508.456298 320.52426 
L 508.456298 321.983727 
L 511.705363 320.52426 
L 511.705363 321.983727 
L 514.954428 320.52426 
L 514.954428 321.983727 
L 518.203493 320.52426 
L 518.203493 321.983727 
L 521.452558 320.52426 
L 521.452558 321.983727 
L 524.701623 320.52426 
L 524.701623 321.983727 
L 527.950688 320.52426 
L 527.950688 321.983727 
L 531.199752 320.52426 
L 531.199752 321.983727 
L 534.448817 320.52426 
L 534.448817 321.983727 
L 537.697882 320.52426 
L 537.697882 321.983727 
L 540.946947 320.52426 
L 540.946947 321.983727 
L 544.196012 320.52426 
L 544.196012 321.983727 
L 547.445077 320.52426 
L 547.445077 321.983727 
L 550.694142 320.52426 
L 550.694142 321.983727 
L 553.943206 320.52426 
L 553.943206 321.983727 
L 557.192271 320.52426 
L 557.192271 321.983727 
L 560.441336 320.52426 
L 560.441336 321.983727 
L 563.690401 320.52426 
L 563.690401 321.983727 
L 566.939466 320.52426 
L 566.939466 321.983727 
L 570.188531 320.52426 
L 570.188531 321.983727 
L 573.437596 320.52426 
L 573.437596 321.983727 
L 576.68666 320.52426 
L 576.68666 321.983727 
L 579.935725 320.52426 
L 579.935725 321.983727 
L 583.18479 320.52426 
L 583.18479 321.983727 
L 586.433855 320.52426 
L 586.433855 321.983727 
L 589.68292 320.52426 
L 589.68292 321.983727 
L 592.931985 320.52426 
L 592.931985 321.983727 
L 596.181049 320.52426 
L 596.181049 321.983727 
L 599.430114 320.52426 
L 599.430114 321.983727 
L 602.679179 320.52426 
L 602.679179 321.983727 
L 605.928244 320.52426 
L 605.928244 321.983727 
L 609.177309 320.52426 
L 609.177309 321.983727 
L 612.426374 320.52426 
L 612.426374 321.983727 
L 615.675439 320.52426 
L 615.675439 321.983727 
L 618.924503 320.52426 
L 618.924503 321.983727 
L 622.173568 320.52426 
L 622.173568 321.983727 
L 625.422633 320.52426 
L 625.422633 321.983727 
L 628.671698 320.52426 
L 628.671698 321.983727 
L 631.920763 320.52426 
L 631.920763 321.983727 
L 635.169828 320.52426 
L 635.169828 321.983727 
L 638.418893 320.52426 
L 638.418893 321.983727 
L 641.667957 320.52426 
L 641.667957 321.983727 
L 644.917022 320.52426 
L 644.917022 321.983727 
L 648.166087 320.52426 
L 648.166087 321.983727 
L 651.415152 320.52426 
L 651.415152 321.983727 
L 654.664217 320.52426 
L 654.664217 321.983727 
L 657.913282 320.52426 
L 657.913282 321.983727 
L 661.162347 320.52426 
L 661.162347 321.983727 
L 664.411411 320.52426 
L 664.411411 321.983727 
L 667.660476 320.52426 
L 667.660476 321.983727 
L 670.909541 320.52426 
L 670.909541 321.983727 
L 674.158606 320.52426 
L 674.158606 321.983727 
L 677.407671 320.52426 
L 677.407671 321.983727 
L 680.656736 320.52426 
L 680.656736 321.983727 
L 683.905801 320.52426 
L 683.905801 321.983727 
L 687.154865 320.52426 
L 687.154865 321.983727 
L 690.40393 320.52426 
L 690.40393 321.983727 
L 693.652995 320.52426 
L 693.652995 321.983727 
L 696.90206 320.52426 
L 696.90206 321.983727 
L 700.151125 320.52426 
L 700.151125 321.983727 
L 703.40019 320.52426 
L 703.40019 321.983727 
L 706.649255 320.52426 
L 706.649255 321.983727 
L 709.898319 320.52426 
L 709.898319 321.983727 
L 713.147384 320.52426 
L 713.147384 321.983727 
L 716.396449 320.52426 
L 716.396449 321.983727 
L 719.645514 320.52426 
L 719.645514 321.983727 
L 722.894579 320.52426 
L 722.894579 321.983727 
L 726.143644 320.52426 
L 726.143644 321.983727 
L 729.392709 320.52426 
L 729.392709 321.983727 
L 732.641773 320.52426 
L 732.641773 321.983727 
L 735.890838 320.52426 
L 735.890838 321.983727 
L 739.139903 320.52426 
L 739.139903 321.983727 
L 742.388968 320.52426 
L 742.388968 321.983727 
L 745.638033 320.52426 
L 745.638033 321.983727 
L 748.887098 320.52426 
L 748.887098 321.983727 
L 752.136162 320.52426 
L 752.136162 321.983727 
L 755.385227 320.52426 
L 755.385227 321.983727 
L 758.634292 320.52426 
L 758.634292 321.983727 
L 761.883357 320.52426 
L 761.883357 321.983727 
L 765.132422 320.52426 
L 765.132422 321.983727 
L 768.381487 320.52426 
L 768.381487 321.983727 
L 771.630552 320.52426 
L 771.630552 321.983727 
L 774.879616 320.52426 
L 774.879616 321.983727 
L 774.879616 321.983727 
" clip-path="url(#pb612870589)" style="fill: none; stroke: #777777; stroke-width: 1.5; stroke-linecap: square"/>
   </g>
   <g id="line2d_39">
    <path d="M 131.971336 320.52426 
L 131.971336 321.983727 
L 135.220401 320.52426 
L 135.220401 321.983727 
L 141.311645 320.52426 
L 141.311645 321.983727 
L 144.56071 320.52426 
L 144.56071 321.983727 
L 147.809775 320.52426 
L 147.809775 321.983727 
L 151.05884 320.52426 
L 151.05884 321.983727 
L 154.307904 320.52426 
L 154.307904 321.983727 
L 157.556969 320.52426 
L 157.556969 321.983727 
L 160.806034 320.52426 
L 160.806034 321.983727 
L 164.055099 320.52426 
L 164.055099 321.983727 
L 167.304164 320.52426 
L 167.304164 321.983727 
L 170.553229 320.52426 
L 170.553229 321.983727 
L 173.802294 320.52426 
L 173.802294 321.983727 
L 177.051358 320.52426 
L 177.051358 321.983727 
L 180.300423 320.52426 
L 180.300423 321.983727 
L 183.549488 320.52426 
L 183.549488 321.983727 
L 186.798553 320.52426 
L 186.798553 321.983727 
L 190.047618 320.52426 
L 190.047618 321.983727 
L 193.296683 320.52426 
L 193.296683 321.983727 
L 196.545747 320.52426 
L 196.545747 321.983727 
L 199.794812 320.52426 
L 199.794812 321.983727 
L 203.043877 320.52426 
L 203.043877 321.983727 
L 206.292942 320.52426 
L 206.292942 321.983727 
L 209.542007 320.52426 
L 209.542007 321.983727 
L 212.791072 320.52426 
L 212.791072 321.983727 
L 216.040137 320.52426 
L 216.040137 321.983727 
L 219.289201 320.52426 
L 219.289201 321.983727 
L 222.538266 320.52426 
L 222.538266 321.983727 
L 225.787331 320.52426 
L 225.787331 321.983727 
L 229.036396 320.52426 
L 229.036396 321.983727 
L 232.285461 320.52426 
L 232.285461 321.983727 
L 235.534526 320.52426 
L 235.534526 321.983727 
L 238.783591 320.52426 
L 238.783591 321.983727 
L 242.032655 320.52426 
L 242.032655 321.983727 
L 245.28172 320.52426 
L 245.28172 321.983727 
L 248.530785 320.52426 
L 248.530785 321.983727 
L 251.77985 320.52426 
L 251.77985 321.983727 
L 255.028915 320.52426 
L 255.028915 321.983727 
L 258.27798 320.52426 
L 258.27798 321.983727 
L 261.527045 320.52426 
L 261.527045 321.983727 
L 264.776109 320.52426 
L 264.776109 321.983727 
L 268.025174 320.52426 
L 268.025174 321.983727 
L 271.274239 320.52426 
L 271.274239 321.983727 
L 274.523304 320.52426 
L 274.523304 321.983727 
L 277.772369 320.52426 
L 277.772369 321.983727 
L 281.021434 320.52426 
L 281.021434 321.983727 
L 284.270499 320.52426 
L 284.270499 321.983727 
L 287.519563 320.52426 
L 287.519563 321.983727 
L 290.768628 320.52426 
L 290.768628 321.983727 
L 294.017693 320.52426 
L 294.017693 321.983727 
L 297.266758 320.52426 
L 297.266758 321.983727 
L 300.515823 320.52426 
L 300.515823 321.983727 
L 303.764888 320.52426 
L 303.764888 321.983727 
L 307.013953 320.52426 
L 307.013953 321.983727 
L 310.263017 320.52426 
L 310.263017 321.983727 
L 313.512082 320.52426 
L 313.512082 321.983727 
L 316.761147 320.52426 
L 316.761147 321.983727 
L 320.010212 320.52426 
L 320.010212 321.983727 
L 323.259277 320.52426 
L 323.259277 321.983727 
L 326.508342 320.52426 
L 326.508342 321.983727 
L 329.757407 320.52426 
L 329.757407 321.983727 
L 333.006471 320.52426 
L 333.006471 321.983727 
L 336.255536 320.52426 
L 336.255536 321.983727 
L 339.504601 320.52426 
L 339.504601 321.983727 
L 342.753666 320.52426 
L 342.753666 321.983727 
L 346.002731 320.52426 
L 346.002731 321.983727 
L 349.251796 320.52426 
L 349.251796 321.983727 
L 352.500861 320.52426 
L 352.500861 321.983727 
L 355.749925 320.52426 
L 355.749925 321.983727 
L 358.99899 320.52426 
L 358.99899 321.983727 
L 362.248055 320.52426 
L 362.248055 321.983727 
L 365.49712 320.52426 
L 365.49712 321.983727 
L 368.746185 320.52426 
L 368.746185 321.983727 
L 371.99525 320.52426 
L 371.99525 321.983727 
L 375.244314 320.52426 
L 375.244314 321.983727 
L 378.493379 320.52426 
L 378.493379 321.983727 
L 381.742444 320.52426 
L 381.742444 321.983727 
L 384.991509 320.52426 
L 384.991509 321.983727 
L 388.240574 320.52426 
L 388.240574 321.983727 
L 391.489639 320.52426 
L 391.489639 321.983727 
L 394.738704 320.52426 
L 394.738704 321.983727 
L 397.987768 320.52426 
L 397.987768 321.983727 
L 401.236833 320.52426 
L 401.236833 321.983727 
L 404.485898 320.52426 
L 404.485898 321.983727 
L 407.734963 320.52426 
L 407.734963 321.983727 
L 410.984028 320.52426 
L 410.984028 321.983727 
L 414.233093 320.52426 
L 414.233093 321.983727 
L 417.482158 320.52426 
L 417.482158 321.983727 
L 420.731222 320.52426 
L 420.731222 321.983727 
L 423.980287 320.52426 
L 423.980287 321.983727 
L 427.229352 320.52426 
L 427.229352 321.983727 
L 430.478417 320.52426 
L 430.478417 321.983727 
L 433.727482 320.52426 
L 433.727482 321.983727 
L 436.976547 320.52426 
L 436.976547 321.983727 
L 440.225612 320.52426 
L 440.225612 321.983727 
L 443.474676 320.52426 
L 443.474676 321.983727 
L 446.723741 320.52426 
L 446.723741 321.983727 
L 449.972806 320.52426 
L 449.972806 321.983727 
L 453.221871 320.52426 
L 453.221871 321.983727 
L 456.470936 320.52426 
L 456.470936 321.983727 
L 459.720001 320.52426 
L 459.720001 321.983727 
L 462.969066 320.52426 
L 462.969066 321.983727 
L 466.21813 320.52426 
L 466.21813 321.983727 
L 469.467195 320.52426 
L 469.467195 321.983727 
L 472.71626 320.52426 
L 472.71626 321.983727 
L 475.965325 320.52426 
L 475.965325 321.983727 
L 479.21439 320.52426 
L 479.21439 321.983727 
L 482.463455 320.52426 
L 482.463455 321.983727 
L 485.71252 320.52426 
L 485.71252 321.983727 
L 488.961584 320.52426 
L 488.961584 321.983727 
L 492.210649 320.52426 
L 492.210649 321.983727 
L 495.459714 320.52426 
L 495.459714 321.983727 
L 498.708779 320.52426 
L 498.708779 321.983727 
L 501.957844 320.52426 
L 501.957844 321.983727 
L 505.206909 320.52426 
L 505.206909 321.983727 
L 508.455974 320.52426 
L 508.455974 321.983727 
L 511.705038 320.52426 
L 511.705038 321.983727 
L 514.954103 320.52426 
L 514.954103 321.983727 
L 518.203168 320.52426 
L 518.203168 321.983727 
L 521.452233 320.52426 
L 521.452233 321.983727 
L 524.701298 320.52426 
L 524.701298 321.983727 
L 527.950363 320.52426 
L 527.950363 321.983727 
L 531.199427 320.52426 
L 531.199427 321.983727 
L 534.448492 320.52426 
L 534.448492 321.983727 
L 537.697557 320.52426 
L 537.697557 321.983727 
L 540.946622 320.52426 
L 540.946622 321.983727 
L 544.195687 320.52426 
L 544.195687 321.983727 
L 547.444752 320.52426 
L 547.444752 321.983727 
L 550.693817 320.52426 
L 550.693817 321.983727 
L 553.942881 320.52426 
L 553.942881 321.983727 
L 557.191946 320.52426 
L 557.191946 321.983727 
L 560.441011 320.52426 
L 560.441011 321.983727 
L 563.690076 320.52426 
L 563.690076 321.983727 
L 566.939141 320.52426 
L 566.939141 321.983727 
L 570.188206 320.52426 
L 570.188206 321.983727 
L 573.437271 320.52426 
L 573.437271 321.983727 
L 576.686335 320.52426 
L 576.686335 321.983727 
L 579.9354 320.52426 
L 579.9354 321.983727 
L 583.184465 320.52426 
L 583.184465 321.983727 
L 586.43353 320.52426 
L 586.43353 321.983727 
L 589.682595 320.52426 
L 589.682595 321.983727 
L 592.93166 320.52426 
L 592.93166 321.983727 
L 596.180725 320.52426 
L 596.180725 321.983727 
L 599.429789 320.52426 
L 599.429789 321.983727 
L 602.678854 320.52426 
L 602.678854 321.983727 
L 605.927919 320.52426 
L 605.927919 321.983727 
L 609.176984 320.52426 
L 609.176984 321.983727 
L 612.426049 320.52426 
L 612.426049 321.983727 
L 615.675114 320.52426 
L 615.675114 321.983727 
L 618.924179 320.52426 
L 618.924179 321.983727 
L 622.173243 320.52426 
L 622.173243 321.983727 
L 625.422308 320.52426 
L 625.422308 321.983727 
L 628.671373 320.52426 
L 628.671373 321.983727 
L 631.920438 320.52426 
L 631.920438 321.983727 
L 635.169503 320.52426 
L 635.169503 321.983727 
L 638.418568 320.52426 
L 638.418568 321.983727 
L 641.667633 320.52426 
L 641.667633 321.983727 
L 644.916697 320.52426 
L 644.916697 321.983727 
L 648.165762 320.52426 
L 648.165762 321.983727 
L 651.414827 320.52426 
L 651.414827 321.983727 
L 654.663892 320.52426 
L 654.663892 321.983727 
L 657.912957 320.52426 
L 657.912957 321.983727 
L 661.162022 320.52426 
L 661.162022 321.983727 
L 664.411087 320.52426 
L 664.411087 321.983727 
L 667.660151 320.52426 
L 667.660151 321.983727 
L 670.909216 320.52426 
L 670.909216 321.983727 
L 674.158281 320.52426 
L 674.158281 321.983727 
L 677.407346 320.52426 
L 677.407346 321.983727 
L 680.656411 320.52426 
L 680.656411 321.983727 
L 683.905476 320.52426 
L 683.905476 321.983727 
L 687.154541 320.52426 
L 687.154541 321.983727 
L 690.403605 320.52426 
L 690.403605 321.983727 
L 693.65267 320.52426 
L 693.65267 321.983727 
L 696.901735 320.52426 
L 696.901735 321.983727 
L 700.1508 320.52426 
L 700.1508 321.983727 
L 703.399865 320.52426 
L 703.399865 321.983727 
L 706.64893 320.52426 
L 706.64893 321.983727 
L 709.897994 320.52426 
L 709.897994 321.983727 
L 713.147059 320.52426 
L 713.147059 321.983727 
L 716.396124 320.52426 
L 716.396124 321.983727 
L 719.645189 320.52426 
L 719.645189 321.983727 
L 722.894254 320.52426 
L 722.894254 321.983727 
L 726.143319 320.52426 
L 726.143319 321.983727 
L 729.392384 320.52426 
L 729.392384 321.983727 
L 732.641448 320.52426 
L 732.641448 321.983727 
L 735.890513 320.52426 
L 735.890513 321.983727 
L 739.139578 320.52426 
L 739.139578 321.983727 
L 742.388643 320.52426 
L 742.388643 321.983727 
L 745.637708 320.52426 
L 745.637708 321.983727 
L 748.886773 320.52426 
L 748.886773 321.983727 
L 752.135838 320.52426 
L 752.135838 321.983727 
L 755.384902 320.52426 
L 755.384902 321.983727 
L 758.633967 320.52426 
L 758.633967 321.983727 
L 761.883032 320.52426 
L 761.883032 321.983727 
L 765.132097 320.52426 
L 765.132097 321.983727 
L 768.381162 320.52426 
L 768.381162 321.983727 
L 771.630227 320.52426 
L 771.630227 321.983727 
L 774.879292 320.52426 
L 774.879292 321.983727 
L 774.879292 321.983727 
" clip-path="url(#pb612870589)" style="fill: none; stroke: #fbc15e; stroke-width: 1.5; stroke-linecap: square"/>
   </g>
   <g id="patch_3">
    <path d="M 96.414063 335.848667 
L 96.414063 30.82 
" style="fill: none; stroke: #ffffff; stroke-linejoin: miter; stroke-linecap: square"/>
   </g>
   <g id="patch_4">
    <path d="M 807.1875 335.848667 
L 807.1875 30.82 
" style="fill: none; stroke: #ffffff; stroke-linejoin: miter; stroke-linecap: square"/>
   </g>
   <g id="patch_5">
    <path d="M 96.414063 335.848667 
L 807.1875 335.848667 
" style="fill: none; stroke: #ffffff; stroke-linejoin: miter; stroke-linecap: square"/>
   </g>
   <g id="patch_6">
    <path d="M 96.414063 30.82 
L 807.1875 30.82 
" style="fill: none; stroke: #ffffff; stroke-linejoin: miter; stroke-linecap: square"/>
   </g>
   <g id="text_20">
    <!-- Buffer Size Case I AB -->
    <g transform="translate(376.295281 24.82) scale(0.144 -0.144)">
     <defs>
      <path id="DejaVuSans-43" d="M 4122 4306 
L 4122 3641 
Q 3803 3938 3442 4084 
Q 3081 4231 2675 4231 
Q 1875 4231 1450 3742 
Q 1025 3253 1025 2328 
Q 1025 1406 1450 917 
Q 1875 428 2675 428 
Q 3081 428 3442 575 
Q 3803 722 4122 1019 
L 4122 359 
Q 3791 134 3420 21 
Q 3050 -91 2638 -91 
Q 1578 -91 968 557 
Q 359 1206 359 2328 
Q 359 3453 968 4101 
Q 1578 4750 2638 4750 
Q 3056 4750 3426 4639 
Q 3797 4528 4122 4306 
z
" transform="scale(0.015625)"/>
      <path id="DejaVuSans-61" d="M 2194 1759 
Q 1497 1759 1228 1600 
Q 959 1441 959 1056 
Q 959 750 1161 570 
Q 1363 391 1709 391 
Q 2188 391 2477 730 
Q 2766 1069 2766 1631 
L 2766 1759 
L 2194 1759 
z
M 3341 1997 
L 3341 0 
L 2766 0 
L 2766 531 
Q 2569 213 2275 61 
Q 1981 -91 1556 -91 
Q 1019 -91 701 211 
Q 384 513 384 1019 
Q 384 1609 779 1909 
Q 1175 2209 1959 2209 
L 2766 2209 
L 2766 2266 
Q 2766 2663 2505 2880 
Q 2244 3097 1772 3097 
Q 1472 3097 1187 3025 
Q 903 2953 641 2809 
L 641 3341 
Q 956 3463 1253 3523 
Q 1550 3584 1831 3584 
Q 2591 3584 2966 3190 
Q 3341 2797 3341 1997 
z
" transform="scale(0.015625)"/>
      <path id="DejaVuSans-73" d="M 2834 3397 
L 2834 2853 
Q 2591 2978 2328 3040 
Q 2066 3103 1784 3103 
Q 1356 3103 1142 2972 
Q 928 2841 928 2578 
Q 928 2378 1081 2264 
Q 1234 2150 1697 2047 
L 1894 2003 
Q 2506 1872 2764 1633 
Q 3022 1394 3022 966 
Q 3022 478 2636 193 
Q 2250 -91 1575 -91 
Q 1294 -91 989 -36 
Q 684 19 347 128 
L 347 722 
Q 666 556 975 473 
Q 1284 391 1588 391 
Q 1994 391 2212 530 
Q 2431 669 2431 922 
Q 2431 1156 2273 1281 
Q 2116 1406 1581 1522 
L 1381 1569 
Q 847 1681 609 1914 
Q 372 2147 372 2553 
Q 372 3047 722 3315 
Q 1072 3584 1716 3584 
Q 2034 3584 2315 3537 
Q 2597 3491 2834 3397 
z
" transform="scale(0.015625)"/>
      <path id="DejaVuSans-49" d="M 628 4666 
L 1259 4666 
L 1259 0 
L 628 0 
L 628 4666 
z
" transform="scale(0.015625)"/>
      <path id="DejaVuSans-41" d="M 2188 4044 
L 1331 1722 
L 3047 1722 
L 2188 4044 
z
M 1831 4666 
L 2547 4666 
L 4325 0 
L 3669 0 
L 3244 1197 
L 1141 1197 
L 716 0 
L 50 0 
L 1831 4666 
z
" transform="scale(0.015625)"/>
     </defs>
     <use xlink:href="#DejaVuSans-42"/>
     <use xlink:href="#DejaVuSans-75" x="68.603516"/>
     <use xlink:href="#DejaVuSans-66" x="131.982422"/>
     <use xlink:href="#DejaVuSans-66" x="167.1875"/>
     <use xlink:href="#DejaVuSans-65" x="202.392578"/>
     <use xlink:href="#DejaVuSans-72" x="263.916016"/>
     <use xlink:href="#DejaVuSans-20" x="305.029297"/>
     <use xlink:href="#DejaVuSans-53" x="336.816406"/>
     <use xlink:href="#DejaVuSans-69" x="400.292969"/>
     <use xlink:href="#DejaVuSans-7a" x="428.076172"/>
     <use xlink:href="#DejaVuSans-65" x="480.566406"/>
     <use xlink:href="#DejaVuSans-20" x="542.089844"/>
     <use xlink:href="#DejaVuSans-43" x="573.876953"/>
     <use xlink:href="#DejaVuSans-61" x="643.701172"/>
     <use xlink:href="#DejaVuSans-73" x="704.980469"/>
     <use xlink:href="#DejaVuSans-65" x="757.080078"/>
     <use xlink:href="#DejaVuSans-20" x="818.603516"/>
     <use xlink:href="#DejaVuSans-49" x="850.390625"/>
     <use xlink:href="#DejaVuSans-20" x="879.882812"/>
     <use xlink:href="#DejaVuSans-41" x="911.669922"/>
     <use xlink:href="#DejaVuSans-42" x="980.078125"/>
    </g>
   </g>
   <g id="legend_1">
    <g id="patch_7">
     <path d="M 649.882813 112.210625 
L 802.1875 112.210625 
L 802.1875 35.82 
L 649.882813 35.82 
z
" style="fill: #e5e5e5; opacity: 0.8; stroke: #cccccc; stroke-width: 0.5; stroke-linejoin: miter"/>
    </g>
    <g id="line2d_40">
     <path d="M 653.882813 43.918437 
L 663.882813 43.918437 
L 673.882813 43.918437 
" style="fill: none; stroke: #e24a33; stroke-width: 1.5; stroke-linecap: square"/>
    </g>
    <g id="text_21">
     <!-- Network.node[0].lnk[0] -->
     <g transform="translate(681.882813 47.418437) scale(0.1 -0.1)">
      <defs>
       <path id="DejaVuSans-4e" d="M 628 4666 
L 1478 4666 
L 3547 763 
L 3547 4666 
L 4159 4666 
L 4159 0 
L 3309 0 
L 1241 3903 
L 1241 0 
L 628 0 
L 628 4666 
z
" transform="scale(0.015625)"/>
       <path id="DejaVuSans-74" d="M 1172 4494 
L 1172 3500 
L 2356 3500 
L 2356 3053 
L 1172 3053 
L 1172 1153 
Q 1172 725 1289 603 
Q 1406 481 1766 481 
L 2356 481 
L 2356 0 
L 1766 0 
Q 1100 0 847 248 
Q 594 497 594 1153 
L 594 3053 
L 172 3053 
L 172 3500 
L 594 3500 
L 594 4494 
L 1172 4494 
z
" transform="scale(0.015625)"/>
       <path id="DejaVuSans-77" d="M 269 3500 
L 844 3500 
L 1563 769 
L 2278 3500 
L 2956 3500 
L 3675 769 
L 4391 3500 
L 4966 3500 
L 4050 0 
L 3372 0 
L 2619 2869 
L 1863 0 
L 1184 0 
L 269 3500 
z
" transform="scale(0.015625)"/>
       <path id="DejaVuSans-6f" d="M 1959 3097 
Q 1497 3097 1228 2736 
Q 959 2375 959 1747 
Q 959 1119 1226 758 
Q 1494 397 1959 397 
Q 2419 397 2687 759 
Q 2956 1122 2956 1747 
Q 2956 2369 2687 2733 
Q 2419 3097 1959 3097 
z
M 1959 3584 
Q 2709 3584 3137 3096 
Q 3566 2609 3566 1747 
Q 3566 888 3137 398 
Q 2709 -91 1959 -91 
Q 1206 -91 779 398 
Q 353 888 353 1747 
Q 353 2609 779 3096 
Q 1206 3584 1959 3584 
z
" transform="scale(0.015625)"/>
       <path id="DejaVuSans-6b" d="M 581 4863 
L 1159 4863 
L 1159 1991 
L 2875 3500 
L 3609 3500 
L 1753 1863 
L 3688 0 
L 2938 0 
L 1159 1709 
L 1159 0 
L 581 0 
L 581 4863 
z
" transform="scale(0.015625)"/>
       <path id="DejaVuSans-2e" d="M 684 794 
L 1344 794 
L 1344 0 
L 684 0 
L 684 794 
z
" transform="scale(0.015625)"/>
       <path id="DejaVuSans-6e" d="M 3513 2113 
L 3513 0 
L 2938 0 
L 2938 2094 
Q 2938 2591 2744 2837 
Q 2550 3084 2163 3084 
Q 1697 3084 1428 2787 
Q 1159 2491 1159 1978 
L 1159 0 
L 581 0 
L 581 3500 
L 1159 3500 
L 1159 2956 
Q 1366 3272 1645 3428 
Q 1925 3584 2291 3584 
Q 2894 3584 3203 3211 
Q 3513 2838 3513 2113 
z
" transform="scale(0.015625)"/>
       <path id="DejaVuSans-64" d="M 2906 2969 
L 2906 4863 
L 3481 4863 
L 3481 0 
L 2906 0 
L 2906 525 
Q 2725 213 2448 61 
Q 2172 -91 1784 -91 
Q 1150 -91 751 415 
Q 353 922 353 1747 
Q 353 2572 751 3078 
Q 1150 3584 1784 3584 
Q 2172 3584 2448 3432 
Q 2725 3281 2906 2969 
z
M 947 1747 
Q 947 1113 1208 752 
Q 1469 391 1925 391 
Q 2381 391 2643 752 
Q 2906 1113 2906 1747 
Q 2906 2381 2643 2742 
Q 2381 3103 1925 3103 
Q 1469 3103 1208 2742 
Q 947 2381 947 1747 
z
" transform="scale(0.015625)"/>
       <path id="DejaVuSans-5b" d="M 550 4863 
L 1875 4863 
L 1875 4416 
L 1125 4416 
L 1125 -397 
L 1875 -397 
L 1875 -844 
L 550 -844 
L 550 4863 
z
" transform="scale(0.015625)"/>
       <path id="DejaVuSans-5d" d="M 1947 4863 
L 1947 -844 
L 622 -844 
L 622 -397 
L 1369 -397 
L 1369 4416 
L 622 4416 
L 622 4863 
L 1947 4863 
z
" transform="scale(0.015625)"/>
       <path id="DejaVuSans-6c" d="M 603 4863 
L 1178 4863 
L 1178 0 
L 603 0 
L 603 4863 
z
" transform="scale(0.015625)"/>
      </defs>
      <use xlink:href="#DejaVuSans-4e"/>
      <use xlink:href="#DejaVuSans-65" x="74.804688"/>
      <use xlink:href="#DejaVuSans-74" x="136.328125"/>
      <use xlink:href="#DejaVuSans-77" x="175.537109"/>
      <use xlink:href="#DejaVuSans-6f" x="257.324219"/>
      <use xlink:href="#DejaVuSans-72" x="318.505859"/>
      <use xlink:href="#DejaVuSans-6b" x="359.619141"/>
      <use xlink:href="#DejaVuSans-2e" x="417.529297"/>
      <use xlink:href="#DejaVuSans-6e" x="449.316406"/>
      <use xlink:href="#DejaVuSans-6f" x="512.695312"/>
      <use xlink:href="#DejaVuSans-64" x="573.876953"/>
      <use xlink:href="#DejaVuSans-65" x="637.353516"/>
      <use xlink:href="#DejaVuSans-5b" x="698.876953"/>
      <use xlink:href="#DejaVuSans-30" x="737.890625"/>
      <use xlink:href="#DejaVuSans-5d" x="801.513672"/>
      <use xlink:href="#DejaVuSans-2e" x="840.527344"/>
      <use xlink:href="#DejaVuSans-6c" x="872.314453"/>
      <use xlink:href="#DejaVuSans-6e" x="900.097656"/>
      <use xlink:href="#DejaVuSans-6b" x="963.476562"/>
      <use xlink:href="#DejaVuSans-5b" x="1021.386719"/>
      <use xlink:href="#DejaVuSans-30" x="1060.400391"/>
      <use xlink:href="#DejaVuSans-5d" x="1124.023438"/>
     </g>
    </g>
    <g id="line2d_41">
     <path d="M 653.882813 58.596563 
L 663.882813 58.596563 
L 673.882813 58.596563 
" style="fill: none; stroke: #348abd; stroke-width: 1.5; stroke-linecap: square"/>
    </g>
    <g id="text_22">
     <!-- Network.node[1].lnk[0] -->
     <g transform="translate(681.882813 62.096563) scale(0.1 -0.1)">
      <use xlink:href="#DejaVuSans-4e"/>
      <use xlink:href="#DejaVuSans-65" x="74.804688"/>
      <use xlink:href="#DejaVuSans-74" x="136.328125"/>
      <use xlink:href="#DejaVuSans-77" x="175.537109"/>
      <use xlink:href="#DejaVuSans-6f" x="257.324219"/>
      <use xlink:href="#DejaVuSans-72" x="318.505859"/>
      <use xlink:href="#DejaVuSans-6b" x="359.619141"/>
      <use xlink:href="#DejaVuSans-2e" x="417.529297"/>
      <use xlink:href="#DejaVuSans-6e" x="449.316406"/>
      <use xlink:href="#DejaVuSans-6f" x="512.695312"/>
      <use xlink:href="#DejaVuSans-64" x="573.876953"/>
      <use xlink:href="#DejaVuSans-65" x="637.353516"/>
      <use xlink:href="#DejaVuSans-5b" x="698.876953"/>
      <use xlink:href="#DejaVuSans-31" x="737.890625"/>
      <use xlink:href="#DejaVuSans-5d" x="801.513672"/>
      <use xlink:href="#DejaVuSans-2e" x="840.527344"/>
      <use xlink:href="#DejaVuSans-6c" x="872.314453"/>
      <use xlink:href="#DejaVuSans-6e" x="900.097656"/>
      <use xlink:href="#DejaVuSans-6b" x="963.476562"/>
      <use xlink:href="#DejaVuSans-5b" x="1021.386719"/>
      <use xlink:href="#DejaVuSans-30" x="1060.400391"/>
      <use xlink:href="#DejaVuSans-5d" x="1124.023438"/>
     </g>
    </g>
    <g id="line2d_42">
     <path d="M 653.882813 73.274687 
L 663.882813 73.274687 
L 673.882813 73.274687 
" style="fill: none; stroke: #988ed5; stroke-width: 1.5; stroke-linecap: square"/>
    </g>
    <g id="text_23">
     <!-- Network.node[2].lnk[0] -->
     <g transform="translate(681.882813 76.774687) scale(0.1 -0.1)">
      <use xlink:href="#DejaVuSans-4e"/>
      <use xlink:href="#DejaVuSans-65" x="74.804688"/>
      <use xlink:href="#DejaVuSans-74" x="136.328125"/>
      <use xlink:href="#DejaVuSans-77" x="175.537109"/>
      <use xlink:href="#DejaVuSans-6f" x="257.324219"/>
      <use xlink:href="#DejaVuSans-72" x="318.505859"/>
      <use xlink:href="#DejaVuSans-6b" x="359.619141"/>
      <use xlink:href="#DejaVuSans-2e" x="417.529297"/>
      <use xlink:href="#DejaVuSans-6e" x="449.316406"/>
      <use xlink:href="#DejaVuSans-6f" x="512.695312"/>
      <use xlink:href="#DejaVuSans-64" x="573.876953"/>
      <use xlink:href="#DejaVuSans-65" x="637.353516"/>
      <use xlink:href="#DejaVuSans-5b" x="698.876953"/>
      <use xlink:href="#DejaVuSans-32" x="737.890625"/>
      <use xlink:href="#DejaVuSans-5d" x="801.513672"/>
      <use xlink:href="#DejaVuSans-2e" x="840.527344"/>
      <use xlink:href="#DejaVuSans-6c" x="872.314453"/>
      <use xlink:href="#DejaVuSans-6e" x="900.097656"/>
      <use xlink:href="#DejaVuSans-6b" x="963.476562"/>
      <use xlink:href="#DejaVuSans-5b" x="1021.386719"/>
      <use xlink:href="#DejaVuSans-30" x="1060.400391"/>
      <use xlink:href="#DejaVuSans-5d" x="1124.023438"/>
     </g>
    </g>
    <g id="line2d_43">
     <path d="M 653.882813 87.952812 
L 663.882813 87.952812 
L 673.882813 87.952812 
" style="fill: none; stroke: #777777; stroke-width: 1.5; stroke-linecap: square"/>
    </g>
    <g id="text_24">
     <!-- Network.node[6].lnk[0] -->
     <g transform="translate(681.882813 91.452812) scale(0.1 -0.1)">
      <defs>
       <path id="DejaVuSans-36" d="M 2113 2584 
Q 1688 2584 1439 2293 
Q 1191 2003 1191 1497 
Q 1191 994 1439 701 
Q 1688 409 2113 409 
Q 2538 409 2786 701 
Q 3034 994 3034 1497 
Q 3034 2003 2786 2293 
Q 2538 2584 2113 2584 
z
M 3366 4563 
L 3366 3988 
Q 3128 4100 2886 4159 
Q 2644 4219 2406 4219 
Q 1781 4219 1451 3797 
Q 1122 3375 1075 2522 
Q 1259 2794 1537 2939 
Q 1816 3084 2150 3084 
Q 2853 3084 3261 2657 
Q 3669 2231 3669 1497 
Q 3669 778 3244 343 
Q 2819 -91 2113 -91 
Q 1303 -91 875 529 
Q 447 1150 447 2328 
Q 447 3434 972 4092 
Q 1497 4750 2381 4750 
Q 2619 4750 2861 4703 
Q 3103 4656 3366 4563 
z
" transform="scale(0.015625)"/>
      </defs>
      <use xlink:href="#DejaVuSans-4e"/>
      <use xlink:href="#DejaVuSans-65" x="74.804688"/>
      <use xlink:href="#DejaVuSans-74" x="136.328125"/>
      <use xlink:href="#DejaVuSans-77" x="175.537109"/>
      <use xlink:href="#DejaVuSans-6f" x="257.324219"/>
      <use xlink:href="#DejaVuSans-72" x="318.505859"/>
      <use xlink:href="#DejaVuSans-6b" x="359.619141"/>
      <use xlink:href="#DejaVuSans-2e" x="417.529297"/>
      <use xlink:href="#DejaVuSans-6e" x="449.316406"/>
      <use xlink:href="#DejaVuSans-6f" x="512.695312"/>
      <use xlink:href="#DejaVuSans-64" x="573.876953"/>
      <use xlink:href="#DejaVuSans-65" x="637.353516"/>
      <use xlink:href="#DejaVuSans-5b" x="698.876953"/>
      <use xlink:href="#DejaVuSans-36" x="737.890625"/>
      <use xlink:href="#DejaVuSans-5d" x="801.513672"/>
      <use xlink:href="#DejaVuSans-2e" x="840.527344"/>
      <use xlink:href="#DejaVuSans-6c" x="872.314453"/>
      <use xlink:href="#DejaVuSans-6e" x="900.097656"/>
      <use xlink:href="#DejaVuSans-6b" x="963.476562"/>
      <use xlink:href="#DejaVuSans-5b" x="1021.386719"/>
      <use xlink:href="#DejaVuSans-30" x="1060.400391"/>
      <use xlink:href="#DejaVuSans-5d" x="1124.023438"/>
     </g>
    </g>
    <g id="line2d_44">
     <path d="M 653.882813 102.630938 
L 663.882813 102.630938 
L 673.882813 102.630938 
" style="fill: none; stroke: #fbc15e; stroke-width: 1.5; stroke-linecap: square"/>
    </g>
    <g id="text_25">
     <!-- Network.node[7].lnk[0] -->
     <g transform="translate(681.882813 106.130938) scale(0.1 -0.1)">
      <use xlink:href="#DejaVuSans-4e"/>
      <use xlink:href="#DejaVuSans-65" x="74.804688"/>
      <use xlink:href="#DejaVuSans-74" x="136.328125"/>
      <use xlink:href="#DejaVuSans-77" x="175.537109"/>
      <use xlink:href="#DejaVuSans-6f" x="257.324219"/>
      <use xlink:href="#DejaVuSans-72" x="318.505859"/>
      <use xlink:href="#DejaVuSans-6b" x="359.619141"/>
      <use xlink:href="#DejaVuSans-2e" x="417.529297"/>
      <use xlink:href="#DejaVuSans-6e" x="449.316406"/>
      <use xlink:href="#DejaVuSans-6f" x="512.695312"/>
      <use xlink:href="#DejaVuSans-64" x="573.876953"/>
      <use xlink:href="#DejaVuSans-65" x="637.353516"/>
      <use xlink:href="#DejaVuSans-5b" x="698.876953"/>
      <use xlink:href="#DejaVuSans-37" x="737.890625"/>
      <use xlink:href="#DejaVuSans-5d" x="801.513672"/>
      <use xlink:href="#DejaVuSans-2e" x="840.527344"/>
      <use xlink:href="#DejaVuSans-6c" x="872.314453"/>
      <use xlink:href="#DejaVuSans-6e" x="900.097656"/>
      <use xlink:href="#DejaVuSans-6b" x="963.476562"/>
      <use xlink:href="#DejaVuSans-5b" x="1021.386719"/>
      <use xlink:href="#DejaVuSans-30" x="1060.400391"/>
      <use xlink:href="#DejaVuSans-5d" x="1124.023438"/>
     </g>
    </g>
   </g>
  </g>
 </g>
 <defs>
  <clipPath id="pb612870589">
   <rect x="96.414063" y="30.82" width="710.773438" height="305.028667"/>
  </clipPath>
 </defs>
</svg>
